<?xml version="1.0" encoding="utf-8"?>
<!-- Generator: Adobe Illustrator 22.0.1, SVG Export Plug-In . SVG Version: 6.00 Build 0)  -->
<svg version="1.1" id="Слой_1" xmlns="http://www.w3.org/2000/svg" xmlns:xlink="http://www.w3.org/1999/xlink" x="0px" y="0px"
	 viewBox="0 0 131.6 39.2" style="enable-background:new 0 0 131.6 39.2;" xml:space="preserve">
<style type="text/css">
	.st0{fill:#C92A3E;}
	.st1{enable-background:new    ;}
	.st2{fill:#FFFFFF;}
	.st3{fill:#E5332C;}
</style>
<g transform="translate(-1537 -49)">
	<path class="st0" d="M1562.9,63.5l-15-8.6l6-3.5l15,8.6v17.3h2V58.8h0l-17-9.8l-10.1,5.8l17,9.8v17.3l-6.9,4V68.6l-17-9.8l0,0v0h0
		v18.4h2l0-14.9l12.9,7.5V87l1,0.6l1.1,0.6l0,0l8.9-5.1V63.5z"/>
	<g class="st1">
		<path class="st2" d="M1587.2,60.8h-5.5v-2h13.3v2h-5.5v14.1h-2.3V60.8z"/>
		<path class="st2" d="M1596.9,60c-0.3-0.3-0.4-0.6-0.4-1s0.1-0.7,0.4-1s0.6-0.4,1.1-0.4s0.8,0.1,1.1,0.4c0.3,0.3,0.4,0.6,0.4,1
			c0,0.4-0.1,0.8-0.4,1c-0.3,0.3-0.6,0.4-1.1,0.4S1597.2,60.3,1596.9,60z M1596.9,62.7h2.2v12.2h-2.2V62.7z"/>
		<path class="st2" d="M1614.3,69.6h-9.9c0.1,1.1,0.6,1.9,1.4,2.6c0.8,0.7,1.8,1,3,1c1.5,0,2.6-0.5,3.5-1.5l1.2,1.4
			c-0.6,0.6-1.2,1.1-2.1,1.5c-0.8,0.3-1.7,0.5-2.7,0.5c-1.3,0-2.4-0.3-3.4-0.8c-1-0.5-1.8-1.3-2.3-2.2c-0.5-1-0.8-2-0.8-3.2
			c0-1.2,0.3-2.2,0.8-3.2c0.5-1,1.3-1.7,2.2-2.2c0.9-0.5,2-0.8,3.1-0.8c1.2,0,2.2,0.3,3.1,0.8c0.9,0.5,1.6,1.3,2.1,2.2
			c0.5,1,0.8,2,0.8,3.3C1614.3,69.1,1614.3,69.3,1614.3,69.6z M1605.7,65.5c-0.7,0.6-1.1,1.5-1.3,2.5h7.8c-0.1-1-0.5-1.9-1.3-2.5
			c-0.7-0.7-1.6-1-2.7-1C1607.3,64.5,1606.4,64.8,1605.7,65.5z"/>
		<path class="st2" d="M1618,74.7c-0.9-0.3-1.6-0.6-2.2-1l0.9-1.7c0.5,0.4,1.2,0.7,2,0.9c0.8,0.2,1.5,0.3,2.3,0.3
			c1.9,0,2.9-0.6,2.9-1.7c0-0.4-0.1-0.7-0.4-0.9s-0.6-0.4-1-0.5c-0.4-0.1-0.9-0.2-1.7-0.3c-1-0.2-1.8-0.3-2.4-0.5s-1.2-0.5-1.6-1
			c-0.4-0.5-0.7-1.1-0.7-2c0-1.1,0.5-2,1.4-2.7s2.2-1,3.7-1c0.8,0,1.6,0.1,2.4,0.3s1.5,0.5,2,0.8l-0.9,1.7c-1-0.6-2.2-1-3.5-1
			c-0.9,0-1.6,0.2-2.1,0.5c-0.5,0.3-0.7,0.7-0.7,1.2c0,0.4,0.1,0.7,0.4,0.9c0.3,0.2,0.6,0.4,1,0.5s1,0.2,1.7,0.4
			c1,0.2,1.8,0.3,2.4,0.5c0.6,0.2,1.1,0.5,1.6,1c0.4,0.5,0.6,1.1,0.6,1.9c0,1.1-0.5,2-1.4,2.6c-0.9,0.7-2.2,1-3.9,1
			C1619.9,75.1,1618.9,74.9,1618,74.7z"/>
	</g>
	<g class="st1">
		<path class="st3" d="M1628.3,74.6c-0.3-0.3-0.5-0.7-0.5-1.1c0-0.4,0.2-0.8,0.5-1.1s0.7-0.4,1.1-0.4c0.4,0,0.8,0.1,1.1,0.4
			c0.3,0.3,0.4,0.7,0.4,1.1s-0.1,0.8-0.4,1.1s-0.7,0.4-1.1,0.4C1629,75.1,1628.7,74.9,1628.3,74.6z"/>
	</g>
	<g class="st1">
		<path class="st2" d="M1634.5,58.8h6.8c1.7,0,3.2,0.3,4.5,1s2.3,1.6,3.1,2.8c0.7,1.2,1.1,2.6,1.1,4.2s-0.4,3-1.1,4.2
			c-0.7,1.2-1.8,2.2-3.1,2.8s-2.8,1-4.5,1h-6.8V58.8z M1641.1,72.9c1.3,0,2.5-0.3,3.4-0.8c1-0.5,1.8-1.2,2.3-2.1
			c0.5-0.9,0.8-2,0.8-3.2s-0.3-2.2-0.8-3.2c-0.5-0.9-1.3-1.6-2.3-2.1c-1-0.5-2.1-0.8-3.4-0.8h-4.3v12.1H1641.1z"/>
		<path class="st2" d="M1666.5,68c0.5,0.7,0.8,1.5,0.8,2.6c0,1.4-0.5,2.5-1.6,3.2s-2.6,1.1-4.6,1.1h-7.7V58.8h7.2
			c1.8,0,3.3,0.4,4.3,1.1c1,0.7,1.5,1.8,1.5,3.1c0,0.8-0.2,1.6-0.6,2.2c-0.4,0.6-0.9,1.1-1.6,1.4C1665.2,66.8,1666,67.3,1666.5,68z
			 M1655.8,60.7v5.2h4.7c1.2,0,2.1-0.2,2.7-0.7c0.6-0.4,1-1.1,1-1.9c0-0.8-0.3-1.5-1-1.9c-0.6-0.4-1.5-0.7-2.7-0.7H1655.8z
			 M1664,72.4c0.7-0.4,1-1.1,1-2c0-1.8-1.3-2.7-3.9-2.7h-5.3v5.4h5.3C1662.4,73.1,1663.3,72.9,1664,72.4z"/>
	</g>
</g>
</svg>
