<svg xmlns="http://www.w3.org/2000/svg" viewBox="1139 8856 26.384 26.4"><defs><style>.a{fill:#c92a3e;}</style></defs><g transform="translate(260.031 -25)"><path class="a" d="M13.192,26.4A13.2,13.2,0,1,1,26.384,13.192,13.2,13.2,0,0,1,13.192,26.4Zm3.783-13.833a2.4,2.4,0,0,0,1.316-2.6C18.11,8.126,16.4,7.517,14.425,7.336V4.787H13.192V7.27l-1.217.016V4.8H10.79v2.55c-.329,0-1.151.016-1.464.016V7.353H7.221V9.014S8.8,9,8.784,9.014a.772.772,0,0,1,.872.674v2.895l.164.016H9.655v4.063a.549.549,0,0,1-.576.51c.016.016-1.563,0-1.563,0L7.2,19.015h1.99l1.579.016v2.582h1.151v-2.55c.428.016.822.016,1.217.016v2.533h1.349V19.047c2.582-.148,4.458-.806,4.671-3.257a2.63,2.63,0,0,0-2.188-3.224ZM11.859,9.113c.872,0,3.586-.28,3.586,1.546,0,1.744-2.714,1.546-3.586,1.546V9.113Zm0,8.06v-3.4c1.036,0,4.293-.3,4.293,1.711,0,1.908-3.257,1.694-4.293,1.694Zm0,0" transform="translate(878.97 8881)"/></g></svg>