<svg xmlns="http://www.w3.org/2000/svg" viewBox="1094 8856.602 27.028 26.4"><defs><style>.a{fill:#c92a3e;}</style></defs><g transform="translate(255.649 -25)"><path class="a" d="M25.218,6.734A13.429,13.429,0,0,0,20.3,1.818,13.163,13.163,0,0,0,13.514,0,13.231,13.231,0,0,0,6.726,1.811,13.429,13.429,0,0,0,1.811,6.726,13.231,13.231,0,0,0,0,13.514a13.136,13.136,0,0,0,2.581,7.944,13.239,13.239,0,0,0,6.657,4.885.775.775,0,0,0,.7-.123.679.679,0,0,0,.231-.524c0-.039,0-.354-.008-.948s-.008-1.117-.008-1.564l-.408.069a5.08,5.08,0,0,1-.978.062,7.676,7.676,0,0,1-1.225-.123,2.8,2.8,0,0,1-1.179-.524,2.223,2.223,0,0,1-.77-1.079l-.177-.408a4.114,4.114,0,0,0-.555-.894,2.129,2.129,0,0,0-.763-.67l-.123-.085a1.485,1.485,0,0,1-.231-.208,1.128,1.128,0,0,1-.162-.247c-.039-.085-.008-.146.085-.2a1.119,1.119,0,0,1,.509-.077l.354.054a2.519,2.519,0,0,1,.871.424,2.793,2.793,0,0,1,.855.917,3.12,3.12,0,0,0,.978,1.1,2.042,2.042,0,0,0,1.156.378,5.34,5.34,0,0,0,1-.085,3.689,3.689,0,0,0,.794-.262,2.858,2.858,0,0,1,.863-1.811,12.093,12.093,0,0,1-1.8-.316,7.205,7.205,0,0,1-1.657-.686,4.733,4.733,0,0,1-1.418-1.179,5.606,5.606,0,0,1-.925-1.849,8.836,8.836,0,0,1-.362-2.643A5.159,5.159,0,0,1,6.272,9.215a4.745,4.745,0,0,1,.123-3.59,2.454,2.454,0,0,1,1.51.239,10.887,10.887,0,0,1,1.472.678c.308.185.562.347.747.478a12.4,12.4,0,0,1,3.382-.455,12.7,12.7,0,0,1,3.382.455l.67-.424a9.326,9.326,0,0,1,1.618-.778A2.312,2.312,0,0,1,20.6,5.624a4.646,4.646,0,0,1,.139,3.59,5.133,5.133,0,0,1,1.387,3.629,8.962,8.962,0,0,1-.362,2.65,5.462,5.462,0,0,1-.932,1.849,4.963,4.963,0,0,1-1.425,1.171,7.068,7.068,0,0,1-1.657.686,12.094,12.094,0,0,1-1.8.316,3.147,3.147,0,0,1,.917,2.5v3.714a.7.7,0,0,0,.223.524.759.759,0,0,0,.693.123,13.246,13.246,0,0,0,6.665-4.885,13.136,13.136,0,0,0,2.581-7.944,13.214,13.214,0,0,0-1.811-6.811Zm0,0" transform="translate(838.351 8881.602)"/></g></svg>