<svg xmlns="http://www.w3.org/2000/svg" viewBox="1050 8856.602 26.397 26.397"><defs><style>.a{fill:#c92a3e;}.b{fill:#fff;}</style></defs><g transform="translate(250.041 -25)"><circle class="a" cx="13.199" cy="13.199" r="13.199" transform="translate(799.959 8881.602)"/><path class="b" d="M18.67,7.133h0a2.345,2.345,0,0,0-.6-1.37,2.5,2.5,0,0,0-1.256-.78H16.8a2.722,2.722,0,0,0-.632-.082,2.422,2.422,0,0,0-1.354.4,2.724,2.724,0,0,0-.3.213c-.041-.025-.09-.049-.115-.066l-.016-.008h0A10,10,0,0,0,10.045,4.22a3.989,3.989,0,0,1,.328-1.74h0a1.2,1.2,0,0,1,.936-.64h0a2.075,2.075,0,0,1,.23-.008,3.919,3.919,0,0,1,1.551.4v.082a2.1,2.1,0,0,0,.6,1.436,2.128,2.128,0,0,0,1.387.673c.082.008.172.016.254.016a2.257,2.257,0,0,0,1.453-.558,2.085,2.085,0,0,0,.73-1.4h0a2.318,2.318,0,0,0,.016-.238,2.158,2.158,0,0,0-.377-1.2,2.077,2.077,0,0,0-.96-.78h-.008A2.063,2.063,0,0,0,15.33.1a2.715,2.715,0,0,0-.812.131H14.5a2.29,2.29,0,0,0-1.083.886A5.1,5.1,0,0,0,11.538.724a4.394,4.394,0,0,0-.73.066h0A2.363,2.363,0,0,0,9.331,1.971a4.94,4.94,0,0,0-.476,2.24A9.713,9.713,0,0,0,4.4,5.4a1.6,1.6,0,0,0-.238.115,2.874,2.874,0,0,0-.722-.41h0a2.515,2.515,0,0,0-.911-.164,1.581,1.581,0,0,0-.2.008H2.3a2.26,2.26,0,0,0-1.608.722A2.372,2.372,0,0,0,0,7.313v.008A2.392,2.392,0,0,0,.41,8.544a2.526,2.526,0,0,0,.878.812,4,4,0,0,0-.033.542,4.409,4.409,0,0,0,.648,2.29,6.963,6.963,0,0,0,3.381,2.7h0a10.792,10.792,0,0,0,4.038.763,11.814,11.814,0,0,0,2.741-.328h0A7.862,7.862,0,0,0,16.495,12.6h0a4.592,4.592,0,0,0,.927-2.708c0-.181-.016-.361-.033-.542a2.478,2.478,0,0,0,.895-.829,2.265,2.265,0,0,0,.386-1.256ZM1.641,8.175a1.562,1.562,0,0,1-.279-.336,1.034,1.034,0,0,1-.156-.533V7.231h0a1.1,1.1,0,0,1,.386-.788A1.275,1.275,0,0,1,2.4,6.1h.016c.033,0,.066-.008.107-.008a1.551,1.551,0,0,1,.615.156A5.679,5.679,0,0,0,1.641,8.175ZM5.482,9.636a1.243,1.243,0,0,1-.23-.7,1.013,1.013,0,0,1,.057-.345h0A1.207,1.207,0,0,1,6.2,7.8h0a1.253,1.253,0,0,1,.246-.025,1.22,1.22,0,0,1,.821.328,1.112,1.112,0,0,1,.369.812v.074a1.064,1.064,0,0,1-.377.812,1.22,1.22,0,0,1-.821.328,1.081,1.081,0,0,1-.361-.066H6.065A1.168,1.168,0,0,1,5.482,9.636Zm7.386,2.552a.552.552,0,0,1-.14.254.819.819,0,0,1-.205.172c-.148.09-.3.156-.419.222h-.016a6.811,6.811,0,0,1-2.88.648,5.521,5.521,0,0,1-3.127-.911.533.533,0,0,1-.213-.213.62.62,0,0,1,.016-.615.526.526,0,0,1,.263-.213h0a.008.008,0,0,0,.008-.008.535.535,0,0,1,.213-.049.769.769,0,0,1,.238.049,1.114,1.114,0,0,1,.2.107,2.848,2.848,0,0,0,.328.205h0a4.736,4.736,0,0,0,2.093.476,5.428,5.428,0,0,0,2.757-.763.521.521,0,0,1,.279-.082.613.613,0,0,1,.32.1.6.6,0,0,1,.222.254.559.559,0,0,1,.057.23A.207.207,0,0,1,12.868,12.188Zm.312-2.544a1.116,1.116,0,0,1-.6.419h-.008a1.013,1.013,0,0,1-.345.057,1.257,1.257,0,0,1-.755-.263,1.1,1.1,0,0,1-.419-.689h0a1.019,1.019,0,0,1-.025-.222,1.14,1.14,0,0,1,.222-.673,1.153,1.153,0,0,1,.558-.427h0a1.115,1.115,0,0,1,.394-.074,1.279,1.279,0,0,1,.689.205,1.119,1.119,0,0,1,.443.574v.008h0a1.029,1.029,0,0,1,.074.377A1.137,1.137,0,0,1,13.18,9.644Zm4.136-1.822a1.294,1.294,0,0,1-.279.353,5.92,5.92,0,0,0-1.51-1.937,1.446,1.446,0,0,1,1.321.025,1.228,1.228,0,0,1,.492.509h0a.971.971,0,0,1,.115.476A1.066,1.066,0,0,1,17.316,7.822Z" transform="translate(803.415 8885.876)"/></g></svg>