<svg xmlns="http://www.w3.org/2000/svg" viewBox="961 8856.602 26.397 26.397"><defs><style>.a{fill:#c92a3e;}.b{fill:#fff;}</style></defs><g transform="translate(235.613 -25)"><circle class="a" cx="13.199" cy="13.199" r="13.199" transform="translate(725.387 8881.602)"/><path class="b" d="M292.882,34.766a6.533,6.533,0,0,1-1.927.53,3.232,3.232,0,0,0,1.469-1.855,7.308,7.308,0,0,1-2.12.819,3.307,3.307,0,0,0-2.433-1.06,3.341,3.341,0,0,0-3.348,3.348,2.818,2.818,0,0,0,.1.771,9.5,9.5,0,0,1-6.888-3.492,3.334,3.334,0,0,0-.458,1.686,3.39,3.39,0,0,0,1.493,2.794,3.556,3.556,0,0,1-1.517-.409v.048a3.357,3.357,0,0,0,2.673,3.276,3.616,3.616,0,0,1-.891.12,5.085,5.085,0,0,1-.626-.048,3.351,3.351,0,0,0,3.131,2.312,6.733,6.733,0,0,1-4.143,1.421c-.265,0-.53-.024-.795-.048a9.524,9.524,0,0,0,14.644-8.02v-.434a8.123,8.123,0,0,0,1.638-1.758Zm0,0" transform="translate(453.844 8854.977)"/></g></svg>