<svg xmlns="http://www.w3.org/2000/svg" viewBox="-402 1000 57.951 51.912"><defs><style>.a{fill:#2c3e4f;}.b{fill:#fff;stroke:#fff;stroke-linecap:round;stroke-linejoin:round;stroke-miterlimit:10;}.c{fill:#c92a3e;}</style></defs><g transform="translate(-1514.049 -36.938)"><path class="a" d="M.545,27.013a.825.825,0,0,1-.435-.218.538.538,0,0,1,.109-.762l3.265-2.721a.466.466,0,0,1,.762.109.525.525,0,0,1-.109.653L.871,26.795C.763,26.9.654,27.013.545,27.013Z" transform="translate(1112.058 1038.983)"/><path class="a" d="M6.706,27.006A.4.4,0,0,1,6.38,26.9L3.115,24.176a.67.67,0,0,1-.109-.762.67.67,0,0,1,.762-.109l3.265,2.721a.466.466,0,0,1,.109.762A.565.565,0,0,1,6.706,27.006Z" transform="translate(1112.318 1038.99)"/><path class="a" d="M49.748,25.013a.825.825,0,0,1-.435-.218.466.466,0,0,1,.109-.762l3.265-2.721a.544.544,0,0,1,.653.871L50.074,24.9C49.965,24.9,49.856,25.013,49.748,25.013Z" transform="translate(1116.4 1038.807)"/><path class="a" d="M50.006,25.006a.4.4,0,0,1-.326-.109l-3.265-2.721a.544.544,0,0,1,.653-.871l3.265,2.721a.67.67,0,0,1,.109.762C50.224,24.9,50.115,25.006,50.006,25.006Z" transform="translate(1116.142 1038.813)"/><path class="a" d="M53.826,22.963c-.218,0-.544-.218-.544-.435a24.828,24.828,0,0,0-49.192,0,.48.48,0,0,1-.653.435A.48.48,0,0,1,3,22.31a25.931,25.931,0,0,1,51.368.109.583.583,0,0,1-.544.544Z" transform="translate(1112.322 1036.938)"/><path class="b" d="M49.7,20.6" transform="translate(1116.448 1038.757)"/><path class="b" d="M3.5,20.6" transform="translate(1112.368 1038.757)"/><path class="b" d="M3.5,27" transform="translate(1112.368 1039.322)"/><path class="b" d="M49.7,27" transform="translate(1116.448 1039.322)"/><path class="a" d="M28.684,49.575A26.007,26.007,0,0,1,3,27.155a.735.735,0,0,1,.435-.653.735.735,0,0,1,.653.435,24.828,24.828,0,0,0,49.192,0,.555.555,0,0,1,1.088.218A26.1,26.1,0,0,1,28.684,49.575Z" transform="translate(1112.324 1039.276)"/><path class="c" d="M27.536,25.411c-.109,0-.218,0-.218-.109L16.326,18.989c-.218-.109-.326-.218-.326-.435a.565.565,0,0,1,.218-.435L27.21,11.807a.494.494,0,0,1,.544,0l10.992,6.312a.435.435,0,0,1,.218.435.825.825,0,0,1-.218.435L27.754,25.3C27.645,25.411,27.645,25.411,27.536,25.411Zm-9.9-6.856,9.9,5.768,9.9-5.768-9.9-5.768Z" transform="translate(1113.472 1037.973)"/><path class="a" d="M38.746,18.435l-.871.435h0V30.3l-9.9,5.768V24.639h0l-.218.109a.38.38,0,0,0-.218.109s-.218,0-.218-.109l-.218-.109h0V36.175L17.088,30.407V18.979h0l-.871-.435C16.109,18.326,16,18.218,16,18V30.733a.565.565,0,0,0,.218.435L27.21,37.481a.38.38,0,0,1,.218.109s.218,0,.218-.109l10.992-6.312a.434.434,0,0,0,.218-.435V18C39.072,18.218,38.963,18.326,38.746,18.435Z" transform="translate(1113.472 1038.527)"/></g></svg>