<svg xmlns="http://www.w3.org/2000/svg" viewBox="-853 988 61.571 63.884"><defs><style>.a{fill:#2c3e4f;}.b{fill:#c92a3e;}</style></defs><g transform="translate(-1550.399 -48.938)"><path class="a" d="M34.9,51.912A25.956,25.956,0,1,1,60.8,25.9,25.987,25.987,0,0,1,34.9,51.912Zm0-50.824A24.814,24.814,0,1,0,59.715,25.9,24.872,24.872,0,0,0,34.9,1.088Z" transform="translate(698.167 1036.938)"/><path class="a" d="M33.727,37.632c-.109,0-.218,0-.218-.109L22.518,31.211a.434.434,0,0,1-.218-.435V18.042a.565.565,0,0,1,.218-.435.494.494,0,0,1,.544,0l10.992,6.312a.435.435,0,0,1,.218.435V37.087a.565.565,0,0,1-.218.435A.4.4,0,0,1,33.727,37.632ZM23.279,30.449l9.9,5.768V24.681l-9.9-5.768V30.449Z" transform="translate(699.342 1038.486)"/><path class="a" d="M32.835,37.632c-.109,0-.218,0-.218-.109a.435.435,0,0,1-.218-.435V24.354a.565.565,0,0,1,.218-.435L43.61,17.607a.494.494,0,0,1,.544,0,.435.435,0,0,1,.218.435V30.775a.565.565,0,0,1-.218.435L33.162,37.523A.4.4,0,0,1,32.835,37.632Zm.544-12.951V36.108l9.9-5.768V19.021Zm10.448,6.095Z" transform="translate(700.233 1038.486)"/><path class="a" d="M33.727,25.411c-.109,0-.218,0-.218-.109L22.518,18.989a.435.435,0,0,1-.218-.435.825.825,0,0,1,.218-.435L33.51,11.807a.494.494,0,0,1,.544,0l10.992,6.312a.435.435,0,0,1,.218.435.825.825,0,0,1-.218.435L34.054,25.3A.4.4,0,0,1,33.727,25.411Zm-9.9-6.856,9.9,5.768,9.9-5.768-9.9-5.768Z" transform="translate(699.342 1037.973)"/><path class="b" d="M.542,60.241a.654.654,0,0,1-.435-.109,1.192,1.192,0,0,1,0-.871L17.955,41.413a.539.539,0,1,1,.762.762L.977,60.023A.825.825,0,0,1,.542,60.241Z" transform="translate(697.374 1040.581)"/></g></svg>