<svg xmlns="http://www.w3.org/2000/svg" viewBox="-680.065 5710.673 59.616 61.672"><defs><style>.a{fill:#93d1e5;}</style></defs><g transform="translate(-1537 -49)"><path class="a" d="M6.167,61.672A6.254,6.254,0,0,1,0,55.5V30.836H10.279V0H59.616V55.5a6.254,6.254,0,0,1-6.167,6.167ZM12.334,55.5c0,.257-.128.642-.128,1.028v.129a2.425,2.425,0,0,1-.257,1.028v.128a5.646,5.646,0,0,0-.514.9.126.126,0,0,0-.128.128,2.693,2.693,0,0,1-.514.771H53.449A4.059,4.059,0,0,0,57.56,55.5V14.39H12.334Zm-10.279,0a4.059,4.059,0,0,0,4.112,4.112A4.059,4.059,0,0,0,10.279,55.5V32.892H2.056Zm10.279-43.17H57.56V2.056H12.334ZM39.059,55.5V41.115h14.39V55.5Zm2.056-2.056H51.393V43.17H41.115ZM18.5,55.5a1.028,1.028,0,1,1,0-2.056H33.919a1.028,1.028,0,1,1,0,2.056Zm0-6.167a1.028,1.028,0,0,1,0-2.056H33.919a1.028,1.028,0,0,1,0,2.056Zm0-6.167a1.028,1.028,0,0,1,0-2.056H33.919a1.028,1.028,0,0,1,0,2.056ZM18.5,37a1.028,1.028,0,0,1,0-2.056H52.421a1.028,1.028,0,0,1,0,2.056Zm17.473-6.167a1.028,1.028,0,0,1,0-2.056H52.421a1.028,1.028,0,0,1,0,2.056Zm-19.529,0V16.446h14.39V30.836ZM18.5,28.78H28.78V18.5H18.5Zm17.473-4.111a1.028,1.028,0,0,1,0-2.056H52.421a1.028,1.028,0,0,1,0,2.056Zm0-6.168a1.028,1.028,0,1,1,0-2.056H52.421a1.028,1.028,0,0,1,0,2.056ZM22.613,10.279V4.111H47.282v6.167Zm2.056-2.056H45.226V6.167H24.669Z" transform="translate(856.935 5759.673)"/></g></svg>