<svg xmlns="http://www.w3.org/2000/svg" viewBox="-328.564 5708.351 56.533 60.772"><defs><style>.a{fill:#93d1e5;}</style></defs><g transform="translate(-1537 -49)"><path class="a" d="M38.93,43.87a9.7,9.7,0,0,0-1.413,1.8L19.786,34.877a9.387,9.387,0,0,0,.771-3.854,10.311,10.311,0,0,0-.771-3.854L37.517,16.5a10.208,10.208,0,1,0-1.67-5.525,10.549,10.549,0,0,0,.642,3.6L18.887,25.5a10.15,10.15,0,0,0-8.608-4.625,10.279,10.279,0,0,0,0,20.557A10.15,10.15,0,0,0,18.887,36.8L36.618,47.6a11.147,11.147,0,0,0-.642,3.6,10.632,10.632,0,0,0,2.955,7.324,10.552,10.552,0,0,0,14.647,0,10.186,10.186,0,0,0,2.955-7.324,10.632,10.632,0,0,0-2.955-7.324,10.471,10.471,0,0,0-14.647,0ZM46.254,2.884a8.281,8.281,0,0,1,8.223,8.223,8.223,8.223,0,1,1-16.446,0,8.281,8.281,0,0,1,8.223-8.223ZM10.279,39.373a8.281,8.281,0,0,1-8.223-8.223,8.2,8.2,0,0,1,8.223-8.223,8.223,8.223,0,0,1,0,16.446Zm41.757,17.6A8.177,8.177,0,1,1,40.472,45.412a8.4,8.4,0,0,1,5.782-2.441,7.874,7.874,0,0,1,5.782,2.441,8.067,8.067,0,0,1,0,11.563Zm0,0" transform="translate(1208.436 5756.65)"/></g></svg>