<svg xmlns="http://www.w3.org/2000/svg" viewBox="-506.6 5708.041 61.672 61.672"><defs><style>.a{fill:#93d1e5;}</style></defs><g transform="translate(-1537 -49)"><path class="a" d="M35.975,0C24.54,0,14.776,2.7,11.563,6.681,4.882,8.351.9,11.05.128,13.876.128,14,0,14.262,0,14.39V52.421a.971.971,0,0,0,.128.514c1.156,5.011,12.077,8.737,25.568,8.737,11.563,0,21.2-2.7,24.412-6.681,6.553-1.542,10.664-4.24,11.435-7.2.128-.128.128-.257.128-.514V9.765C61.672,5.011,52.678,0,35.975,0ZM49.081,40.472a.449.449,0,0,1-.128.257c-.128.128-.128.257-.257.385l-.257.257-.385.385-.257.257c-.128.128-.385.257-.514.385s-.128.128-.257.128c-.257.128-.514.385-.771.514-.128,0-.128.128-.257.128a7.628,7.628,0,0,1-1.028.514h-.128c-.385.128-.771.385-1.156.514h0a41.133,41.133,0,0,1-8.737,2.184h0c-.642.128-1.413.128-2.056.257h-.385a9.724,9.724,0,0,1-1.927.128h-.9a4.818,4.818,0,0,0-1.413.128H23.384a4.818,4.818,0,0,1-1.413-.128h-.9c-.642,0-1.285-.128-1.927-.128h-.385c-.771-.128-1.413-.128-2.056-.257h0A41.133,41.133,0,0,1,7.966,44.2h0c-.385-.128-.771-.385-1.156-.514H6.681c-.385-.128-.642-.385-1.028-.514-.128,0-.128-.128-.257-.128a2.688,2.688,0,0,1-.771-.514C4.5,42.4,4.5,42.4,4.368,42.4c-.514,0-.642-.257-.9-.385l-.257-.257-.385-.385-.257-.257c-.128-.128-.128-.257-.257-.385a.449.449,0,0,0-.128-.257c0-.128-.128-.257-.128-.385s-.128-.385-.128-.514v-8.48l.128.128c.257.257.514.385.771.642,3.854,2.955,11.563,5.268,22.87,5.268,11.178,0,18.887-2.313,22.742-5.139a3.9,3.9,0,0,1,.9-.642v8.48a.772.772,0,0,1-.128.514c0-.128,0,0-.128.128ZM2.7,19.272a7.127,7.127,0,0,0,1.028.771c.128,0,.128.128.257.128.257.128.642.385.9.514.128.128.257.128.385.257.385.128.771.385,1.156.514.128,0,.128,0,.257.128.514.257,1.028.385,1.542.642.128,0,.257.128.514.128.385.128.9.257,1.285.385.128,0,.385.128.514.128a10.7,10.7,0,0,1,1.927.514h.257c.514.128,1.156.257,1.8.385.257,0,.385.128.642.128.642.128,1.156.128,1.8.257a.971.971,0,0,1,.514.128c.771.128,1.542.128,2.313.257h.642c.642,0,1.285.128,2.056.128h6.938c.642,0,1.285-.128,2.056-.128h.642c.771-.128,1.542-.128,2.313-.257a.971.971,0,0,0,.514-.128c.642-.128,1.156-.128,1.8-.257.257,0,.385-.128.642-.128.642-.128,1.156-.257,1.8-.385h.257a10.7,10.7,0,0,0,1.927-.514c.128,0,.385-.128.514-.128.514-.128.9-.257,1.285-.385.128,0,.257-.128.514-.128a7.86,7.86,0,0,0,1.542-.642c.128,0,.128,0,.257-.128.385-.128.771-.385,1.156-.514.128-.128.257-.128.385-.257a5.586,5.586,0,0,0,.9-.514c.128,0,.128-.128.257-.128.385-.257.642-.514,1.028-.771.128-.128.128-.128.257-.128l.385-.385v8.48a.773.773,0,0,1-.128.514c0,.128-.128.257-.128.385a.449.449,0,0,1-.128.257c-.128.128-.128.257-.257.385l-.257.257-.385.385-.257.257c-.128.128-.385.257-.514.385-.128,0-.128.128-.257.128a2.688,2.688,0,0,0-.771.514c-.128,0-.128.128-.257.128a7.629,7.629,0,0,1-1.028.514h-.128c-.385.128-.771.385-1.156.514h0a41.133,41.133,0,0,1-8.737,2.184h0c-.642.128-1.413.128-2.056.257H33.02c-.642,0-1.285.128-1.927.128h-.9a4.817,4.817,0,0,0-1.413.128H23.9a4.817,4.817,0,0,1-1.413-.128h-.9c-.642,0-1.285-.128-1.927-.128h-.385c-.771-.128-1.413-.128-2.056-.257h0A41.133,41.133,0,0,1,8.48,31.864h0c-.385-.128-.771-.385-1.156-.514a.126.126,0,0,1-.128-.128c-.385-.128-.642-.385-1.028-.514-1.028.257-1.028.128-1.156.128a2.688,2.688,0,0,1-.771-.514c-.128,0-.128-.128-.257-.128a1.774,1.774,0,0,1-.514-.385l-.257-.257-.385-.385-.257-.257c-.128-.128-.128-.257-.257-.385a.449.449,0,0,0-.128-.257c0-.128-.128-.257-.128-.385s-.128-.385-.128-.514v-8.48l.385.385c.257-.128.257,0,.385,0Zm48.7,20.943V30.065h.128l1.156-.385h0a21.668,21.668,0,0,0,6.938-3.469v8.737c0,.128,0,.257-.128.257v.128a.449.449,0,0,1-.128.257h0c-.9,1.67-3.6,3.341-7.452,4.5-.257,0-.385,0-.514.128Zm8.223-26.468v8.737c0,.128,0,.257-.128.257v.128c0,.128-.128.257-.128.385h0c-.9,1.67-3.6,3.341-7.452,4.5-.128,0-.257.128-.514.128V17.731c.128,0,.128,0,.257-.128.257-.128.514-.128.642-.257.128,0,.385-.128.514-.128.257-.128.514-.128.642-.257.128,0,.385-.128.514-.128.257-.128.514-.128.642-.257.128,0,.257-.128.385-.128l.771-.385c.128,0,.128-.128.257-.128a5.587,5.587,0,0,0,.9-.514h.128a2.688,2.688,0,0,0,.771-.514c.128,0,.128-.128.257-.128.128-.128.385-.257.514-.385l.257-.257a4.278,4.278,0,0,0,.771-.385ZM35.975,2.056c13.876,0,23.641,4.111,23.641,7.709v.514c0,.128,0,.128-.128.257a.126.126,0,0,1-.128.128c0,.128-.128.128-.128.257l-.128.128c0,.128-.128.128-.128.257l-.128.128-.257.257-.128.128-.257.257c-.128,0-.128.128-.257.128a.563.563,0,0,1-.129.385c-.128,0-.128.128-.257.128-.128.128-.257.128-.385.257-.128,0-.128.128-.257.128-.128.128-.257.128-.385.257-.128,0-.128.128-.257.128-.128.128-.257.128-.385.257-.128,0-.128.128-.257.128-.128.128-.385.128-.514.257-.128,0-.128.128-.257.128-.257.128-.385.128-.642.257h-.128a6.264,6.264,0,0,1-.9.385c-.128,0-.128,0-.257.128-.257.128-.385.128-.642.257-.128,0-.257.128-.385.128s-.385.128-.514.128V14.39A.472.472,0,0,0,51.265,14v-.128h0a6.421,6.421,0,0,0-2.441-3.341h0a2.809,2.809,0,0,0-.642-.385c-3.6-2.57-10.407-4.625-19.915-5.011H23.127a57.683,57.683,0,0,0-7.067.642c3.983-2.056,10.921-3.726,19.915-3.726Zm-22.1,6.167c.257,0,.514-.128.771-.128.385,0,.642-.128,1.028-.128.257,0,.642-.128.9-.128a3.557,3.557,0,0,1,1.156-.128c.257,0,.642-.128.9-.128a9.725,9.725,0,0,1,1.927-.128h.771a6.255,6.255,0,0,0,1.542-.128h5.4a4.818,4.818,0,0,1,1.413.128h.9c.642,0,1.285.128,1.927.128h.385c.642.128,1.285.128,1.927.257h.128a41.133,41.133,0,0,1,8.737,2.184h.128c.385.257.771.385,1.156.642a.126.126,0,0,1,.128.128,5.587,5.587,0,0,1,.9.514c.128,0,.128.128.257.128a2.688,2.688,0,0,1,.771.514c.128.128.257.128.257.257.128.128.385.257.514.385l.257.257.385.385c.128.128.128.257.257.257.128.128.128.257.257.385a.449.449,0,0,0,.128.257c0,.128.128.257.128.385s.128.385.128.514c0,3.6-9.765,7.709-23.641,7.709S2.056,18.63,2.056,15.033c0-2.57,4.5-5.268,11.82-6.81ZM25.7,59.616c-13.362,0-23-3.854-23.641-7.324V43.556l.128.128c.257.257.514.385.771.642,3.854,2.955,11.563,5.139,22.87,5.139,11.178,0,18.887-2.313,22.742-5.139a3.9,3.9,0,0,1,.9-.642v8.737c0,.257-.128.385-.257.642,0,.128-.128.128-.128.257-1.927,3.084-11.05,6.3-23.384,6.3Zm33.92-12.463c-.385,2.056-3.469,3.983-8.223,5.4V42.271h.128l1.156-.385h0a21.668,21.668,0,0,0,6.938-3.469v8.737Zm0,0" transform="translate(1030.4 5757.041)"/></g></svg>