<?xml version="1.0" encoding="UTF-8"?>
<svg width="1089px" height="607px" viewBox="0 0 1089 607" version="1.1" xmlns="http://www.w3.org/2000/svg" xmlns:xlink="http://www.w3.org/1999/xlink">
    <!-- Generator: Sketch 52.5 (67469) - http://www.bohemiancoding.com/sketch -->
    <title>table</title>
    <desc>Created with Sketch.</desc>
    <g id="Page-1" stroke="none" stroke-width="1" fill="none" fill-rule="evenodd">
        <g id="table" transform="translate(-27.000000, -6.000000)">
            <g id="Group" transform="translate(358.000000, 580.000000)" fill="#FFFFFF">
                <polygon id="Path" points="4.6 0.2 4.3 3.4 7.5 2.6 7.7 3.6 4.6 3.9 6.5 6.6 5.5 7.2 4 4.2 2.6 7.2 1.6 6.6 3.5 3.9 0.5 3.6 0.6 2.6 3.7 3.4 3.4 0.2"></polygon>
            </g>
            <text id="График-показывает-фу" font-family="Roboto-Light, Roboto" font-size="16" font-weight="300" fill="#FFFFFF">
                <tspan x="378" y="588">График показывает функциональность хранения данных для </tspan>
                <tspan x="378" y="609">структурированных данных</tspan>
            </text>
            <g id="Group" transform="translate(6.000000, 2.000000)" fill="#FFFFFF" font-family="Roboto-Regular, Roboto" font-size="18" font-weight="normal">
                <text id="ВОЗМОЖНОСТИ/ТИП-ХРАН">
                    <tspan x="20.9916992" y="19">ВОЗМОЖНОСТИ/ТИП ХРАНИЛИЩА*</tspan>
                </text>
            </g>
            <g id="Group" transform="translate(0.000000, 39.000000)" fill="#FFFFFF" font-family="Roboto-Regular, Roboto" font-size="16" font-weight="normal">
                <text id="Название">
                    <tspan x="26.9921875" y="17">Название</tspan>
                </text>
            </g>
            <g id="Group" transform="translate(15.000000, 103.000000)" fill="#FFFFFF" font-family="Roboto-Medium, Roboto" font-size="16" font-weight="400">
                <text id="РАСПРЕДЕЛЕНИЕ">
                    <tspan x="11.4179688" y="17">РАСПРЕДЕЛЕНИЕ</tspan>
                </text>
            </g>
            <g id="Group" transform="translate(27.000000, 159.000000)" fill="#FFFFFF" font-family="Roboto-Medium, Roboto" font-size="16" font-weight="400">
                <text id="ПУБЛИЧНОСТЬ">
                    <tspan x="0" y="17">ПУБЛИЧНОСТЬ</tspan>
                </text>
            </g>
            <g id="Group" transform="translate(27.000000, 212.000000)" fill="#FFFFFF" font-family="Roboto-Medium, Roboto" font-size="16" font-weight="400">
                <text id="УСТОЙЧИВОСТЬ-К-ПРОБЛ">
                    <tspan x="0" y="17">УСТОЙЧИВОСТЬ К ПРОБЛЕМЕ ВИЗАНТИЙСКИХ ГЕНЕРАЛОВ</tspan>
                </text>
            </g>
            <g id="Group" transform="translate(28.000000, 266.000000)" fill="#FFFFFF" font-family="Roboto-Medium, Roboto" font-size="16" font-weight="400">
                <text id="ПОДДЕРЖКА-ШАРДИНГА">
                    <tspan x="0" y="17">ПОДДЕРЖКА ШАРДИНГА</tspan>
                </text>
            </g>
            <g id="Group" transform="translate(28.000000, 320.000000)" fill="#FFFFFF" font-family="Roboto-Medium, Roboto" font-size="16" font-weight="400">
                <text id="СКОРОСТЬ">
                    <tspan x="0" y="17">СКОРОСТЬ</tspan>
                </text>
            </g>
            <g id="Group" transform="translate(28.000000, 374.000000)" fill="#FFFFFF" font-family="Roboto-Medium, Roboto" font-size="16" font-weight="400">
                <text id="способность-хранить">
                    <tspan x="0" y="17">СПОСОБНОСТЬ ХРАНИТЬ СТРУКТУРИРОВАННЫЕ ДАННЫЕ</tspan>
                </text>
            </g>
            <g id="Group" transform="translate(28.000000, 428.000000)" fill="#FFFFFF" font-family="Roboto-Medium, Roboto" font-size="16" font-weight="400">
                <text id="способность-удалять">
                    <tspan x="0" y="17">СПОСОБНОСТЬ УДАЛЯТЬ ДАННЫЕ</tspan>
                </text>
            </g>
            <g id="Group" transform="translate(27.000000, 476.000000)" fill="#FFFFFF" font-family="Roboto-Medium, Roboto" font-size="16" font-weight="400">
                <text id="язык-запросов-с-возм">
                    <tspan x="0" y="17">ЯЗЫК ЗАПРОСОВ С ВОЗМОЖНОСТЬЮ ВЕСТИ ПОИСК, </tspan>
                    <tspan x="0" y="38">ИСПОЛЬЗУЯ НЕ ТОЛЬКО ПЕРВИЧНЫЙ КЛЮЧ</tspan>
                </text>
            </g>
            <g id="Group" transform="translate(505.000000, 0.000000)" fill="#FFFFFF" font-family="Roboto-Medium, Roboto" font-size="20" font-weight="400">
                <text id="База-Данных">
                    <tspan x="6.80761719" y="21">База Данных</tspan>
                </text>
            </g>
            <g id="Group_632_1_" transform="translate(530.406000, 110.186000)">
                <g id="Ellipse_48_1_">
                    <circle id="Ellipse_379" fill="#72A5B5" cx="6.2" cy="5.4" r="5.4"></circle>
                    <circle id="Ellipse_380" stroke="#72A5B5" cx="6.2" cy="5.4" r="4.9"></circle>
                </g>
                <g id="Ellipse_49_1_" transform="translate(21.627000, 0.000000)">
                    <circle id="Ellipse_381" fill="#72A5B5" cx="6.2" cy="5.4" r="5.4"></circle>
                    <circle id="Ellipse_382" stroke="#72A5B5" cx="6.2" cy="5.4" r="4.9"></circle>
                </g>
                <g id="Ellipse_50_1_" transform="translate(43.255000, 0.000000)">
                    <circle id="Ellipse_383" fill="#72A5B5" cx="6.2" cy="5.4" r="5.4"></circle>
                    <circle id="Ellipse_384" stroke="#72A5B5" cx="6.2" cy="5.4" r="4.9"></circle>
                </g>
                <g id="Ellipse_51_1_" transform="translate(64.882000, 0.000000)">
                    <circle id="Ellipse_385" fill="#72A5B5" cx="6.2" cy="5.4" r="5.4"></circle>
                    <circle id="Ellipse_386" stroke="#72A5B5" cx="6.2" cy="5.4" r="4.9"></circle>
                </g>
                <g id="Ellipse_48-2_1_" transform="translate(0.000000, 54.069000)">
                    <circle id="Ellipse_387" fill="#72A5B5" cx="6.2" cy="5.4" r="5.4"></circle>
                    <circle id="Ellipse_388" stroke="#72A5B5" cx="6.2" cy="5.4" r="4.9"></circle>
                </g>
                <g id="Ellipse_49-2_1_" transform="translate(21.627000, 54.069000)">
                    <circle id="Ellipse_389" fill="#72A5B5" cx="6.2" cy="5.4" r="5.4"></circle>
                    <circle id="Ellipse_390" stroke="#72A5B5" cx="6.2" cy="5.4" r="4.9"></circle>
                </g>
                <g id="Ellipse_50-2_1_" transform="translate(43.255000, 54.069000)">
                    <circle id="Ellipse_391" fill="#72A5B5" cx="6.2" cy="5.4" r="5.4"></circle>
                    <circle id="Ellipse_392" stroke="#72A5B5" cx="6.2" cy="5.4" r="4.9"></circle>
                </g>
                <g id="Ellipse_51-2_1_" transform="translate(64.882000, 54.069000)">
                    <circle id="Ellipse_393" fill="#72A5B5" cx="6.2" cy="5.4" r="5.4"></circle>
                    <circle id="Ellipse_394" stroke="#72A5B5" cx="6.2" cy="5.4" r="4.9"></circle>
                </g>
                <g id="Ellipse_48-3_1_" transform="translate(0.000000, 108.137000)">
                    <circle id="Ellipse_395" fill="#72A5B5" cx="6.2" cy="5.4" r="5.4"></circle>
                    <circle id="Ellipse_396" stroke="#72A5B5" cx="6.2" cy="5.4" r="4.9"></circle>
                </g>
                <g id="Ellipse_49-3_1_" transform="translate(21.627000, 108.137000)">
                    <circle id="Ellipse_397" fill="#72A5B5" cx="6.2" cy="5.4" r="5.4"></circle>
                    <circle id="Ellipse_398" stroke="#72A5B5" cx="6.2" cy="5.4" r="4.9"></circle>
                </g>
                <g id="Ellipse_50-3_1_" transform="translate(43.255000, 108.137000)">
                    <circle id="Ellipse_399" fill="#72A5B5" cx="6.2" cy="5.4" r="5.4"></circle>
                    <circle id="Ellipse_400" stroke="#72A5B5" cx="6.2" cy="5.4" r="4.9"></circle>
                </g>
                <g id="Ellipse_51-3_1_" transform="translate(64.882000, 108.137000)">
                    <circle id="Ellipse_401" fill="#72A5B5" cx="6.2" cy="5.4" r="5.4"></circle>
                    <circle id="Ellipse_402" stroke="#72A5B5" cx="6.2" cy="5.4" r="4.9"></circle>
                </g>
                <g id="Ellipse_48-4_1_" transform="translate(0.000000, 162.206000)">
                    <circle id="Ellipse_403" fill="#72A5B5" cx="6.2" cy="5.4" r="5.4"></circle>
                    <circle id="Ellipse_404" stroke="#72A5B5" cx="6.2" cy="5.4" r="4.9"></circle>
                </g>
                <g id="Ellipse_49-4_1_" transform="translate(21.627000, 162.206000)">
                    <circle id="Ellipse_405" fill="#72A5B5" cx="6.2" cy="5.4" r="5.4"></circle>
                    <circle id="Ellipse_406" stroke="#72A5B5" cx="6.2" cy="5.4" r="4.9"></circle>
                </g>
                <g id="Ellipse_50-4_1_" transform="translate(43.255000, 162.206000)">
                    <circle id="Ellipse_407" fill="#72A5B5" cx="6.2" cy="5.4" r="5.4"></circle>
                    <circle id="Ellipse_408" stroke="#72A5B5" cx="6.2" cy="5.4" r="4.9"></circle>
                </g>
                <g id="Ellipse_51-4_1_" transform="translate(64.882000, 162.206000)">
                    <circle id="Ellipse_409" fill="#72A5B5" cx="6.2" cy="5.4" r="5.4"></circle>
                    <circle id="Ellipse_410" stroke="#72A5B5" cx="6.2" cy="5.4" r="4.9"></circle>
                </g>
                <g id="Ellipse_48-5_1_" transform="translate(0.000000, 216.275000)">
                    <circle id="Ellipse_411" fill="#72A5B5" cx="6.2" cy="5.4" r="5.4"></circle>
                    <circle id="Ellipse_412" stroke="#72A5B5" cx="6.2" cy="5.4" r="4.9"></circle>
                </g>
                <g id="Ellipse_49-5_1_" transform="translate(21.627000, 216.275000)">
                    <circle id="Ellipse_413" fill="#72A5B5" cx="6.2" cy="5.4" r="5.4"></circle>
                    <circle id="Ellipse_414" stroke="#72A5B5" cx="6.2" cy="5.4" r="4.9"></circle>
                </g>
                <g id="Ellipse_50-5_1_" transform="translate(43.255000, 216.275000)">
                    <circle id="Ellipse_415" fill="#72A5B5" cx="6.2" cy="5.4" r="5.4"></circle>
                    <circle id="Ellipse_416" stroke="#72A5B5" cx="6.2" cy="5.4" r="4.9"></circle>
                </g>
                <g id="Ellipse_51-5_1_" transform="translate(64.882000, 216.275000)">
                    <circle id="Ellipse_417" fill="#72A5B5" cx="6.2" cy="5.4" r="5.4"></circle>
                    <circle id="Ellipse_418" stroke="#72A5B5" cx="6.2" cy="5.4" r="4.9"></circle>
                </g>
                <g id="Ellipse_48-6_1_" transform="translate(0.000000, 270.343000)">
                    <circle id="Ellipse_419" fill="#72A5B5" cx="6.2" cy="5.4" r="5.4"></circle>
                    <circle id="Ellipse_420" stroke="#72A5B5" cx="6.2" cy="5.4" r="4.9"></circle>
                </g>
                <g id="Ellipse_49-6_1_" transform="translate(21.627000, 270.343000)">
                    <circle id="Ellipse_421" fill="#72A5B5" cx="6.2" cy="5.4" r="5.4"></circle>
                    <circle id="Ellipse_422" stroke="#72A5B5" cx="6.2" cy="5.4" r="4.9"></circle>
                </g>
                <g id="Ellipse_50-6_1_" transform="translate(43.255000, 270.343000)">
                    <circle id="Ellipse_423" fill="#72A5B5" cx="6.2" cy="5.4" r="5.4"></circle>
                    <circle id="Ellipse_424" stroke="#72A5B5" cx="6.2" cy="5.4" r="4.9"></circle>
                </g>
                <g id="Ellipse_51-6_1_" transform="translate(64.882000, 270.343000)">
                    <circle id="Ellipse_425" fill="#72A5B5" cx="6.2" cy="5.4" r="5.4"></circle>
                    <circle id="Ellipse_426" stroke="#72A5B5" cx="6.2" cy="5.4" r="4.9"></circle>
                </g>
                <g id="Ellipse_48-7_1_" transform="translate(0.000000, 324.412000)">
                    <circle id="Ellipse_427" fill="#72A5B5" cx="6.2" cy="5.4" r="5.4"></circle>
                    <circle id="Ellipse_428" stroke="#72A5B5" cx="6.2" cy="5.4" r="4.9"></circle>
                </g>
                <g id="Ellipse_49-7_1_" transform="translate(21.627000, 324.412000)">
                    <circle id="Ellipse_429" fill="#72A5B5" cx="6.2" cy="5.4" r="5.4"></circle>
                    <circle id="Ellipse_430" stroke="#72A5B5" cx="6.2" cy="5.4" r="4.9"></circle>
                </g>
                <g id="Ellipse_50-7_1_" transform="translate(43.255000, 324.412000)">
                    <circle id="Ellipse_431" fill="#72A5B5" cx="6.2" cy="5.4" r="5.4"></circle>
                    <circle id="Ellipse_432" stroke="#72A5B5" cx="6.2" cy="5.4" r="4.9"></circle>
                </g>
                <g id="Ellipse_51-7_1_" transform="translate(64.882000, 324.412000)">
                    <circle id="Ellipse_433" fill="#72A5B5" cx="6.2" cy="5.4" r="5.4"></circle>
                    <circle id="Ellipse_434" stroke="#72A5B5" cx="6.2" cy="5.4" r="4.9"></circle>
                </g>
                <g id="Ellipse_48-8_1_" transform="translate(0.000000, 378.481000)">
                    <circle id="Ellipse_435" fill="#72A5B5" cx="6.2" cy="5.4" r="5.4"></circle>
                    <circle id="Ellipse_436" stroke="#72A5B5" cx="6.2" cy="5.4" r="4.9"></circle>
                </g>
                <g id="Ellipse_49-8_1_" transform="translate(21.627000, 378.481000)">
                    <circle id="Ellipse_437" fill="#72A5B5" cx="6.2" cy="5.4" r="5.4"></circle>
                    <circle id="Ellipse_438" stroke="#72A5B5" cx="6.2" cy="5.4" r="4.9"></circle>
                </g>
                <g id="Ellipse_50-8_1_" transform="translate(43.255000, 378.481000)">
                    <circle id="Ellipse_439" fill="#72A5B5" cx="6.2" cy="5.4" r="5.4"></circle>
                    <circle id="Ellipse_440" stroke="#72A5B5" cx="6.2" cy="5.4" r="4.9"></circle>
                </g>
                <g id="Ellipse_51-8_1_" transform="translate(64.882000, 378.481000)">
                    <circle id="Ellipse_441" fill="#72A5B5" cx="6.2" cy="5.4" r="5.4"></circle>
                    <circle id="Ellipse_442" stroke="#72A5B5" cx="6.2" cy="5.4" r="4.9"></circle>
                </g>
            </g>
            <g id="Group" transform="translate(972.000000, 0.000000)" fill="#FFFFFF" font-family="Roboto-Medium, Roboto" font-size="20" font-weight="400">
                <text id="Блокчейн">
                    <tspan x="23.3847656" y="21">Блокчейн</tspan>
                </text>
            </g>
            <g id="Group" transform="translate(973.000000, 36.000000)" fill="#72A5B5">
                <path d="M1.3,11.7 C1,10.4 0.8,9.1 0.8,7.6 C0.8,6.1 1,4.8 1.3,3.5 C1.6,2.2 2.1,1.1 2.7,0.1 L3.8,0.1 C3.2,1.2 2.7,2.3 2.4,3.6 C2.1,4.8 2,6.2 2,7.6 C2,9 2.1,10.4 2.4,11.6 C2.7,12.8 3.2,14 3.8,15.1 L2.7,15.1 C2,14.1 1.6,13 1.3,11.7 Z" id="Path"></path>
                <path d="M15,7.2 C15.4,7.7 15.6,8.3 15.6,9 C15.6,10 15.2,10.7 14.5,11.2 C13.8,11.7 12.7,12 11.4,12 L6.2,12 L6.2,0.8 L11,0.8 C12.2,0.8 13.2,1.1 13.9,1.6 C14.6,2.1 14.9,2.8 14.9,3.7 C14.9,4.3 14.7,4.8 14.4,5.3 C14.1,5.7 13.7,6.1 13.1,6.3 C14,6.4 14.6,6.7 15,7.2 Z M7.4,1.8 L7.4,5.9 L11,5.9 C11.9,5.9 12.6,5.7 13.1,5.4 C13.6,5.1 13.8,4.5 13.8,3.9 C13.8,3.2 13.6,2.7 13.1,2.4 C12.6,2.1 11.9,1.9 11,1.9 L7.4,1.9 L7.4,1.8 Z M13.6,10.5 C14.1,10.2 14.4,9.6 14.4,8.9 C14.4,7.5 13.4,6.8 11.4,6.8 L7.4,6.8 L7.4,11 L11.4,11 C12.3,11 13.1,10.9 13.6,10.5 Z" id="Shape" fill-rule="nonzero"></path>
                <path d="M18,1.5 C17.8,1.3 17.8,1.1 17.8,0.9 C17.8,0.7 17.9,0.5 18,0.3 C18.2,0.1 18.4,0.1 18.6,0.1 C18.8,0.1 19,0.2 19.2,0.3 C19.4,0.5 19.4,0.6 19.4,0.9 C19.4,1.1 19.3,1.3 19.2,1.5 C19.1,1.7 18.8,1.7 18.6,1.7 C18.4,1.7 18.2,1.7 18,1.5 Z M18,3.6 L19.1,3.6 L19.1,12 L18,12 L18,3.6 Z" id="Shape" fill-rule="nonzero"></path>
                <path d="M30.1,3.6 L30.1,11 C30.1,12.4 29.8,13.5 29.1,14.2 C28.4,14.9 27.3,15.2 25.9,15.2 C25.1,15.2 24.4,15.1 23.7,14.9 C23,14.7 22.4,14.4 22,13.9 L22.6,13 C23,13.4 23.5,13.6 24.1,13.8 C24.7,14 25.3,14.1 25.9,14.1 C27,14.1 27.8,13.9 28.3,13.4 C28.8,12.9 29.1,12.1 29.1,11.1 L29.1,10 C28.7,10.5 28.3,10.9 27.7,11.2 C27.1,11.5 26.5,11.6 25.8,11.6 C25,11.6 24.3,11.4 23.6,11.1 C22.9,10.8 22.4,10.3 22.1,9.6 C21.7,9 21.5,8.3 21.5,7.5 C21.5,6.7 21.7,6 22.1,5.4 C22.5,4.8 23,4.3 23.6,4 C24.2,3.7 25,3.5 25.8,3.5 C26.5,3.5 27.2,3.6 27.7,3.9 C28.2,4.2 28.7,4.6 29.1,5.1 L29.1,3.5 L30.1,3.5 L30.1,3.6 Z M27.5,10.3 C28,10 28.4,9.7 28.6,9.2 C28.9,8.7 29,8.2 29,7.6 C29,7 28.9,6.5 28.6,6 C28.3,5.5 27.9,5.2 27.5,4.9 C27,4.6 26.5,4.5 25.8,4.5 C25.2,4.5 24.6,4.6 24.2,4.9 C23.7,5.2 23.3,5.5 23.1,6 C22.8,6.5 22.7,7 22.7,7.6 C22.7,8.2 22.8,8.7 23.1,9.2 C23.4,9.7 23.8,10 24.2,10.3 C24.7,10.6 25.2,10.7 25.8,10.7 C26.4,10.7 27,10.5 27.5,10.3 Z" id="Shape" fill-rule="nonzero"></path>
                <path d="M35.4,11.4 C34.5,10.9 33.8,10.2 33.3,9.4 C32.8,8.6 32.5,7.6 32.5,6.5 C32.5,5.4 32.8,4.4 33.3,3.6 C33.8,2.7 34.5,2.1 35.4,1.6 C36.3,1.1 37.3,0.9 38.4,0.9 C39.2,0.9 40,1 40.7,1.3 C41.4,1.6 42,2 42.5,2.5 L41.7,3.3 C40.8,2.4 39.7,2 38.4,2 C37.5,2 36.7,2.2 36,2.6 C35.3,3 34.7,3.6 34.3,4.3 C33.9,5 33.7,5.8 33.7,6.7 C33.7,7.6 33.9,8.4 34.3,9.1 C34.7,9.8 35.3,10.4 36,10.8 C36.7,11.2 37.5,11.4 38.4,11.4 C39.7,11.4 40.8,11 41.7,10.1 L42.5,10.9 C42,11.4 41.4,11.8 40.7,12.1 C40,12.4 39.2,12.5 38.4,12.5 C37.3,12.1 36.3,11.9 35.4,11.4 Z" id="Path"></path>
                <path d="M51.6,4.4 C52.2,5 52.5,5.9 52.5,7.1 L52.5,12 L51.4,12 L51.4,7.2 C51.4,6.3 51.2,5.7 50.7,5.2 C50.3,4.7 49.6,4.5 48.8,4.5 C47.9,4.5 47.2,4.8 46.6,5.3 C46.1,5.8 45.8,6.6 45.8,7.5 L45.8,12 L44.7,12 L44.7,0.1 L45.8,0.1 L45.8,5 C46.1,4.5 46.5,4.1 47.1,3.9 C47.7,3.7 48.3,3.5 49,3.5 C50.2,3.5 51,3.8 51.6,4.4 Z" id="Path"></path>
                <path d="M61.1,4.3 C61.7,4.8 62,5.7 62,6.7 L62,12 L60.9,12 L60.9,10.7 C60.6,11.1 60.3,11.5 59.8,11.7 C59.3,11.9 58.7,12.1 58,12.1 C57.1,12.1 56.3,11.9 55.8,11.4 C55.3,10.9 55,10.4 55,9.6 C55,8.9 55.3,8.3 55.8,7.9 C56.3,7.5 57.1,7.2 58.3,7.2 L61,7.2 L61,6.7 C61,6 60.8,5.4 60.4,5 C60,4.6 59.4,4.4 58.6,4.4 C58.1,4.4 57.6,4.5 57.1,4.7 C56.6,4.9 56.2,5.1 55.8,5.4 L55.3,4.6 C55.7,4.2 56.2,4 56.8,3.8 C57.4,3.6 58,3.5 58.7,3.5 C59.7,3.5 60.5,3.8 61.1,4.3 Z M59.8,10.7 C60.3,10.4 60.6,10 60.8,9.4 L60.8,8 L58.2,8 C56.8,8 56,8.5 56,9.5 C56,10 56.2,10.4 56.6,10.7 C57,11 57.5,11.1 58.2,11.1 C58.8,11.2 59.4,11 59.8,10.7 Z" id="Shape" fill-rule="nonzero"></path>
                <path d="M65.1,1.5 C64.9,1.3 64.9,1.1 64.9,0.9 C64.9,0.7 65,0.5 65.1,0.3 C65.2,0.1 65.5,0.1 65.7,0.1 C65.9,0.1 66.1,0.2 66.3,0.3 C66.5,0.5 66.5,0.6 66.5,0.9 C66.5,1.1 66.4,1.3 66.3,1.5 C66.2,1.7 65.9,1.7 65.7,1.7 C65.5,1.7 65.2,1.7 65.1,1.5 Z M65.1,3.6 L66.2,3.6 L66.2,12 L65.1,12 L65.1,3.6 Z" id="Shape" fill-rule="nonzero"></path>
                <path d="M76.2,4.4 C76.8,5 77.1,5.9 77.1,7.1 L77.1,12 L76,12 L76,7.2 C76,6.3 75.8,5.7 75.3,5.2 C74.9,4.7 74.2,4.5 73.4,4.5 C72.5,4.5 71.8,4.8 71.2,5.3 C70.7,5.8 70.4,6.6 70.4,7.5 L70.4,12 L69.3,12 L69.3,3.6 L70.4,3.6 L70.4,5.2 C70.7,4.7 71.1,4.3 71.7,4 C72.2,3.7 72.9,3.6 73.6,3.6 C74.7,3.5 75.6,3.8 76.2,4.4 Z" id="Path"></path>
                <path d="M84.6,0.8 L89.2,0.8 C90.4,0.8 91.4,1 92.3,1.5 C93.2,2 93.9,2.6 94.4,3.5 C94.9,4.3 95.2,5.3 95.2,6.4 C95.2,7.5 94.9,8.5 94.4,9.3 C93.9,10.1 93.2,10.8 92.3,11.3 C91.4,11.8 90.3,12 89.2,12 L84.6,12 L84.6,0.8 Z M89.1,11 C90.1,11 90.9,10.8 91.7,10.4 C92.4,10 93,9.5 93.4,8.8 C93.8,8.1 94,7.3 94,6.4 C94,5.5 93.8,4.7 93.4,4 C93,3.3 92.4,2.8 91.7,2.4 C91,2 90.1,1.8 89.1,1.8 L85.8,1.8 L85.8,11 L89.1,11 Z" id="Shape" fill-rule="nonzero"></path>
                <path d="M106.6,7.2 C107,7.7 107.2,8.3 107.2,9 C107.2,10 106.8,10.7 106.1,11.2 C105.4,11.7 104.3,12 103,12 L97.8,12 L97.8,0.8 L102.6,0.8 C103.8,0.8 104.8,1.1 105.5,1.6 C106.2,2.1 106.5,2.8 106.5,3.7 C106.5,4.3 106.3,4.8 106,5.3 C105.7,5.7 105.3,6.1 104.7,6.3 C105.7,6.4 106.2,6.7 106.6,7.2 Z M99,1.8 L99,5.9 L102.6,5.9 C103.5,5.9 104.2,5.7 104.7,5.4 C105.2,5.1 105.4,4.5 105.4,3.9 C105.4,3.2 105.2,2.7 104.7,2.4 C104.2,2.1 103.5,1.9 102.6,1.9 L99,1.9 L99,1.8 Z M105.3,10.5 C105.8,10.2 106.1,9.6 106.1,8.9 C106.1,7.5 105.1,6.8 103.1,6.8 L99.1,6.8 L99.1,11 L103.1,11 C104,11 104.8,10.9 105.3,10.5 Z" id="Shape" fill-rule="nonzero"></path>
                <path d="M121.2,8.1 L114.2,8.1 C114.3,9 114.6,9.7 115.2,10.2 C115.8,10.7 116.6,11 117.5,11 C118,11 118.5,10.9 118.9,10.7 C119.3,10.5 119.7,10.2 120,9.9 L120.6,10.6 C120.2,11 119.8,11.4 119.2,11.6 C118.6,11.8 118,12 117.4,12 C116.5,12 115.8,11.8 115.1,11.4 C114.4,11 113.9,10.5 113.5,9.9 C113.1,9.2 112.9,8.5 112.9,7.7 C112.9,6.9 113.1,6.1 113.4,5.5 C113.7,4.9 114.2,4.3 114.9,4 C115.5,3.6 116.2,3.5 117,3.5 C117.8,3.5 118.5,3.7 119.1,4 C119.7,4.4 120.2,4.9 120.6,5.5 C121,6.1 121.1,6.9 121.1,7.7 L121.2,8.1 Z M115.1,5.3 C114.6,5.8 114.2,6.5 114.2,7.3 L120.2,7.3 C120.1,6.5 119.8,5.8 119.3,5.3 C118.8,4.8 118.1,4.5 117.2,4.5 C116.3,4.5 115.7,4.8 115.1,5.3 Z" id="Shape" fill-rule="nonzero"></path>
                <path d="M128,11.5 C127.8,11.7 127.5,11.8 127.2,11.9 C126.9,12 126.6,12.1 126.2,12.1 C125.4,12.1 124.8,11.9 124.4,11.5 C124,11.1 123.8,10.5 123.8,9.7 L123.8,4.6 L122.3,4.6 L122.3,3.6 L123.8,3.6 L123.8,1.8 L124.9,1.8 L124.9,3.6 L127.5,3.6 L127.5,4.6 L124.9,4.6 L124.9,9.6 C124.9,10.1 125,10.5 125.3,10.7 C125.5,11 125.9,11.1 126.4,11.1 C126.6,11.1 126.9,11.1 127.1,11 C127.3,10.9 127.5,10.8 127.7,10.7 L128,11.5 Z" id="Path"></path>
                <path d="M131,11.5 C130.3,11.1 129.8,10.6 129.5,10 C129.1,9.3 128.9,8.6 128.9,7.8 C128.9,7 129.1,6.2 129.5,5.6 C129.9,4.9 130.4,4.4 131,4.1 C131.7,3.7 132.4,3.6 133.2,3.6 C133.9,3.6 134.6,3.7 135.1,4 C135.7,4.3 136.1,4.7 136.5,5.2 L135.7,5.8 C135.4,5.4 135.1,5.1 134.6,4.9 C134.1,4.7 133.7,4.6 133.2,4.6 C132.6,4.6 132,4.7 131.6,5 C131.1,5.3 130.7,5.7 130.5,6.2 C130.2,6.7 130.1,7.3 130.1,7.9 C130.1,8.6 130.2,9.1 130.5,9.6 C130.8,10.1 131.2,10.5 131.6,10.8 C132.1,11.1 132.6,11.2 133.2,11.2 C133.7,11.2 134.2,11.1 134.6,10.9 C135,10.7 135.4,10.4 135.7,10 L136.5,10.6 C136.2,11.1 135.7,11.6 135.1,11.8 C134.5,12.1 133.9,12.2 133.2,12.2 C132.4,12.1 131.6,11.9 131,11.5 Z" id="Path"></path>
                <path d="M137.5,15.1 C138.1,14 138.6,12.9 138.9,11.6 C139.2,10.4 139.3,9 139.3,7.6 C139.3,6.1 139.2,4.8 138.9,3.6 C138.6,2.4 138.1,1.2 137.5,0.1 L138.6,0.1 C139.2,1.1 139.7,2.2 140,3.5 C140.3,4.8 140.5,6.2 140.5,7.6 C140.5,9.1 140.3,10.4 140,11.7 C139.7,13 139.2,14.1 138.6,15.1 L137.5,15.1 Z" id="Path"></path>
            </g>
            <g id="Group_634_1_" transform="translate(1006.568000, 110.186000)">
                <g id="Ellipse_48-9_1_">
                    <circle id="Ellipse_443" fill="#72A5B5" cx="6.2" cy="5.4" r="5.4"></circle>
                    <circle id="Ellipse_444" stroke="#72A5B5" cx="6.2" cy="5.4" r="4.9"></circle>
                </g>
                <g id="Ellipse_49-9_1_" transform="translate(21.627000, 0.000000)">
                    <circle id="Ellipse_445" fill="#72A5B5" cx="6.2" cy="5.4" r="5.4"></circle>
                    <circle id="Ellipse_446" stroke="#72A5B5" cx="6.2" cy="5.4" r="4.9"></circle>
                </g>
                <g id="Ellipse_50-9_1_" transform="translate(43.255000, 0.000000)">
                    <circle id="Ellipse_447" fill="#72A5B5" cx="6.2" cy="5.4" r="5.4"></circle>
                    <circle id="Ellipse_448" stroke="#72A5B5" cx="6.2" cy="5.4" r="4.9"></circle>
                </g>
                <g id="Ellipse_51-9_1_" transform="translate(64.882000, 0.000000)">
                    <circle id="Ellipse_449" cx="6.2" cy="5.4" r="5.4"></circle>
                    <circle id="Ellipse_450" stroke="#72A5B5" cx="6.2" cy="5.4" r="4.9"></circle>
                </g>
                <g id="Ellipse_48-10_1_" transform="translate(0.000000, 54.069000)">
                    <circle id="Ellipse_451" fill="#72A5B5" cx="6.2" cy="5.4" r="5.4"></circle>
                    <circle id="Ellipse_452" stroke="#72A5B5" cx="6.2" cy="5.4" r="4.9"></circle>
                </g>
                <g id="Ellipse_49-10_1_" transform="translate(21.627000, 54.069000)">
                    <circle id="Ellipse_453" fill="#72A5B5" cx="6.2" cy="5.4" r="5.4"></circle>
                    <circle id="Ellipse_454" stroke="#72A5B5" cx="6.2" cy="5.4" r="4.9"></circle>
                </g>
                <g id="Ellipse_50-10_1_" transform="translate(43.255000, 54.069000)">
                    <circle id="Ellipse_455" fill="#72A5B5" cx="6.2" cy="5.4" r="5.4"></circle>
                    <circle id="Ellipse_456" stroke="#72A5B5" cx="6.2" cy="5.4" r="4.9"></circle>
                </g>
                <g id="Path_811_1_" transform="translate(64.882000, 54.069000)">
                    <path d="M6.2,0 C9.2,0 11.6,2.4 11.6,5.4 C11.6,5.4 11.6,5.4 11.6,5.4 C11.6,8.4 9.2,10.8 6.2,10.8 C6.2,10.8 6.2,10.8 6.2,10.8 C3.2,10.8 0.8,8.4 0.8,5.4 C0.8,5.4 0.8,5.4 0.8,5.4 C0.8,2.4 3.2,0 6.2,0 C6.2,0 6.2,0 6.2,0 Z" id="Path_1057"></path>
                    <path d="M6.2,9.8 C8.6,9.8 10.6,7.8 10.6,5.4 C10.6,3 8.6,1 6.2,1 C3.8,1 1.8,3 1.8,5.4 C1.8,7.8 3.8,9.8 6.2,9.8 Z M6.2,10.8 C3.2,10.8 0.8,8.4 0.8,5.4 C0.8,5.4 0.8,5.4 0.8,5.4 C0.8,2.4 3.2,0 6.2,0 C6.2,0 6.2,0 6.2,0 C9.2,0 11.6,2.4 11.6,5.4 C11.6,5.4 11.6,5.4 11.6,5.4 C11.6,8.4 9.2,10.8 6.2,10.8 C6.2,10.8 6.2,10.8 6.2,10.8 Z" id="Path_1058" fill="#72A5B5" fill-rule="nonzero"></path>
                </g>
                <g id="Ellipse_48-11_1_" transform="translate(0.000000, 108.137000)">
                    <circle id="Ellipse_457" fill="#72A5B5" cx="6.2" cy="5.4" r="5.4"></circle>
                    <circle id="Ellipse_458" stroke="#72A5B5" cx="6.2" cy="5.4" r="4.9"></circle>
                </g>
                <g id="Ellipse_49-11_1_" transform="translate(21.627000, 108.137000)">
                    <circle id="Ellipse_459" cx="6.2" cy="5.4" r="5.4"></circle>
                    <circle id="Ellipse_460" stroke="#72A5B5" cx="6.2" cy="5.4" r="4.9"></circle>
                </g>
                <g id="Ellipse_50-11_1_" transform="translate(43.255000, 108.137000)">
                    <circle id="Ellipse_461" cx="6.2" cy="5.4" r="5.4"></circle>
                    <circle id="Ellipse_462" stroke="#72A5B5" cx="6.2" cy="5.4" r="4.9"></circle>
                </g>
                <g id="Ellipse_51-10_1_" transform="translate(64.882000, 108.137000)">
                    <circle id="Ellipse_463" cx="6.2" cy="5.4" r="5.4"></circle>
                    <circle id="Ellipse_464" stroke="#72A5B5" cx="6.2" cy="5.4" r="4.9"></circle>
                </g>
                <g id="Ellipse_48-12_1_" transform="translate(0.000000, 162.206000)">
                    <circle id="Ellipse_465" fill="#72A5B5" cx="6.2" cy="5.4" r="5.4"></circle>
                    <circle id="Ellipse_466" stroke="#72A5B5" cx="6.2" cy="5.4" r="4.9"></circle>
                </g>
                <g id="Ellipse_49-12_1_" transform="translate(21.627000, 162.206000)">
                    <circle id="Ellipse_467" fill="#72A5B5" cx="6.2" cy="5.4" r="5.4"></circle>
                    <circle id="Ellipse_468" stroke="#72A5B5" cx="6.2" cy="5.4" r="4.9"></circle>
                </g>
                <g id="Ellipse_50-12_1_" transform="translate(43.255000, 162.206000)">
                    <circle id="Ellipse_469" cx="6.2" cy="5.4" r="5.4"></circle>
                    <circle id="Ellipse_470" stroke="#72A5B5" cx="6.2" cy="5.4" r="4.9"></circle>
                </g>
                <g id="Ellipse_51-11_1_" transform="translate(64.882000, 162.206000)">
                    <circle id="Ellipse_471" cx="6.2" cy="5.4" r="5.4"></circle>
                    <circle id="Ellipse_472" stroke="#72A5B5" cx="6.2" cy="5.4" r="4.9"></circle>
                </g>
                <g id="Ellipse_48-13_1_" transform="translate(0.000000, 216.275000)">
                    <circle id="Ellipse_473" fill="#72A5B5" cx="6.2" cy="5.4" r="5.4"></circle>
                    <circle id="Ellipse_474" stroke="#72A5B5" cx="6.2" cy="5.4" r="4.9"></circle>
                </g>
                <g id="Ellipse_49-13_1_" transform="translate(21.627000, 216.275000)">
                    <circle id="Ellipse_475" fill="#72A5B5" cx="6.2" cy="5.4" r="5.4"></circle>
                    <circle id="Ellipse_476" stroke="#72A5B5" cx="6.2" cy="5.4" r="4.9"></circle>
                </g>
                <g id="Ellipse_50-13_1_" transform="translate(43.255000, 216.275000)">
                    <circle id="Ellipse_477" fill="#72A5B5" cx="6.2" cy="5.4" r="5.4"></circle>
                    <circle id="Ellipse_478" stroke="#72A5B5" cx="6.2" cy="5.4" r="4.9"></circle>
                </g>
                <g id="Ellipse_51-12_1_" transform="translate(64.882000, 216.275000)">
                    <circle id="Ellipse_479" cx="6.2" cy="5.4" r="5.4"></circle>
                    <circle id="Ellipse_480" stroke="#72A5B5" cx="6.2" cy="5.4" r="4.9"></circle>
                </g>
                <g id="Ellipse_48-14_1_" transform="translate(0.000000, 270.343000)">
                    <circle id="Ellipse_481" fill="#72A5B5" cx="6.2" cy="5.4" r="5.4"></circle>
                    <circle id="Ellipse_482" stroke="#72A5B5" cx="6.2" cy="5.4" r="4.9"></circle>
                </g>
                <g id="Ellipse_49-14_1_" transform="translate(21.627000, 270.343000)">
                    <circle id="Ellipse_483" fill="#72A5B5" cx="6.2" cy="5.4" r="5.4"></circle>
                    <circle id="Ellipse_484" stroke="#72A5B5" cx="6.2" cy="5.4" r="4.9"></circle>
                </g>
                <g id="Ellipse_50-14_1_" transform="translate(43.255000, 270.343000)">
                    <circle id="Ellipse_485" fill="#72A5B5" cx="6.2" cy="5.4" r="5.4"></circle>
                    <circle id="Ellipse_486" stroke="#72A5B5" cx="6.2" cy="5.4" r="4.9"></circle>
                </g>
                <g id="Ellipse_51-13_1_" transform="translate(64.882000, 270.343000)">
                    <circle id="Ellipse_487" fill="#72A5B5" cx="6.2" cy="5.4" r="5.4"></circle>
                    <circle id="Ellipse_488" stroke="#72A5B5" cx="6.2" cy="5.4" r="4.9"></circle>
                </g>
                <g id="Ellipse_48-15_1_" transform="translate(0.000000, 324.412000)">
                    <circle id="Ellipse_489" cx="6.2" cy="5.4" r="5.4"></circle>
                    <circle id="Ellipse_490" stroke="#72A5B5" cx="6.2" cy="5.4" r="4.9"></circle>
                </g>
                <g id="Ellipse_49-15_1_" transform="translate(21.627000, 324.412000)">
                    <circle id="Ellipse_491" cx="6.2" cy="5.4" r="5.4"></circle>
                    <circle id="Ellipse_492" stroke="#72A5B5" cx="6.2" cy="5.4" r="4.9"></circle>
                </g>
                <g id="Ellipse_50-15_1_" transform="translate(43.255000, 324.412000)">
                    <circle id="Ellipse_493" cx="6.2" cy="5.4" r="5.4"></circle>
                    <circle id="Ellipse_494" stroke="#72A5B5" cx="6.2" cy="5.4" r="4.9"></circle>
                </g>
                <g id="Ellipse_51-14_1_" transform="translate(64.882000, 324.412000)">
                    <circle id="Ellipse_495" cx="6.2" cy="5.4" r="5.4"></circle>
                    <circle id="Ellipse_496" stroke="#72A5B5" cx="6.2" cy="5.4" r="4.9"></circle>
                </g>
                <g id="Ellipse_48-16_1_" transform="translate(0.000000, 378.481000)">
                    <circle id="Ellipse_497" cx="6.2" cy="5.4" r="5.4"></circle>
                    <circle id="Ellipse_498" stroke="#72A5B5" cx="6.2" cy="5.4" r="4.9"></circle>
                </g>
                <g id="Ellipse_49-16_1_" transform="translate(21.627000, 378.481000)">
                    <circle id="Ellipse_499" cx="6.2" cy="5.4" r="5.4"></circle>
                    <circle id="Ellipse_500" stroke="#72A5B5" cx="6.2" cy="5.4" r="4.9"></circle>
                </g>
                <g id="Ellipse_50-16_1_" transform="translate(43.255000, 378.481000)">
                    <circle id="Ellipse_501" cx="6.2" cy="5.4" r="5.4"></circle>
                    <circle id="Ellipse_502" stroke="#72A5B5" cx="6.2" cy="5.4" r="4.9"></circle>
                </g>
                <g id="Ellipse_51-15_1_" transform="translate(64.882000, 378.481000)">
                    <circle id="Ellipse_503" cx="6.2" cy="5.4" r="5.4"></circle>
                    <circle id="Ellipse_504" stroke="#72A5B5" cx="6.2" cy="5.4" r="4.9"></circle>
                </g>
            </g>
            <g id="Group" transform="translate(720.000000, 0.000000)" fill="#FFFFFF" font-family="Roboto-Medium, Roboto" font-size="20" font-weight="400">
                <text id="Файловая-система">
                    <tspan x="3.84472656" y="21">Файловая система</tspan>
                </text>
            </g>
            <g id="Group" transform="translate(748.000000, 36.000000)" fill="#72A5B5">
                <path d="M0.7,11.7 C0.4,10.4 0.2,9.1 0.2,7.6 C0.2,6.1 0.4,4.8 0.7,3.5 C1,2.2 1.5,1.1 2.1,0.1 L3.2,0.1 C2.6,1.2 2.1,2.3 1.8,3.6 C1.5,4.8 1.4,6.2 1.4,7.6 C1.4,9 1.5,10.4 1.8,11.6 C2.1,12.8 2.6,14 3.2,15.1 L2.1,15.1 C1.5,14.1 1,13 0.7,11.7 Z" id="Path"></path>
                <polygon id="Path" points="5.6 0.8 6.8 0.8 6.8 12 5.6 12"></polygon>
                <path d="M18,1.8 C18.8,2.5 19.2,3.4 19.2,4.6 C19.2,5.8 18.8,6.7 18,7.4 C17.2,8.1 16.1,8.4 14.6,8.4 L11.6,8.4 L11.6,12 L10.4,12 L10.4,0.8 L14.6,0.8 C16.1,0.8 17.2,1.1 18,1.8 Z M17.2,6.7 C17.8,6.2 18.1,5.5 18.1,4.6 C18.1,3.7 17.8,3 17.2,2.5 C16.6,2 15.8,1.8 14.7,1.8 L11.7,1.8 L11.7,7.4 L14.7,7.4 C15.8,7.4 16.6,7.2 17.2,6.7 Z" id="Shape" fill-rule="nonzero"></path>
                <polygon id="Path" points="23 1.8 23 6.2 28.8 6.2 28.8 7.2 23 7.2 23 12 21.8 12 21.8 0.8 29.5 0.8 29.5 1.8"></polygon>
                <path d="M32.6,11.7 C31.8,11.4 31.2,11.1 30.8,10.6 L31.3,9.7 C31.7,10.1 32.2,10.4 32.9,10.7 C33.6,11 34.3,11.1 35,11.1 C36,11.1 36.8,10.9 37.3,10.5 C37.8,10.1 38.1,9.7 38.1,9.1 C38.1,8.7 38,8.3 37.7,8 C37.4,7.7 37.1,7.5 36.7,7.4 C36.3,7.3 35.8,7.1 35.1,6.9 C34.3,6.7 33.6,6.5 33.1,6.3 C32.6,6.1 32.2,5.8 31.8,5.4 C31.4,5 31.3,4.4 31.3,3.8 C31.3,3.2 31.4,2.7 31.7,2.3 C32,1.8 32.5,1.5 33.1,1.2 C33.7,0.9 34.5,0.8 35.4,0.8 C36,0.8 36.7,0.9 37.3,1.1 C37.9,1.3 38.4,1.5 38.9,1.8 L38.5,2.7 C38,2.4 37.5,2.2 37,2 C36.5,1.8 35.9,1.8 35.4,1.8 C34.4,1.8 33.7,2 33.2,2.4 C32.7,2.8 32.5,3.3 32.5,3.9 C32.5,4.3 32.6,4.7 32.9,5 C33.2,5.3 33.5,5.5 33.9,5.6 C34.3,5.7 34.9,5.9 35.6,6.1 C36.4,6.3 37.1,6.5 37.6,6.7 C38.1,6.9 38.5,7.2 38.9,7.6 C39.3,8 39.4,8.5 39.4,9.2 C39.4,9.8 39.2,10.3 38.9,10.7 C38.6,11.2 38.1,11.5 37.5,11.8 C36.9,12.1 36.1,12.2 35.2,12.2 C34.1,12.1 33.3,12 32.6,11.7 Z" id="Path"></path>
                <path d="M42.5,10.6 C42.7,10.8 42.7,11 42.7,11.2 C42.7,11.3 42.7,11.5 42.6,11.6 C42.5,11.7 42.5,11.9 42.4,12.1 L41.7,14.3 L40.9,14.3 L41.4,12 C41.2,11.9 41.1,11.8 41,11.7 C40.9,11.6 40.8,11.4 40.8,11.2 C40.8,11 40.9,10.7 41,10.6 C41.1,10.5 41.4,10.4 41.6,10.4 C41.8,10.4 42.4,10.4 42.5,10.6 Z" id="Path"></path>
                <path d="M50.3,11.7 C49.5,11.4 48.9,11.1 48.5,10.6 L49,9.7 C49.4,10.1 49.9,10.4 50.6,10.7 C51.3,11 52,11.1 52.7,11.1 C53.7,11.1 54.5,10.9 55,10.5 C55.5,10.1 55.8,9.7 55.8,9.1 C55.8,8.7 55.7,8.3 55.4,8 C55.1,7.7 54.8,7.5 54.4,7.4 C54,7.3 53.5,7.1 52.8,6.9 C52,6.7 51.3,6.5 50.8,6.3 C50.3,6.1 49.9,5.8 49.5,5.4 C49.1,5 49,4.4 49,3.8 C49,3.2 49.1,2.7 49.4,2.3 C49.7,1.8 50.2,1.5 50.8,1.2 C51.4,0.9 52.2,0.8 53.1,0.8 C53.7,0.8 54.4,0.9 55,1.1 C55.6,1.3 56.1,1.5 56.6,1.8 L56.2,2.7 C55.7,2.4 55.2,2.2 54.7,2 C54.2,1.8 53.6,1.8 53.1,1.8 C52.1,1.8 51.4,2 50.9,2.4 C50.4,2.8 50.2,3.3 50.2,3.9 C50.2,4.3 50.3,4.7 50.6,5 C50.9,5.3 51.2,5.5 51.6,5.6 C52,5.7 52.6,5.9 53.3,6.1 C54.1,6.3 54.8,6.5 55.3,6.7 C55.8,6.9 56.2,7.2 56.6,7.6 C57,8 57.1,8.5 57.1,9.2 C57.1,9.8 56.9,10.3 56.6,10.7 C56.3,11.1 55.8,11.5 55.2,11.8 C54.6,12.1 53.8,12.2 52.9,12.2 C51.9,12.1 51.1,12 50.3,11.7 Z" id="Path"></path>
                <path d="M63.6,11.5 C63.4,11.7 63.1,11.8 62.8,11.9 C62.5,12 62.2,12.1 61.8,12.1 C61,12.1 60.4,11.9 60,11.5 C59.6,11.1 59.4,10.5 59.4,9.7 L59.4,4.6 L57.9,4.6 L57.9,3.6 L59.4,3.6 L59.4,1.8 L60.5,1.8 L60.5,3.6 L63.1,3.6 L63.1,4.6 L60.5,4.6 L60.5,9.6 C60.5,10.1 60.6,10.5 60.9,10.7 C61.1,11 61.5,11.1 62,11.1 C62.2,11.1 62.5,11.1 62.7,11 C62.9,10.9 63.1,10.8 63.3,10.7 L63.6,11.5 Z" id="Path"></path>
                <path d="M66.7,11.5 C66,11.1 65.5,10.6 65.2,10 C64.8,9.3 64.6,8.6 64.6,7.8 C64.6,7 64.8,6.2 65.2,5.6 C65.6,4.9 66.1,4.4 66.7,4.1 C67.4,3.7 68.1,3.6 68.9,3.6 C69.7,3.6 70.4,3.8 71.1,4.1 C71.8,4.5 72.3,5 72.6,5.6 C72.9,6.2 73.2,7 73.2,7.8 C73.2,8.6 73,9.4 72.6,10 C72.2,10.6 71.7,11.2 71.1,11.5 C70.4,11.9 69.7,12.1 68.9,12.1 C68.1,12.1 67.3,11.9 66.7,11.5 Z M70.5,10.7 C71,10.4 71.3,10 71.6,9.5 C71.9,9 72,8.4 72,7.8 C72,7.2 71.9,6.6 71.6,6.1 C71.3,5.6 71,5.2 70.5,4.9 C70,4.6 69.5,4.5 68.9,4.5 C68.3,4.5 67.8,4.6 67.3,4.9 C66.8,5.2 66.5,5.6 66.2,6.1 C65.9,6.6 65.8,7.2 65.8,7.8 C65.8,8.4 65.9,9 66.2,9.5 C66.5,10 66.8,10.4 67.3,10.7 C67.8,11 68.3,11.1 68.9,11.1 C69.4,11.1 70,10.9 70.5,10.7 Z" id="Shape" fill-rule="nonzero"></path>
                <path d="M77.7,4 C78.2,3.7 78.9,3.6 79.7,3.6 L79.7,4.7 L79.4,4.7 C78.5,4.7 77.8,5 77.3,5.5 C76.8,6 76.5,6.8 76.5,7.8 L76.5,12 L75.4,12 L75.4,3.6 L76.5,3.6 L76.5,5.2 C76.8,4.7 77.2,4.2 77.7,4 Z" id="Path"></path>
                <path d="M79.6,15 C79.3,14.9 79,14.8 78.8,14.6 L79.2,13.7 C79.5,14 80,14.1 80.5,14.1 C80.9,14.1 81.3,14 81.5,13.7 C81.7,13.4 81.9,13 81.9,12.5 L81.9,3.5 L83,3.5 L83,12.5 C83,13.3 82.8,13.9 82.4,14.4 C82,14.9 81.4,15.1 80.6,15.1 C80.3,15.2 79.9,15.1 79.6,15 Z M81.9,1.5 C81.7,1.3 81.7,1.1 81.7,0.9 C81.7,0.7 81.8,0.5 81.9,0.3 C82.1,0.1 82.3,0.1 82.5,0.1 C82.7,0.1 82.9,0.2 83.1,0.3 C83.3,0.5 83.3,0.6 83.3,0.9 C83.3,1.1 83.2,1.3 83.1,1.5 C83,1.7 82.7,1.7 82.5,1.7 C82.3,1.7 82.1,1.6 81.9,1.5 Z" id="Shape" fill-rule="nonzero"></path>
                <path d="M97.8,8.1 L90.8,8.1 C90.9,9 91.2,9.7 91.8,10.2 C92.4,10.7 93.2,11 94.1,11 C94.6,11 95.1,10.9 95.5,10.7 C95.9,10.5 96.3,10.2 96.6,9.9 L97.2,10.6 C96.8,11 96.4,11.4 95.8,11.6 C95.2,11.8 94.6,12 94,12 C93.1,12 92.4,11.8 91.7,11.4 C91,11 90.5,10.5 90.1,9.9 C89.7,9.2 89.5,8.5 89.5,7.7 C89.5,6.9 89.7,6.1 90,5.5 C90.3,4.9 90.8,4.3 91.5,4 C92.1,3.6 92.8,3.5 93.6,3.5 C94.4,3.5 95.1,3.7 95.7,4 C96.3,4.4 96.8,4.9 97.2,5.5 C97.6,6.1 97.7,6.9 97.7,7.7 L97.8,8.1 Z M91.7,5.3 C91.2,5.8 90.8,6.5 90.8,7.3 L96.8,7.3 C96.7,6.5 96.4,5.8 95.9,5.3 C95.4,4.8 94.7,4.5 93.8,4.5 C92.9,4.5 92.2,4.8 91.7,5.3 Z" id="Shape" fill-rule="nonzero"></path>
                <path d="M104.5,11.5 C104.3,11.7 104,11.8 103.7,11.9 C103.4,12 103.1,12.1 102.7,12.1 C101.9,12.1 101.3,11.9 100.9,11.5 C100.5,11.1 100.3,10.5 100.3,9.7 L100.3,4.6 L98.8,4.6 L98.8,3.6 L100.3,3.6 L100.3,1.8 L101.4,1.8 L101.4,3.6 L104,3.6 L104,4.6 L101.4,4.6 L101.4,9.6 C101.4,10.1 101.5,10.5 101.8,10.7 C102.1,11 102.4,11.1 102.9,11.1 C103.1,11.1 103.4,11.1 103.6,11 C103.8,10.9 104,10.8 104.2,10.7 L104.5,11.5 Z" id="Path"></path>
                <path d="M107.5,11.5 C106.8,11.1 106.3,10.6 106,10 C105.6,9.3 105.4,8.6 105.4,7.8 C105.4,7 105.6,6.2 106,5.6 C106.4,4.9 106.9,4.4 107.5,4.1 C108.2,3.7 108.9,3.6 109.7,3.6 C110.4,3.6 111.1,3.7 111.6,4 C112.2,4.3 112.6,4.7 113,5.2 L112.2,5.8 C111.9,5.4 111.6,5.1 111.1,4.9 C110.6,4.7 110.2,4.6 109.7,4.6 C109.1,4.6 108.5,4.7 108.1,5 C107.6,5.3 107.2,5.7 107,6.2 C106.7,6.7 106.6,7.3 106.6,7.9 C106.6,8.6 106.7,9.1 107,9.6 C107.3,10.1 107.7,10.5 108.1,10.8 C108.6,11.1 109.1,11.2 109.7,11.2 C110.2,11.2 110.7,11.1 111.1,10.9 C111.5,10.7 111.9,10.4 112.2,10 L113,10.6 C112.7,11.1 112.2,11.6 111.6,11.8 C111,12.1 110.4,12.2 109.7,12.2 C108.9,12.1 108.2,11.9 107.5,11.5 Z" id="Path"></path>
                <path d="M114,15.1 C114.6,14 115.1,12.9 115.4,11.6 C115.7,10.4 115.8,9 115.8,7.6 C115.8,6.1 115.7,4.8 115.4,3.6 C115.1,2.4 114.6,1.2 114,0.1 L115.1,0.1 C115.7,1.1 116.2,2.2 116.5,3.5 C116.8,4.8 117,6.2 117,7.6 C117,9.1 116.8,10.4 116.5,11.7 C116.2,13 115.7,14.1 115.1,15.1 L114,15.1 Z" id="Path"></path>
            </g>
            <g id="Group_633_1_" transform="translate(768.487000, 110.186000)">
                <g id="Ellipse_48-17_1_">
                    <circle id="Ellipse_505" fill="#72A5B5" cx="6.2" cy="5.4" r="5.4"></circle>
                    <circle id="Ellipse_506" stroke="#72A5B5" cx="6.2" cy="5.4" r="4.9"></circle>
                </g>
                <g id="Ellipse_49-17_1_" transform="translate(21.627000, 0.000000)">
                    <circle id="Ellipse_507" fill="#72A5B5" cx="6.2" cy="5.4" r="5.4"></circle>
                    <circle id="Ellipse_508" stroke="#72A5B5" cx="6.2" cy="5.4" r="4.9"></circle>
                </g>
                <g id="Ellipse_50-17_1_" transform="translate(43.255000, 0.000000)">
                    <circle id="Ellipse_509" cx="6.2" cy="5.4" r="5.4"></circle>
                    <circle id="Ellipse_510" stroke="#72A5B5" cx="6.2" cy="5.4" r="4.9"></circle>
                </g>
                <g id="Path_810_1_" transform="translate(64.882000, 0.000000)">
                    <path d="M6.2,0 C9.2,0 11.6,2.4 11.6,5.4 C11.6,5.4 11.6,5.4 11.6,5.4 C11.6,8.4 9.2,10.8 6.2,10.8 C6.2,10.8 6.2,10.8 6.2,10.8 C3.2,10.8 0.8,8.4 0.8,5.4 C0.8,5.4 0.8,5.4 0.8,5.4 C0.8,2.4 3.2,0 6.2,0 C6.2,0 6.2,0 6.2,0 Z" id="Path_1059"></path>
                    <path d="M6.2,9.8 C8.6,9.8 10.6,7.8 10.6,5.4 C10.6,3 8.6,1 6.2,1 C3.8,1 1.8,3 1.8,5.4 C1.8,7.8 3.8,9.8 6.2,9.8 Z M6.2,10.8 C3.2,10.8 0.8,8.4 0.8,5.4 C0.8,5.4 0.8,5.4 0.8,5.4 C0.8,2.4 3.2,0 6.2,0 C6.2,0 6.2,0 6.2,0 C9.2,0 11.6,2.4 11.6,5.4 C11.6,5.4 11.6,5.4 11.6,5.4 C11.6,8.4 9.2,10.8 6.2,10.8 C6.2,10.8 6.2,10.8 6.2,10.8 Z" id="Path_1060" fill="#72A5B5" fill-rule="nonzero"></path>
                </g>
                <g id="Ellipse_48-18_1_" transform="translate(0.000000, 54.069000)">
                    <circle id="Ellipse_511" fill="#72A5B5" cx="6.2" cy="5.4" r="5.4"></circle>
                    <circle id="Ellipse_512" stroke="#72A5B5" cx="6.2" cy="5.4" r="4.9"></circle>
                </g>
                <g id="Ellipse_49-18_1_" transform="translate(21.627000, 54.069000)">
                    <circle id="Ellipse_513" fill="#72A5B5" cx="6.2" cy="5.4" r="5.4"></circle>
                    <circle id="Ellipse_514" stroke="#72A5B5" cx="6.2" cy="5.4" r="4.9"></circle>
                </g>
                <g id="Ellipse_50-18_1_" transform="translate(43.255000, 54.069000)">
                    <circle id="Ellipse_515" fill="#72A5B5" cx="6.2" cy="5.4" r="5.4"></circle>
                    <circle id="Ellipse_516" stroke="#72A5B5" cx="6.2" cy="5.4" r="4.9"></circle>
                </g>
                <g id="Ellipse_51-16_1_" transform="translate(64.882000, 54.069000)">
                    <circle id="Ellipse_517" fill="#72A5B5" cx="6.2" cy="5.4" r="5.4"></circle>
                    <circle id="Ellipse_518" stroke="#72A5B5" cx="6.2" cy="5.4" r="4.9"></circle>
                </g>
                <g id="Ellipse_48-19_1_" transform="translate(0.000000, 108.137000)">
                    <circle id="Ellipse_519" fill="#72A5B5" cx="6.2" cy="5.4" r="5.4"></circle>
                    <circle id="Ellipse_520" stroke="#72A5B5" cx="6.2" cy="5.4" r="4.9"></circle>
                </g>
                <g id="Ellipse_49-19_1_" transform="translate(21.627000, 108.137000)">
                    <circle id="Ellipse_521" fill="#72A5B5" cx="6.2" cy="5.4" r="5.4"></circle>
                    <circle id="Ellipse_522" stroke="#72A5B5" cx="6.2" cy="5.4" r="4.9"></circle>
                </g>
                <g id="Ellipse_50-19_1_" transform="translate(43.255000, 108.137000)">
                    <circle id="Ellipse_523" fill="#72A5B5" cx="6.2" cy="5.4" r="5.4"></circle>
                    <circle id="Ellipse_524" stroke="#72A5B5" cx="6.2" cy="5.4" r="4.9"></circle>
                </g>
                <g id="Ellipse_51-17_1_" transform="translate(64.882000, 108.137000)">
                    <circle id="Ellipse_525" fill="#72A5B5" cx="6.2" cy="5.4" r="5.4"></circle>
                    <circle id="Ellipse_526" stroke="#72A5B5" cx="6.2" cy="5.4" r="4.9"></circle>
                </g>
                <g id="Ellipse_48-20_1_" transform="translate(0.000000, 162.206000)">
                    <circle id="Ellipse_527" fill="#72A5B5" cx="6.2" cy="5.4" r="5.4"></circle>
                    <circle id="Ellipse_528" stroke="#72A5B5" cx="6.2" cy="5.4" r="4.9"></circle>
                </g>
                <g id="Ellipse_49-20_1_" transform="translate(21.627000, 162.206000)">
                    <circle id="Ellipse_529" cx="6.2" cy="5.4" r="5.4"></circle>
                    <circle id="Ellipse_530" stroke="#72A5B5" cx="6.2" cy="5.4" r="4.9"></circle>
                </g>
                <g id="Ellipse_50-20_1_" transform="translate(43.255000, 162.206000)">
                    <circle id="Ellipse_531" cx="6.2" cy="5.4" r="5.4"></circle>
                    <circle id="Ellipse_532" stroke="#72A5B5" cx="6.2" cy="5.4" r="4.9"></circle>
                </g>
                <g id="Ellipse_51-18_1_" transform="translate(64.882000, 162.206000)">
                    <circle id="Ellipse_533" cx="6.2" cy="5.4" r="5.4"></circle>
                    <circle id="Ellipse_534" stroke="#72A5B5" cx="6.2" cy="5.4" r="4.9"></circle>
                </g>
                <g id="Ellipse_48-21_1_" transform="translate(0.000000, 216.275000)">
                    <circle id="Ellipse_535" fill="#72A5B5" cx="6.2" cy="5.4" r="5.4"></circle>
                    <circle id="Ellipse_536" stroke="#72A5B5" cx="6.2" cy="5.4" r="4.9"></circle>
                </g>
                <g id="Ellipse_49-21_1_" transform="translate(21.627000, 216.275000)">
                    <circle id="Ellipse_537" fill="#72A5B5" cx="6.2" cy="5.4" r="5.4"></circle>
                    <circle id="Ellipse_538" stroke="#72A5B5" cx="6.2" cy="5.4" r="4.9"></circle>
                </g>
                <g id="Ellipse_50-21_1_" transform="translate(43.255000, 216.275000)">
                    <circle id="Ellipse_539" fill="#72A5B5" cx="6.2" cy="5.4" r="5.4"></circle>
                    <circle id="Ellipse_540" stroke="#72A5B5" cx="6.2" cy="5.4" r="4.9"></circle>
                </g>
                <g id="Ellipse_51-19_1_" transform="translate(64.882000, 216.275000)">
                    <circle id="Ellipse_541" fill="#72A5B5" cx="6.2" cy="5.4" r="5.4"></circle>
                    <circle id="Ellipse_542" stroke="#72A5B5" cx="6.2" cy="5.4" r="4.9"></circle>
                </g>
                <g id="Ellipse_48-22_1_" transform="translate(0.000000, 270.343000)">
                    <circle id="Ellipse_543" cx="6.2" cy="5.4" r="5.4"></circle>
                    <circle id="Ellipse_544" stroke="#72A5B5" cx="6.2" cy="5.4" r="4.9"></circle>
                </g>
                <g id="Ellipse_49-22_1_" transform="translate(21.627000, 270.343000)">
                    <circle id="Ellipse_545" cx="6.2" cy="5.4" r="5.4"></circle>
                    <circle id="Ellipse_546" stroke="#72A5B5" cx="6.2" cy="5.4" r="4.9"></circle>
                </g>
                <g id="Ellipse_50-22_1_" transform="translate(43.255000, 270.343000)">
                    <circle id="Ellipse_547" cx="6.2" cy="5.4" r="5.4"></circle>
                    <circle id="Ellipse_548" stroke="#72A5B5" cx="6.2" cy="5.4" r="4.9"></circle>
                </g>
                <g id="Ellipse_51-20_1_" transform="translate(64.882000, 270.343000)">
                    <circle id="Ellipse_549" cx="6.2" cy="5.4" r="5.4"></circle>
                    <circle id="Ellipse_550" stroke="#72A5B5" cx="6.2" cy="5.4" r="4.9"></circle>
                </g>
                <g id="Ellipse_48-23_1_" transform="translate(0.000000, 324.412000)">
                    <circle id="Ellipse_551" cx="6.2" cy="5.4" r="5.4"></circle>
                    <circle id="Ellipse_552" stroke="#72A5B5" cx="6.2" cy="5.4" r="4.9"></circle>
                </g>
                <g id="Ellipse_49-23_1_" transform="translate(21.627000, 324.412000)">
                    <circle id="Ellipse_553" cx="6.2" cy="5.4" r="5.4"></circle>
                    <circle id="Ellipse_554" stroke="#72A5B5" cx="6.2" cy="5.4" r="4.9"></circle>
                </g>
                <g id="Ellipse_50-23_1_" transform="translate(43.255000, 324.412000)">
                    <circle id="Ellipse_555" cx="6.2" cy="5.4" r="5.4"></circle>
                    <circle id="Ellipse_556" stroke="#72A5B5" cx="6.2" cy="5.4" r="4.9"></circle>
                </g>
                <g id="Ellipse_51-21_1_" transform="translate(64.882000, 324.412000)">
                    <circle id="Ellipse_557" cx="6.2" cy="5.4" r="5.4"></circle>
                    <circle id="Ellipse_558" stroke="#72A5B5" cx="6.2" cy="5.4" r="4.9"></circle>
                </g>
                <g id="Ellipse_48-24_1_" transform="translate(0.000000, 378.481000)">
                    <circle id="Ellipse_559" cx="6.2" cy="5.4" r="5.4"></circle>
                    <circle id="Ellipse_560" stroke="#72A5B5" cx="6.2" cy="5.4" r="4.9"></circle>
                </g>
                <g id="Ellipse_49-24_1_" transform="translate(21.627000, 378.481000)">
                    <circle id="Ellipse_561" cx="6.2" cy="5.4" r="5.4"></circle>
                    <circle id="Ellipse_562" stroke="#72A5B5" cx="6.2" cy="5.4" r="4.9"></circle>
                </g>
                <g id="Ellipse_50-24_1_" transform="translate(43.255000, 378.481000)">
                    <circle id="Ellipse_563" cx="6.2" cy="5.4" r="5.4"></circle>
                    <circle id="Ellipse_564" stroke="#72A5B5" cx="6.2" cy="5.4" r="4.9"></circle>
                </g>
                <g id="Ellipse_51-22_1_" transform="translate(64.882000, 378.481000)">
                    <circle id="Ellipse_565" cx="6.2" cy="5.4" r="5.4"></circle>
                    <circle id="Ellipse_566" stroke="#72A5B5" cx="6.2" cy="5.4" r="4.9"></circle>
                </g>
            </g>
            <path d="M27.5,141.5 L1115.1,141.5" id="Line_28" stroke="#FFFFFF" opacity="0.104"></path>
            <path d="M27.5,196.5 L1115.1,196.5" id="Line_29" stroke="#FFFFFF" opacity="0.104"></path>
            <path d="M27.5,249.5 L1115.1,249.5" id="Line_31" stroke="#FFFFFF" opacity="0.104"></path>
            <path d="M27.5,303.5 L1115.1,303.5" id="Line_32" stroke="#FFFFFF" opacity="0.104"></path>
            <path d="M27.5,357.5 L1115.1,357.5" id="Line_33" stroke="#FFFFFF" opacity="0.104"></path>
            <path d="M27.5,413.5 L1115.1,413.5" id="Line_34" stroke="#FFFFFF" opacity="0.104"></path>
            <path d="M27.5,466.5 L1115.1,466.5" id="Line_30" stroke="#FFFFFF" opacity="0.104"></path>
            <text id="OasisDDB" fill="#72A5B5" font-family="Avenir-Book, Avenir" font-size="24" font-weight="normal">
                <tspan x="518" y="55">OasisDDB</tspan>
            </text>
        </g>
    </g>
</svg>