<?xml version="1.0" encoding="UTF-8"?>
<svg width="259px" height="699px" viewBox="0 0 259 699" version="1.1" xmlns="http://www.w3.org/2000/svg" xmlns:xlink="http://www.w3.org/1999/xlink">
    <!-- Generator: Sketch 52.5 (67469) - http://www.bohemiancoding.com/sketch -->
    <title>table_mob_body</title>
    <desc>Created with Sketch.</desc>
    <g id="Page-1" stroke="none" stroke-width="1" fill="none" fill-rule="evenodd">
        <g id="table_mob_body" transform="translate(0.000000, -5.000000)">
            <g id="Group_742" transform="translate(3.000000, 0.000000)">
                <g id="Ellipse_388" transform="translate(0.000000, 34.185000)">
                    <circle id="Oval" fill="#72A5B5" cx="4.7" cy="4.3" r="4.2"></circle>
                    <circle id="Oval" stroke="#72A5B5" cx="4.7" cy="4.3" r="3.7"></circle>
                </g>
                <g id="Ellipse_389" transform="translate(16.844000, 34.185000)">
                    <circle id="Oval" fill="#72A5B5" cx="4.7" cy="4.3" r="4.2"></circle>
                    <circle id="Oval" stroke="#72A5B5" cx="4.7" cy="4.3" r="3.7"></circle>
                </g>
                <g id="Ellipse_390" transform="translate(33.688000, 34.185000)">
                    <circle id="Oval" cx="4.7" cy="4.3" r="4.2"></circle>
                    <circle id="Oval" stroke="#72A5B5" cx="4.7" cy="4.3" r="3.7"></circle>
                </g>
                <g id="Path_908" transform="translate(50.532000, 34.185000)">
                    <path d="M4.7,0.1 C7,0.1 8.9,2 8.9,4.3 C8.9,6.6 7,8.5 4.7,8.5 C2.4,8.5 0.5,6.6 0.5,4.3 C0.5,4.3 0.5,4.3 0.5,4.3 C0.5,1.9 2.4,0.1 4.7,0.1 Z" id="Path"></path>
                    <path d="M4.7,7.5 C6.5,7.5 7.9,6.1 7.9,4.3 C7.9,2.5 6.5,1.1 4.7,1.1 C2.9,1.1 1.5,2.5 1.5,4.3 C1.5,6.1 2.9,7.5 4.7,7.5 Z M4.7,8.5 C2.4,8.5 0.5,6.6 0.5,4.3 C0.5,2 2.4,0.1 4.7,0.1 C7,0.1 8.9,2 8.9,4.3 C8.9,6.6 7,8.5 4.7,8.5 Z" id="Shape" fill="#72A5B5" fill-rule="nonzero"></path>
                </g>
                <g id="Ellipse_415" transform="translate(186.000000, 34.185000)">
                    <circle id="Oval" fill="#72A5B5" cx="4.7" cy="4.3" r="4.2"></circle>
                    <circle id="Oval" stroke="#72A5B5" cx="4.7" cy="4.3" r="3.7"></circle>
                </g>
                <g id="Ellipse_416" transform="translate(202.807000, 34.185000)">
                    <circle id="Oval" fill="#72A5B5" cx="4.7" cy="4.3" r="4.2"></circle>
                    <circle id="Oval" stroke="#72A5B5" cx="4.7" cy="4.3" r="3.7"></circle>
                </g>
                <g id="Ellipse_417" transform="translate(219.613000, 34.185000)">
                    <circle id="Oval" fill="#72A5B5" cx="4.7" cy="4.3" r="4.2"></circle>
                    <circle id="Oval" stroke="#72A5B5" cx="4.7" cy="4.3" r="3.7"></circle>
                </g>
                <g id="Ellipse_418" transform="translate(236.420000, 34.185000)">
                    <circle id="Oval" cx="4.7" cy="4.3" r="4.2"></circle>
                    <circle id="Oval" stroke="#72A5B5" cx="4.7" cy="4.3" r="3.7"></circle>
                </g>
                <g id="Ellipse_442" transform="translate(97.000000, 34.198000)">
                    <circle id="Oval" fill="#ADD1DD" cx="4.7" cy="4.3" r="4.2"></circle>
                    <circle id="Oval" stroke="#ADD1DD" cx="4.7" cy="4.3" r="3.7"></circle>
                </g>
                <g id="Ellipse_443" transform="translate(113.843000, 34.198000)">
                    <circle id="Oval" fill="#ADD1DD" cx="4.7" cy="4.3" r="4.2"></circle>
                    <circle id="Oval" stroke="#ADD1DD" cx="4.7" cy="4.3" r="3.7"></circle>
                </g>
                <g id="Ellipse_444" transform="translate(130.687000, 34.198000)">
                    <circle id="Oval" fill="#ADD1DD" cx="4.7" cy="4.3" r="4.2"></circle>
                    <circle id="Oval" stroke="#ADD1DD" cx="4.7" cy="4.3" r="3.7"></circle>
                </g>
                <g id="Ellipse_445" transform="translate(147.530000, 34.198000)">
                    <circle id="Oval" fill="#ADD1DD" cx="4.7" cy="4.3" r="4.2"></circle>
                    <circle id="Oval" stroke="#ADD1DD" cx="4.7" cy="4.3" r="3.7"></circle>
                </g>
                <g id="Group" fill="#FFFFFF" font-family="Roboto-Regular, Roboto" font-size="15" font-weight="normal">
                    <text id="РАСПРЕДЕЛЕНИЕ">
                        <tspan x="59.2224121" y="16">РАСПРЕДЕЛЕНИЕ</tspan>
                    </text>
                </g>
            </g>
            <path d="M0,58.6 L259,58.6" id="Line_27" stroke="#FFFFFF" opacity="0.205"></path>
            <path d="M0,131.6 L259,131.6" id="Line_28" stroke="#FFFFFF" opacity="0.205"></path>
            <path d="M0,223.6 L259,223.6" id="Line_29" stroke="#FFFFFF" opacity="0.205"></path>
            <path d="M0,294.6 L259,294.6" id="Line_30" stroke="#FFFFFF" opacity="0.205"></path>
            <path d="M0,372.6 L259,372.6" id="Line_31" stroke="#FFFFFF" opacity="0.205"></path>
            <path d="M0,470.6 L259,470.6" id="Line_32" stroke="#FFFFFF" opacity="0.205"></path>
            <path d="M0,549.6 L259,549.6" id="Line_33" stroke="#FFFFFF" opacity="0.205"></path>
            <path d="M0,702.6 L259,702.6" id="Line_34" stroke="#FFFFFF" opacity="0.205"></path>
            <g id="Group_743" transform="translate(3.000000, 72.000000)">
                <g id="Ellipse_387" transform="translate(146.530000, 34.307000)">
                    <circle id="Oval" fill="#ADD1DD" cx="4.7" cy="4.3" r="4.2"></circle>
                    <circle id="Oval" stroke="#ADD1DD" cx="4.7" cy="4.3" r="3.7"></circle>
                </g>
                <g id="Ellipse_391" transform="translate(0.000000, 34.295000)">
                    <circle id="Oval" fill="#72A5B5" cx="4.7" cy="4.3" r="4.2"></circle>
                    <circle id="Oval" stroke="#72A5B5" cx="4.7" cy="4.3" r="3.7"></circle>
                </g>
                <g id="Ellipse_392" transform="translate(16.844000, 34.295000)">
                    <circle id="Oval" fill="#72A5B5" cx="4.7" cy="4.3" r="4.2"></circle>
                    <circle id="Oval" stroke="#72A5B5" cx="4.7" cy="4.3" r="3.7"></circle>
                </g>
                <g id="Ellipse_393" transform="translate(33.688000, 34.295000)">
                    <circle id="Oval" fill="#72A5B5" cx="4.7" cy="4.3" r="4.2"></circle>
                    <circle id="Oval" stroke="#72A5B5" cx="4.7" cy="4.3" r="3.7"></circle>
                </g>
                <g id="Ellipse_394" transform="translate(50.532000, 34.295000)">
                    <circle id="Oval" fill="#72A5B5" cx="4.7" cy="4.3" r="4.2"></circle>
                    <circle id="Oval" stroke="#72A5B5" cx="4.7" cy="4.3" r="3.7"></circle>
                </g>
                <g id="Ellipse_419" transform="translate(186.000000, 34.201000)">
                    <circle id="Oval" fill="#72A5B5" cx="4.7" cy="4.3" r="4.2"></circle>
                    <circle id="Oval" stroke="#72A5B5" cx="4.7" cy="4.3" r="3.7"></circle>
                </g>
                <g id="Ellipse_420" transform="translate(202.807000, 34.201000)">
                    <circle id="Oval" fill="#72A5B5" cx="4.7" cy="4.3" r="4.2"></circle>
                    <circle id="Oval" stroke="#72A5B5" cx="4.7" cy="4.3" r="3.7"></circle>
                </g>
                <g id="Ellipse_421" transform="translate(219.613000, 34.201000)">
                    <circle id="Oval" fill="#72A5B5" cx="4.7" cy="4.3" r="4.2"></circle>
                    <circle id="Oval" stroke="#72A5B5" cx="4.7" cy="4.3" r="3.7"></circle>
                </g>
                <g id="Path_909" transform="translate(236.420000, 34.201000)">
                    <path d="M4.7,0.1 C7,0.1 8.9,2 8.9,4.3 C8.9,6.6 7,8.5 4.7,8.5 C2.4,8.5 0.5,6.6 0.5,4.3 C0.5,1.9 2.4,0.1 4.7,0.1 C4.7,0.1 4.7,0.1 4.7,0.1 Z" id="Path"></path>
                    <path d="M4.7,7.5 C6.5,7.5 7.9,6.1 7.9,4.3 C7.9,2.5 6.5,1.1 4.7,1.1 C2.9,1.1 1.5,2.5 1.5,4.3 C1.5,6 2.9,7.5 4.7,7.5 Z M4.7,8.5 C2.4,8.5 0.5,6.6 0.5,4.3 C0.5,2 2.4,0.1 4.7,0.1 C7,0.1 8.9,2 8.9,4.3 C8.9,6.6 7,8.5 4.7,8.5 Z" id="Shape" fill="#72A5B5" fill-rule="nonzero"></path>
                </g>
                <g id="Ellipse_446" transform="translate(97.000000, 34.307000)">
                    <circle id="Oval" fill="#ADD1DD" cx="4.7" cy="4.3" r="4.2"></circle>
                    <circle id="Oval" stroke="#ADD1DD" cx="4.7" cy="4.3" r="3.7"></circle>
                </g>
                <g id="Ellipse_447" transform="translate(113.843000, 34.307000)">
                    <circle id="Oval" fill="#ADD1DD" cx="4.7" cy="4.3" r="4.2"></circle>
                    <circle id="Oval" stroke="#ADD1DD" cx="4.7" cy="4.3" r="3.7"></circle>
                </g>
                <g id="Ellipse_448" transform="translate(130.687000, 34.307000)">
                    <circle id="Oval" fill="#ADD1DD" cx="4.7" cy="4.3" r="4.2"></circle>
                    <circle id="Oval" stroke="#ADD1DD" cx="4.7" cy="4.3" r="3.7"></circle>
                </g>
                <text id="ПУБЛИЧНОСТЬ" font-family="Roboto-Regular, Roboto" font-size="15" font-weight="normal" fill="#FFFFFF">
                    <tspan x="67.355957" y="16">ПУБЛИЧНОСТЬ</tspan>
                </text>
            </g>
            <g id="Group_744" transform="translate(3.000000, 143.000000)">
                <g id="Ellipse_449" transform="translate(97.000000, 55.415000)">
                    <circle id="Oval" fill="#ADD1DD" cx="4.7" cy="4.3" r="4.2"></circle>
                    <circle id="Oval" stroke="#ADD1DD" cx="4.7" cy="4.3" r="3.7"></circle>
                </g>
                <g id="Ellipse_450" transform="translate(113.843000, 55.415000)">
                    <circle id="Oval" fill="#ADD1DD" cx="4.7" cy="4.3" r="4.2"></circle>
                    <circle id="Oval" stroke="#ADD1DD" cx="4.7" cy="4.3" r="3.7"></circle>
                </g>
                <g id="Ellipse_451" transform="translate(130.687000, 55.415000)">
                    <circle id="Oval" fill="#ADD1DD" cx="4.7" cy="4.3" r="4.2"></circle>
                    <circle id="Oval" stroke="#ADD1DD" cx="4.7" cy="4.3" r="3.7"></circle>
                </g>
                <g id="Ellipse_452" transform="translate(147.530000, 55.415000)">
                    <circle id="Oval" fill="#ADD1DD" cx="4.7" cy="4.3" r="4.2"></circle>
                    <circle id="Oval" stroke="#ADD1DD" cx="4.7" cy="4.3" r="3.7"></circle>
                </g>
                <g id="Ellipse_453" transform="translate(0.000000, 55.405000)">
                    <circle id="Oval" fill="#72A5B5" cx="4.7" cy="4.3" r="4.2"></circle>
                    <circle id="Oval" stroke="#72A5B5" cx="4.7" cy="4.3" r="3.7"></circle>
                </g>
                <g id="Ellipse_454" transform="translate(16.844000, 55.405000)">
                    <circle id="Oval" fill="#72A5B5" cx="4.7" cy="4.3" r="4.2"></circle>
                    <circle id="Oval" stroke="#72A5B5" cx="4.7" cy="4.3" r="3.7"></circle>
                </g>
                <g id="Ellipse_455" transform="translate(33.688000, 55.405000)">
                    <circle id="Oval" fill="#72A5B5" cx="4.7" cy="4.3" r="4.2"></circle>
                    <circle id="Oval" stroke="#72A5B5" cx="4.7" cy="4.3" r="3.7"></circle>
                </g>
                <g id="Ellipse_456" transform="translate(50.532000, 55.405000)">
                    <circle id="Oval" fill="#72A5B5" cx="4.7" cy="4.3" r="4.2"></circle>
                    <circle id="Oval" stroke="#72A5B5" cx="4.7" cy="4.3" r="3.7"></circle>
                </g>
                <g id="Ellipse_457" transform="translate(186.000000, 55.218000)">
                    <circle id="Oval" fill="#72A5B5" cx="4.7" cy="4.3" r="4.2"></circle>
                    <circle id="Oval" stroke="#72A5B5" cx="4.7" cy="4.3" r="3.7"></circle>
                </g>
                <g id="Ellipse_458" transform="translate(202.807000, 55.218000)">
                    <circle id="Oval" cx="4.7" cy="4.3" r="4.2"></circle>
                    <circle id="Oval" stroke="#72A5B5" cx="4.7" cy="4.3" r="3.7"></circle>
                </g>
                <g id="Ellipse_459" transform="translate(219.613000, 55.218000)">
                    <circle id="Oval" cx="4.7" cy="4.3" r="4.2"></circle>
                    <circle id="Oval" stroke="#72A5B5" cx="4.7" cy="4.3" r="3.7"></circle>
                </g>
                <g id="Ellipse_460" transform="translate(236.420000, 55.218000)">
                    <circle id="Oval" cx="4.7" cy="4.3" r="4.2"></circle>
                    <circle id="Oval" stroke="#72A5B5" cx="4.7" cy="4.3" r="3.7"></circle>
                </g>
                <text id="УСТОЙЧИВОСТЬ-К-ПРОБЛ" font-family="Roboto-Regular, Roboto" font-size="15" font-weight="normal" fill="#FFFFFF">
                    <tspan x="14.6801758" y="16">УСТОЙЧИВОСТЬ К ПРОБЛЕМЕ</tspan>
                    <tspan x="18.2214355" y="36">ВИЗАНТИЙСКИХ ГЕНЕРАЛОВ</tspan>
                </text>
            </g>
            <g id="Group_745" transform="translate(3.000000, 234.000000)">
                <g id="Ellipse_395" transform="translate(0.000000, 35.515000)">
                    <circle id="Oval" fill="#72A5B5" cx="4.7" cy="4.3" r="4.2"></circle>
                    <circle id="Oval" stroke="#72A5B5" cx="4.7" cy="4.3" r="3.7"></circle>
                </g>
                <g id="Ellipse_396" transform="translate(16.844000, 35.515000)">
                    <circle id="Oval" cx="4.7" cy="4.3" r="4.2"></circle>
                    <circle id="Oval" stroke="#72A5B5" cx="4.7" cy="4.3" r="3.7"></circle>
                </g>
                <g id="Ellipse_397" transform="translate(33.688000, 35.515000)">
                    <circle id="Oval" cx="4.7" cy="4.3" r="4.2"></circle>
                    <circle id="Oval" stroke="#72A5B5" cx="4.7" cy="4.3" r="3.7"></circle>
                </g>
                <g id="Ellipse_398" transform="translate(50.532000, 35.515000)">
                    <circle id="Oval" cx="4.7" cy="4.3" r="4.2"></circle>
                    <circle id="Oval" stroke="#72A5B5" cx="4.7" cy="4.3" r="3.7"></circle>
                </g>
                <g id="Ellipse_438" transform="translate(97.000000, 35.523000)">
                    <circle id="Oval" fill="#ADD1DD" cx="4.7" cy="4.3" r="4.2"></circle>
                    <circle id="Oval" stroke="#ADD1DD" cx="4.7" cy="4.3" r="3.7"></circle>
                </g>
                <g id="Ellipse_439" transform="translate(113.843000, 35.523000)">
                    <circle id="Oval" fill="#ADD1DD" cx="4.7" cy="4.3" r="4.2"></circle>
                    <circle id="Oval" stroke="#ADD1DD" cx="4.7" cy="4.3" r="3.7"></circle>
                </g>
                <g id="Ellipse_440" transform="translate(130.687000, 35.523000)">
                    <circle id="Oval" fill="#ADD1DD" cx="4.7" cy="4.3" r="4.2"></circle>
                    <circle id="Oval" stroke="#ADD1DD" cx="4.7" cy="4.3" r="3.7"></circle>
                </g>
                <g id="Ellipse_441" transform="translate(147.530000, 35.523000)">
                    <circle id="Oval" fill="#ADD1DD" cx="4.7" cy="4.3" r="4.2"></circle>
                    <circle id="Oval" stroke="#ADD1DD" cx="4.7" cy="4.3" r="3.7"></circle>
                </g>
                <g id="Ellipse_461" transform="translate(186.000000, 35.234000)">
                    <circle id="Oval" fill="#72A5B5" cx="4.7" cy="4.3" r="4.2"></circle>
                    <circle id="Oval" stroke="#72A5B5" cx="4.7" cy="4.3" r="3.7"></circle>
                </g>
                <g id="Ellipse_462" transform="translate(202.807000, 35.234000)">
                    <circle id="Oval" fill="#72A5B5" cx="4.7" cy="4.3" r="4.2"></circle>
                    <circle id="Oval" stroke="#72A5B5" cx="4.7" cy="4.3" r="3.7"></circle>
                </g>
                <g id="Ellipse_463" transform="translate(219.613000, 35.234000)">
                    <circle id="Oval" cx="4.7" cy="4.3" r="4.2"></circle>
                    <circle id="Oval" stroke="#72A5B5" cx="4.7" cy="4.3" r="3.7"></circle>
                </g>
                <g id="Ellipse_464" transform="translate(236.420000, 35.234000)">
                    <circle id="Oval" cx="4.7" cy="4.3" r="4.2"></circle>
                    <circle id="Oval" stroke="#72A5B5" cx="4.7" cy="4.3" r="3.7"></circle>
                </g>
                <text id="ПОДДЕРЖКА-ШАРДИНГА" font-family="Roboto-Regular, Roboto" font-size="15" font-weight="normal" fill="#FFFFFF">
                    <tspan x="31.192627" y="16.289">ПОДДЕРЖКА ШАРДИНГА</tspan>
                </text>
            </g>
            <g id="Group_746" transform="translate(3.000000, 309.000000)">
                <g id="Ellipse_399" transform="translate(0.000000, 37.625000)">
                    <circle id="Oval" fill="#72A5B5" cx="4.7" cy="4.3" r="4.2"></circle>
                    <circle id="Oval" stroke="#72A5B5" cx="4.7" cy="4.3" r="3.7"></circle>
                </g>
                <g id="Ellipse_400" transform="translate(16.844000, 37.625000)">
                    <circle id="Oval" fill="#72A5B5" cx="4.7" cy="4.3" r="4.2"></circle>
                    <circle id="Oval" stroke="#72A5B5" cx="4.7" cy="4.3" r="3.7"></circle>
                </g>
                <g id="Ellipse_401" transform="translate(33.688000, 37.625000)">
                    <circle id="Oval" fill="#72A5B5" cx="4.7" cy="4.3" r="4.2"></circle>
                    <circle id="Oval" stroke="#72A5B5" cx="4.7" cy="4.3" r="3.7"></circle>
                </g>
                <g id="Ellipse_402" transform="translate(50.532000, 37.625000)">
                    <circle id="Oval" fill="#72A5B5" cx="4.7" cy="4.3" r="4.2"></circle>
                    <circle id="Oval" stroke="#72A5B5" cx="4.7" cy="4.3" r="3.7"></circle>
                </g>
                <g id="Ellipse_434" transform="translate(97.000000, 37.631000)">
                    <circle id="Oval" fill="#ADD1DD" cx="4.7" cy="4.3" r="4.2"></circle>
                    <circle id="Oval" stroke="#ADD1DD" cx="4.7" cy="4.3" r="3.7"></circle>
                </g>
                <g id="Ellipse_435" transform="translate(113.843000, 37.631000)">
                    <circle id="Oval" fill="#ADD1DD" cx="4.7" cy="4.3" r="4.2"></circle>
                    <circle id="Oval" stroke="#ADD1DD" cx="4.7" cy="4.3" r="3.7"></circle>
                </g>
                <g id="Ellipse_436" transform="translate(130.687000, 37.631000)">
                    <circle id="Oval" fill="#ADD1DD" cx="4.7" cy="4.3" r="4.2"></circle>
                    <circle id="Oval" stroke="#ADD1DD" cx="4.7" cy="4.3" r="3.7"></circle>
                </g>
                <g id="Ellipse_437" transform="translate(147.530000, 37.631000)">
                    <circle id="Oval" fill="#ADD1DD" cx="4.7" cy="4.3" r="4.2"></circle>
                    <circle id="Oval" stroke="#ADD1DD" cx="4.7" cy="4.3" r="3.7"></circle>
                </g>
                <g id="Ellipse_465" transform="translate(186.000000, 37.250000)">
                    <circle id="Oval" fill="#72A5B5" cx="4.7" cy="4.3" r="4.2"></circle>
                    <circle id="Oval" stroke="#72A5B5" cx="4.7" cy="4.3" r="3.7"></circle>
                </g>
                <g id="Ellipse_466" transform="translate(202.807000, 37.250000)">
                    <circle id="Oval" fill="#72A5B5" cx="4.7" cy="4.3" r="4.2"></circle>
                    <circle id="Oval" stroke="#72A5B5" cx="4.7" cy="4.3" r="3.7"></circle>
                </g>
                <g id="Ellipse_467" transform="translate(219.613000, 37.250000)">
                    <circle id="Oval" fill="#72A5B5" cx="4.7" cy="4.3" r="4.2"></circle>
                    <circle id="Oval" stroke="#72A5B5" cx="4.7" cy="4.3" r="3.7"></circle>
                </g>
                <g id="Ellipse_468" transform="translate(236.420000, 37.250000)">
                    <circle id="Oval" cx="4.7" cy="4.3" r="4.2"></circle>
                    <circle id="Oval" stroke="#72A5B5" cx="4.7" cy="4.3" r="3.7"></circle>
                </g>
                <text id="ПОДДЕРЖКА-ШАРДИНГА" font-family="Roboto-Regular, Roboto" font-size="15" font-weight="normal" fill="#FFFFFF">
                    <tspan x="83.692627" y="16.381">СКОРОСТЬ</tspan>
                </text>
            </g>
            <g id="Group_747" transform="translate(3.000000, 386.000000)">
                <g id="Ellipse_403" transform="translate(0.000000, 58.735000)">
                    <circle id="Oval" cx="4.7" cy="4.3" r="4.2"></circle>
                    <circle id="Oval" stroke="#72A5B5" cx="4.7" cy="4.3" r="3.7"></circle>
                </g>
                <g id="Ellipse_404" transform="translate(16.844000, 58.735000)">
                    <circle id="Oval" cx="4.7" cy="4.3" r="4.2"></circle>
                    <circle id="Oval" stroke="#72A5B5" cx="4.7" cy="4.3" r="3.7"></circle>
                </g>
                <g id="Ellipse_405" transform="translate(33.688000, 58.735000)">
                    <circle id="Oval" cx="4.7" cy="4.3" r="4.2"></circle>
                    <circle id="Oval" stroke="#72A5B5" cx="4.7" cy="4.3" r="3.7"></circle>
                </g>
                <g id="Ellipse_406" transform="translate(50.532000, 58.735000)">
                    <circle id="Oval" cx="4.7" cy="4.3" r="4.2"></circle>
                    <circle id="Oval" stroke="#72A5B5" cx="4.7" cy="4.3" r="3.7"></circle>
                </g>
                <g id="Ellipse_430" transform="translate(97.000000, 58.739000)">
                    <circle id="Oval" fill="#ADD1DD" cx="4.7" cy="4.3" r="4.2"></circle>
                    <circle id="Oval" stroke="#ADD1DD" cx="4.7" cy="4.3" r="3.7"></circle>
                </g>
                <g id="Ellipse_431" transform="translate(113.843000, 58.739000)">
                    <circle id="Oval" fill="#ADD1DD" cx="4.7" cy="4.3" r="4.2"></circle>
                    <circle id="Oval" stroke="#ADD1DD" cx="4.7" cy="4.3" r="3.7"></circle>
                </g>
                <g id="Ellipse_432" transform="translate(130.687000, 58.739000)">
                    <circle id="Oval" fill="#ADD1DD" cx="4.7" cy="4.3" r="4.2"></circle>
                    <circle id="Oval" stroke="#ADD1DD" cx="4.7" cy="4.3" r="3.7"></circle>
                </g>
                <g id="Ellipse_433" transform="translate(147.530000, 58.739000)">
                    <circle id="Oval" fill="#ADD1DD" cx="4.7" cy="4.3" r="4.2"></circle>
                    <circle id="Oval" stroke="#ADD1DD" cx="4.7" cy="4.3" r="3.7"></circle>
                </g>
                <g id="Ellipse_469" transform="translate(186.000000, 58.267000)">
                    <circle id="Oval" fill="#72A5B5" cx="4.7" cy="4.3" r="4.2"></circle>
                    <circle id="Oval" stroke="#72A5B5" cx="4.7" cy="4.3" r="3.7"></circle>
                </g>
                <g id="Ellipse_470" transform="translate(202.807000, 58.267000)">
                    <circle id="Oval" fill="#72A5B5" cx="4.7" cy="4.3" r="4.2"></circle>
                    <circle id="Oval" stroke="#72A5B5" cx="4.7" cy="4.3" r="3.7"></circle>
                </g>
                <g id="Ellipse_471" transform="translate(219.613000, 58.267000)">
                    <circle id="Oval" fill="#72A5B5" cx="4.7" cy="4.3" r="4.2"></circle>
                    <circle id="Oval" stroke="#72A5B5" cx="4.7" cy="4.3" r="3.7"></circle>
                </g>
                <g id="Ellipse_472" transform="translate(236.420000, 58.267000)">
                    <circle id="Oval" fill="#72A5B5" cx="4.7" cy="4.3" r="4.2"></circle>
                    <circle id="Oval" stroke="#72A5B5" cx="4.7" cy="4.3" r="3.7"></circle>
                </g>
                <text id="ПОДДЕРЖКА-ШАРДИНГА" font-family="Roboto-Regular, Roboto" font-size="15" font-weight="normal" fill="#FFFFFF">
                    <tspan x="13.1420898" y="16">ВОЗМОЖНОСТЬ ЗАПИСЫВАТЬ</tspan>
                    <tspan x="4.89135742" y="36">СТРУКТУРИРОВАННЫЕ ДАННЫЕ</tspan>
                </text>
            </g>
            <g id="Group_748" transform="translate(3.000000, 478.000000)">
                <g id="Ellipse_407" transform="translate(0.000000, 45.845000)">
                    <circle id="Oval" cx="4.7" cy="4.3" r="4.2"></circle>
                    <circle id="Oval" stroke="#72A5B5" cx="4.7" cy="4.3" r="3.7"></circle>
                </g>
                <g id="Ellipse_408" transform="translate(16.844000, 45.845000)">
                    <circle id="Oval" cx="4.7" cy="4.3" r="4.2"></circle>
                    <circle id="Oval" stroke="#72A5B5" cx="4.7" cy="4.3" r="3.7"></circle>
                </g>
                <g id="Ellipse_409" transform="translate(33.688000, 45.845000)">
                    <circle id="Oval" cx="4.7" cy="4.3" r="4.2"></circle>
                    <circle id="Oval" stroke="#72A5B5" cx="4.7" cy="4.3" r="3.7"></circle>
                </g>
                <g id="Ellipse_410" transform="translate(50.532000, 45.845000)">
                    <circle id="Oval" cx="4.7" cy="4.3" r="4.2"></circle>
                    <circle id="Oval" stroke="#72A5B5" cx="4.7" cy="4.3" r="3.7"></circle>
                </g>
                <g id="Ellipse_426" transform="translate(97.000000, 45.847000)">
                    <circle id="Oval" fill="#ADD1DD" cx="4.7" cy="4.3" r="4.2"></circle>
                    <circle id="Oval" stroke="#ADD1DD" cx="4.7" cy="4.3" r="3.7"></circle>
                </g>
                <g id="Ellipse_427" transform="translate(113.843000, 45.847000)">
                    <circle id="Oval" fill="#ADD1DD" cx="4.7" cy="4.3" r="4.2"></circle>
                    <circle id="Oval" stroke="#ADD1DD" cx="4.7" cy="4.3" r="3.7"></circle>
                </g>
                <g id="Ellipse_428" transform="translate(130.687000, 45.847000)">
                    <circle id="Oval" fill="#ADD1DD" cx="4.7" cy="4.3" r="4.2"></circle>
                    <circle id="Oval" stroke="#ADD1DD" cx="4.7" cy="4.3" r="3.7"></circle>
                </g>
                <g id="Ellipse_429" transform="translate(147.530000, 45.847000)">
                    <circle id="Oval" fill="#ADD1DD" cx="4.7" cy="4.3" r="4.2"></circle>
                    <circle id="Oval" stroke="#ADD1DD" cx="4.7" cy="4.3" r="3.7"></circle>
                </g>
                <g id="Ellipse_473" transform="translate(186.000000, 45.283000)">
                    <circle id="Oval" cx="4.7" cy="4.3" r="4.2"></circle>
                    <circle id="Oval" stroke="#72A5B5" cx="4.7" cy="4.3" r="3.7"></circle>
                </g>
                <g id="Ellipse_474" transform="translate(202.807000, 45.283000)">
                    <circle id="Oval" cx="4.7" cy="4.3" r="4.2"></circle>
                    <circle id="Oval" stroke="#72A5B5" cx="4.7" cy="4.3" r="3.7"></circle>
                </g>
                <g id="Ellipse_475" transform="translate(219.613000, 45.283000)">
                    <circle id="Oval" cx="4.7" cy="4.3" r="4.2"></circle>
                    <circle id="Oval" stroke="#72A5B5" cx="4.7" cy="4.3" r="3.7"></circle>
                </g>
                <g id="Ellipse_476" transform="translate(236.420000, 45.283000)">
                    <circle id="Oval" cx="4.7" cy="4.3" r="4.2"></circle>
                    <circle id="Oval" stroke="#72A5B5" cx="4.7" cy="4.3" r="3.7"></circle>
                </g>
                <text id="ПОДДЕРЖКА-ШАРДИНГА" font-family="Roboto-Regular, Roboto" font-size="15" font-weight="normal" fill="#FFFFFF">
                    <tspan x="29.083252" y="16">ВОЗМОЖНОСТЬ УДАЛЯТЬ </tspan>
                    <tspan x="90.526123" y="36">ДАННЫЕ</tspan>
                </text>
            </g>
            <g id="Group_749" transform="translate(3.000000, 565.000000)">
                <g id="Ellipse_411" transform="translate(0.000000, 110.955000)">
                    <circle id="Oval" cx="4.7" cy="4.3" r="4.2"></circle>
                    <circle id="Oval" stroke="#72A5B5" cx="4.7" cy="4.3" r="3.7"></circle>
                </g>
                <g id="Ellipse_412" transform="translate(16.844000, 110.955000)">
                    <circle id="Oval" cx="4.7" cy="4.3" r="4.2"></circle>
                    <circle id="Oval" stroke="#72A5B5" cx="4.7" cy="4.3" r="3.7"></circle>
                </g>
                <g id="Ellipse_413" transform="translate(33.688000, 110.955000)">
                    <circle id="Oval" cx="4.7" cy="4.3" r="4.2"></circle>
                    <circle id="Oval" stroke="#72A5B5" cx="4.7" cy="4.3" r="3.7"></circle>
                </g>
                <g id="Ellipse_414" transform="translate(50.532000, 110.955000)">
                    <circle id="Oval" cx="4.7" cy="4.3" r="4.2"></circle>
                    <circle id="Oval" stroke="#72A5B5" cx="4.7" cy="4.3" r="3.7"></circle>
                </g>
                <g id="Ellipse_422" transform="translate(97.000000, 110.956000)">
                    <circle id="Oval" fill="#ADD1DD" cx="4.7" cy="4.3" r="4.2"></circle>
                    <circle id="Oval" stroke="#ADD1DD" cx="4.7" cy="4.3" r="3.7"></circle>
                </g>
                <g id="Ellipse_423" transform="translate(113.843000, 110.956000)">
                    <circle id="Oval" fill="#ADD1DD" cx="4.7" cy="4.3" r="4.2"></circle>
                    <circle id="Oval" stroke="#ADD1DD" cx="4.7" cy="4.3" r="3.7"></circle>
                </g>
                <g id="Ellipse_424" transform="translate(130.687000, 110.956000)">
                    <circle id="Oval" fill="#ADD1DD" cx="4.7" cy="4.3" r="4.2"></circle>
                    <circle id="Oval" stroke="#ADD1DD" cx="4.7" cy="4.3" r="3.7"></circle>
                </g>
                <g id="Ellipse_425" transform="translate(147.530000, 110.956000)">
                    <circle id="Oval" fill="#ADD1DD" cx="4.7" cy="4.3" r="4.2"></circle>
                    <circle id="Oval" stroke="#ADD1DD" cx="4.7" cy="4.3" r="3.7"></circle>
                </g>
                <g id="Ellipse_477" transform="translate(186.000000, 110.299000)">
                    <circle id="Oval" cx="4.7" cy="4.3" r="4.2"></circle>
                    <circle id="Oval" stroke="#72A5B5" cx="4.7" cy="4.3" r="3.7"></circle>
                </g>
                <g id="Ellipse_478" transform="translate(202.807000, 110.299000)">
                    <circle id="Oval" cx="4.7" cy="4.3" r="4.2"></circle>
                    <circle id="Oval" stroke="#72A5B5" cx="4.7" cy="4.3" r="3.7"></circle>
                </g>
                <g id="Ellipse_479" transform="translate(219.613000, 110.299000)">
                    <circle id="Oval" cx="4.7" cy="4.3" r="4.2"></circle>
                    <circle id="Oval" stroke="#72A5B5" cx="4.7" cy="4.3" r="3.7"></circle>
                </g>
                <g id="Ellipse_480" transform="translate(236.420000, 110.299000)">
                    <circle id="Oval" cx="4.7" cy="4.3" r="4.2"></circle>
                    <circle id="Oval" stroke="#72A5B5" cx="4.7" cy="4.3" r="3.7"></circle>
                </g>
                <text id="ПОДДЕРЖКА-ШАРДИНГА" font-family="Roboto-Regular, Roboto" font-size="15" font-weight="normal" fill="#FFFFFF">
                    <tspan x="54.0881348" y="16">ЯЗЫК ЗАПРОСОВ С </tspan>
                    <tspan x="5.53955078" y="36">ВОЗМОЖНОСТЬЮ ВЕСТИ ПОИСК </tspan>
                    <tspan x="34.9206543" y="56">ИСПОЛЬЗУЯ НЕ ТОЛЬКО </tspan>
                    <tspan x="52.0043945" y="76">ПЕРВИЧНЫЙ КЛЮЧ</tspan>
                </text>
            </g>
        </g>
    </g>
</svg>