<?xml version="1.0" encoding="UTF-8"?>
<svg width="266px" height="60px" viewBox="0 0 266 60" version="1.1" xmlns="http://www.w3.org/2000/svg" xmlns:xlink="http://www.w3.org/1999/xlink">
    <!-- Generator: Sketch 52.5 (67469) - http://www.bohemiancoding.com/sketch -->
    <title>table_mob_head</title>
    <desc>Created with Sketch.</desc>
    <g id="Page-1" stroke="none" stroke-width="1" fill="none" fill-rule="evenodd">
        <g id="table_mob_head">
            <g id="Group" transform="translate(103.000000, 0.000000)" fill="#FFFFFF" font-family="Roboto-Medium, Roboto" font-size="12" font-weight="400" line-spacing="12">
                <text id="БАЗА-ДАННЫХ">
                    <tspan x="10.6757812" y="13">БАЗА</tspan>
                    <tspan x="0" y="25">ДАННЫХ</tspan>
                </text>
            </g>
            <g id="Group" transform="translate(1.000000, 0.000000)" fill="#FFFFFF" font-family="Roboto-Medium, Roboto" font-size="12" font-weight="400" line-spacing="12">
                <text id="ФАЙЛОВАЯ-СИСТЕМА">
                    <tspan x="0" y="13">ФАЙЛОВАЯ </tspan>
                    <tspan x="4.546875" y="25">СИСТЕМА</tspan>
                </text>
            </g>
            <g id="Group" transform="translate(16.000000, 30.000000)" fill="#72A5B5">
                <path d="M0.4,8.7 C0.1,7.7 0,6.7 0,5.6 C0,4.5 0.1,3.5 0.4,2.5 C0.7,1.5 1,0.7 1.5,2.27373675e-13 L2.9,2.27373675e-13 C2.4,0.9 2.1,1.8 1.8,2.7 C1.5,3.6 1.5,4.6 1.5,5.6 C1.5,6.6 1.6,7.6 1.8,8.5 C2,9.4 2.4,10.3 2.9,11.2 L1.5,11.2 C1,10.5 0.7,9.7 0.4,8.7 Z" id="Path"></path>
                <polygon id="Path" points="4.3 0.5 5.9 0.5 5.9 8.9 4.3 8.9"></polygon>
                <path d="M13.5,0.9 C14,1.1 14.5,1.5 14.7,1.9 C14.9,2.3 15.1,2.9 15.1,3.5 C15.1,4.1 15,4.6 14.7,5.1 C14.4,5.6 14,5.9 13.5,6.1 C13,6.3 12.3,6.5 11.6,6.5 L9.7,6.5 L9.7,8.9 L8.1,8.9 L8.1,0.5 L11.6,0.5 C12.3,0.5 13,0.6 13.5,0.9 Z M13.1,4.8 C13.5,4.5 13.6,4.1 13.6,3.6 C13.6,3.1 13.4,2.7 13.1,2.4 C12.7,2.1 12.2,2 11.6,2 L9.8,2 L9.8,5.3 L11.6,5.3 C12.2,5.2 12.7,5 13.1,4.8 Z" id="Shape" fill-rule="nonzero"></path>
                <polygon id="Path" points="18.3 1.8 18.3 4.4 22.4 4.4 22.4 5.7 18.3 5.7 18.3 8.9 16.7 8.9 16.7 0.5 22.8 0.5 22.8 1.8"></polygon>
                <path d="M25.1,8.8 C24.5,8.6 24,8.4 23.7,8.1 L24.2,6.9 C24.5,7.2 25,7.4 25.5,7.6 C26,7.8 26.5,7.9 27,7.9 C27.6,7.9 28.1,7.8 28.4,7.6 C28.7,7.4 28.9,7.1 28.9,6.8 C28.9,6.6 28.8,6.4 28.6,6.2 C28.4,6 28.2,5.9 27.9,5.8 C27.6,5.7 27.3,5.6 26.8,5.5 C26.2,5.3 25.6,5.2 25.2,5 C24.8,4.8 24.5,4.6 24.2,4.3 C23.9,4 23.8,3.5 23.8,3 C23.8,2.5 23.9,2.1 24.2,1.7 C24.5,1.3 24.8,1 25.3,0.8 C25.8,0.6 26.4,0.5 27.2,0.5 C27.7,0.5 28.2,0.6 28.7,0.7 C29.2,0.8 29.6,1 30,1.3 L29.5,2.5 C29.1,2.3 28.7,2.1 28.3,2 C27.9,1.9 27.5,1.8 27.1,1.8 C26.5,1.8 26,1.9 25.7,2.1 C25.4,2.3 25.2,2.6 25.2,2.9 C25.2,3.1 25.3,3.3 25.5,3.5 C25.7,3.7 25.9,3.8 26.2,3.9 C26.5,4 26.8,4.1 27.3,4.2 C27.9,4.3 28.4,4.5 28.8,4.7 C29.2,4.9 29.5,5.1 29.8,5.4 C30.1,5.7 30.2,6.2 30.2,6.7 C30.2,7.2 30.1,7.6 29.8,8 C29.5,8.4 29.2,8.7 28.7,8.9 C28.2,9.1 27.6,9.2 26.8,9.2 C26.3,9.1 25.7,9 25.1,8.8 Z" id="Path"></path>
                <path d="M31,11.3 C31.5,10.4 31.8,9.5 32.1,8.6 C32.3,7.7 32.4,6.7 32.4,5.7 C32.4,4.7 32.3,3.7 32.1,2.8 C31.9,1.9 31.5,1 31,0.1 L32.4,0.1 C32.9,0.8 33.2,1.7 33.5,2.6 C33.8,3.5 33.9,4.6 33.9,5.7 C33.9,6.8 33.8,7.8 33.5,8.8 C33.2,9.8 32.9,10.6 32.4,11.3 L31,11.3 Z" id="Path"></path>
            </g>
            <g id="Group" transform="translate(187.000000, 12.000000)" fill="#FFFFFF" font-family="Roboto-Medium, Roboto" font-size="12" font-weight="400" line-spacing="12">
                <text id="БЛОКЧЕЙН">
                    <tspan x="0" y="13">БЛОКЧЕЙН</tspan>
                </text>
            </g>
            <g id="Group" transform="translate(174.000000, 29.000000)" fill="#72A5B5">
                <path d="M0.4,9.5 C0.1,8.5 0,7.5 0,6.4 C0,5.3 0.1,4.3 0.4,3.3 C0.7,2.3 1,1.5 1.5,0.8 L2.9,0.8 C2.4,1.7 2.1,2.6 1.8,3.5 C1.6,4.4 1.5,5.4 1.5,6.4 C1.5,7.4 1.6,8.4 1.8,9.3 C2,10.2 2.4,11.1 2.9,12 L1.5,12 C1,11.3 0.7,10.4 0.4,9.5 Z" id="Path"></path>
                <path d="M11.4,6.1 C11.7,6.5 11.8,6.9 11.8,7.4 C11.8,8.1 11.5,8.7 11,9.1 C10.4,9.5 9.6,9.7 8.6,9.7 L4.4,9.7 L4.4,1.3 L8.3,1.3 C9.3,1.3 10.1,1.5 10.6,1.9 C11.1,2.3 11.4,2.8 11.4,3.5 C11.4,3.9 11.3,4.3 11.1,4.6 C10.9,4.9 10.6,5.2 10.3,5.3 C10.8,5.5 11.1,5.7 11.4,6.1 Z M5.9,2.5 L5.9,4.8 L8.1,4.8 C8.6,4.8 9.1,4.7 9.4,4.5 C9.7,4.3 9.8,4 9.8,3.6 C9.8,3.2 9.7,2.9 9.4,2.7 C9.1,2.5 8.7,2.4 8.1,2.4 L5.9,2.4 L5.9,2.5 Z M10.2,7.2 C10.2,6.4 9.6,6 8.4,6 L5.9,6 L5.9,8.4 L8.4,8.4 C9.6,8.5 10.2,8.1 10.2,7.2 Z" id="Shape" fill-rule="nonzero"></path>
                <polygon id="Path" points="13.5 1.3 15.1 1.3 15.1 9.7 13.5 9.7"></polygon>
                <path d="M23,5.4 L24.5,5.4 L24.5,8.7 C24.1,9 23.6,9.3 23,9.5 C22.4,9.7 21.8,9.8 21.2,9.8 C20.3,9.8 19.6,9.6 18.9,9.2 C18.2,8.8 17.7,8.3 17.3,7.7 C16.9,7 16.7,6.3 16.7,5.5 C16.7,4.7 16.9,3.9 17.3,3.3 C17.7,2.6 18.2,2.1 18.9,1.8 C19.6,1.4 20.4,1.2 21.2,1.2 C21.9,1.2 22.5,1.3 23.1,1.5 C23.7,1.7 24.2,2.1 24.6,2.5 L23.6,3.5 C23,2.9 22.2,2.5 21.3,2.5 C20.7,2.5 20.2,2.6 19.7,2.9 C19.2,3.2 18.9,3.5 18.6,3.9 C18.3,4.3 18.2,4.9 18.2,5.4 C18.2,6 18.3,6.5 18.6,6.9 C18.9,7.3 19.2,7.7 19.7,8 C20.2,8.3 20.7,8.4 21.3,8.4 C22,8.4 22.5,8.3 23,8 L23,5.4 Z" id="Path"></path>
                <path d="M28.2,9.2 C27.5,8.8 27,8.3 26.6,7.7 C26.2,7 26,6.3 26,5.5 C26,4.7 26.2,3.9 26.6,3.3 C27,2.6 27.5,2.1 28.2,1.8 C28.9,1.4 29.7,1.2 30.5,1.2 C31.2,1.2 31.8,1.3 32.4,1.6 C33,1.8 33.4,2.2 33.8,2.6 L32.8,3.5 C32.2,2.8 31.4,2.5 30.6,2.5 C30,2.5 29.5,2.6 29.1,2.9 C28.7,3.2 28.3,3.5 28,4 C27.7,4.5 27.6,5 27.6,5.5 C27.6,6.1 27.7,6.6 28,7 C28.3,7.4 28.6,7.8 29.1,8 C29.6,8.2 30.1,8.4 30.6,8.4 C31.5,8.4 32.2,8.1 32.8,7.4 L33.8,8.4 C33.4,8.9 32.9,9.2 32.4,9.4 C31.8,9.6 31.2,9.8 30.5,9.8 C29.6,9.8 28.8,9.6 28.2,9.2 Z" id="Path"></path>
                <polygon id="Path" points="42.8 1.3 42.8 9.7 41.2 9.7 41.2 6.1 36.9 6.1 36.9 9.7 35.3 9.7 35.3 1.3 36.9 1.3 36.9 4.8 41.2 4.8 41.2 1.3"></polygon>
                <path d="M50.5,7.7 L46.3,7.7 L45.5,9.6 L43.9,9.6 L47.7,1.2 L49.2,1.2 L53,9.6 L51.4,9.6 L50.5,7.7 Z M49.9,6.5 L48.3,2.8 L46.7,6.5 L49.9,6.5 Z" id="Shape" fill-rule="nonzero"></path>
                <polygon id="Path" points="54 1.3 55.6 1.3 55.6 9.7 54 9.7"></polygon>
                <polygon id="Path" points="65.3 1.3 65.3 9.7 64 9.7 59.4 4 59.4 9.7 57.9 9.7 57.9 1.3 59.2 1.3 63.8 7 63.8 1.3"></polygon>
                <path d="M70.9,1.3 L74.6,1.3 C75.5,1.3 76.3,1.5 77,1.8 C77.7,2.1 78.2,2.6 78.6,3.3 C79,3.9 79.2,4.7 79.2,5.5 C79.2,6.3 79,7.1 78.6,7.7 C78.2,8.3 77.7,8.8 77,9.2 C76.3,9.5 75.5,9.7 74.6,9.7 L70.9,9.7 L70.9,1.3 Z M74.5,8.4 C75.1,8.4 75.7,8.3 76.1,8 C76.5,7.7 76.9,7.4 77.2,7 C77.5,6.6 77.6,6.1 77.6,5.5 C77.6,4.9 77.5,4.4 77.2,4 C76.9,3.6 76.6,3.2 76.1,3 C75.6,2.8 75.1,2.6 74.5,2.6 L72.5,2.6 L72.5,8.4 L74.5,8.4 Z" id="Shape" fill-rule="nonzero"></path>
                <path d="M87.8,6.1 C88.1,6.5 88.2,6.9 88.2,7.4 C88.2,8.1 87.9,8.7 87.4,9.1 C86.8,9.5 86,9.7 85,9.7 L80.8,9.7 L80.8,1.3 L84.7,1.3 C85.7,1.3 86.5,1.5 87,1.9 C87.5,2.3 87.8,2.8 87.8,3.5 C87.8,3.9 87.7,4.3 87.5,4.6 C87.3,4.9 87,5.2 86.7,5.3 C87.2,5.5 87.6,5.7 87.8,6.1 Z M82.3,2.5 L82.3,4.8 L84.5,4.8 C85,4.8 85.5,4.7 85.8,4.5 C86.1,4.3 86.2,4 86.2,3.6 C86.2,3.2 86.1,2.9 85.8,2.7 C85.5,2.5 85.1,2.4 84.5,2.4 L82.3,2.4 L82.3,2.5 Z M86.7,7.2 C86.7,6.4 86.1,6 84.9,6 L82.4,6 L82.4,8.4 L84.9,8.4 C86.1,8.5 86.7,8.1 86.7,7.2 Z" id="Shape" fill-rule="nonzero"></path>
                <path d="M89,12 C89.5,11.1 89.8,10.2 90.1,9.3 C90.3,8.4 90.4,7.4 90.4,6.4 C90.4,5.4 90.3,4.4 90.1,3.5 C89.9,2.6 89.5,1.7 89,0.8 L90.4,0.8 C90.9,1.5 91.2,2.4 91.5,3.3 C91.8,4.2 91.9,5.3 91.9,6.4 C91.9,7.5 91.8,8.5 91.5,9.5 C91.2,10.5 90.9,11.3 90.4,12 L89,12 Z" id="Path"></path>
            </g>
            <path d="M0.5,59.5 L259.5,59.5" id="Line_26" stroke="#FFFFFF" opacity="0.205"></path>
            <text id="OasisDB" fill="#72A5B5" font-family="Avenir-Book, Avenir" font-size="12" font-weight="normal">
                <tspan x="103" y="40">OasisDB</tspan>
            </text>
        </g>
    </g>
</svg>