<svg xmlns="http://www.w3.org/2000/svg" viewBox="-1402.518 3767.476 285.514 129.133"><defs><style>.a{fill:#ad2e40;stroke:#ad2e40;}.a,.c{stroke-linecap:round;stroke-linejoin:round;}.b{fill:#fff;}.c{fill:#2c3e4f;stroke:#2c3e4f;stroke-miterlimit:10;}</style></defs><g transform="translate(-1537 -49)"><g transform="translate(135 3817.022)"><path class="a" d="M42.108,111.312l-1.008-.366c.275-.733.55-1.374.733-2.015l1.008.366C42.657,109.938,42.383,110.579,42.108,111.312Zm208.775-4.306-.916-2.015,1.008-.458c.275.641.641,1.374.916,2.015Zm-206.3-1.741-1.008-.458c.275-.641.641-1.283.916-2.015l1.008.458c-.275.733-.641,1.374-.916,2.015Zm203.461-4.122-1.1-1.924.916-.55,1.1,1.924ZM47.513,99.494l-.916-.55,1.1-1.924.916.55-1.1,1.924Zm197.232-4.031c-.366-.641-.824-1.191-1.191-1.832l.916-.641c.366.641.824,1.283,1.191,1.832ZM50.994,93.906l-.916-.641a22.223,22.223,0,0,1,1.283-1.832l.916.641C51.818,92.715,51.36,93.356,50.994,93.906ZM240.989,90.15a21.137,21.137,0,0,1-1.283-1.741l.916-.733c.458.55.916,1.191,1.374,1.741ZM54.841,88.685l-.916-.733c.458-.55.916-1.1,1.374-1.741l.824.733C55.757,87.494,55.208,88.043,54.841,88.685Zm182.025-3.573c-.458-.55-.916-1.1-1.466-1.649l.824-.733c.458.55,1.008,1.1,1.466,1.649ZM59.055,83.646l-.824-.733c.55-.55,1.008-1.1,1.466-1.649l.824.733c-.55.641-1.008,1.1-1.466,1.649Zm173.414-3.3-1.557-1.557.733-.824c.55.55,1.1,1.008,1.557,1.557ZM63.544,78.974l-.733-.824c.55-.55,1.1-1.008,1.649-1.466l.733.824C64.643,77.966,64.094,78.516,63.544,78.974Zm164.162-3.115-1.649-1.466.733-.824c.55.458,1.1.916,1.649,1.466ZM68.4,74.577l-.733-.824c.55-.458,1.1-.916,1.741-1.374l.733.824C69.59,73.661,68.949,74.21,68.4,74.577Zm154.268-2.931-1.741-1.283.641-.916,1.741,1.283Zm-149.138-1.1-.641-.916a13.09,13.09,0,0,1,1.832-1.283l.641.916A22.223,22.223,0,0,1,73.529,70.546Zm143.825-2.657c-.55-.366-1.191-.824-1.832-1.191l.55-.916c.641.366,1.283.824,1.832,1.191Zm-138.42-1.1-.55-.916c.641-.366,1.283-.824,1.832-1.191l.55.916A20.732,20.732,0,0,1,78.934,66.79Zm132.832-2.382-1.924-1.1.55-.916,1.924,1.1ZM84.522,63.4l-.55-.916,1.924-1.1.55.916A20.586,20.586,0,0,1,84.522,63.4Zm121.564-2.2c-.641-.366-1.283-.641-1.924-1.008l.458-1.008,2.015,1.008ZM90.293,60.378l-.458-1.008a13.487,13.487,0,0,1,2.015-.916l.458,1.008A13.485,13.485,0,0,0,90.293,60.378Zm109.838-2.015c-.641-.275-1.283-.55-2.015-.916l.458-.916a13.488,13.488,0,0,1,2.015.916ZM96.248,57.629l-.458-1.008c.641-.275,1.374-.55,2.015-.824l.366,1.008C97.622,57.08,96.889,57.355,96.248,57.629Zm97.929-1.741c-.733-.275-1.374-.55-2.015-.733l.366-1.008c.733.275,1.374.55,2.015.733Zm-91.883-.641-.366-1.008a19.186,19.186,0,0,1,2.107-.733l.366,1.008a19.186,19.186,0,0,0-2.107.733Zm85.653-1.557-2.107-.641.366-1.1,2.107.641Zm-79.424-.55-.366-1.1c.733-.183,1.374-.458,2.107-.641l.275,1.1c-.641.183-1.374.458-2.015.641Z" transform="translate(-4.119 -26.658)"/><path class="b" d="M295.389,138.735a7.144,7.144,0,0,0,.366-2.015,6.081,6.081,0,0,0-5.954-6.046,5.334,5.334,0,0,0-1.741.275,21.7,21.7,0,0,0-4.764-7.7c-4.489-4.306-11.268-6.229-17.222-3.848a19.409,19.409,0,0,0-6.871,4.947,23.348,23.348,0,0,0-2.565,3.573c-.183.366-1.832,3.939-1.832,3.939a7.516,7.516,0,0,0-2.015-.183c-7.237-.092-13.1,6.138-13.192,13.833s5.771,14.016,12.917,14.108a12.615,12.615,0,0,0,9.069-3.848,17.914,17.914,0,0,0,22.444.183,12.8,12.8,0,0,0,8.978,4.031h1.283a10.617,10.617,0,0,0,10.81-10.627,10.794,10.794,0,0,0-9.71-10.627Z" transform="translate(-20.777 -32.278)"/><path class="c" d="M295.707,138.711a6.135,6.135,0,0,0-1.557-6.5,6.565,6.565,0,0,0-6.321-1.466,3.966,3.966,0,0,1,.458.092c-1.374-3.3-3.023-6.413-5.863-8.7A16.947,16.947,0,0,0,274,118.282c-6.871-1.1-13.192,2.657-16.947,8.336a35.719,35.719,0,0,0-1.741,3.206c-.275.55-.458,1.1-.733,1.649a1.749,1.749,0,0,0-.275.733c.183-.092.458-.275.641-.366-7.42-1.374-14.2,4.031-15.665,11.268-1.374,7.145,2.84,14.932,10.077,16.581a13.187,13.187,0,0,0,12.367-3.664l-.641.092a18.51,18.51,0,0,0,11.634,4.031,19.37,19.37,0,0,0,11.359-3.939h-.641a13.068,13.068,0,0,0,8.886,4.122,12.8,12.8,0,0,0,8.153-2.015,10.852,10.852,0,0,0-5.222-19.787c-.366,0-.916.458-.275.55a10.629,10.629,0,0,1,9.436,10.993,10.294,10.294,0,0,1-10.627,9.8,15.7,15.7,0,0,1-5.038-.824,14.4,14.4,0,0,1-4.672-3.115.783.783,0,0,0-.641,0,17.368,17.368,0,0,1-11.085,3.664,18.711,18.711,0,0,1-10.718-3.939c-.183-.183-.55,0-.641.092a11.9,11.9,0,0,1-10.81,3.389,13.673,13.673,0,0,1-7.787-5.13,14.512,14.512,0,0,1,1.282-18.23,11.912,11.912,0,0,1,10.627-3.573c.183,0,.733,0,.641-.366l.275-.55c.183-.458.366-.916.55-1.283a18.313,18.313,0,0,1,.916-1.924,20.031,20.031,0,0,1,6.871-7.237c5.5-3.389,12.459-2.473,17.406,1.374,3.023,2.29,4.764,5.5,6.229,8.978a.319.319,0,0,0,.458.092A5.794,5.794,0,0,1,294.7,135.5a5.385,5.385,0,0,1-.183,3.389C294.791,139.078,295.615,138.986,295.707,138.711Z" transform="translate(-20.728 -32.254)"/><path class="b" d="M10.71,138.735a7.146,7.146,0,0,1-.366-2.015,6.081,6.081,0,0,1,5.955-6.046,5.334,5.334,0,0,1,1.741.275,21.7,21.7,0,0,1,4.764-7.7c4.489-4.306,11.268-6.229,17.222-3.848a19.409,19.409,0,0,1,6.871,4.947,23.351,23.351,0,0,1,2.565,3.573c.183.366,1.832,3.939,1.832,3.939a7.516,7.516,0,0,1,2.015-.183c7.237-.092,13.1,6.138,13.192,13.833s-5.771,14.016-12.917,14.108a12.615,12.615,0,0,1-9.069-3.848,17.914,17.914,0,0,1-22.444.183,12.8,12.8,0,0,1-8.978,4.031H11.81A10.465,10.465,0,0,1,1,149.544a10.694,10.694,0,0,1,9.71-10.81Z" transform="translate(-0.753 -32.278)"/><path class="b" d="M129.71,138.735a7.147,7.147,0,0,1-.366-2.015,6.081,6.081,0,0,1,5.955-6.046,5.334,5.334,0,0,1,1.741.275,21.7,21.7,0,0,1,4.764-7.7c4.489-4.306,11.268-6.229,17.222-3.848a19.409,19.409,0,0,1,6.871,4.947,23.352,23.352,0,0,1,2.565,3.573c.183.366,1.832,3.939,1.832,3.939a7.516,7.516,0,0,1,2.015-.183c7.237-.092,13.1,6.138,13.192,13.833s-5.771,14.016-12.917,14.108a12.615,12.615,0,0,1-9.069-3.848,17.914,17.914,0,0,1-22.444.183,12.8,12.8,0,0,1-8.978,4.031H130.81a10.648,10.648,0,0,1-1.1-21.253Z" transform="translate(-10.74 -32.278)"/><path class="c" d="M10.23,138.711a6.135,6.135,0,0,1,1.557-6.5,6.565,6.565,0,0,1,6.321-1.466,3.967,3.967,0,0,0-.458.092c1.374-3.3,3.023-6.413,5.863-8.7a16.947,16.947,0,0,1,8.428-3.848c6.871-1.1,13.192,2.657,16.947,8.336a35.737,35.737,0,0,1,1.741,3.206c.275.55.458,1.1.733,1.649a1.749,1.749,0,0,1,.275.733c-.183-.092-.458-.275-.641-.366,7.42-1.374,14.2,4.031,15.665,11.268,1.374,7.145-2.84,14.932-10.077,16.581a13.187,13.187,0,0,1-12.367-3.664l.641.092a18.51,18.51,0,0,1-11.634,4.031,19.37,19.37,0,0,1-11.359-3.939h.641a13.068,13.068,0,0,1-8.886,4.122,12.8,12.8,0,0,1-8.153-2.015,10.852,10.852,0,0,1,5.222-19.787c.366,0,.916.458.275.55a10.69,10.69,0,0,0-9.436,10.993,10.294,10.294,0,0,0,10.627,9.8,15.7,15.7,0,0,0,5.038-.824,14.4,14.4,0,0,0,4.672-3.115.782.782,0,0,1,.641,0A17.368,17.368,0,0,0,33.59,159.6a18.711,18.711,0,0,0,10.718-3.939c.183-.183.55,0,.641.092a11.9,11.9,0,0,0,10.81,3.389,13.673,13.673,0,0,0,7.787-5.13,14.512,14.512,0,0,0-1.283-18.23,11.912,11.912,0,0,0-10.627-3.573c-.183,0-.733,0-.641-.366l-.275-.55c-.183-.458-.366-.916-.55-1.283a18.311,18.311,0,0,0-.916-1.924,20.031,20.031,0,0,0-6.871-7.237c-5.5-3.389-12.459-2.473-17.406,1.374-3.023,2.29-4.764,5.5-6.229,8.978a.319.319,0,0,1-.458.092,5.794,5.794,0,0,0-7.054,4.214,5.385,5.385,0,0,0,.183,3.389C11.146,139.078,10.321,138.986,10.23,138.711Z" transform="translate(-0.731 -32.254)"/><path class="c" d="M129.23,138.711a6.135,6.135,0,0,1,1.557-6.5,6.565,6.565,0,0,1,6.321-1.466,3.967,3.967,0,0,0-.458.092c1.374-3.3,3.023-6.413,5.863-8.7a16.947,16.947,0,0,1,8.428-3.848c6.871-1.1,13.192,2.657,16.947,8.336a35.741,35.741,0,0,1,1.741,3.206c.275.55.458,1.1.733,1.649a1.749,1.749,0,0,1,.275.733c-.183-.092-.458-.275-.641-.366,7.42-1.374,14.2,4.031,15.665,11.268,1.374,7.145-2.84,14.932-10.077,16.581a13.187,13.187,0,0,1-12.367-3.664l.641.092a18.51,18.51,0,0,1-11.634,4.031,19.37,19.37,0,0,1-11.359-3.939h.641a13.068,13.068,0,0,1-8.886,4.122,12.8,12.8,0,0,1-8.153-2.015,10.852,10.852,0,0,1,5.222-19.787c.366,0,.916.458.275.55a10.69,10.69,0,0,0-9.436,10.993,10.294,10.294,0,0,0,10.627,9.8,15.7,15.7,0,0,0,5.038-.824,14.4,14.4,0,0,0,4.672-3.115.782.782,0,0,1,.641,0A17.368,17.368,0,0,0,152.59,159.6a18.711,18.711,0,0,0,10.718-3.939c.183-.183.55,0,.641.092a11.9,11.9,0,0,0,10.81,3.389,13.673,13.673,0,0,0,7.787-5.13,14.512,14.512,0,0,0-1.283-18.23,11.912,11.912,0,0,0-10.627-3.573c-.183,0-.733,0-.641-.366l-.275-.55c-.183-.458-.366-.916-.55-1.283a18.307,18.307,0,0,0-.916-1.924,20.031,20.031,0,0,0-6.871-7.237c-5.5-3.389-12.459-2.473-17.406,1.374-3.023,2.29-4.764,5.5-6.229,8.978a.319.319,0,0,1-.458.092,5.794,5.794,0,0,0-7.054,4.214,5.385,5.385,0,0,0,.183,3.389C130.146,139.078,129.321,138.986,129.23,138.711Z" transform="translate(-10.717 -32.254)"/><path class="b" d="M131.01,45.026a7.147,7.147,0,0,1-.366-2.015,6.081,6.081,0,0,1,5.955-6.046,5.334,5.334,0,0,1,1.741.275,21.7,21.7,0,0,1,4.764-7.7c4.489-4.4,11.359-6.321,17.222-3.939a19.409,19.409,0,0,1,6.871,4.947,23.352,23.352,0,0,1,2.565,3.573c.183.366,1.832,3.939,1.832,3.939a7.516,7.516,0,0,1,2.015-.183c7.237-.092,13.1,6.138,13.192,13.833s-5.771,14.016-12.917,14.108a12.615,12.615,0,0,1-9.069-3.848,17.914,17.914,0,0,1-22.444.183,12.8,12.8,0,0,1-8.978,4.031H132.11a10.6,10.6,0,0,1-1.1-21.161Z" transform="translate(-10.849 -24.407)"/><path class="c" d="M130.53,45.011a6.135,6.135,0,0,1,1.557-6.5,6.565,6.565,0,0,1,6.321-1.466,3.969,3.969,0,0,0-.458.092c1.374-3.3,3.023-6.413,5.863-8.7a16.947,16.947,0,0,1,8.428-3.848c6.871-1.1,13.192,2.657,16.947,8.245a35.733,35.733,0,0,1,1.741,3.206c.275.55.458,1.1.733,1.649a1.749,1.749,0,0,1,.275.733c-.183-.092-.458-.275-.641-.366,7.42-1.374,14.2,4.031,15.665,11.268,1.374,7.145-2.84,14.932-10.077,16.581a13.187,13.187,0,0,1-12.367-3.664l.641.092a18.51,18.51,0,0,1-11.634,4.031,19.37,19.37,0,0,1-11.359-3.939h.641a13.068,13.068,0,0,1-8.886,4.122,12.8,12.8,0,0,1-8.153-2.015,10.852,10.852,0,0,1,5.222-19.787c.366,0,.916.458.275.55a10.629,10.629,0,0,0-9.436,10.993,10.294,10.294,0,0,0,10.627,9.8,15.7,15.7,0,0,0,5.038-.824,14.4,14.4,0,0,0,4.672-3.115.782.782,0,0,1,.641,0,17.368,17.368,0,0,0,11.085,3.664,18.711,18.711,0,0,0,10.718-3.939c.183-.183.55,0,.641.092a11.9,11.9,0,0,0,10.81,3.389,13.673,13.673,0,0,0,7.787-5.13,14.512,14.512,0,0,0-1.283-18.23,11.912,11.912,0,0,0-10.627-3.573c-.183,0-.733,0-.641-.366l-.275-.55c-.183-.458-.366-.916-.55-1.283a18.317,18.317,0,0,0-.916-1.924,20.031,20.031,0,0,0-6.871-7.237c-5.5-3.389-12.367-2.473-17.406,1.374-3.023,2.29-4.764,5.5-6.229,8.978a.319.319,0,0,1-.458.092,5.794,5.794,0,0,0-7.054,4.214,5.385,5.385,0,0,0,.183,3.389C131.446,45.378,130.621,45.286,130.53,45.011Z" transform="translate(-10.827 -24.391)"/></g><g transform="translate(211.404 3866.04)"><g transform="translate(70.152 0)"><path class="a" d="M76,2.73V.5h1.115V2.73Z" transform="translate(-76 -0.5)"/><path class="a" d="M76,8.93V6.7h1.115V8.93Z" transform="translate(-76 -0.939)"/><path class="a" d="M76,15.03V12.8h1.115v2.23Z" transform="translate(-76 -1.371)"/><path class="a" d="M76,21.23V19h1.115v2.23Z" transform="translate(-76 -1.81)"/><path class="a" d="M76,27.43V25.2h1.115v2.23Z" transform="translate(-76 -2.25)"/></g><g transform="translate(0 60.21)"><path class="a" d="M2.73,66.415H.5V65.3H2.73Z" transform="translate(-0.5 -65.3)"/><path class="a" d="M8.93,66.415H6.7V65.3H8.93Z" transform="translate(-0.939 -65.3)"/><path class="a" d="M15.03,66.415H12.8V65.3h2.23Z" transform="translate(-1.371 -65.3)"/><path class="a" d="M21.23,66.415H19V65.3h2.23Z" transform="translate(-1.81 -65.3)"/><path class="a" d="M27.43,66.415H25.2V65.3h2.23Z" transform="translate(-2.249 -65.3)"/></g><g transform="translate(112.522 60.21)"><path class="a" d="M123.83,66.415H121.6V65.3h2.23Z" transform="translate(-121.6 -65.3)"/><path class="a" d="M129.93,66.415H127.7V65.3h2.23Z" transform="translate(-122.032 -65.3)"/><path class="a" d="M136.13,66.415H133.9V65.3h2.23Z" transform="translate(-122.471 -65.3)"/><path class="a" d="M142.33,66.415H140.1V65.3h2.23Z" transform="translate(-122.91 -65.3)"/><path class="a" d="M148.43,66.415H146.2V65.3h2.23Z" transform="translate(-123.342 -65.3)"/></g></g></g></svg>