<svg xmlns="http://www.w3.org/2000/svg" viewBox="-976.269 3745.618 318.602 176.893"><defs><style>.a{fill:#e3e3e3;}.b,.e,.k{fill:#ad2e40;}.b,.e{stroke:#ad2e40;}.b,.d,.e,.j{stroke-linecap:round;stroke-linejoin:round;}.c{fill:#fff;}.d,.l{fill:#2c3e4f;}.d,.j{stroke:#2c3e4f;}.d,.e{stroke-miterlimit:10;}.f{fill:#e5e5e5;}.g{fill:none;}.h{fill:#bde0e8;}.i,.j{fill:#212c2f;}.j{stroke-width:0.5px;}.m{fill:#65919f;}</style></defs><g transform="translate(-975.754 3746.156)"><path class="a" d="M1099.54,169.416V80.831a2.932,2.932,0,0,0-2.84-2.931H956.54a2.934,2.934,0,0,0-2.84,2.931v88.585h145.84Z" transform="translate(-872.598 -7.015)"/><path class="b" d="M452.191,97.763,451,97.3c.275-.824.641-1.649.916-2.473l1.191.458C452.741,96.114,452.466,96.938,452.191,97.763ZM701,92.633l-1.008-2.382,1.191-.55c.367.824.733,1.649,1.1,2.382ZM455.122,90.617l-1.191-.55c.366-.824.733-1.557,1.1-2.382l1.191.55c-.367.824-.733,1.557-1.1,2.382ZM697.609,85.67c-.366-.733-.824-1.557-1.283-2.29l1.1-.641c.458.824.916,1.557,1.282,2.29ZM458.7,83.655l-1.1-.641c.458-.733.824-1.557,1.283-2.29l1.1.641c-.458.824-.916,1.557-1.283,2.29Zm234.974-4.764c-.458-.733-.916-1.466-1.466-2.2l1.1-.733c.458.733.916,1.466,1.466,2.2ZM462.726,77.059l-1.1-.733c.458-.733,1.008-1.466,1.466-2.2l1.008.733c-.366.733-.916,1.466-1.374,2.2Zm226.455-4.58c-.55-.733-1.008-1.374-1.557-2.015l1.008-.824c.55.733,1.1,1.374,1.649,2.107ZM467.306,70.738l-1.008-.824c.55-.733,1.1-1.374,1.649-2.015l1.008.824c-.55.733-1.1,1.374-1.649,2.015Zm217.019-4.214c-.55-.641-1.1-1.283-1.741-1.924l.916-.824c.55.641,1.191,1.283,1.741,1.924ZM472.345,64.784l-.916-.824c.641-.641,1.191-1.283,1.741-1.924l.916.916C473.536,63.593,472.894,64.143,472.345,64.784Zm206.667-3.939-1.832-1.832.916-.916c.641.641,1.283,1.191,1.832,1.832ZM477.75,59.287l-.916-.916c.641-.641,1.283-1.191,1.924-1.741l.916.916c-.641.55-1.283,1.1-1.924,1.741Zm195.583-3.756-1.924-1.741.824-1.008c.641.55,1.374,1.1,2.015,1.741ZM483.521,54.066l-.824-1.008c.641-.55,1.374-1.1,2.015-1.649l.824,1.008C484.895,52.966,484.162,53.516,483.521,54.066Zm183.766-3.481-2.107-1.557L666,48.02l2.107,1.557ZM489.659,49.21l-.825-1.008c.733-.55,1.374-1.008,2.107-1.557l.733,1.008C491.033,48.2,490.3,48.752,489.659,49.21ZM660.965,46c-.733-.458-1.466-.916-2.2-1.466l.733-1.1c.733.458,1.466.916,2.2,1.466ZM496.071,44.722l-.733-1.1,2.2-1.374.733,1.1C497.537,43.806,496.8,44.355,496.071,44.722Zm158.3-2.84c-.733-.458-1.466-.824-2.29-1.283l.641-1.1c.824.458,1.557.824,2.29,1.283Zm-151.7-1.191-.641-1.1c.733-.458,1.557-.824,2.29-1.283l.641,1.1C504.224,39.866,503.491,40.233,502.667,40.691Zm144.924-2.657c-.825-.366-1.557-.824-2.29-1.191l.55-1.191,2.382,1.191ZM509.538,37.027l-.55-1.191c.825-.366,1.557-.824,2.382-1.1l.55,1.191C511.095,36.294,510.362,36.66,509.538,37.027Zm131-2.29c-.825-.366-1.557-.733-2.382-1.008l.55-1.191c.824.366,1.649.733,2.382,1.008ZM516.683,33.82l-.55-1.191c.824-.366,1.649-.733,2.473-1.008l.458,1.191a18.586,18.586,0,0,0-2.382,1.008ZM633.3,31.713c-.825-.275-1.649-.641-2.473-.916l.458-1.191c.824.275,1.649.641,2.473.916Zm-109.38-.824-.458-1.191c.824-.275,1.649-.641,2.473-.824l.458,1.191-2.473.824Zm102.051-1.832-2.473-.824.367-1.283,2.473.824Zm-94.723-.641-.366-1.283a20.963,20.963,0,0,1,2.565-.733l.366,1.283C532.9,27.957,532.073,28.141,531.248,28.415Z" transform="translate(-419.092 -2.693)"/><path class="c" d="M749.637,130.775a5.187,5.187,0,0,0,.275-1.649,4.966,4.966,0,0,0-4.855-4.947,8.018,8.018,0,0,0-1.466.183,18.232,18.232,0,0,0-3.848-6.229c-3.664-3.573-9.161-5.13-14.016-3.115a16.166,16.166,0,0,0-5.588,4.031,21.516,21.516,0,0,0-2.107,2.931,30.383,30.383,0,0,0-1.466,3.206,10.094,10.094,0,0,0-1.649-.183c-5.863-.092-10.718,5.038-10.718,11.268-.092,6.321,4.672,11.451,10.535,11.543a10.479,10.479,0,0,0,7.42-3.115,14.732,14.732,0,0,0,18.322.183,10.68,10.68,0,0,0,7.329,3.3h1.1a8.719,8.719,0,0,0,8.794-8.7,8.84,8.84,0,0,0-8.062-8.7Z" transform="translate(-440.34 -10.055)"/><path class="d" d="M749.977,130.669a5.024,5.024,0,0,0-1.283-5.313,5.25,5.25,0,0,0-5.13-1.191c.091,0,.275.092.366.092a17.853,17.853,0,0,0-4.764-7.054,14.229,14.229,0,0,0-6.871-3.115c-5.588-.824-10.718,2.2-13.833,6.779a13.829,13.829,0,0,0-1.374,2.565,8.374,8.374,0,0,1-.641,1.283c-.092.183-.275.366-.183.55l.549-.275c-6.046-1.1-11.634,3.3-12.733,9.161s2.29,12.184,8.245,13.558a10.86,10.86,0,0,0,10.077-3.023l-.55.092a15.41,15.41,0,0,0,9.527,3.3,15.918,15.918,0,0,0,9.252-3.206h-.55a11.365,11.365,0,0,0,13.924,1.741,8.855,8.855,0,0,0,2.29-12.367,9.017,9.017,0,0,0-6.6-3.848c-.275,0-.733.366-.275.458a8.772,8.772,0,0,1,7.7,8.978,8.351,8.351,0,0,1-8.611,7.97,12.9,12.9,0,0,1-4.122-.641,9.813,9.813,0,0,1-3.756-2.565.584.584,0,0,0-.55,0,14.612,14.612,0,0,1-9.069,3.023,14.906,14.906,0,0,1-8.7-3.206.562.562,0,0,0-.55.092,9.941,9.941,0,0,1-8.886,2.84,10.453,10.453,0,0,1-6.321-4.214,12.009,12.009,0,0,1,1.008-14.932,9.65,9.65,0,0,1,8.7-2.931c.183,0,.549,0,.549-.275.092-.183.183-.275.183-.458a5.6,5.6,0,0,0,.458-1.1c.275-.55.458-1.1.733-1.557a17.409,17.409,0,0,1,5.588-5.955,12.6,12.6,0,0,1,14.2,1.1c2.473,1.832,3.939,4.489,5.13,7.329a.227.227,0,0,0,.366.092,4.766,4.766,0,0,1,5.771,3.389,4.69,4.69,0,0,1-.092,2.748C749.152,131.035,749.885,130.943,749.977,130.669Z" transform="translate(-440.313 -10.04)"/><path class="c" d="M567.27,17.272a5.187,5.187,0,0,1-.275-1.649,4.966,4.966,0,0,1,4.855-4.947,8.018,8.018,0,0,1,1.466.183,18.231,18.231,0,0,1,3.848-6.229c3.664-3.573,9.252-5.13,14.016-3.206a16.166,16.166,0,0,1,5.588,4.031,21.516,21.516,0,0,1,2.107,2.931,30.373,30.373,0,0,1,1.466,3.206,10.093,10.093,0,0,1,1.649-.183c5.863-.092,10.718,5.038,10.718,11.268s-4.672,11.451-10.535,11.543a10.479,10.479,0,0,1-7.42-3.115,14.732,14.732,0,0,1-18.322.183,10.68,10.68,0,0,1-7.329,3.3h-1.008a8.642,8.642,0,0,1-8.794-8.611,8.746,8.746,0,0,1,7.97-8.7Z" transform="translate(-428.18 -0.527)"/><path class="d" d="M566.867,17.266a5.024,5.024,0,0,1,1.283-5.313,5.25,5.25,0,0,1,5.13-1.191c-.092,0-.275.092-.366.092A17.853,17.853,0,0,1,577.677,3.8,14.229,14.229,0,0,1,584.548.685c5.588-.916,10.718,2.107,13.833,6.687a13.837,13.837,0,0,1,1.374,2.565c.183.458.366.824.55,1.283.091.183.275.366.183.55l-.55-.275c6.046-1.1,11.634,3.3,12.734,9.161s-2.29,12.184-8.245,13.558A10.86,10.86,0,0,1,594.35,31.19l.55.092a15.41,15.41,0,0,1-9.527,3.3,15.919,15.919,0,0,1-9.252-3.206h.55a11.365,11.365,0,0,1-13.924,1.741,8.855,8.855,0,0,1-2.29-12.367,9.017,9.017,0,0,1,6.6-3.848c.275,0,.733.366.275.458a8.772,8.772,0,0,0-7.7,8.978,8.351,8.351,0,0,0,8.611,7.97,12.9,12.9,0,0,0,4.122-.641A9.813,9.813,0,0,0,576.12,31.1a.584.584,0,0,1,.55,0,14.612,14.612,0,0,0,9.069,3.023,14.906,14.906,0,0,0,8.7-3.206.562.562,0,0,1,.55.092,9.941,9.941,0,0,0,8.886,2.84,10.719,10.719,0,0,0,6.321-4.214A12.009,12.009,0,0,0,609.19,14.7a9.65,9.65,0,0,0-8.7-2.931c-.183,0-.55,0-.55-.275-.091-.183-.183-.275-.183-.458a5.6,5.6,0,0,1-.458-1.1c-.275-.55-.458-1.1-.733-1.557a17.408,17.408,0,0,0-5.588-5.955A13.246,13.246,0,0,0,578.593,3.8c-2.474,1.832-3.939,4.489-5.13,7.329a.227.227,0,0,1-.366.092,4.766,4.766,0,0,0-5.771,3.389,4.691,4.691,0,0,0,.092,2.748C567.6,17.632,566.959,17.541,566.867,17.266Z" transform="translate(-428.144 -0.521)"/><path class="c" d="M424.57,130.272a5.186,5.186,0,0,1-.275-1.649,4.966,4.966,0,0,1,4.855-4.947,8.019,8.019,0,0,1,1.466.183,18.23,18.23,0,0,1,3.848-6.229c3.664-3.573,9.252-5.13,14.016-3.206a16.166,16.166,0,0,1,5.588,4.031,21.519,21.519,0,0,1,2.107,2.931,30.365,30.365,0,0,1,1.466,3.206,10.1,10.1,0,0,1,1.649-.183c5.863-.092,10.718,5.038,10.718,11.268.092,6.321-4.672,11.451-10.535,11.543a10.479,10.479,0,0,1-7.42-3.115,14.732,14.732,0,0,1-18.322.183,10.68,10.68,0,0,1-7.329,3.3h-1.008a8.642,8.642,0,0,1-8.794-8.611,8.894,8.894,0,0,1,7.97-8.7Z" transform="translate(-416.205 -10.01)"/><path class="d" d="M424.167,130.269a5.024,5.024,0,0,1,1.283-5.313,5.25,5.25,0,0,1,5.13-1.191c-.092,0-.275.092-.366.092a17.853,17.853,0,0,1,4.764-7.054,14.229,14.229,0,0,1,6.871-3.115c5.588-.824,10.718,2.2,13.833,6.779a13.822,13.822,0,0,1,1.374,2.565c.183.458.366.824.55,1.283.092.183.275.366.183.55l-.55-.275c6.046-1.1,11.634,3.3,12.733,9.161s-2.29,12.184-8.245,13.558a10.86,10.86,0,0,1-10.077-3.023l.55.092a15.41,15.41,0,0,1-9.527,3.3,15.919,15.919,0,0,1-9.252-3.206h.55a11.365,11.365,0,0,1-13.924,1.741,8.855,8.855,0,0,1-2.29-12.367,9.017,9.017,0,0,1,6.6-3.848c.275,0,.733.366.275.458a8.772,8.772,0,0,0-7.7,8.978,8.351,8.351,0,0,0,8.611,7.97,12.9,12.9,0,0,0,4.122-.641,9.813,9.813,0,0,0,3.756-2.565.584.584,0,0,1,.55,0,14.612,14.612,0,0,0,9.069,3.023,14.906,14.906,0,0,0,8.7-3.206.562.562,0,0,1,.55.092,9.941,9.941,0,0,0,8.886,2.84,10.719,10.719,0,0,0,6.321-4.214A12.009,12.009,0,0,0,466.49,127.8a9.65,9.65,0,0,0-8.7-2.931c-.183,0-.55,0-.55-.275-.092-.183-.183-.275-.183-.458a5.6,5.6,0,0,1-.458-1.1c-.275-.55-.458-1.1-.733-1.557a17.408,17.408,0,0,0-5.588-5.955,12.6,12.6,0,0,0-14.2,1.1c-2.473,1.832-3.939,4.489-5.13,7.329a.227.227,0,0,1-.366.092,4.766,4.766,0,0,0-5.771,3.39,4.692,4.692,0,0,0,.092,2.748C424.992,130.635,424.259,130.543,424.167,130.269Z" transform="translate(-416.168 -10.007)"/><path class="b" d="M500.529,139.958H482.94c-.183,0-.916-.458-.55-.458h17.589c.183,0,.916.458.55.458Z" transform="translate(-421.717 -12.184)"/><path class="b" d="M486.288,134.954l-2.2,2.2-1.557,1.557c-.183.183-.733.55-.825.824.092-.275-.092-.183.183-.092.183.183.366.275.458.458l1.466,1.466,2.29,2.29c.275.275-.733.275-1.008,0l-4.4-4.4c0-.092,0-.092.092-.183l4.58-4.58C485.555,134.313,486.471,134.771,486.288,134.954Z" transform="translate(-421.584 -11.761)"/><path class="e" d="M676.691,139.3h17.5c.183,0,.916.458.55.458H677.149c-.092,0-.824-.458-.458-.458Z" transform="translate(-438.023 -12.167)"/><path class="e" d="M692.1,143.484l2.2-2.2,1.557-1.557c.183-.183.733-.55.824-.824-.092.275.092.183-.183.092-.183-.183-.366-.275-.458-.458l-1.466-1.466-2.29-2.29c-.275-.275.733-.275,1.008,0l4.4,4.4c0,.092,0,.092-.092.183l-4.581,4.58C692.922,144.125,691.915,143.667,692.1,143.484Z" transform="translate(-439.323 -11.771)"/><path class="b" d="M587.8,69.729V52.14c0-.183.458-.916.458-.55V69.179c0,.183-.458.916-.458.55Z" transform="translate(-430.572 -4.799)"/><path class="b" d="M591.984,55.488l-2.2-2.2-1.557-1.557c-.183-.183-.55-.733-.824-.824.275.092.183-.092.092.183-.183.183-.275.366-.458.458l-1.466,1.466-2.29,2.29c-.275.275-.275-.733,0-1.008l4.4-4.4c.092,0,.092,0,.183.092l4.58,4.58C592.625,54.755,592.167,55.671,591.984,55.488Z" transform="translate(-430.175 -4.665)"/><rect class="f" width="122.938" height="3.573" transform="translate(94.11 172.57)"/><path class="g" d="M651.74,169.416V80.831A2.932,2.932,0,0,0,648.9,77.9H508.74a2.934,2.934,0,0,0-2.84,2.931v88.585H651.74Z" transform="translate(-423.698 -7.015)"/><path class="a" d="M492.023,188.561c-2.748-.641-3.756-1.374-2.473-2.2,9.252-6.046,50.568-5.863,70.721-5.863,25.284,0,51.575-.183,74.294,1.283,9.527.641,31.055,1.191,34.811,3.206,9.711,5.4-59.179,6.871-70.263,6.962C580.516,192.042,507.78,192.134,492.023,188.561Z" transform="translate(-422.28 -15.624)"/><path class="f" d="M657.567,184.786H497.07a7.976,7.976,0,0,1-7.97-7.97v-.458a.433.433,0,0,1,.458-.458H664.987a.433.433,0,0,1,.458.458v.458A7.84,7.84,0,0,1,657.567,184.786Z" transform="translate(-422.289 -15.239)"/><path class="c" d="M660.267,184.786H499.77a7.976,7.976,0,0,1-7.97-7.97v-.458a.433.433,0,0,1,.458-.458H667.687a.433.433,0,0,1,.458.458v.458A7.84,7.84,0,0,1,660.267,184.786Z" transform="translate(-422.515 -15.239)"/><path class="d" d="M660.477,184.38h-159.4a8.484,8.484,0,0,1-3.023-.275,7.977,7.977,0,0,1-5.5-6.229c0-.275.092-1.557-.092-1.649h-.275c2.107-.092,4.122,0,6.229,0H665.515a6.768,6.768,0,0,1,1.924,0c.55.275,0,2.382-.183,2.931a7.348,7.348,0,0,1-6.779,5.222c-.458,0-1.374.733-.55.641a9.262,9.262,0,0,0,6.962-3.206,8.485,8.485,0,0,0,1.832-3.756c.092-.733.458-2.29-.458-2.565a3.932,3.932,0,0,0-1.466,0H492.559a1.505,1.505,0,0,0-1.466.641,3.469,3.469,0,0,0,0,1.374,9.408,9.408,0,0,0,.458,2.2,8.26,8.26,0,0,0,2.29,3.3c2.657,2.29,5.863,2.107,9.069,2.107H659.927C660.385,185.113,661.3,184.38,660.477,184.38Z" transform="translate(-422.451 -15.199)"/><path class="d" d="M565.4,175.965c.55,2.748,3.115,2.565,5.222,2.565h30.139c2.382,0,5.5.275,6.138-2.748,0-.183-.183-.183-.275-.183H566.038c-.366,0-1.1.55-.366.55h40.582c-.091-.092-.183-.183-.275-.183a2.437,2.437,0,0,1-2.657,2.015H572.267c-2.107,0-5.313.55-5.863-2.2C566.313,175.415,565.3,175.6,565.4,175.965Z" transform="translate(-428.688 -15.212)"/><path class="h" d="M515.2,85.1H647.551v76.849H515.2Z" transform="translate(-424.548 -7.334)"/><path class="c" d="M651.5,79.8H511.34a2.854,2.854,0,0,0-2.84,2.84v85.1H654.34v-85.2A2.837,2.837,0,0,0,651.5,79.8Zm-4.58,81.989H514.638V84.655H646.92Z" transform="translate(-423.917 -7.174)"/><path class="d" d="M654.752,82.514c-.092-2.107-1.741-3.115-3.664-3.115H514.226c-2.473,0-6.138-.366-6.229,3.206-.092,2.565,0,5.222,0,7.787v77.317c0,.275.275.275.458.275H648.34c1.924,0,3.756.092,5.68,0h.366c.183-.092.367-.183.367-.366v-85.1Zm-4.306,84.921H509V82.605a2.425,2.425,0,0,1,2.29-2.473H648.248c2.107,0,5.4-.55,5.588,2.565.092,2.748,0,5.588,0,8.336v76.31Z" transform="translate(-423.871 -7.14)"/><path class="d" d="M648.117,85.493H532.141c-5.313,0-10.718-.183-16.031,0h-.183c-.183,0-.733.092-.733.366v73.928a16.672,16.672,0,0,0,0,3.023v.092c0,.183.183.183.275.183H631.444c5.313,0,10.718.183,16.031,0h.183c.183,0,.733-.092.733-.366V88.882a16.66,16.66,0,0,0,0-3.023v-.092c0-.458-1.008-.183-1.008.092v76.035a1.875,1.875,0,0,0,0,1.008v.092a5.4,5.4,0,0,0,.733-.366H517.85a5.548,5.548,0,0,0-1.741,0h-.183c.092.092.183.183.275.183V86.867a1.875,1.875,0,0,0,0-1.008v-.092a5.4,5.4,0,0,0-.733.366H631.444c5.313,0,10.718.092,16.031,0h.183C648.117,86.042,648.758,85.493,648.117,85.493Z" transform="translate(-424.473 -7.645)"/><path class="c" d="M593.526,100.5H572.181a3.5,3.5,0,0,0-3.481,3.573v43.056a3.559,3.559,0,0,0,3.481,3.573H602.87a3.559,3.559,0,0,0,3.481-3.573V112.5Z" transform="translate(-428.969 -8.911)"/><path class="i" d="M606.425,112.759h0v-.183l-.275-.275-9.069-.092a3.31,3.31,0,0,1-3.573-2.382,6.052,6.052,0,0,1-.092-1.283v-.275l.092-6.5V100.3H572.256a3.726,3.726,0,0,0-3.664,2.931,8.392,8.392,0,0,0-.091,1.557V147.02a3.794,3.794,0,0,0,3.664,3.939h29.772a5.342,5.342,0,0,0,2.107-.183,3.789,3.789,0,0,0,2.382-3.573V112.759Zm-.183,8.7v25.375a3.559,3.559,0,0,1-3.481,3.573h-30.6a3.284,3.284,0,0,1-3.3-3.3V104.789a5.022,5.022,0,0,1,.367-2.29,3.721,3.721,0,0,1,3.389-1.832h20.52l-.092,8.245a3.753,3.753,0,0,0,3.664,3.756l9.436.092c0,2.84.092,5.863.092,8.7Z" transform="translate(-428.952 -8.895)"/><path class="i" d="M602.586,150.942H572.356a3.952,3.952,0,0,1-3.756-4.031V104.406a6.052,6.052,0,0,1,.092-1.283,3.742,3.742,0,0,1,3.756-3.023H593.7v1.557l-.092,6.413v.275a6.044,6.044,0,0,0,.092,1.283,3.364,3.364,0,0,0,3.481,2.382l9.069.092h.092l.275.275v.275h0v34.261a3.7,3.7,0,0,1-2.382,3.664A4.159,4.159,0,0,1,602.586,150.942Zm-25.375-.183H602.22a6.233,6.233,0,0,0,1.832-.183,3.468,3.468,0,0,0,2.29-3.481h0a3.62,3.62,0,0,1-3.573,3.481H572.081a3.4,3.4,0,0,1-3.023-1.832,3.475,3.475,0,0,0,3.115,2.107C572.264,150.759,577.211,150.759,577.211,150.759Zm-3.848-.55h29.5a3.4,3.4,0,0,0,3.389-3.481V121.445c0-1.557,0-3.115-.092-4.672,0-1.374,0-2.748-.092-4.031l-9.344-.092a3.793,3.793,0,0,1-3.756-3.848h0l.092-8.153H572.63a3.489,3.489,0,0,0-3.3,1.832,3.748,3.748,0,0,0-.366,2.2v42.231a3.327,3.327,0,0,0,3.206,3.3Zm19.787-49.652h0l.092.092-.092,8.245a3.6,3.6,0,0,0,3.573,3.664l9.436.092c.092,0,.092,0,.092.092h0c0,1.374,0,2.748.092,4.122v-4.122h0v-.183l-.275-.275-8.978-.092H597a3.476,3.476,0,0,1-3.573-2.473,6.485,6.485,0,0,1-.092-1.283v-.275l.092-7.512v-.366h-21.07a3.626,3.626,0,0,0-3.573,2.931,5.223,5.223,0,0,0-.092,1.191,4.784,4.784,0,0,1,.366-1.924,3.816,3.816,0,0,1,3.573-1.924Z" transform="translate(-428.96 -8.878)"/><path class="j" d="M602.528,151.525H572.3a4.576,4.576,0,0,1-4.4-4.672V104.346a6.933,6.933,0,0,1,.092-1.374,4.342,4.342,0,0,1,4.4-3.573H593.55a.653.653,0,0,1,.55.275.673.673,0,0,1,.183.55v1.466l-.092,6.413v.275a4.463,4.463,0,0,0,.092,1.1,2.713,2.713,0,0,0,2.84,1.832l9.069.092a1.3,1.3,0,0,1,.55.183l.275.275a.792.792,0,0,1,.275.55v.183h0v34.353a4.345,4.345,0,0,1-2.931,4.306A6.842,6.842,0,0,1,602.528,151.525ZM573.3,149.509h29.406a2.622,2.622,0,0,0,2.657-2.748V121.477c0-1.557,0-3.023-.092-4.58v-3.481l-8.611-.092a4.1,4.1,0,0,1-3.115-1.374,4.578,4.578,0,0,1-1.283-3.206l.092-7.42H572.572a2.958,2.958,0,0,0-2.748,1.374,3.42,3.42,0,0,0-.275,1.924v42.231a2.561,2.561,0,0,0,2.565,2.565H573.3Z" transform="translate(-428.902 -8.818)"/><path class="i" d="M608.407,112.649c-.092,0-.183,0-.183-.092l-12.734-12c-.092-.092-.183-.275,0-.366h0c.092-.092.275-.183.366,0h0l12.734,12c.092.092.183.275,0,.366h0C608.5,112.557,608.5,112.649,608.407,112.649Z" transform="translate(-431.208 -8.876)"/><path class="j" d="M608.345,113.224a.832.832,0,0,1-.641-.275l-12.734-12a1,1,0,0,1-.092-1.374h0a.99.99,0,0,1,.641-.275,1.04,1.04,0,0,1,.733.275l12.734,12a1.107,1.107,0,0,1,.092,1.374h0A1.218,1.218,0,0,1,608.345,113.224Z" transform="translate(-431.146 -8.811)"/><path class="c" d="M592.51,114.333V100.5H573.09a3.46,3.46,0,0,0-3.389,3.481h0v43.056a3.541,3.541,0,0,0,3.389,3.573h29.956a3.424,3.424,0,0,0,3.39-3.573h0l-.275-33.712-4.947,1.374-6.5-.916Z" transform="translate(-429.053 -8.911)"/><path class="c" d="M599.831,112.278h6.687l-9.527-8.978-.092,5.771v.275a4.463,4.463,0,0,0,.092,1.1A2.713,2.713,0,0,0,599.831,112.278Z" transform="translate(-431.335 -9.146)"/><path class="c" d="M608.2,112.868l-8.428-.092a3.268,3.268,0,0,1-3.481-2.382,5.637,5.637,0,0,1-.092-1.283v-.275l.092-7.237Zm-8.428-1.374h5.039l-7.145-6.779v5.4c.275,1.374,1.924,1.374,2.107,1.374Z" transform="translate(-431.277 -9.003)"/><path class="k" d="M449.8,138.612H439.356a3.773,3.773,0,0,1-3.756-3.756h0a3.773,3.773,0,0,1,3.756-3.756H449.8a3.773,3.773,0,0,1,3.756,3.756h0A3.773,3.773,0,0,1,449.8,138.612Z" transform="translate(-417.799 -11.479)"/><path class="l" d="M593.7,24.712H583.256a3.773,3.773,0,0,1-3.756-3.756h0a3.773,3.773,0,0,1,3.756-3.756H593.7a3.773,3.773,0,0,1,3.756,3.756h0A3.834,3.834,0,0,1,593.7,24.712Z" transform="translate(-429.875 -1.921)"/><path class="k" d="M593.7,124.912H583.256a3.773,3.773,0,0,1-3.756-3.756h0a3.773,3.773,0,0,1,3.756-3.756H593.7a3.773,3.773,0,0,1,3.756,3.756h0A3.773,3.773,0,0,1,593.7,124.912Z" transform="translate(-429.875 -10.329)"/><path class="l" d="M593.7,135.612H583.256a3.773,3.773,0,0,1-3.756-3.756h0a3.773,3.773,0,0,1,3.756-3.756H593.7a3.773,3.773,0,0,1,3.756,3.756h0A3.773,3.773,0,0,1,593.7,135.612Z" transform="translate(-429.875 -11.227)"/><path class="m" d="M593.7,146.312H583.256a3.773,3.773,0,0,1-3.756-3.756h0a3.773,3.773,0,0,1,3.756-3.756H593.7a3.773,3.773,0,0,1,3.756,3.756h0A3.773,3.773,0,0,1,593.7,146.312Z" transform="translate(-429.875 -12.125)"/><path class="m" d="M737.7,137.912H727.256a3.773,3.773,0,0,1-3.756-3.756h0a3.773,3.773,0,0,1,3.756-3.756H737.7a3.773,3.773,0,0,1,3.756,3.756h0A3.714,3.714,0,0,1,737.7,137.912Z" transform="translate(-441.96 -11.42)"/></g></svg>