<svg xmlns="http://www.w3.org/2000/svg" viewBox="-1362 5727.503 61.546 52.421"><defs><style>.a{fill:#93d1e5;}</style></defs><g transform="translate(-1537 -49)"><path class="a" d="M30.836,51.393v-21.2l-6.424,6.424a1.823,1.823,0,0,1-.771.257.943.943,0,0,1-.771-.257,1.008,1.008,0,0,1,0-1.413l8.223-8.223c.128-.128.256-.256.385-.256a.817.817,0,0,1,.771,0c.129.128.257.128.385.256L40.858,35.2a1.008,1.008,0,0,1,0,1.413,1.82,1.82,0,0,1-.771.257.945.945,0,0,1-.771-.257l-6.424-6.424v21.2a1.028,1.028,0,1,1-2.056,0ZM45.1,41.243a1.028,1.028,0,1,1,0-2.056h4.111A10.309,10.309,0,0,0,59.488,28.909,10.484,10.484,0,0,0,51.136,18.63a17.317,17.317,0,0,0-4.754,0h-.129a1.091,1.091,0,0,1-1.028-.9,1.234,1.234,0,0,1,.9-1.156,16.224,16.224,0,0,1,4.24-.128A15.589,15.589,0,0,0,35.076,2.184a16.332,16.332,0,0,0-12.591,6.3,9.1,9.1,0,0,1,3.341,7.066,1.028,1.028,0,1,1-2.056,0,7.308,7.308,0,0,0-3.341-6.039l-.771-.386c-.128,0-.128-.128-.257-.128-.256-.128-.642-.257-.9-.385h-.129c-.256,0-.514-.128-.771-.128h-.257a2.178,2.178,0,0,0-.9-.129,7.184,7.184,0,0,0-7.2,7.2v1.542l-.642.256A12.358,12.358,0,0,0,2.056,27.881,11.186,11.186,0,0,0,13.234,39.059H18.5a1.028,1.028,0,1,1,0,2.056H13.234A13.215,13.215,0,0,1,0,27.881,13.714,13.714,0,0,1,7.323,15.932v-.385A9.212,9.212,0,0,1,16.574,6.3h1.285a5.558,5.558,0,0,0,.642.128h.257c.256.129.385.129.642.257.129,0,.257.129.386.129.256.128.385.128.642.256.128.129.128.129.256.129A18.386,18.386,0,0,1,35.076,0,17.666,17.666,0,0,1,52.421,16.7a12.5,12.5,0,0,1-3.212,24.54Z" transform="translate(175 5776.503)"/></g></svg>