<svg xmlns="http://www.w3.org/2000/svg" viewBox="-1298 975 73.896 76.689"><defs><style>.a{fill:#2c3e4f;}.b{fill:#c92a3e;}</style></defs><g transform="translate(-1562.249 -48.878)"><path class="a" d="M34.827,25.932c-.109,0-.218,0-.218-.109L23.618,19.511a.435.435,0,0,1-.218-.435V6.342a.565.565,0,0,1,.218-.435.494.494,0,0,1,.544,0l10.992,6.312a.435.435,0,0,1,.218.435V25.387a.565.565,0,0,1-.218.435A.4.4,0,0,1,34.827,25.932ZM24.379,18.749l9.9,5.768V13.089l-9.9-5.768V18.749Z" transform="translate(266.315 1024.355)"/><path class="a" d="M33.935,25.923c-.109,0-.218,0-.218-.109a.435.435,0,0,1-.218-.435V12.754a.565.565,0,0,1,.218-.435L44.71,6.007a.494.494,0,0,1,.544,0,.435.435,0,0,1,.218.435V19.066a.565.565,0,0,1-.218.435L34.262,25.814A.4.4,0,0,1,33.935,25.923Zm.544-12.842V24.508l9.9-5.768V7.313Zm10.448,5.986Z" transform="translate(267.207 1024.364)"/><path class="a" d="M34.827,13.819c-.109,0-.218,0-.218-.109L23.618,7.4a.435.435,0,0,1-.218-.435.825.825,0,0,1,.218-.435L34.61.215c.109-.218.326-.218.544-.109L46.146,6.418a.435.435,0,0,1,.218.435.825.825,0,0,1-.218.435L35.154,13.6C35.045,13.71,34.936,13.819,34.827,13.819Zm-9.9-6.965,9.9,5.768,9.9-5.768-9.9-5.768Z" transform="translate(266.315 1023.844)"/><path class="a" d="M34.827,72.132c-.109,0-.218,0-.218-.109L23.618,65.711a.434.434,0,0,1-.218-.435V52.542a.565.565,0,0,1,.218-.435.494.494,0,0,1,.544,0l10.992,6.312a.435.435,0,0,1,.218.435V71.587a.565.565,0,0,1-.218.435A.4.4,0,0,1,34.827,72.132ZM24.379,64.949l9.9,5.768V59.181l-9.9-5.768V64.949Z" transform="translate(266.315 1028.435)"/><path class="a" d="M33.935,72.132c-.109,0-.218,0-.218-.109a.434.434,0,0,1-.218-.435V58.854a.565.565,0,0,1,.218-.435L44.71,52.107a.494.494,0,0,1,.544,0,.434.434,0,0,1,.218.435V65.275a.565.565,0,0,1-.218.435L34.262,72.023A.4.4,0,0,1,33.935,72.132Zm.544-12.951V70.608l9.9-5.768V53.521Zm10.448,6.095Z" transform="translate(267.207 1028.435)"/><path class="a" d="M34.827,59.911c-.109,0-.218,0-.218-.109L23.618,53.489a.435.435,0,0,1-.218-.435.825.825,0,0,1,.218-.435L34.61,46.307a.494.494,0,0,1,.544,0l10.992,6.312a.434.434,0,0,1,.218.435.825.825,0,0,1-.218.435L35.154,59.8A.4.4,0,0,1,34.827,59.911Zm-9.9-6.856,9.9,5.768,9.9-5.768-9.9-5.768Z" transform="translate(266.315 1027.923)"/><path class="a" d="M11.536,49.032c-.109,0-.218,0-.218-.109L.218,42.611A.831.831,0,0,1,0,42.066V29.442a.565.565,0,0,1,.218-.435.494.494,0,0,1,.544,0l10.992,6.312a.435.435,0,0,1,.218.435V48.487a.565.565,0,0,1-.218.435A.38.38,0,0,1,11.536,49.032ZM1.088,41.74l9.9,5.768V36.081l-9.9-5.768Z" transform="translate(264.249 1026.395)"/><path class="a" d="M10.635,49.032c-.109,0-.218,0-.218-.109a.435.435,0,0,1-.218-.435V35.754a.565.565,0,0,1,.218-.435L21.41,29.007a.494.494,0,0,1,.544,0,.435.435,0,0,1,.218.435V42.066a.565.565,0,0,1-.218.435L10.962,48.814C10.853,48.923,10.744,49.032,10.635,49.032Zm.544-12.951V47.508l9.9-5.768V30.313Zm10.448,5.986Z" transform="translate(265.149 1026.395)"/><path class="a" d="M11.536,36.811c-.109,0-.218,0-.218-.109L.218,30.389a.544.544,0,0,1,0-.871L11.21,23.207a.494.494,0,0,1,.544,0l11.1,6.2a.435.435,0,0,1,.218.435.825.825,0,0,1-.218.435L11.863,36.593C11.754,36.811,11.645,36.811,11.536,36.811Zm-9.9-6.856,9.9,5.768,9.9-5.768-9.9-5.768Z" transform="translate(264.249 1025.883)"/><path class="a" d="M58.227,49.032c-.109,0-.218,0-.218-.109L47.018,42.611a.435.435,0,0,1-.218-.435V29.442a.565.565,0,0,1,.218-.435.494.494,0,0,1,.544,0l10.992,6.312a.435.435,0,0,1,.218.435V48.487a.565.565,0,0,1-.218.435A.477.477,0,0,0,58.227,49.032ZM47.779,41.74l9.9,5.768V36.081l-9.9-5.768V41.74Z" transform="translate(268.381 1026.395)"/><path class="a" d="M57.335,49.032c-.109,0-.218,0-.218-.109a.435.435,0,0,1-.218-.435V35.754a.565.565,0,0,1,.218-.435L68.11,29.007a.494.494,0,0,1,.544,0,.435.435,0,0,1,.218.435V42.066a.565.565,0,0,1-.218.435L57.662,48.814A1.347,1.347,0,0,0,57.335,49.032Zm.544-12.951V47.508l9.9-5.768V30.313Zm10.448,5.986Z" transform="translate(269.273 1026.395)"/><path class="a" d="M58.227,36.819c-.109,0-.218,0-.218-.109L47.018,30.4a.435.435,0,0,1-.218-.435.825.825,0,0,1,.218-.435L57.9,23.107a.494.494,0,0,1,.544,0l10.992,6.312a.435.435,0,0,1,.218.435.825.825,0,0,1-.218.435L58.445,36.6C58.336,36.819,58.227,36.819,58.227,36.819Zm-9.9-6.856,9.9,5.768,9.9-5.768-9.9-5.768Z" transform="translate(268.381 1025.874)"/><path class="b" d="M14.906,23.5A23.319,23.319,0,0,1,22.2,16.206V14.9a27.028,27.028,0,0,0-8.6,8.6Z" transform="translate(265.449 1025.157)"/><path class="b" d="M46.3,16.206A23.319,23.319,0,0,1,53.592,23.5H54.9a27.028,27.028,0,0,0-8.6-8.6Z" transform="translate(268.337 1025.157)"/><path class="b" d="M53.692,47.7A23.319,23.319,0,0,1,46.4,54.992V56.3A27.028,27.028,0,0,0,55,47.7Z" transform="translate(268.346 1028.053)"/><path class="b" d="M22.2,54.992A23.319,23.319,0,0,1,14.906,47.7H13.6a27.028,27.028,0,0,0,8.6,8.6Z" transform="translate(265.449 1028.053)"/></g></svg>