<svg xmlns="http://www.w3.org/2000/svg" viewBox="-848.532 5714.296 49.338 61.672"><defs><style>.a{fill:#93d1e5;}</style></defs><g transform="translate(-1537 -49)"><path class="a" d="M5.139,61.672v-5.14H0V0H44.2V15.032l5.14,5.14v41.5ZM7.2,59.616H47.282V21.585H32.892V7.2H7.2Zm-5.14-5.14H5.139V5.139H34.3l7.838,7.838V2.056H2.056ZM34.947,19.53H45.868L34.947,8.608ZM14.39,52.421a1.028,1.028,0,0,1,0-2.056h25.7a1.028,1.028,0,0,1,0,2.056Zm0-8.223a1.028,1.028,0,0,1,0-2.056h25.7a1.028,1.028,0,0,1,0,2.056Zm0-8.223a1.028,1.028,0,0,1,0-2.056h25.7a1.028,1.028,0,0,1,0,2.056Zm0-8.222a1.028,1.028,0,0,1,0-2.056h25.7a1.028,1.028,0,0,1,0,2.056Zm0-8.223a1.028,1.028,0,0,1,0-2.056H24.669a1.028,1.028,0,0,1,0,2.056Z" transform="translate(688.468 5763.296)"/></g></svg>