<svg xmlns="http://www.w3.org/2000/svg" viewBox="-532.515 3745.653 318.602 176.858"><defs><style>.a{fill:#e5e5e5;}.b,.g{fill:#ad2e40;}.b{stroke:#ad2e40;}.b,.d,.i,.j{stroke-linecap:round;stroke-linejoin:round;}.c{fill:#fff;}.d,.i,.k{fill:#2c3e4f;}.d,.i,.j{stroke:#2c3e4f;}.d,.i{stroke-miterlimit:10;}.e{fill:#bde0e8;}.f{fill:#e3e3e3;}.h,.j{fill:#212c2f;}.i{stroke-width:2px;}.j{stroke-width:0.5px;}.l{fill:#65919f;}</style></defs><g transform="translate(-532 3746.184)"><rect class="a" width="122.938" height="3.573" transform="translate(94.843 172.542)"/><path class="b" d="M899.291,97.763,898.1,97.3c.275-.824.641-1.649.916-2.473l1.191.458C899.932,96.114,899.566,96.938,899.291,97.763Zm248.807-5.13-1.008-2.382,1.191-.55c.367.824.733,1.649,1.1,2.382ZM902.222,90.617l-1.191-.55c.366-.824.733-1.557,1.1-2.382l1.191.55c-.366.824-.733,1.557-1.1,2.382Zm242.487-4.947c-.366-.733-.824-1.557-1.282-2.29l1.1-.641c.458.824.916,1.557,1.282,2.29ZM905.795,83.655l-1.1-.641c.458-.733.916-1.557,1.283-2.29l1.1.641c-.458.824-.916,1.557-1.283,2.29Zm234.975-4.764c-.458-.733-.916-1.466-1.466-2.2l1.1-.733c.458.733.916,1.466,1.466,2.2ZM909.826,77.059l-1.1-.733c.458-.733,1.008-1.466,1.466-2.2l1.008.733a14.433,14.433,0,0,1-1.374,2.2Zm226.547-4.58c-.55-.733-1.008-1.374-1.557-2.015l1.008-.824c.55.733,1.1,1.374,1.649,2.107ZM914.406,70.738l-1.008-.824c.55-.733,1.1-1.374,1.649-2.015l1.008.824c-.55.733-1.1,1.374-1.649,2.015Zm217.019-4.214c-.55-.641-1.1-1.283-1.74-1.924l.916-.824c.55.641,1.191,1.283,1.74,1.924ZM919.445,64.784l-.916-.824c.641-.641,1.191-1.283,1.741-1.924l.916.916C920.635,63.593,919.994,64.143,919.445,64.784Zm206.667-3.939-1.832-1.832.916-.916c.641.641,1.283,1.191,1.832,1.832ZM924.849,59.287l-.916-.916c.641-.641,1.282-1.191,1.924-1.741l.916.916c-.641.55-1.282,1.1-1.924,1.741Zm195.583-3.756-1.924-1.741.825-1.008c.641.55,1.374,1.1,2.015,1.741ZM930.621,54.066l-.824-1.008c.641-.55,1.374-1.1,2.015-1.649l.825,1.008C931.995,52.966,931.354,53.516,930.621,54.066Zm183.765-3.481-2.107-1.557.824-1.008,2.107,1.557ZM936.758,49.21l-.824-1.008c.733-.55,1.374-1.008,2.107-1.557l.733,1.008A11.738,11.738,0,0,1,936.758,49.21ZM1108.065,46c-.733-.458-1.466-.916-2.2-1.466l.733-1.1c.733.458,1.466.916,2.2,1.466ZM943.171,44.722l-.733-1.1,2.2-1.374.733,1.1C944.637,43.806,943.9,44.355,943.171,44.722Zm158.3-2.84c-.733-.458-1.466-.824-2.29-1.283l.641-1.1c.825.458,1.558.824,2.29,1.283Zm-151.7-1.191-.641-1.1c.733-.458,1.557-.824,2.29-1.283l.641,1.1C951.324,39.866,950.591,40.233,949.767,40.691Zm144.924-2.657c-.824-.366-1.557-.824-2.29-1.191l.55-1.191,2.382,1.191ZM956.637,37.027l-.55-1.191c.825-.366,1.557-.824,2.382-1.1l.549,1.191C958.286,36.294,957.462,36.66,956.637,37.027Zm131-2.29c-.825-.366-1.557-.733-2.382-1.008l.55-1.191c.824.366,1.649.733,2.382,1.008ZM963.783,33.82l-.549-1.191c.824-.366,1.649-.733,2.473-1.008l.458,1.191c-.733.275-1.649.641-2.382,1.008Zm116.709-2.107c-.824-.275-1.649-.641-2.473-.916l.458-1.191c.824.275,1.649.641,2.473.916ZM971.02,30.889l-.458-1.191c.825-.275,1.649-.641,2.473-.824l.458,1.191-2.473.824Zm102.051-1.832-2.474-.824.367-1.283,2.473.824Zm-94.631-.641-.366-1.283a20.964,20.964,0,0,1,2.565-.733l.366,1.283C980.089,27.957,979.265,28.141,978.44,28.415Z" transform="translate(-866.1 -2.722)"/><path class="c" d="M1196.637,127.775a5.187,5.187,0,0,0,.275-1.649,4.966,4.966,0,0,0-4.855-4.947,8.018,8.018,0,0,0-1.466.183,18.232,18.232,0,0,0-3.847-6.229c-3.664-3.573-9.161-5.13-14.016-3.115a16.164,16.164,0,0,0-5.588,4.031,21.517,21.517,0,0,0-2.107,2.931,30.41,30.41,0,0,0-1.466,3.206,10.093,10.093,0,0,0-1.649-.183c-5.863-.092-10.718,5.038-10.718,11.268-.091,6.321,4.672,11.451,10.535,11.543a10.479,10.479,0,0,0,7.42-3.115,14.732,14.732,0,0,0,18.322.183,10.679,10.679,0,0,0,7.328,3.3h1.1a8.719,8.719,0,0,0,8.794-8.7,8.839,8.839,0,0,0-8.061-8.7Z" transform="translate(-887.339 -9.831)"/><path class="d" d="M1196.977,127.669a5.024,5.024,0,0,0-1.282-5.313,5.25,5.25,0,0,0-5.13-1.191c.092,0,.275.092.366.092a17.856,17.856,0,0,0-4.764-7.054,14.23,14.23,0,0,0-6.871-3.115c-5.588-.824-10.718,2.2-13.833,6.779a13.843,13.843,0,0,0-1.374,2.565,8.347,8.347,0,0,1-.641,1.283c-.091.183-.275.366-.183.55l.55-.275c-6.046-1.1-11.634,3.3-12.734,9.161s2.29,12.184,8.245,13.558a10.86,10.86,0,0,0,10.077-3.023l-.55.092a15.411,15.411,0,0,0,9.527,3.3,15.919,15.919,0,0,0,9.252-3.206h-.55a11.365,11.365,0,0,0,13.924,1.741,8.855,8.855,0,0,0,2.29-12.367,9.017,9.017,0,0,0-6.6-3.848c-.275,0-.733.366-.275.458a8.772,8.772,0,0,1,7.7,8.978,8.351,8.351,0,0,1-8.611,7.97,12.9,12.9,0,0,1-4.122-.641,9.814,9.814,0,0,1-3.756-2.565.584.584,0,0,0-.55,0,14.612,14.612,0,0,1-9.069,3.023,14.905,14.905,0,0,1-8.7-3.206.562.562,0,0,0-.55.092,9.941,9.941,0,0,1-8.886,2.84,10.452,10.452,0,0,1-6.321-4.214,12.009,12.009,0,0,1,1.008-14.932,9.65,9.65,0,0,1,8.7-2.931c.183,0,.55,0,.55-.275.092-.183.183-.275.183-.458a5.592,5.592,0,0,0,.458-1.1c.275-.55.458-1.1.733-1.557a17.41,17.41,0,0,1,5.588-5.955,12.6,12.6,0,0,1,14.2,1.1c2.474,1.832,3.939,4.489,5.13,7.329a.227.227,0,0,0,.366.092,4.766,4.766,0,0,1,5.771,3.39,4.692,4.692,0,0,1-.092,2.748C1196.152,128.035,1196.885,127.943,1196.977,127.669Z" transform="translate(-887.313 -9.817)"/><path class="c" d="M871.47,129.775a5.187,5.187,0,0,1-.275-1.649,4.966,4.966,0,0,1,4.855-4.947,8.018,8.018,0,0,1,1.466.183,18.231,18.231,0,0,1,3.847-6.229c3.664-3.573,9.161-5.13,14.016-3.115a16.167,16.167,0,0,1,5.588,4.031,21.526,21.526,0,0,1,2.107,2.931,30.332,30.332,0,0,1,1.466,3.206,10.1,10.1,0,0,1,1.649-.183c5.863-.092,10.718,5.038,10.718,11.268.092,6.321-4.672,11.451-10.535,11.543a10.479,10.479,0,0,1-7.42-3.115,14.732,14.732,0,0,1-18.322.183,10.68,10.68,0,0,1-7.329,3.3h-1.008a8.719,8.719,0,0,1-.824-17.406Z" transform="translate(-863.196 -9.999)"/><path class="d" d="M871.076,129.669a5.024,5.024,0,0,1,1.283-5.313,5.25,5.25,0,0,1,5.13-1.191c-.092,0-.275.092-.366.092a17.853,17.853,0,0,1,4.764-7.054,14.229,14.229,0,0,1,6.871-3.115c5.588-.824,10.718,2.2,13.833,6.779a13.83,13.83,0,0,1,1.374,2.565,8.381,8.381,0,0,0,.641,1.283c.092.183.275.366.183.55l-.55-.275c6.046-1.1,11.634,3.3,12.734,9.161s-2.29,12.184-8.245,13.558a10.861,10.861,0,0,1-10.077-3.023l.55.092a15.41,15.41,0,0,1-9.527,3.3,15.918,15.918,0,0,1-9.252-3.206h.549a10.468,10.468,0,0,1-7.237,3.3,10.75,10.75,0,0,1-6.687-1.649,8.855,8.855,0,0,1-2.29-12.367,9.017,9.017,0,0,1,6.6-3.848c.275,0,.733.366.275.458a8.772,8.772,0,0,0-7.7,8.978,8.351,8.351,0,0,0,8.611,7.97,12.9,12.9,0,0,0,4.122-.641,9.815,9.815,0,0,0,3.756-2.565.584.584,0,0,1,.549,0,14.612,14.612,0,0,0,9.069,3.023,14.906,14.906,0,0,0,8.7-3.206.562.562,0,0,1,.55.092,9.941,9.941,0,0,0,8.886,2.84,10.72,10.72,0,0,0,6.321-4.214A12.009,12.009,0,0,0,913.49,127.1a9.65,9.65,0,0,0-8.7-2.931c-.183,0-.55,0-.55-.275-.092-.183-.183-.275-.183-.458a5.6,5.6,0,0,1-.458-1.1c-.275-.55-.458-1.1-.733-1.557a17.407,17.407,0,0,0-5.588-5.955,12.6,12.6,0,0,0-14.2,1.1c-2.473,1.832-3.939,4.489-5.13,7.329a.227.227,0,0,1-.367.092,4.766,4.766,0,0,0-5.771,3.39,4.69,4.69,0,0,0,.092,2.748C871.9,130.035,871.167,129.943,871.076,129.669Z" transform="translate(-863.168 -9.985)"/><path class="c" d="M1014.57,17.272a5.184,5.184,0,0,1-.275-1.649,4.966,4.966,0,0,1,4.855-4.947,8.018,8.018,0,0,1,1.466.183,18.233,18.233,0,0,1,3.847-6.229c3.664-3.573,9.252-5.13,14.016-3.206a16.166,16.166,0,0,1,5.588,4.031,21.528,21.528,0,0,1,2.107,2.931,30.458,30.458,0,0,1,1.466,3.206,10.09,10.09,0,0,1,1.649-.183c5.863-.092,10.718,5.038,10.718,11.268.092,6.321-4.672,11.451-10.535,11.543a10.478,10.478,0,0,1-7.42-3.115,14.732,14.732,0,0,1-18.322.183,10.679,10.679,0,0,1-7.328,3.3h-1.008a8.642,8.642,0,0,1-8.794-8.611,8.893,8.893,0,0,1,7.97-8.7Z" transform="translate(-875.205 -0.556)"/><path class="d" d="M1014.176,17.269a5.024,5.024,0,0,1,1.283-5.313,5.25,5.25,0,0,1,5.13-1.191c-.091,0-.275.092-.366.092a17.854,17.854,0,0,1,4.764-7.054,14.228,14.228,0,0,1,6.87-3.115c5.588-.824,10.718,2.2,13.833,6.779a13.822,13.822,0,0,1,1.374,2.565,8.37,8.37,0,0,0,.641,1.283c.092.183.275.366.183.55l-.55-.275c6.046-1.1,11.634,3.3,12.734,9.161s-2.29,12.184-8.245,13.558a10.86,10.86,0,0,1-10.077-3.023l.549.092a15.41,15.41,0,0,1-9.527,3.3,15.919,15.919,0,0,1-9.252-3.206h.55a11.365,11.365,0,0,1-13.924,1.741,8.855,8.855,0,0,1-2.29-12.367,9.018,9.018,0,0,1,6.6-3.848c.275,0,.733.366.275.458a8.772,8.772,0,0,0-7.7,8.978,8.351,8.351,0,0,0,8.611,7.97,12.9,12.9,0,0,0,4.122-.641,9.816,9.816,0,0,0,3.756-2.565.584.584,0,0,1,.55,0,14.612,14.612,0,0,0,9.069,3.023,14.9,14.9,0,0,0,8.7-3.206.562.562,0,0,1,.55.092,9.942,9.942,0,0,0,8.886,2.84,10.719,10.719,0,0,0,6.321-4.214A12.009,12.009,0,0,0,1056.59,14.8a9.649,9.649,0,0,0-8.7-2.931c-.183,0-.55,0-.55-.275-.092-.183-.183-.275-.183-.458a5.608,5.608,0,0,1-.458-1.1c-.275-.55-.458-1.1-.733-1.557a17.4,17.4,0,0,0-5.588-5.955,12.6,12.6,0,0,0-14.2,1.1c-2.473,1.832-3.939,4.489-5.13,7.329a.227.227,0,0,1-.367.092,4.766,4.766,0,0,0-5.771,3.389,4.69,4.69,0,0,0,.092,2.748C1015,17.635,1014.267,17.543,1014.176,17.269Z" transform="translate(-875.177 -0.552)"/><path class="e" d="M1099.54,169.416V80.831a2.932,2.932,0,0,0-2.84-2.931H956.54a2.934,2.934,0,0,0-2.84,2.931v88.585h145.84Z" transform="translate(-870.766 -7.043)"/><path class="f" d="M939.823,188.561c-2.748-.641-3.756-1.374-2.473-2.2,9.252-6.046,50.568-5.863,70.721-5.863,25.284,0,51.575-.183,74.294,1.283,9.527.641,31.055,1.191,34.811,3.206,9.711,5.4-59.179,6.871-70.263,6.962C1028.316,192.042,955.579,192.134,939.823,188.561Z" transform="translate(-869.347 -15.652)"/><path class="a" d="M1105.375,184.786H944.97a7.976,7.976,0,0,1-7.97-7.97v-.458a.433.433,0,0,1,.458-.458h175.429a.433.433,0,0,1,.458.458v.458A7.976,7.976,0,0,1,1105.375,184.786Z" transform="translate(-869.364 -15.267)"/><path class="c" d="M1108.067,184.786H947.57a7.976,7.976,0,0,1-7.97-7.97v-.458a.433.433,0,0,1,.458-.458h175.429a.433.433,0,0,1,.458.458v.458A7.84,7.84,0,0,1,1108.067,184.786Z" transform="translate(-869.582 -15.267)"/><path class="d" d="M1108.277,184.38h-159.4a8.485,8.485,0,0,1-3.023-.275,7.977,7.977,0,0,1-5.5-6.229c0-.275.092-1.557-.092-1.649h-.275c2.107-.092,4.122,0,6.229,0h167.093a6.769,6.769,0,0,1,1.924,0c.55.275,0,2.382-.183,2.931a7.348,7.348,0,0,1-6.779,5.222c-.458,0-1.374.733-.55.641a9.262,9.262,0,0,0,6.962-3.206,8.483,8.483,0,0,0,1.832-3.756c.092-.733.458-2.29-.458-2.565a3.933,3.933,0,0,0-1.466,0H940.359a1.505,1.505,0,0,0-1.466.641,3.472,3.472,0,0,0,0,1.374,9.414,9.414,0,0,0,.458,2.2,8.26,8.26,0,0,0,2.29,3.3c2.657,2.29,5.863,2.107,9.069,2.107h157.016C1108.185,185.113,1109.1,184.38,1108.277,184.38Z" transform="translate(-869.517 -15.228)"/><path class="d" d="M1013.2,175.965c.55,2.748,3.115,2.565,5.222,2.565h30.139c2.382,0,5.5.275,6.138-2.748,0-.183-.183-.183-.275-.183h-40.491c-.366,0-1.1.55-.366.55h40.582c-.092-.092-.183-.183-.275-.183a2.437,2.437,0,0,1-2.657,2.015h-31.055c-2.107,0-5.313.55-5.863-2.2C1014.207,175.415,1013.108,175.6,1013.2,175.965Z" transform="translate(-875.758 -15.241)"/><path class="c" d="M1099.3,79.8H959.14a2.854,2.854,0,0,0-2.84,2.84v85.1h145.84v-85.2A2.837,2.837,0,0,0,1099.3,79.8Zm-4.58,81.989H962.529V84.655h132.282v77.134Z" transform="translate(-870.984 -7.203)"/><path class="d" d="M1102.552,82.514c-.092-2.107-1.741-3.115-3.665-3.115H962.026c-2.473,0-6.138-.366-6.229,3.206-.092,2.565,0,5.222,0,7.787v77.317c0,.275.275.275.458.275H1096.14c1.924,0,3.756.092,5.68,0h.366c.183-.092.366-.183.366-.366v-83A16.159,16.159,0,0,0,1102.552,82.514Zm-4.306,84.921H956.8V82.605a2.424,2.424,0,0,1,2.29-2.473h136.954c2.107,0,5.4-.55,5.588,2.565.091,2.748,0,5.588,0,8.336v76.31Z" transform="translate(-870.938 -7.168)"/><path class="d" d="M1095.917,85.493H979.941c-5.313,0-10.718-.183-16.031,0h-.183c-.183,0-.733.092-.733.366v73.928a16.661,16.661,0,0,0,0,3.023v.092c0,.183.183.183.275.183h115.976c5.313,0,10.718.183,16.031,0h.183c.183,0,.733-.092.733-.366V88.882a16.671,16.671,0,0,0,0-3.023v-.092c0-.458-1.007-.183-1.007.092v76.035a1.872,1.872,0,0,0,0,1.008v.092a5.4,5.4,0,0,0,.733-.366H965.65a5.547,5.547,0,0,0-1.741,0h-.183c.092.092.183.183.275.183V86.867a1.875,1.875,0,0,0,0-1.008v-.092a5.4,5.4,0,0,0-.733.366h115.976c5.313,0,10.718.092,16.031,0h.183C1095.917,86.042,1096.65,85.493,1095.917,85.493Z" transform="translate(-871.54 -7.674)"/><path class="b" d="M927.691,139.3h17.5c.183,0,.916.458.55.458H928.149c-.091,0-.824-.458-.458-.458Z" transform="translate(-868.574 -12.196)"/><path class="g" d="M943.1,143.484l2.2-2.2,1.557-1.557c.183-.183.733-.55.824-.824-.092.275.092.183-.183.092-.183-.183-.367-.275-.458-.458l-1.466-1.466-2.29-2.29c-.275-.275.733-.275,1.008,0l4.4,4.4c0,.092,0,.092-.092.183l-4.58,4.58C943.922,144.125,942.915,143.667,943.1,143.484Z" transform="translate(-869.874 -11.8)"/><path class="b" d="M1143.529,139.958h-17.589c-.183,0-.916-.458-.55-.458h17.589c.183,0,.916.458.55.458Z" transform="translate(-885.166 -12.213)"/><path class="g" d="M1129.288,134.954l-2.2,2.2-1.557,1.557c-.183.183-.733.55-.824.824.092-.275-.092-.183.183-.092.183.183.366.275.458.458l1.466,1.466,2.29,2.29c.275.275-.733.275-1.008,0l-4.4-4.4c0-.092,0-.092.092-.183l4.58-4.58C1128.555,134.313,1129.471,134.771,1129.288,134.954Z" transform="translate(-885.032 -11.789)"/><path class="b" d="M1035.758,49.891v17.5c0,.183-.458.916-.458.55V50.44c0-.183.458-.916.458-.55Z" transform="translate(-877.613 -4.684)"/><path class="g" d="M1030.754,65.3l2.2,2.2,1.557,1.557c.183.183.55.733.825.824-.275-.092-.183.092-.092-.183.183-.183.275-.366.458-.458l1.466-1.466,2.29-2.29c.275-.275.275.733,0,1.008l-4.4,4.4c-.092,0-.092,0-.183-.092l-4.58-4.58C1030.113,66.122,1030.571,65.115,1030.754,65.3Z" transform="translate(-877.19 -5.984)"/><path class="h" d="M1002.717,109.2a11.817,11.817,0,1,0,11.817,11.817A11.846,11.846,0,0,0,1002.717,109.2Zm.183,22.9a11.268,11.268,0,1,1,11.268-11.268A11.26,11.26,0,0,1,1002.9,132.1Z" transform="translate(-873.887 -9.67)"/><path class="d" d="M1002.692,133.085a12.092,12.092,0,1,1,12.092-12.092h0A12.081,12.081,0,0,1,1002.692,133.085Zm-3.023-23.268a11.578,11.578,0,1,0,14.2,14.291,11.477,11.477,0,0,1-21.986-6.6A11.169,11.169,0,0,1,999.669,109.816Zm3.206,0a10.993,10.993,0,1,0,10.993,10.993h0a11.025,11.025,0,0,0-10.993-10.993Z" transform="translate(-873.862 -9.645)"/><line class="i" x1="10.718" y2="13.1" transform="translate(111.241 120.6)"/><ellipse class="g" cx="1.191" cy="1.191" rx="1.191" ry="1.191" transform="translate(147.335 115.286)"/><ellipse class="g" cx="1.191" cy="1.191" rx="1.191" ry="1.191" transform="translate(152.098 115.286)"/><ellipse class="g" cx="1.191" cy="1.191" rx="1.191" ry="1.191" transform="translate(156.862 115.286)"/><path class="c" d="M1074.426,100.5h-21.345a3.5,3.5,0,0,0-3.481,3.573v43.056a3.559,3.559,0,0,0,3.481,3.573h30.689a3.559,3.559,0,0,0,3.481-3.573V112.5Z" transform="translate(-878.813 -8.94)"/><path class="h" d="M1087.426,112.759h0v-.183l-.275-.275-9.069-.092a3.31,3.31,0,0,1-3.573-2.382,6.052,6.052,0,0,1-.092-1.283v-.275l.092-6.5V100.3h-21.253a3.726,3.726,0,0,0-3.664,2.931,8.376,8.376,0,0,0-.092,1.557V147.02a3.794,3.794,0,0,0,3.664,3.939h29.681a5.343,5.343,0,0,0,2.107-.183,3.789,3.789,0,0,0,2.382-3.573l.092-34.445Zm-.183,8.7v25.375a3.559,3.559,0,0,1-3.481,3.573h-30.6a3.284,3.284,0,0,1-3.3-3.3V104.789a5.022,5.022,0,0,1,.367-2.29,3.721,3.721,0,0,1,3.389-1.832h20.52l-.092,8.245a3.753,3.753,0,0,0,3.664,3.756l9.436.092c-.092,2.84.092,5.863.092,8.7Z" transform="translate(-878.805 -8.923)"/><path class="h" d="M1083.486,150.942h-30.23a3.952,3.952,0,0,1-3.756-4.031V104.406a6.044,6.044,0,0,1,.092-1.283,3.742,3.742,0,0,1,3.756-3.023H1074.6v1.557l-.092,6.413v.275a6.052,6.052,0,0,0,.092,1.283,3.364,3.364,0,0,0,3.481,2.382l9.069.092h.092l.275.275v.275h0v34.261a3.7,3.7,0,0,1-2.382,3.664A3.859,3.859,0,0,1,1083.486,150.942Zm-25.284-.183h25.009a6.233,6.233,0,0,0,1.832-.183,3.468,3.468,0,0,0,2.29-3.481h0a3.62,3.62,0,0,1-3.573,3.481h-30.689a3.4,3.4,0,0,1-3.023-1.832,3.475,3.475,0,0,0,3.115,2.107C1053.164,150.759,1058.2,150.759,1058.2,150.759Zm-3.847-.55h29.406a3.4,3.4,0,0,0,3.389-3.481V121.445c0-1.557,0-3.115-.092-4.672,0-1.374,0-2.748-.092-4.031l-9.344-.092a3.793,3.793,0,0,1-3.756-3.848h0l.092-8.153h-20.428a3.489,3.489,0,0,0-3.3,1.832,3.749,3.749,0,0,0-.366,2.2v42.231a3.327,3.327,0,0,0,3.206,3.3Zm19.7-49.652h0l.092.092-.092,8.245a3.6,3.6,0,0,0,3.573,3.664l9.436.092c.092,0,.092,0,.092.092h0c0,1.374,0,2.748.092,4.122v-4.122h0v-.183l-.275-.275-8.978-.092h-.092a3.476,3.476,0,0,1-3.573-2.473,6.494,6.494,0,0,1-.092-1.283v-.275l.092-7.512v-.366h-21.07a3.626,3.626,0,0,0-3.573,2.931,5.22,5.22,0,0,0-.092,1.191,4.787,4.787,0,0,1,.366-1.924,3.817,3.817,0,0,1,3.573-1.924Z" transform="translate(-878.805 -8.906)"/><path class="j" d="M1083.427,151.525H1053.2a4.576,4.576,0,0,1-4.4-4.672V104.346a6.938,6.938,0,0,1,.092-1.374,4.342,4.342,0,0,1,4.4-3.573h21.161a.653.653,0,0,1,.55.275.673.673,0,0,1,.183.55v1.466l-.092,6.413v.275a4.463,4.463,0,0,0,.092,1.1,2.713,2.713,0,0,0,2.84,1.832l9.069.092a1.3,1.3,0,0,1,.55.183l.275.275a.792.792,0,0,1,.275.55v.183h0v34.353a4.345,4.345,0,0,1-2.931,4.306A6.842,6.842,0,0,1,1083.427,151.525Zm-29.223-2.015h29.406a2.622,2.622,0,0,0,2.657-2.748V121.477c0-1.557,0-3.023-.091-4.58v-3.481l-8.611-.092a4.1,4.1,0,0,1-3.115-1.374,4.577,4.577,0,0,1-1.283-3.206l.092-7.42h-19.787a2.958,2.958,0,0,0-2.748,1.374,3.418,3.418,0,0,0-.275,1.924v42.231a2.561,2.561,0,0,0,2.565,2.565h1.191Z" transform="translate(-878.746 -8.847)"/><path class="h" d="M1089.307,112.649c-.092,0-.183,0-.183-.092l-12.734-12c-.092-.092-.183-.275,0-.366h0c.092-.092.275-.183.366,0h0l12.734,12c.092.092.183.275,0,.366h0A.321.321,0,0,1,1089.307,112.649Z" transform="translate(-881.053 -8.905)"/><path class="j" d="M1089.245,113.224a.831.831,0,0,1-.641-.275l-12.734-12a1,1,0,0,1-.092-1.374h0a.989.989,0,0,1,.641-.275,1.041,1.041,0,0,1,.733.275l12.734,12a1.108,1.108,0,0,1,.091,1.374h0A1.04,1.04,0,0,1,1089.245,113.224Z" transform="translate(-880.991 -8.839)"/><path class="c" d="M1073.41,114.333V100.5H1053.99a3.46,3.46,0,0,0-3.389,3.481h0v43.056a3.541,3.541,0,0,0,3.389,3.573h29.956a3.424,3.424,0,0,0,3.389-3.573h0l-.275-33.712-4.947,1.374-6.5-.916Z" transform="translate(-878.897 -8.94)"/><path class="c" d="M1080.731,112.278h6.687l-9.527-8.978-.092,5.771v.275a4.463,4.463,0,0,0,.092,1.1A2.783,2.783,0,0,0,1080.731,112.278Z" transform="translate(-881.18 -9.175)"/><path class="c" d="M1089.1,112.868l-8.428-.092a3.268,3.268,0,0,1-3.481-2.382,5.63,5.63,0,0,1-.092-1.283v-.275l.092-7.237Zm-8.428-1.374h5.038l-7.145-6.779v5.4c.275,1.374,1.924,1.374,2.107,1.374Z" transform="translate(-881.121 -9.032)"/><g transform="translate(180.68 107.042)"><path class="g" d="M1074.6,124.912h-10.443a3.773,3.773,0,0,1-3.756-3.756h0a3.773,3.773,0,0,1,3.756-3.756H1074.6a3.773,3.773,0,0,1,3.756,3.756h0A3.773,3.773,0,0,1,1074.6,124.912Z" transform="translate(-1060.4 -117.4)"/><path class="k" d="M1074.6,135.612h-10.443a3.773,3.773,0,0,1-3.756-3.756h0a3.773,3.773,0,0,1,3.756-3.756H1074.6a3.773,3.773,0,0,1,3.756,3.756h0A3.773,3.773,0,0,1,1074.6,135.612Z" transform="translate(-1060.4 -118.298)"/><path class="l" d="M1074.6,146.312h-10.443a3.773,3.773,0,0,1-3.756-3.756h0a3.773,3.773,0,0,1,3.756-3.756H1074.6a3.773,3.773,0,0,1,3.756,3.756h0A3.773,3.773,0,0,1,1074.6,146.312Z" transform="translate(-1060.4 -119.196)"/></g><g transform="translate(17.526 108.966)"><path class="k" d="M895.675,123.516v2.015a7.6,7.6,0,1,1-3.848-1.1h0V122.6h0a9.841,9.841,0,1,0,3.848.916Z" transform="translate(-882.3 -119.76)"/><path class="k" d="M890.2,119.5v7.42l4.58-3.664Z" transform="translate(-882.963 -119.5)"/></g><g transform="translate(148.8 6.181)"><path class="k" d="M1038.975,11.316v2.015a7.6,7.6,0,1,1-3.848-1.1h0V10.4h0a9.841,9.841,0,1,0,3.848.916Z" transform="translate(-1025.6 -7.56)"/><path class="k" d="M1033.4,7.3v7.42l4.672-3.664Z" transform="translate(-1026.254 -7.3)"/></g><g transform="translate(280.991 107.317)"><path class="k" d="M1183.275,121.716v2.015a7.6,7.6,0,1,1-3.847-1.1h0V120.8h0a9.527,9.527,0,1,0,9.527,9.527A9.439,9.439,0,0,0,1183.275,121.716Z" transform="translate(-1169.9 -117.96)"/><path class="k" d="M1177.8,117.7v7.42l4.672-3.664Z" transform="translate(-1170.563 -117.7)"/></g></g></svg>