<svg xmlns="http://www.w3.org/2000/svg" viewBox="-1185.963 5708.792 46.273 61.672"><defs><style>.a{fill:#93d1e5;}</style></defs><g transform="translate(-1537 -49)"><path class="a" d="M5.658,0A5.708,5.708,0,0,0,0,6.167H0V56.533a5.154,5.154,0,0,0,5.139,5.139H46.258V0ZM2.06,56.533V10.279a5.228,5.228,0,0,0,3.084,1.028v48.31A3.127,3.127,0,0,1,2.06,56.533ZM44.2,59.616H7.2V11.307h3.084V37.26A1.8,1.8,0,0,0,11.439,38.8h.514c.128,0,.257,0,.257-.128h.128c.128,0,.128-.128.257-.128a.126.126,0,0,0,.128-.128c.128-.128.257-.257.257-.385l4.368-7.2,4.368,7.2a2.008,2.008,0,0,0,1.542.771h.128a1.543,1.543,0,0,0,1.156-1.542V11.307H44.074v48.31ZM22.746,9.765h0l-.128.257h0l-.128.257.128.128V35.333l-5.139-8.608-5.139,8.608v-24.8L14.009,7.2H24.031Zm2.57-.514,2.056-4.111H12.724L10.668,9.251H5.915A3.882,3.882,0,0,1,2.06,6.039a3.762,3.762,0,0,1,.9-2.827,3.5,3.5,0,0,1,2.7-1.156H44.2V3.084H39.063a1.105,1.105,0,0,0-1.028,1.028,1.105,1.105,0,0,0,1.028,1.028H44.2V6.167H40.091A1.105,1.105,0,0,0,39.063,7.2a1.105,1.105,0,0,0,1.028,1.028H44.2V9.251H25.315Zm0,0" transform="translate(351.052 5757.792)"/></g></svg>