<svg xmlns="http://www.w3.org/2000/svg" viewBox="-920 8860.602 26.397 26.397"><defs><style>.a{fill:#2c3e4f;}.b{fill:#fff;}</style></defs><g transform="translate(-1607.572 -21)"><circle class="a" cx="13.199" cy="13.199" r="13.199" transform="translate(687.572 8881.602)"/><path class="b" d="M169.234,32.933v5.251h-3.059V33.295c0-1.228-.434-2.071-1.541-2.071a1.684,1.684,0,0,0-1.566,1.108,2.249,2.249,0,0,0-.1.747v5.106h-3.059s.048-8.309,0-9.176h3.059v1.3l-.024.024h.024v-.024a3.033,3.033,0,0,1,2.746-1.517c2.023.024,3.516,1.325,3.516,4.143Zm-12.5-8.333a1.594,1.594,0,1,0-.048,3.179h.024a1.595,1.595,0,1,0,.024-3.179Zm-1.541,13.584h3.035V29.032h-3.035Zm0,0" transform="translate(539.123 8862.927)"/></g></svg>