<svg xmlns="http://www.w3.org/2000/svg" viewBox="0 0 220.74 255.88"><defs><style>.cls-1{fill:#009e00;}</style></defs><title>Ресурс 2</title><g id="Слой_2" data-name="Слой 2"><g id="Layer_1" data-name="Layer 1"><path class="cls-1" d="M78.6,4.17Q79.29,6.48,84,22.05q.17.57.09.69c0,.09-.25.18-.63.3L65.6,28.36a1.42,1.42,0,0,1-.72.11,1.53,1.53,0,0,1-.3-.66q-.37-1.18-2.67-8.9l-2.64-8.83c-.13-.42-.16-.67-.11-.76s.27-.21.69-.33Q75.43,4.34,77.64,3.66a.88.88,0,0,1,.64,0l.2.11ZM60.67,10.63s0,0,0,0Zm.87,4.07,0-.07.14-.2-.06,0a1.11,1.11,0,0,0-.09.25Zm.24-2.1,0,0-.05,0,.06.07.11-.06,0-.06Zm.15-.8-.09.08.09.08.08-.07L62,11.81ZM61.85,10l0,0,.06,0,0,0,0,0Zm.65,1.32a.07.07,0,0,0-.06,0s0,0,0,.05.08.12.13.13l.17-.13-.19-.09ZM62.79,17l.06,0,0,0h0ZM63,14.06a.51.51,0,0,0-.13.13l0,0s0,0,0,0l.14-.11,0-.05A.17.17,0,0,1,63,14.06Zm.39,2.55.11-.14-.31-.08-.22.16.38.07Zm-.25-3.88.05,0,0,0Zm.07-2.39,0-.05,0,.1Zm.11,7.47-.15.18.25.2.07-.16v0Zm0-2.16s-.05,0,0,.06.05,0,.1.06a.33.33,0,0,0,0-.1Zm0-2.32v.05h0Zm.39-2h.07l0-.06ZM64,9.69l-.16.14.2.08a.07.07,0,0,0,.06,0s0,0,0,0ZM63.82,12v.06h.11s0,0,0-.06Zm.1,6.55h.35l-.34-.11v.06A.18.18,0,0,0,63.92,18.57Zm.28-2c.08-.13.15-.24.21-.32L64.05,16c-.06.25-.09.38-.09.41A1.86,1.86,0,0,0,64.2,16.57ZM64,10.48v-.11l-.06,0ZM64.76,20l.65.38.09-.18a3.87,3.87,0,0,0-.56-.65,2.61,2.61,0,0,0-.64,0l.42.37Zm-.4-1.42a1.28,1.28,0,0,0,.18.22l.08-.1A1.32,1.32,0,0,1,64.36,18.59Zm.28,1.56,0,0,0-.13S64.69,20.09,64.64,20.15Zm.06,2h.13a.41.41,0,0,1,0-.12.37.37,0,0,0,0-.12.51.51,0,0,1,0,.11Zm.2-11.67a2,2,0,0,0-.11.22l.19.11.08-.21Zm.18,11.71.34.25.06-.55a3.76,3.76,0,0,0-.63-.44c0,.18,0,.33,0,.43a3.08,3.08,0,0,0,.22.26ZM74.51,9.41l-9,2.69c-.37.11-.57.21-.62.3a1.71,1.71,0,0,0,.12.7c1.63,5.49,2.52,8.5,2.69,9a1,1,0,0,0,.3.54.77.77,0,0,0,.64,0c2.88-.89,6-1.8,9.18-2.74a.73.73,0,0,0,.5-.33.86.86,0,0,0,0-.59c-.12-.35-.58-1.88-1.39-4.59L75.54,10a1.56,1.56,0,0,0-.31-.69A1.42,1.42,0,0,0,74.51,9.41ZM65,21.36q.14-.36.21-.63L65,20.6a4.66,4.66,0,0,0-.16.59.7.7,0,0,0,0,.2l.12,0Zm0,2.71,0,.05,0,0a.08.08,0,0,0,0,0,0,0,0,0,0,0,0l0,0Zm.14,1,0,0s0,0,0-.06H65l0,0,0,0Zm.08-1.76,0,0h0Zm.06,0,.24.24s0,0,0,0Zm.1.73,0-.07-.05.08a.09.09,0,0,0,.06,0v0l0,0Zm.3,1.43-.23.22.06,0,0,0Zm.29-1.76c0,.08.09-.09.41-.52a.76.76,0,0,0,.16-.65l-.53.27-.5,0,.36.95Zm-.34-2.45h0a0,0,0,0,0,0,0v0s0,0,0,0h0Zm0-3.8,0,0h0Zm0,8v-.06Zm.52.49a0,0,0,0,0-.05,0c-.07,0-.11,0-.1,0a9.76,9.76,0,0,0-.16,1s0,0,.06.1L66,27c.07-.51.1-.77.1-.77Zm-.2-1.11s.08.09.32.4L66.3,25C66.24,24.66,66.11,24.63,65.92,24.86ZM66,8.11v0H66v0Zm.43.71a.73.73,0,0,0,0,.22l.18.06a1.64,1.64,0,0,0,0-.18A.6.6,0,0,0,66.42,8.82Zm0,15.59h.07s0,0,0-.06h-.06Zm.06-2s0,0,0,.06v.06a.37.37,0,0,0,0-.09Zm.28,4.22a1.94,1.94,0,0,0,.16-.26l-.25.15,0,.17C66.7,26.62,66.75,26.6,66.75,26.59Zm0-5.44-.08,0,0,0Zm.08,2.38h0a0,0,0,0,0,0,0c0-.06,0-.08,0,0h0Zm.07,1.62,0,0v0Zm.39,1.74,0,0a.05.05,0,0,1,0,0l0,0h0l0,0Zm.06-2.28s0,.06.08.1.09.05.1,0,.12-.07.28-.22l-.33-.21Zm.29-1-.14-.08a.71.71,0,0,0-.06.14l.11,0,0,0,0,0A0,0,0,0,1,67.62,23.57ZM67.52,10l.24.26.13,0a2.25,2.25,0,0,0-.06-.51l-.23-.2C67.55,9.8,67.52,10,67.52,10Zm.18,15.83h0Zm.37-.34a.43.43,0,0,0,.11-.16l-.2-.09q0,.2,0,.21a.09.09,0,0,0,.06,0S68.07,25.5,68.07,25.49Zm0-.63.08-.14-.14,0,0,.1v0Zm0,1.3a.43.43,0,0,1,0-.05l-.07.05h.06Zm.59-1.67a2.45,2.45,0,0,1-.16.24l-.14.21.3.08a4.37,4.37,0,0,0,.45-.4l-.2-.05A1.48,1.48,0,0,1,68.68,24.49Zm2.63-.12c.32-.29.31-.53,0-.71a5.46,5.46,0,0,1-.7.65,1.27,1.27,0,0,0-.81.34c-.07.06-.17.17-.31.32a3.73,3.73,0,0,1-.3.29s-.15.32-.4.92l.77-.37a.43.43,0,0,1,.2,0,.61.61,0,0,0,.19,0,.35.35,0,0,0,.23-.27s0-.23-.07-.58l.5.13.8,0c0-.07,0-.18,0-.34S71.31,24.44,71.31,24.37Zm-2.38-.72,0,0a.38.38,0,0,1-.11.08l0,.05ZM69,10.2l0,0,0-.06Zm.76-1.53-.5-.22.25.43c0,.1.07.14,0,.13l.37.25.16-.46,0,0,0,0Zm-.33-1,0,0,0,0Zm.17,16.5v.05l.06,0ZM70,6.81l0,0,0,0Zm.21,16.53.08.1.09-.09s0,0-.07-.1l-.09.07Zm.21.55-.11-.06s-.06,0,0,0,0,0,.06.09Zm.32-15.47h-.06a1.56,1.56,0,0,1,.1.24.37.37,0,0,0,0-.13A.37.37,0,0,0,70.78,8.42Zm0,.28h0l0,.05Zm.41,14a.23.23,0,0,1,0,.1l.05.05s0,0,0-.05l0,0-.06,0Zm.13.94,0,0h0Zm0,.69s0,0,0,0h0v0Zm.1-16.41-.1.17a1.05,1.05,0,0,0,.23.07A.61.61,0,0,0,71.64,8Zm.16,17.39a0,0,0,0,0,0,0v0h0v0h0Zm.26-15.93s0,0,0-.06l-.08.07.07,0Zm.6,15.37c.27-.21.4-.36.41-.44s-.14-.23-.41-.48l-.37.43s-.1.21-.25.57l.6-.09Zm-.18-2-.11-.06-.07.1a.4.4,0,0,0,.12.07Zm.18,1a.66.66,0,0,0,.59-.69s0-.05-.07-.08-.07,0-.09,0A.63.63,0,0,0,72.45,23.81Zm.11,1.26.06-.05c-.06-.09-.12-.16-.15-.22s0,.08,0,.13A1.21,1.21,0,0,1,72.56,25.07Zm0-17.64,0,0v0Zm.1,1.29,0,0s0,0,0,.05h.07l0-.1h-.06Zm.28-1-.07.07,0,0L73,7.79ZM73,22.33h0v0Zm.57-14.27a.13.13,0,0,1,0-.06l0,0-.06,0Zm.12,16.11c.2-.35.33-.57.39-.65l.37-.39-.58.28A3,3,0,0,0,73.71,24.17Zm.07-17.66,0,.06.11,0,0-.05-.06,0Zm.4,18.13c0-.09,0-.15,0-.19a3,3,0,0,0-.38.1Zm.47-.44c.08-.11.11-.15.1-.12L74.6,24l0,0s0,0,0,0v0Zm.16.49,0,0s0,0,0,0l-.09-.08,0,0Zm0-17.31-.11.12.1.08c.06,0,.08-.08.08-.09S74.91,7.45,74.85,7.38Zm0,1.37h0l0,0Zm.32,14s0-.09-.15-.23l-.14.14c0,.15,0,.23,0,.25l.09.05H75l.12-.11A.82.82,0,0,0,75.13,22.77Zm0,.72,0,0,0,0v.08ZM75.16,6.3l0,0v0Zm.56,16.81a2.22,2.22,0,0,0,0-.41c0-.1-.11-.14-.2-.11a.2.2,0,0,0-.16.2Zm.12-14.6-.09,0,.08.1A.83.83,0,0,0,75.84,8.51ZM76.56,22l-.78.11a1.73,1.73,0,0,1,.07.19Zm-.39,1.42a.67.67,0,0,0,.06-.17l-.14,0,0,.16S76.1,23.36,76.17,23.39Zm.09-14.5a.59.59,0,0,0-.13.14l.19,0,.19-.16ZM76.2,7.13c0,.17,0,.26,0,.28l.19.06a1.39,1.39,0,0,0,0-.26Zm.26,17,0,0h0Zm.6-14.72-.39,0s0,.05-.08.1a1.05,1.05,0,0,1-.08.13l.24.05Zm-.14,11.94-.18,0c0,.07,0,.18-.07.31s0,.25,0,.31Zm0-14.49,0,0,.1.06v0l0,0-.07,0ZM77,23.66v-.08h0v0Zm.44-.48.48-.45-.39.05-.38.27ZM77.48,8l-.12,0,0,0,0,0Zm-.09-.56,0,.16h.14a1.42,1.42,0,0,0,.14-.2H77.4Zm.06,6.45-.07.09h.07l0,0s0,0,0,0Zm.18-7.81h0v0Zm0,0c0-.05,0,0,0,.21l.09,0A1.42,1.42,0,0,1,77.64,6.11ZM77.85,21l0,0h0s0,0,0,.08ZM78,13.57l.26-.31-.3-.08s-.09.13-.19.3ZM78.18,22,78,21.8c-.08.23-.13.36-.13.38l.21.13.15-.26ZM78.1,8.38l-.13,0a1.3,1.3,0,0,0-.13.13l.19.08.11-.27Zm-.26,15.25.2.07-.17-.13,0,0h0Zm0-14.54c.07.07.1.09.09.09l0-.08-.06,0Zm.35,1.57-.15.17.2.07s0-.05.11-.16l-.15-.08Zm0-.45,0-.05-.07.1,0,.05A.47.47,0,0,1,78.2,10.21Zm.06,11a.29.29,0,0,0-.1.06l0,.06.07.06.08-.1Zm0-5.53.09,0c.05,0,.08,0,.09.05a.56.56,0,0,0-.1-.18Zm.08-3.45,0,.06.23.1a.35.35,0,0,0-.11-.07ZM78.43,8l0,0s0,0,0,0L78.65,8l-.09-.14-.12.11A0,0,0,0,1,78.43,8Zm.07,14.3a.15.15,0,0,0,.09.08.13.13,0,0,0,.12,0l.18-.25L78.62,22A.21.21,0,0,0,78.5,22.25Zm.44-6.43-.4-.05.36.18A.5.5,0,0,1,78.94,15.82Zm-.25,7.69.06-.11-.11,0,0,.12,0,0ZM78.63,8.92h.05l0,0Zm.08,3.55-.08,0s0,0,.05.05l0,0Zm.07,7.64v.05s0,0,.08.08a.46.46,0,0,1,.05-.1l-.09,0Zm0-5.44,0-.05h-.05Zm0,4.83,0,0,0,0ZM79,16.73q.45,0,.51-.09c0-.07,0-.25-.2-.54Zm.46,5.81L79,23l.43-.07a1.29,1.29,0,0,1,0-.2A.65.65,0,0,1,79.43,22.54Zm-.35-4.42,0,0,0,0,0,0Zm.07-7.76s0,0,0,.06l.09.05a.33.33,0,0,0,0-.1ZM79.28,15a2.83,2.83,0,0,0-.13.48,1.4,1.4,0,0,0,.22.26,1.46,1.46,0,0,0,.14-.38A1.88,1.88,0,0,0,79.28,15Zm-.1-3.21v0Zm.13,9.46-.11-.05c0,.06,0,.1,0,.12h.06Zm-.09-7.07,0,.05,0,0Zm.27-1.42a1.56,1.56,0,0,0-.12-.33l-.13,0c0,.13,0,.2,0,.21h0Zm-.21,3.33v0l0,.05Zm.14-4.74h-.08l0,.05Zm.26,7.7-.16.23-.17.22.27,0,.23,0a.28.28,0,0,0-.07-.11.67.67,0,0,0-.06-.12A2.23,2.23,0,0,1,79.68,19.06Zm-.2-5.69v0l0,0ZM79.67,19c0-.21-.08-.36-.1-.43h-.14a3.27,3.27,0,0,1,.21.4h0Zm-.11,4.31.16-.13L79.45,23C79.48,23.05,79.51,23.17,79.56,23.33Zm.28-1,.21-.17-.32,0a3.11,3.11,0,0,0-.27.33A2.46,2.46,0,0,0,79.84,22.37Zm-.19-4.28s0,.05-.07.09.16.07.15.07,0-.12,0-.12Zm.07,3.47-.06.05-.06.05.1.08s0,0,.08-.07l0-.07Zm-.09-.67s0,0,0,0l0,0S79.62,20.88,79.63,20.89Zm.06-.51h-.06l0,.05Zm.06-6.4a2.7,2.7,0,0,0,.21-.33l-.12.13a.7.7,0,0,0-.13.15Zm.11,1.9.07-.08s0,0-.09-.1-.07.09-.06.1A.45.45,0,0,1,79.86,15.88Zm0-.94h-.07l0,.06Zm.19-1.4a1.86,1.86,0,0,0,.14-.21h-.13A1.94,1.94,0,0,0,80.05,13.54Zm.22,5,.28-.12-.25-.2-.21.14ZM80.12,17l.09.06a.46.46,0,0,1,.05-.1l-.11,0a0,0,0,0,0,0,0A0,0,0,0,0,80.12,17Zm.23-2.25-.14-.11-.06.11.08.08h0Zm-.19.41,0,.05,0-.05Zm.1-1-.05,0,0,.05.06,0Zm.27,6.33.56,0a6,6,0,0,0-.31-.77,2.23,2.23,0,0,0-.55-.14c.06.32.09.49.1.5A3.54,3.54,0,0,0,80.53,20.48ZM80.59,16l0,.22.48.37.11-.17-.13-.1Zm0,6.2c0-.07,0-.1,0-.09H80.6l0,.06Zm.5-.16.26-.21a5.17,5.17,0,0,0-.54-.16l-.11.14.32.21Zm-.23-7.35,0-.07-.08-.1-.06.1A.41.41,0,0,0,80.91,14.66Zm0,.72-.06,0h0s0,0,0,0h0l0,0h0s0,0,0,0h0l0-.05Zm0,3.84h0Zm.21.29-.06.16.17.13.11-.14h0Zm.26,1a.49.49,0,0,1,0-.12l-.14.05-.14,0h.15Zm-.09-1.43a2.26,2.26,0,0,0,.47.22,1.22,1.22,0,0,0,.16-.18l-.43-.21-.33-.07A1.48,1.48,0,0,0,81.36,19.1ZM82,21.63a1,1,0,0,0,0-.2s0-.1-.12-.27a2.74,2.74,0,0,1-.08.28A.83.83,0,0,0,82,21.63Zm.08-2a.62.62,0,0,0-.17-.11,1,1,0,0,0-.07.18,1.07,1.07,0,0,0,.17.15C82,19.67,82,19.59,82,19.59Zm-.14.8.21.16a2.45,2.45,0,0,0,.28-.2l-.14-.11h0ZM82,21.61v0Zm.72-.38s0,0,0-.08l.05-.09-.41-.29-.12.22.21.14Z"/><path class="cls-1" d="M107.68,19.26a1.37,1.37,0,0,1,0,.75q-.09.12-.69.18l-3,.3a1.29,1.29,0,0,1-.69,0,1.45,1.45,0,0,1-.17-.69q-.12-1.15-.3-2.94c-.16-1.69-.26-2.67-.29-3a1.81,1.81,0,0,0-.23-.93c-.09-.08-.4-.1-.92,0l-9.11.91a1.36,1.36,0,0,0-.73.19,1.59,1.59,0,0,0,0,.77c.07.7.17,1.71.29,3s.24,2.38.3,3a1.46,1.46,0,0,1,0,.76,1.43,1.43,0,0,1-.75.19l-1.42.14-1.42.15a1.45,1.45,0,0,1-.74,0c-.08-.06-.15-.29-.19-.69l-.94-9.46c-.49-4.79-.8-7.72-.9-8.8a1.81,1.81,0,0,1,0-.92c.07-.1.36-.17.87-.22l4.54-.46L105,.09c.39,0,.62,0,.69,0s.13.28.17.66c.18,1.73.4,3.94.66,6.61q.59,5.78.67,6.59C107.15,14.14,107.34,15.9,107.68,19.26Zm-20.4-11h0Zm.15-.71.06.12.12-.09-.09-.11-.09.07Zm.1-.74,0,.06h.06l0-.05,0,0Zm.19-1.31c0,.17,0,.23,0,.17a2.15,2.15,0,0,1,.37,0Zm0,4.49a.18.18,0,0,1,0-.08h-.06A.19.19,0,0,1,87.76,10Zm.14-5.69,0,0,0,0,0,0S87.89,4.34,87.9,4.32Zm.72,2-.05,0-.15.14L87.93,7l.22.13c.11-.16.25-.39.42-.7V6.31Zm-.28,6.09a2.79,2.79,0,0,0-.13-.34l-.2.4a1.43,1.43,0,0,0,.19.26A2.36,2.36,0,0,0,88.34,12.42Zm-.19-9.15L88,3.34c0,.05.09.08.09.07h0s0,0,0,0ZM88.07,5h0V5l.06,0V5Zm0,3.18h.2s-.06,0-.18-.08A.14.14,0,0,0,88.11,8.14Zm.22,2.48,0,0v0Zm1-3a2,2,0,0,0-.84,0c-.1,0-.16.23-.18.58.48-.13.75-.2.8-.23A1.11,1.11,0,0,0,89.35,7.6Zm-.63.94-.29-.11-.1.16.23.14A2.15,2.15,0,0,0,88.72,8.54Zm-.3,6.88v0l0,0,0,.06.05,0Zm.17-10.26a.43.43,0,0,0-.12.1l.12,0,.11-.08-.1-.07Zm.59.42a1.31,1.31,0,0,0-.39.06s-.07,0-.15.12h.19l.38-.07ZM88.76,19.8h0a.39.39,0,0,1,0,.13.5.5,0,0,1,0,.14c0-.14,0-.23,0-.28ZM89.31,13l-.36.14-.22.09a3.43,3.43,0,0,0,.39.14q.51,0,.21-.36ZM88.87,3l-.11,0,0,.11.1-.08,0,0V3Zm0,12-.06.36a.51.51,0,0,0,.29.15s0,0,.09-.06.06-.06,0-.06a.25.25,0,0,0,0-.06Zm0-1h0Zm.72-1.89c.39-.16.51-.39.35-.69l-.65.16a.35.35,0,0,0,0-.29c-.06-.06-.14,0-.25.05s-.12.25-.11.54a1.64,1.64,0,0,1,.38.1l.34.14,0,0ZM89.72,20a.56.56,0,0,0,.09-.14l.11-.14-.28-.05-.06.2-.79.28.28.27ZM89,14.66l-.11.05.09.08s0,0,0,0Zm0,2.64.1-.09-.1-.06s0,0,0,.05A.65.65,0,0,0,89,17.3Zm1.24-1.41a3.22,3.22,0,0,1-.46-.15,3.19,3.19,0,0,1-.33-.29,4.92,4.92,0,0,0-.46.62.35.35,0,0,0,0,.32c.09.08.21.06.37-.05s.15-.06.19,0,.18.24.25.2a1,1,0,0,0,.18-.27A2.25,2.25,0,0,0,90.26,15.89Zm-.83-6a1.08,1.08,0,0,0-.22-.24l-.09.11-.06.08a2.27,2.27,0,0,0,.28.19L89.4,10l0-.07Zm-.24,8.9-.12,0,.15.26s0-.08,0-.14S89.19,18.81,89.19,18.77Zm0-9.89.4-.17-.22-.12a.61.61,0,0,0-.25.15l0,.07A.28.28,0,0,1,89.17,8.88Zm0-5.21a0,0,0,0,0,0,0v0Zm1.18,14.87a.63.63,0,0,1,0-.26A1.65,1.65,0,0,1,90.4,18c0-.2-.13-.3-.43-.3h0l-.4.14-.35.33s0,.11.08.29a.46.46,0,0,1,.52,0l.38.16Zm-.82-.7-.24-.16a.4.4,0,0,1-.06.11l.15,0Zm.12-12L89.39,6l-.16.26.34,0S89.6,6,89.63,5.8Zm-.39,7,.05.1,0,0ZM89.44,3c-.1.14-.15.21-.14.22l.25.19.22-.19A3.81,3.81,0,0,0,89.44,3Zm0,4.61.33,0a1.05,1.05,0,0,0,0-.13A2.28,2.28,0,0,0,89.4,7.6Zm0,12h.1a.16.16,0,0,1,.1,0h-.2ZM90,17.7c0-.09-.06-.15-.07-.16l-.22-.28-.07.07a1.36,1.36,0,0,0,.21.29,0,0,0,0,1,0,0Zm0-13.64,0,0V4l-.15,0-.14.06.15,0Zm-.26,16.87.06,0,0-.06H89.6l0,.07Zm0-15.14.25.12.31.06-.15-.3H90Zm.19,5.62.09-.19s0-.16-.07-.39l-.19.05a1.41,1.41,0,0,0,0,.39S89.77,11.34,89.85,11.41Zm.45,1.33.19-.14-.68-.17-.12.15.51.14Zm-.25-7.91A.68.68,0,0,0,90,4.66l-.18.13.17.12.06,0S90.05,4.84,90.05,4.83Zm-.22,8.43.08.08.07-.1-.11-.05s0,0,0,0A0,0,0,0,0,89.83,13.26ZM90,8.5a.46.46,0,0,0,.16-.1.46.46,0,0,1-.07-.07s0-.05,0-.05a.79.79,0,0,0-.12.14l0,0Zm.2,6.51s0,0,.07.1l.08-.09L90.21,15l0,0h0Zm.15-3.16s0,0-.06.06a.22.22,0,0,1-.07.07l0,0ZM90.2,3l0,0V2.94Zm0,12.9,0,0s0,0,0,0Zm.6-5.24.16,0-.32,0-.43,0,0-.08,0,.06a2.51,2.51,0,0,0,.16.4l.27.21a1.15,1.15,0,0,0,.09-.36,2.67,2.67,0,0,0-.09-.26Zm-.36,1.05-.16.18.26.05A2.25,2.25,0,0,0,90.48,11.67Zm.19-6.95a1.73,1.73,0,0,1-.17.21,1.07,1.07,0,0,1-.17.21l.32.06c.16,0,.22-.12.18-.22l-.08-.13Zm-.29,13.87s0,0,.05,0l-.07-.07S90.37,18.59,90.38,18.59Zm.2-1.2,0-.05s0-.05,0-.06l-.15-.09-.08.13.16.07Zm.06-13,0,0,0,0a.64.64,0,0,1,.06.1l.07.11C90.66,4.62,90.65,4.54,90.64,4.43Zm0,11.62a.37.37,0,0,1,0-.1l0,0h0s0,0-.08.07l0,0Zm0-4.1s0,0,0,0a.19.19,0,0,0-.08,0ZM93.31,9.1q6.84-.69,7.91-.78a.9.9,0,0,0,.57-.21.62.62,0,0,0,.09-.57q-.12-.8-.18-1.8c0-.5-.28-.72-.79-.65l-4.78.49-4.84.48c-.45,0-.66.27-.6.7s.12,1.06.22,2.09a.42.42,0,0,0,.54.43ZM90.75,3.46l0,.32a.85.85,0,0,0,.22.15L91,3.7h0Zm0,16.72s0,0,0-.07l-.07,0s0,0,0,.06Zm.56-15.91s0,0-.08.1a.5.5,0,0,0,.16.07l.09-.11Zm.15.7,0-.06-.11,0,0,.06Zm.21-2.11L91.5,3l.27.4L92,3.28Zm-.14,10h0Zm.89-8.76-.64-.38L91.6,4l.61.39Zm-.65,8.19.07-.1-.09-.08c-.06,0-.08,0-.07.1ZM91.94,11l.2-.2a1,1,0,0,1,.23-.21l-.19-.1a4,4,0,0,0-.37.36Zm-.06.4v0l0,0Zm.87-8.92-.25.27L92.25,3l.69.6.12,0C92.92,3.16,92.82,2.76,92.75,2.49Zm-.27,9-.11-.08-.12.16.14.08Zm0,1.33a1.47,1.47,0,0,1,.14-.21l-.21-.16a.9.9,0,0,0-.1.18Zm1-8.24-.21-.12a1.71,1.71,0,0,1-.23.15l.17.14h0Zm.76-1-.4-.57a.94.94,0,0,1-.18.11l-.2.09a.33.33,0,0,0-.12.4H93.1a1.52,1.52,0,0,0,.4.31,3.69,3.69,0,0,0,.72-.16s0,0,0-.09A.25.25,0,0,0,94.23,3.66Zm-.73,8.5.2-.08-.16-.14-.17.06.12.15Zm0-9.77s0-.08,0-.21a.89.89,0,0,0-.11.19v.19a1.59,1.59,0,0,0,.13-.16Zm-.09,8.25.66-.08-.34,0-.35,0Zm.07-8.47s0,0,0,0h0S93.49,2.18,93.49,2.17Zm.68,9.69.23-.18-.34-.24-.08.25A.22.22,0,0,0,94.17,11.86Zm0-1.28a1,1,0,0,0,0,.46c0,.11.19.1.46,0Zm.16-5.93c0-.06-.06-.09-.07-.09l-.11.05.05.06,0,.07.06,0Zm.2,8.11V12.7l0,0Zm.4-9.51-.42.24.72.28a1.52,1.52,0,0,0,.19-.26A4.5,4.5,0,0,1,94.91,3.25Zm-.26,8h.07L94.61,11C94.63,11.12,94.64,11.19,94.65,11.25Zm.11-7.32-.05,0a.07.07,0,0,1,0,.06l.06,0A.28.28,0,0,0,94.76,3.93Zm0-1.28s0,0,0,0h.15l-.09,0Zm.4,9.11s.12-.12.28-.29l-.29-.11a1.8,1.8,0,0,0-.15.31l.08.06.07,0ZM96,4.43a.78.78,0,0,0-.26,0,1.3,1.3,0,0,0,.18.28l.34,0L96,4.42Zm-.13,7.51s.11,0,.27-.1a.86.86,0,0,0-.18-.17l-.21.13Zm.28-9.46a.64.64,0,0,0-.32.84s.09.14.25.39a1.78,1.78,0,0,1,0-.22,1.09,1.09,0,0,1,0-.25c.27-.15.37-.45.28-.88l-.17-.15a1.73,1.73,0,0,0-.12.25S96.14,2.48,96.15,2.48Zm0,8.58.21-.15s-.09-.17-.22-.41a2.94,2.94,0,0,0-.1.32h0Zm0-7.83h0s0,0,0,0Zm.44,8.15.05-.05a.29.29,0,0,1-.08-.08l0,.05,0,0Zm.28-7.07-.06.05,0,0c.06.07.11.11.14.11a.65.65,0,0,0,.16-.16Zm.52-2.12-.24.48,0,.06.06,0,.48-.19c0-.06-.13-.13-.23-.23l-.06-.07,0,0S97.42,2.21,97.4,2.19Zm0,1.39-.14.21a1.2,1.2,0,0,0,.15.2c.09-.09.14-.14.13-.15h0Zm-.14,6.54.1-.07.09-.07-.07,0-.08-.06A1.85,1.85,0,0,0,97.24,10.12Zm.51,1,.08-.08,0-.05-.08.08Zm.11-7.38a.09.09,0,0,1,0,0l0,0,0,.05h0ZM98,11.43a.31.31,0,0,0,.05-.09l-.06,0,0,0a.08.08,0,0,1,0,.05Zm0-7.35a1.55,1.55,0,0,0,0,.23l.12,0c0-.19.08-.29.09-.31l-.06-.23A2.53,2.53,0,0,0,98,4.08Zm.09-1-.06,0a.17.17,0,0,0,0,.05q.06.13.12.12l.19-.16ZM98.35,2l-.29.14.3.05Zm0,7.45.05,0,0,0,0-.05,0,0Zm.37,2.54h0v0Zm.09-9.42,0,.28c.13.07.51.27,1.14.58l.38-.28a2.81,2.81,0,0,0-.46-.42,4.32,4.32,0,0,0-.84-.17Zm0,.9,0,0,0,0Zm.61-1.6a1.14,1.14,0,0,0-.1.19.74.74,0,0,0,.12.13c.08-.08.12-.13.11-.14A.91.91,0,0,0,99.45,1.82Zm.09,9.89c0-.07.06-.19.1-.34l-.11,0c0,.05-.07.15-.13.31ZM99.79,10a.17.17,0,0,0,0,.05.06.06,0,0,0,0,0s.06,0,.05,0l0-.06h-.06Zm.19,2.2.12,0a.2.2,0,0,0,0-.07V12l-.18,0,.06.1Zm.42-1.25a7.76,7.76,0,0,0,.6-.55,3.15,3.15,0,0,0-.39-.06l-.46.57Zm-.07-9.18v0l0,0Zm.17,10.18.09,0-.11,0Zm.29-10a1.93,1.93,0,0,0-.22.34,4.54,4.54,0,0,0,.24.43c0-.22.07-.36.07-.41S100.85,2.14,100.79,1.92Zm-.2,7.58,0,0s0,0,.06,0l.08-.16-.14-.06,0,.15Zm.18-6.13c0,.15-.06.27-.07.35l0,0,0-.07.23-.21-.08-.07Zm.18-.59-.12,0s0,0,0,0h0s0,0,0,0h0l0,0h0s0,0,0,0h0v0h0l.11-.1Zm.12,9.45a2.05,2.05,0,0,1,.08-.2c-.14-.12-.19-.17-.16-.13l-.1.16,0,0Zm.25-.73,0,0v0s0,0,0,0ZM101.44,3l-.09.07.1,0,0-.05Zm.26-.32,0,.06.07,0,.11-.16-.14-.09ZM101.8,9l-.06.05.09.09,0,0s0,0,0-.05Zm.06.8.18.27a3.79,3.79,0,0,0,.09-.4L102,9.35C101.89,9.65,101.86,9.82,101.86,9.83Zm.29-6.51q0,.27-.06.42l.13,0C102.2,3.63,102.18,3.5,102.15,3.32Zm.3-1a3.47,3.47,0,0,1-.06.43l-.23.53.27,0,.27,0h0a2,2,0,0,1,.15.32A1.45,1.45,0,0,0,103,4c.14.25.38.31.71.2l.07,0,0,0h0a6.09,6.09,0,0,0-.45-.44.46.46,0,0,1,0-.62l-.44-.47,0,0Zm-.13,9.6.07,0-.09,0a0,0,0,0,0,0,0Zm.33-3.23c-.05.12-.07.2-.08.22s0,0,.05,0l.06,0c.06-.05.1-.09.1-.14S102.75,8.78,102.65,8.69Zm.58,2.59a2.26,2.26,0,0,0,0-.35l-.5.13-.14.06h0Zm-.47.44,0-.05,0,0,0,.06Zm0-8.4v0h0Zm0,1.78,0-.07Zm.34,4.41s.12-.14.3-.38l-.35,0-.22.22Zm.05-2.73h0Zm.1-.32h-.13c0,.14,0,.25,0,.33A2.57,2.57,0,0,0,103.22,6.46Zm0-4.36a1.8,1.8,0,0,0-.09.27c0,.08,0,.11.07.1l.17-.08Zm0,10.63,0,0v.06Zm.35-8.1-.12,0,0,.11s0,0,.06,0A.58.58,0,0,1,103.51,4.63Zm.34,4a1.35,1.35,0,0,0-.16-.28c-.09.21-.13.32-.13.32a.86.86,0,0,0,.17.18Zm0,3.67.13-.19-.24-.17-.11.23,0,.07Zm0,1.33s0-.14,0-.26l-.06,0h-.06a1,1,0,0,0-.06.26,1.29,1.29,0,0,0,0,.19l.1-.13Zm-.08.16h0Zm0-5.69h0Zm.08,8.47,0-.05s-.06,0-.06,0v.05Zm0-9.28,0,0h-.06Zm.26-4.07c.09-.13.3-.42.6-.87l-.5,0a4.26,4.26,0,0,0-.26.84l.08,0,.06,0Zm0,2h0l0,0Zm.12,5h0v0Zm.27-3.85a1.21,1.21,0,0,0,0-.2.8.8,0,0,0,0-.22h0a.9.9,0,0,0,0,.22v0Zm0,5.12.14.06-.05-.14Zm.06-5.13,0,0h0Zm.07-3.21,0,.07a.07.07,0,0,1,0-.05.08.08,0,0,0,0,0l0,0Zm.24,9.9c0-.26,0-.42,0-.48l-.11-.08c-.07.18-.13.31-.16.4h0l.11.08.07.05Zm.2-3.39-.38-.17a2.37,2.37,0,0,0,.18.37H105A.5.5,0,0,0,105,9.64Zm-.36,1.93s0,0,.14.11,0,0,0-.06l-.09,0Zm.54-4.18c-.11-.16-.23-.38-.38-.64-.09.33-.14.52-.14.55l.25.37.12-.13C105.05,7.48,105.1,7.44,105.15,7.39Zm-.25,6.55s0,0,0-.08l-.23.09Zm-.12,1.52,0,0h0Zm0,3.25,0,0,0-.05Zm.21-3.65s0,0,.09,0l0-.06a1.93,1.93,0,0,0-.19-.26,1.37,1.37,0,0,0-.1.23A.2.2,0,0,0,105,15.06Zm.13-4.44a.93.93,0,0,0-.09-.17l-.11.11.11.15Zm.09-1.8.1-.05-.07-.1-.12.06.07.09Zm-.08,4.65.37-.13-.13-.13-.15-.12Zm.11,2.32-.1.19.13.13a1.52,1.52,0,0,0,.11-.16Zm.25,1.6s.08,0,.21-.11l-.26-.14a.61.61,0,0,0-.14.12ZM106,8.18a0,0,0,0,1,0,0s0,0,0,0h-.06v.05Z"/><path class="cls-1" d="M132.48,10.23c0,.28-.17,1.74-.4,4.41-.3,3.43-.49,5.58-.57,6.43,0,.38-.08.6-.16.66a1.29,1.29,0,0,1-.71,0q-16.2-1.43-18.59-1.61a.89.89,0,0,1-.6-.23.86.86,0,0,1-.08-.62c0-.38.09-.86.14-1.46.07-.79.11-1.27.13-1.45,0-.41.11-.65.21-.73a1.22,1.22,0,0,1,.78-.08l13.74,1.2c.45,0,.72,0,.8,0s.15-.32.19-.75c.11-1.08.16-1.6.15-1.57a.81.81,0,0,0-.08-.61.88.88,0,0,0-.6-.23l-13.67-1.18-.53-.05c-.43,0-.63-.23-.59-.72q.61-6.73,1-11a.77.77,0,0,1,.21-.56.75.75,0,0,1,.58-.1l9.41.83,9.18.8c.41,0,.65.09.71.17a1.54,1.54,0,0,1,0,.74c-.14,1.57-.23,2.54-.26,2.91s-.09.65-.17.72-.31.08-.72,0L118.39,5a4.36,4.36,0,0,0-1,0c-.11.07-.18.41-.24,1,0,0,0,.41-.11,1.27a1.37,1.37,0,0,0,0,.73q.09.12.72.18L130.42,9.3l1.35.12C132.3,9.42,132.54,9.69,132.48,10.23Zm-19.18,0s0,0,0,0Zm.1-1.6.25-.14-.18-.2-.16.17Zm.13-3.34c0,.05,0,.08,0,.09s.05,0,.06-.05l0,0Zm.3,4.79.31-.09a1,1,0,0,0-.18-.16s-.08,0-.22.08l0,.08A.21.21,0,0,1,113.83,10.06Zm.08,1.6,0,0v0ZM114,4.94s0,0,0-.05l-.12,0,0,.06H114A.1.1,0,0,0,114,4.94Zm-.09-2.69c.09.26.23.38.39.37a.87.87,0,0,0,.49-.22.38.38,0,0,0-.4-.24Q113.82,2.24,113.93,2.25Zm.17,6.8a.73.73,0,0,0,.17-.13q-.18-.13-.18-.12l-.17.1Zm.15-7.64h0Zm.12,9.73h0Zm.6-6.69-.17-.16-.17-.16-.1.14c.06.41.23.61.51.59.13,0,.25-.14.36-.38a2,2,0,0,0-.18-.33Zm-.33,3.15a3.43,3.43,0,0,0-.08.62s.25.29.66.71l.2-.25c0-.08-.12-.4-.29-.95l-.36-.09Zm.7-2.27c-.7.19-.91.49-.65.9a1.63,1.63,0,0,1,.27.11C115.12,5.89,115.25,5.55,115.34,5.33Zm-.63,11.86h.21l0-.12a.85.85,0,0,0-.21,0Zm.12-14.79c-.13.31,0,.43.23.36C115,2.61,114.88,2.49,114.83,2.4Zm0,4.74v0l0,0ZM115.06,18l.1-.13H115s0,0-.08.09L115,18ZM115,4.45a0,0,0,0,1,0,0h0Zm.14-1.67c0,.18,0,.3,0,.35s0,.16,0,.42l.17-.1a.85.85,0,0,0,0-.47S115.26,2.88,115.11,2.78Zm.12,7.11a.88.88,0,0,1,.14-.15l.16-.18-.22-.36-.16.3S115.18,9.65,115.23,9.89Zm.67-2a1.87,1.87,0,0,0,.19-.28,1.76,1.76,0,0,0-.29-.09l-.64.23Zm-.62-5.94a1,1,0,0,0,0,.26,1.47,1.47,0,0,0,.24-.18,3.38,3.38,0,0,0,0-.5C115.37,1.78,115.28,1.92,115.28,1.93Zm.11,4.14a1.56,1.56,0,0,0,.06.18.71.71,0,0,0,.2-.12L115.57,6l-.17.1Zm.17-3.56a.1.1,0,0,0,0,.06l0,0s0,0,0-.06h0Zm.1,16.13s0,0,.07-.09l-.11-.06-.07.1Zm.41-7.38a2.76,2.76,0,0,0,.41-.1l-.11-.23-.2-.12a3.66,3.66,0,0,0-.37.28l.26.17Zm-.2,6.06h.06l0-.06h-.06ZM116,2.73l-.1.08.15.1.12-.1L116,2.73Zm.2,5.91-.17.08.1.2.15-.2,0,0S116.18,8.64,116.17,8.64Zm-.08-4,0-.06H116l0,.09s0,0,0,0Zm0-.67a.13.13,0,0,0,0-.06.18.18,0,0,1,0-.06l-.09,0Zm0,14,0,0v0Zm.05-8.81.24.36a2,2,0,0,0,.18-.24.4.4,0,0,0-.2-.22Zm.27,9.7.07-.13-.15-.06-.09.1.13.08Zm.38-15.62-.44-.14h0l.09.47.18-.18A1.11,1.11,0,0,1,116.8,3.27Zm-.32-.9-.12,0,.08.16.09-.08,0-.11Zm.64-.15c-.07,0-.12,0-.13.14s-.07.37-.15.9l.15.06.16.07v0a3.52,3.52,0,0,1,.17.34,2.17,2.17,0,0,0,.16.36l.28.13a.53.53,0,0,1-.06-.13l-.08-.14c.12-.41.17-.64.18-.69a.43.43,0,0,0,0-.25,8,8,0,0,0-.55-.65Q117.17,2.21,117.12,2.22Zm.14,15.43.18-.1-.16-.14a.6.6,0,0,0-.16.11l.12.13Zm-.1-14.28v0S117.17,3.37,117.16,3.37Zm.17,7,0,0,0,0Zm.23,7.56.06,0-.09,0Zm.31-15.58a.14.14,0,0,0-.11.14c0,.07,0,.11.14.13l.25-.07Zm.06,7.65a1.1,1.1,0,0,0,.17.17.72.72,0,0,0,.13-.21l-.2-.26A2.78,2.78,0,0,0,117.93,10Zm.15,1,.1-.05a.9.9,0,0,1,0-.12l-.13,0A.57.57,0,0,0,118.08,11Zm.79-8.58-.49.9.11.15.69-.65Zm-.08,15.77.16-.1a1.4,1.4,0,0,1-.12-.18l-.14.2,0,.05S118.78,18.16,118.79,18.15Zm.26-14.61.06,0,0-.06H119a.28.28,0,0,1,0,.06Zm.22,7.91a.2.2,0,0,0,.07-.1l-.11-.08c0,.07,0,.11-.06.11Zm.07-9.12h0v0Zm.12.73a0,0,0,0,0,0,0h0l0,0s0,0,0-.05Zm.62,15.88.23-.15a1.46,1.46,0,0,0-.16-.17l-.22.13A.86.86,0,0,0,120.08,18.94Zm0-8.22,0-.06-.05,0h0l0,0,0,0h0v0h0v0Zm.19-6.79c-.07-.05-.11-.08-.12-.07l-.09.08.11.07h0Zm-.16-1a.28.28,0,0,1,0,.1s0,.06.06,0l.09-.06A.2.2,0,0,0,120.16,3Zm.27,15.35,0-.14-.17-.06a.11.11,0,0,0,0,.05l0,.06,0,0Zm-.1-6.63h.12v-.08h-.13A.28.28,0,0,1,120.33,11.68Zm.29-8.07h0v0h0Zm.49-.73-.25.17.2.15.29-.09Zm.39,8.41-.11-.23-.17.08-.12,0,.18.27.1.05Zm0-6.77.05,0V4.42h-.08l0,0A.24.24,0,0,0,121.46,4.52Zm.19-2.46-.17.19a1.67,1.67,0,0,0,.1.24,1.47,1.47,0,0,1,.24-.18Zm.2,17.83,0,0v0Zm.2-17.41-.17.09a1.5,1.5,0,0,0,.1.15l.22-.08-.13-.16ZM121.94,4V4l0,.06Zm.49,7.09a1.1,1.1,0,0,0,.21-.18l0,0a.46.46,0,0,1-.07-.07l-.19.19ZM122.74,3a1.06,1.06,0,0,1-.17.1,1.41,1.41,0,0,0,.3.14l.21-.19-.31,0Zm-.07,15.12,0,0,0,0Zm.49,1.52.29-.12-.16-.15-.24.14a1.16,1.16,0,0,0,.11.14Zm.42-9.15.19-.13-.2-.11-.18.07.16.15Zm-.19-7.63s0,0,0,.09,0,.08,0,.08l.26-.07a1.75,1.75,0,0,0-.12-.23Zm.57-.9-.1.09.14.08a.54.54,0,0,1,.06-.11Zm0,9.91h0l0,0Zm.15-8.14c-.13.23-.06.34.2.34Zm.1-.3,0,0h0c0,.09,0,.18,0,.26l0-.07Zm.2,14.52,0,0a.54.54,0,0,0-.08-.08l0,.05,0,0ZM124.3,4.06c.07.21.18.3.33.26a1.22,1.22,0,0,0,.21-.06.53.53,0,0,1,.22-.07Zm.09,7.06h.1v-.06a.2.2,0,0,0-.12,0Zm.45-8.5-.39-.42a3.69,3.69,0,0,0,.18.52,2.5,2.5,0,0,0,.36.34l.07-.05,0-.06a1.1,1.1,0,0,0-.15-.17c0-.17,0-.31.05-.41l-.08.11Zm-.18,15.82,0,0,0,0Zm.7-8.11.16-.2-.29,0-.25.28ZM125.45,4l-.09-.1-.09-.08c-.08.17-.15.3-.2.4l.19-.12Zm.32,7.71s0-.08-.1-.21c-.12.11-.19.18-.19.2l.09.16.19-.13Zm.09,8.12,0-.13-.1-.05-.08.11Zm0-17.55c-.08,0-.13,0-.13.12s0,.13.1.14L126,2.4Zm.24,8.32s0,0-.1.1l.14.09a.67.67,0,0,0,.06-.12Zm0,1.52s.06,0,.21-.06l-.18-.15a.17.17,0,0,0-.08,0l0,0,0,.16Zm.15-.7-.1-.06a.41.41,0,0,0-.06.1l0,0,0,0v0Zm.28-8.09a1.88,1.88,0,0,0-.24.18l-.19.15.1.14a2.76,2.76,0,0,0,.44-.2ZM126.16,10a.23.23,0,0,0,0,.07h.07s0,0,0-.06Zm.26-7.82a.28.28,0,0,0-.07.11l.05,0,0,.05.06-.11v0Zm.23,17.24s0,0,0,0l-.07,0A.1.1,0,0,0,126.65,19.38Zm.13-9.4s0,0,.12,0a.27.27,0,0,1-.05-.11l-.12.05A.32.32,0,0,0,126.78,10Zm.72,2.58.2-.15-.71-.55a.76.76,0,0,1-.11.14l-.08.1C127.18,12.36,127.41,12.51,127.5,12.56ZM127,2.06s-.05,0-.13,0l.08.16.1-.07Zm0,18.26h0l0,0Zm.14-17.38c0-.06,0-.15,0-.28l-.18,0a.36.36,0,0,0,.09.12Zm.22.94.06-.25c0-.13,0-.21,0-.25s-.08-.32-.31-.39q0,.58,0,.9Zm0,7.16a.42.42,0,0,0-.19.16s0,0,0,.09a.23.23,0,0,0,.06.07l.27-.13Zm.11,8.36a1.64,1.64,0,0,0,.14-.21.67.67,0,0,0-.15-.14l-.12.18h0Zm-.06-15.49c.08.32.16.5.25.55s.24,0,.46-.17Zm.34-1h0l0,0Zm.13,15h.1a.18.18,0,0,0,0-.06h-.07A.31.31,0,0,0,127.91,17.93Zm0-7.43c.32.49.46.72.44.67a4.15,4.15,0,0,1,.46-.35l-.69-.42Zm.24-7.29c-.19.18-.25.3-.2.38a.6.6,0,0,0,.44.23c.08,0,.15-.1.21-.35,0-.06,0-.27.07-.64A5.42,5.42,0,0,0,128.2,3.21Zm-.15,16.49,0,0,0,0,0,0,0,0v0Zm.28-6.36.15-.11-.11-.1q-.09.07-.09.09Zm.21,5.28h.06l0-.06h-.05A.28.28,0,0,1,128.54,18.62Zm.31-15.84,0-.09,0,.05,0,.06A.26.26,0,0,1,128.85,2.78Zm0,14.88,0,0s0,0,0-.05l0-.06Zm.07-2.25s0,0,.12.14a2.25,2.25,0,0,1,.16-.16l-.16-.15A.88.88,0,0,0,128.87,15.41Zm.12,2.13,0,0,0,0Zm.06,1.32,0,0h0l0,0,0,0Zm.24-2.87-.2,0h.11Zm-.12-1.38,0,0v.09Zm.12-1.5a1,1,0,0,0-.16.18.18.18,0,0,0,.14.19s.1,0,.25-.16l-.13-.13Zm-.16-8.95v.06h.06V4.15Zm.13,15.9-.06,0v0Zm.23-8.09a2.24,2.24,0,0,0-.19.24l.18.28a3.9,3.9,0,0,0,.18-.35Zm-.19,4.93a1.31,1.31,0,0,1,.1.19,2.12,2.12,0,0,0,.16-.16l0-.05-.06-.05Zm.19,1a.17.17,0,0,0,0-.05l-.06,0a.06.06,0,0,0,0,0l0,.05A.19.19,0,0,0,129.49,17.89Zm0-6.72-.11,0,0,.06.11,0Zm0-.47h0l0,0a.42.42,0,0,0,.05.12l.1-.08-.08-.07Zm.24-6.88-.09.08s.08.07.1.07l0,0,0,0v0Zm0,9.62.14,0-.06-.17a.26.26,0,0,1-.12.06Zm.08-10.87c-.1.29,0,.56.47.81a3.08,3.08,0,0,0,.23.37,2.3,2.3,0,0,1-.09-.36L130,2.48l-.07,0-.08,0Zm0,12.22,0,0h0Zm0-9.61,0-.06-.06,0a.89.89,0,0,1,0,.11v0H130Zm0,10.24a1.12,1.12,0,0,0,0,.13l.41-.17,0,0,0-.06-.24,0Zm.14-3.14v0l-.05,0,0,0A.2.2,0,0,0,130.07,12.28Zm0,4.62,0,0-.07,0a.06.06,0,0,0,0,.05Zm.07,2.23c.05,0,.11-.09.2-.16l-.2-.09a.07.07,0,0,0-.06,0s0,.05,0,.07Zm.07-4.85s0,0,0,0h0Zm.1-10,.1-.06c-.05,0-.08-.07-.09-.07s-.05,0,0,0A.42.42,0,0,0,130.3,4.26Zm.23,6.44a.05.05,0,0,0,0,0S130.53,10.71,130.53,10.7Zm.89,1.17a3.14,3.14,0,0,0,0-.41h0v0l-.58.15a.38.38,0,0,0-.24.2.21.21,0,0,0,0,.14c0,.07.06.1.07.09l.5-.07Zm-.07-8.24s-.06,0-.15.12l.08.08.08.1.15-.18Zm0,10.84,0-.05-.09,0,0,0Zm.09-2.17,0-.06,0,0Zm0-.84h0v0Zm.12-8.35-.06.09.09.1a.46.46,0,0,0,.07-.11Z"/><path class="cls-1" d="M143.75,5c-.13.58-.79,3.55-2,8.93l-2,9.21c-.09.4-.18.63-.26.68a1.43,1.43,0,0,1-.73,0L136,23.12a1.54,1.54,0,0,1-.76-.29,1.45,1.45,0,0,1,.05-.78l4-18c.09-.42.18-.65.27-.7a1.31,1.31,0,0,1,.77,0c.73.15,1.69.36,2.86.63.38.08.6.16.65.25S143.83,4.57,143.75,5Zm-6.24,14.44.09-.07a.28.28,0,0,0-.09-.08h0s0,0,0,0Zm.32-.63V18.7s0,0-.05,0l0,.08h.06Zm.44-7.2,0-.06,0,.06Zm.13,4.13-.14.05,0,0Zm0,1.19.09-.06-.09-.06s-.06,0,0,0Zm.09,2.2,0,0h0Zm.49-9.4.07,0L139,9.58h0A.41.41,0,0,0,139,9.68Zm.53-1.33h0s0,0,0,0l0,0,0,0a.11.11,0,0,0,0,.05v0Zm.19,9.54,0,0v0Zm.3-5.4.07-.09-.05,0-.07.1Zm.15-.92.16-.05a.48.48,0,0,1-.08-.11l-.13,0Zm.1,2.24.06,0-.15-.17Zm.34-2.68,0,0v0h0Zm.17-.16h-.06l-.07.19.06-.1Zm.12-5.34-.05,0,.1.1,0-.08Zm.07,6-.06,0,.05,0Zm0-1.52a.22.22,0,0,1,0,.09l.05,0s0,0,0-.06h-.06ZM141.05,6s0,0,0,0l0,0L141,5.81s0,0,0,.09Zm0,5.32s0,0,0-.06,0,0-.09,0l0,0h.05Zm0-3.47L141,7.9h.06a.06.06,0,0,0,0,0S141.07,7.83,141.07,7.82Zm0-1.24v0h0V6.56h-.05Zm.23,2.23.07,0s0,0,.06,0l-.06-.12-.12,0,0,.08Zm.48-2.59,0,0h.09v0a0,0,0,0,1,0,0l-.06,0Zm.09,3.48v0l0,0Z"/><path class="cls-1" d="M166.25,20.34c-.11.25-.61,1.64-1.52,4.16l-2.19,6.06q-.19.54-.33.6c-.08.05-.32,0-.69-.14L144,24.7a.79.79,0,0,1-.52-.38.84.84,0,0,1,.08-.61q.21-.53.51-1.38l.49-1.36c.14-.39.27-.61.4-.66a1.23,1.23,0,0,1,.77.12l13,4.69a1.62,1.62,0,0,0,.79.16c.1,0,.22-.27.37-.68.38-1,.57-1.5.55-1.48a.83.83,0,0,0,.08-.61.88.88,0,0,0-.52-.37L147,17.49l-.5-.18c-.42-.1-.54-.38-.38-.84q2.31-6.36,3.74-10.37a.81.81,0,0,1,.35-.48.76.76,0,0,1,.59.06l8.88,3.2L168.36,12c.39.14.6.26.64.34a1.43,1.43,0,0,1-.15.73c-.53,1.48-.87,2.4-1,2.75a1.54,1.54,0,0,1-.35.66c-.09,0-.32,0-.71-.15L154,11.7a3.66,3.66,0,0,0-1-.28c-.12,0-.28.35-.49.93l-.44,1.2c-.14.39-.19.63-.14.72s.25.21.65.36l11.92,4.28,1.27.46C166.28,19.5,166.44,19.83,166.25,20.34Zm-18.82,3,.13-.1-.18-.07-.11.08.15.08Zm-.14-.84.21,0v-.13l-.21,0Zm.43-7.11s0,0,0,0Zm.12,8.76s0,0,.09-.07-.09-.08-.1-.08l-.09.07Zm.1-7.19-.05,0,0,0Zm.28-3.09.28-.07-.12-.23-.2.11A1.21,1.21,0,0,0,148.22,13.88Zm.05,1.52h.31a1,1,0,0,0-.13-.21.61.61,0,0,0-.22,0,.25.25,0,0,0,0,.08C148.26,15.34,148.26,15.38,148.27,15.4Zm.11,7.54h.06a.13.13,0,0,1,0-.06h-.06Zm.13,1.65.1-.1-.14-.1-.1.07.1.12Zm-.08-.93,0-.06v0Zm.08-7.08a.62.62,0,0,1,.16,0l.14.05h0a2.75,2.75,0,0,1-.28-.09Zm.27-2.09a1,1,0,0,0,.21-.08c-.1-.12-.15-.17-.15-.16s-.07,0-.19.05A1.41,1.41,0,0,0,148.78,14.49Zm.42-3.8c0,.06,0,.09,0,.1a.15.15,0,0,0,.08,0l0-.06Zm.48,2.53a3.39,3.39,0,0,0-.24.59s.17.34.45.85l.26-.19c0-.09,0-.42,0-1l-.33-.18Zm-.05,10.39s.07,0,.21-.05l-.13-.17s-.07,0-.18.06l.09.15Zm.12-13.11,0-.05-.1-.07,0,0,0,0Zm-.08,5.09a.61.61,0,0,1,.16-.11l.2-.13-.12-.4-.22.24A2,2,0,0,0,149.67,15.59Zm.19,8.35h.06l-.07-.06Zm.27-6.81h.41a1.76,1.76,0,0,1,0-.25l-.16-.17a3.07,3.07,0,0,0-.44.17l.21.24ZM150,12.82v0l0,0Zm1-1.61c-.72,0-1,.24-.87.7l.24.18C150.58,11.7,150.79,11.4,150.94,11.21Zm-.11,2.6a3.07,3.07,0,0,0,.25-.23,1.17,1.17,0,0,0-.26-.15l-.67.05C150.52,13.67,150.74,13.78,150.83,13.81Zm-.47-5.94c0,.27.12.43.29.47a1,1,0,0,0,.53-.09.39.39,0,0,0-.33-.34C150.46,7.86,150.29,7.85,150.36,7.87Zm.45,2.4-.13-.2a1.27,1.27,0,0,0-.12-.2l-.13.11c-.06.41,0,.65.34.7.13,0,.27-.07.44-.28a1.76,1.76,0,0,0-.09-.36Zm.08,4.36a.46.46,0,0,0-.18,0,1.51,1.51,0,0,0,0,.22l.2-.14a.15.15,0,0,0,0-.06S150.9,14.62,150.89,14.63Zm-.16.52.14.4a1.64,1.64,0,0,0,.23-.18.38.38,0,0,0-.13-.26A1,1,0,0,0,150.73,15.15Zm.07-3.21a.69.69,0,0,0,0,.19l.22-.06,0-.2-.2.05Zm0-1.67a0,0,0,0,1,0,0l0,0Zm.08-3.13h0Zm.1,17.35.18-.06a2.07,2.07,0,0,0-.08-.2l-.18.15a.15.15,0,0,0,0,.06S151,24.49,151,24.49Zm.2-16.24c-.2.26-.15.4.14.41C151.26,8.48,151.22,8.35,151.19,8.25Zm.17.44c0,.18,0,.29,0,.34s0,.16-.11.42c.13,0,.19,0,.19-.06a.89.89,0,0,0,.15-.45S151.49,8.83,151.36,8.69Zm.22,7.89,0-.06,0,0Zm.17-8.67a1,1,0,0,0-.05.26,1.2,1.2,0,0,0,.28-.12,2.17,2.17,0,0,0,.13-.48Zm.09,2.84v-.07h-.06a.46.46,0,0,0,0,.1h0Zm0-2.21,0,.05,0,0s0,0,0,0,0,0,0,0Zm.16,17a1.35,1.35,0,0,0,.27-.09,1.44,1.44,0,0,0-.12-.2l-.24.07A.94.94,0,0,0,152,25.58Zm0-15.48s0,0,0-.06a.35.35,0,0,1,0-.06H152Zm.17-1.25-.12.06c.07.08.11.13.13.13l.13-.06-.13-.12Zm-.07,8.51.11,0v-.13l-.13,0A.65.65,0,0,0,152.14,17.36Zm.11-1s0,.09.12.22c.12-.1.18-.16.17-.17a1.15,1.15,0,0,0-.12-.31Zm.28,8.7.09-.12-.15-.11-.05.05,0,.05,0,0Zm.35-15.47-.4-.25v0c0,.21,0,.37,0,.47a1.19,1.19,0,0,0,.22-.13Zm-.08-.95h-.13c0,.07,0,.13,0,.16l.11-.05V8.65Zm.65,0c-.07,0-.12,0-.16.1s-.16.35-.38.83l.14.1.13.11h0c0,.08,0,.2.07.37s0,.29.06.38l.24.2a.41.41,0,0,1,0-.14l0-.15c.21-.37.33-.58.35-.63a.4.4,0,0,0,.07-.24,7.74,7.74,0,0,0-.36-.77Q153.5,8.66,153.45,8.66Zm-.28,9.48.09-.08-.09-.11-.08.1Zm0-8.35h0l0-.06ZM153.5,27l0,0,0,0Zm.65-18a.13.13,0,0,0-.14.1c0,.07,0,.12.09.17h.27Zm0,8.68,0-.05-.05,0h0s0,0,0,0l0,0h0Zm-.06,1,.11,0,0-.06-.13,0Zm1-9.36-.71.74.06.18.84-.45S155.23,9.58,155.11,9.26Zm-.35,16.16,0,0,0,0Zm.08,1.6.31-.05-.12-.18-.26.08.06.16ZM155,10.43l.07,0v-.07h0a.18.18,0,0,0,0,.05Zm.38,8.12-.05-.25-.18,0H155c.06.18.1.28.11.31l.08.07Zm.14-8.48,0,0h0l0,.05,0,0Zm.07-.74,0,0v0Zm.53,1.8c0-.07-.07-.1-.09-.09l-.11.05.09.1h0Zm.11-1-.08.09s0,.06,0,0l.11,0A.35.35,0,0,0,156.21,10.15Zm.09,8.48.25-.13s0,0,0-.06a.35.35,0,0,1-.05-.08l-.24.13Zm.14,7.06,0,0a.42.42,0,0,0,0-.1l-.05.05,0,0Zm0-14.79h0v0h0Zm.11,15.37-.05,0,0,0Zm.55-15.95-.28.1a2.12,2.12,0,0,0,.15.2l.3,0ZM157.06,12l.06,0v-.06l0,0h0v0A.17.17,0,0,1,157.06,12Zm.34,15.9a1,1,0,0,0,0-.12l-.08-.07a.59.59,0,0,1-.11.08Zm.19-9.61.21-.08-.16-.15a.59.59,0,0,0-.2,0l.12.18Zm0,1.42,0,0v0Zm.09-8v-.06l0,0Zm.22-2a1.07,1.07,0,0,0-.21.15l0,.26A1.55,1.55,0,0,1,158,10C157.94,9.85,157.91,9.76,157.87,9.66Zm.28.51-.18,0q0,.18.06.18l.22,0-.08-.19Zm0,9,.1,0,0-.06a.32.32,0,0,0-.11,0Zm.07,8.57,0,0h-.08Zm.15,1h0l0,0Zm.28-17.88-.19.06a1.46,1.46,0,0,0,.25.21L159,11l-.28-.13Zm.64,7.79.21-.15-.3,0-.31.21Zm-.25,9.32a1.66,1.66,0,0,0,.18-.17s0-.07-.1-.18l-.17.14v0Zm.3-7.91s0-.08,0-.23a1,1,0,0,0-.24.15l0,.17.21-.08Zm0-9.16s0,0,0,.09,0,.08,0,.08h.27c0-.19,0-.27,0-.25Zm.18,17.49.06,0,0,0,0,0,0,0v0Zm.07-7.84.22,0-.13-.19h-.13v.16Zm.18-8.64c-.18.19-.15.31.11.38C159.84,12,159.8,11.92,159.79,11.87Zm.15,8-.09-.08-.07.08v0l0,0h0Zm0-8.25,0,0s0,0,0,0l-.11.24.06-.06Zm-.1,15s0,0,.06,0h0a.35.35,0,0,0,0-.06l-.07,0A.25.25,0,0,0,159.86,26.61ZM160,19l-.11.07a.54.54,0,0,0,.11.12.39.39,0,0,0,.08-.1Zm-.06-6.75c0,.22.1.34.26.34l.22,0a.89.89,0,0,1,.22,0C160.3,12.46,160.07,12.35,159.92,12.28Zm.21-2.14s0,0-.11,0l.12.12.08-.1Zm.08,8.32a.35.35,0,0,0,0,.07h.08v-.07Zm.63,2.85.23-.09c-.31-.39-.49-.63-.54-.71a.56.56,0,0,1-.15.1s-.09.06-.1.08Zm-.55,6.13h.06v-.07h0ZM160.81,11c-.12-.23-.21-.4-.27-.5,0,.34,0,.52,0,.54a2.74,2.74,0,0,0,.27.43l.07,0,.07,0-.1-.2c.06-.16.12-.28.15-.39l-.11.09Zm-.19,18-.05,0v0Zm.43-16.53-.05-.11-.07-.1-.3.33.22-.07Zm-.32,15.32h.05a.16.16,0,0,0,0-.06l0,0A.12.12,0,0,1,160.73,27.8Zm.07-9.16h.12c0-.07,0-.11,0-.12l-.13,0Zm0,7.93,0,.06s0,0,.05-.05l0,0Zm.33-6.75a.35.35,0,0,0-.22.1s0,0,0,.1,0,.08.05.08l.28-.05ZM161,26.51l.05,0-.06,0Zm.4.47a.09.09,0,0,0,0-.05l-.05,0,0,0,0,.05S161.34,27,161.4,27Zm0-4.7.18-.07-.08-.12-.12.05S161.43,22.19,161.44,22.28Zm0,2.13a.64.64,0,0,1,.08.17l.2-.11-.12-.19Zm0,1.56a.68.68,0,0,1,0,.21.71.71,0,0,0,.2-.12s0,0,0,0,0-.06,0-.06A.59.59,0,0,0,161.46,26Zm.23-.88-.19,0,.05,0h.14Zm0,3.25.23-.11-.17-.14h-.06a.17.17,0,0,0-.06.06A.8.8,0,0,1,161.7,28.34Zm.18-17.42a.12.12,0,0,0-.16.09.12.12,0,0,0,.07.16l.21-.06Zm.4,1.19-.28.12-.22.09.07.17a3,3,0,0,0,.46-.08Zm-.47,7.33.25.77a4.38,4.38,0,0,1,.54-.23c-.31-.33-.5-.53-.56-.58Zm.12,4.28a.14.14,0,0,1,0-.06l0,.09Zm.28,2.44,0,0c-.05-.05-.06-.07-.06-.05a.11.11,0,0,0,0,.05A.08.08,0,0,1,162.21,26.16Zm.22-3.85-.21.12a.2.2,0,0,0,.1.23,1,1,0,0,0,.28-.09l-.1-.16Zm0-11.35a.73.73,0,0,0-.09.09l0,0,0,.05.09-.09h0Zm0,13.74a.51.51,0,0,1,0,.13l.44,0,0,0s0,0,0-.06l-.24,0Zm.16-.61,0,0v0Zm.31-2.84-.26.19.11.32a2.67,2.67,0,0,0,.26-.3ZM163,12.9a2,2,0,0,1,.11-.23l.12-.22A.35.35,0,0,0,163,12c-.11.37-.2.66-.26.85Zm-.15,9.85H163l0-.17-.13,0A1.16,1.16,0,0,1,162.83,22.75ZM163,11.94c0-.06.05-.15.08-.27h-.18a.37.37,0,0,0,0,.15Zm.06-.9-.14,0,0,.17.12,0ZM163,23.67l0,0h0Zm0-10.74q0,.51.09.6c.07.07.23.05.49,0Zm.16,7.56h-.11v.06l.11,0Zm.15-.45h-.06a.43.43,0,0,0,0,.13l.11-.06-.06-.08Zm.09,1.66v0s0,0,0,0l-.06,0Zm.18-9.65h0l0,0Zm.33.4c-.23.13-.32.23-.29.32a.59.59,0,0,0,.36.33c.08,0,.18,0,.29-.28,0-.05.11-.26.24-.61Zm.9,9.2s.05-.14.14-.39a0,0,0,0,1,0,0h-.63a.33.33,0,0,0-.28.13s0,.07,0,.14,0,.11,0,.11l.5.05Zm-.71,2.51.05-.05h-.09s0,0,0,0A0,0,0,0,0,164.1,24.16Zm.15-3.87a0,0,0,0,0,0,.05Zm.4-8.09a.58.58,0,0,1,0-.1l0,.05-.05,0Zm-.08,1.41v.06h.06v-.06Zm.17,8.47V22l-.05,0Zm.21-.82h0Zm.15-6.46,0-.05,0-.05s0,.05-.05.1h.06Zm.2-1.35-.1.06a.45.45,0,0,0,.07.09h0l0,0v0A.65.65,0,0,1,165.3,13.45Zm.39-1.18q-.25.38.24.9a3.48,3.48,0,0,0,.13.42,3.45,3.45,0,0,1,0-.37c-.09-.45-.15-.78-.19-1h-.17Zm0,1.74.11,0-.06-.09s-.05,0-.06,0A.58.58,0,0,0,165.67,14Zm1.17-.34s-.06,0-.17.08l.06.09c0,.06,0,.09.05.12l.19-.14A.83.83,0,0,0,166.84,13.67Zm.37-.45-.09.08.06.11.1-.09A.51.51,0,0,1,167.21,13.22Z"/><path class="cls-1" d="M110.37,35.14A110.37,110.37,0,1,0,220.74,145.51,110.37,110.37,0,0,0,110.37,35.14Zm85,142.46a16.06,16.06,0,0,0-2.63-1.38,2,2,0,0,1-1.12-2.5,86.37,86.37,0,1,0-25.49,37.18,7.94,7.94,0,0,1-.31-2.19,8.11,8.11,0,1,1,5.1,7.54A93.12,93.12,0,0,1,17.27,141.06c2.23-47.7,40.94-86.42,88.65-88.65a93.18,93.18,0,0,1,92.25,124.33A1.85,1.85,0,0,1,195.39,177.6ZM60.79,137.39a8.12,8.12,0,1,1,11.09,7.55,39.65,39.65,0,0,0,.56,7.22A38.51,38.51,0,1,0,93.37,111a1.55,1.55,0,0,1-1.88-.42c-1.11-1.29-2.14-2.16-3-3.25-.51-.66-.57-1.55.17-2a45.66,45.66,0,1,1-23.45,47.1,46.62,46.62,0,0,1-.5-8.11A8.09,8.09,0,0,1,60.79,137.39Zm39.31,8.12a10.27,10.27,0,1,1,10.27,10.27A10.27,10.27,0,0,1,100.1,145.51Zm47.82-45.67a8.11,8.11,0,0,1-8.12-8.11c0-.2,0-.4,0-.59a62,62,0,1,0,24.74,24.59,1.9,1.9,0,0,1,.57-2.49,17.46,17.46,0,0,1,2.59-1.23c1.21-.58,2.54-.67,3.2.5a66.22,66.22,0,0,1,8.45,35.09,69,69,0,1,1-137.76-8.47c3.11-34.53,32-61.59,66.66-62.63A68.57,68.57,0,0,1,143.45,85a8.12,8.12,0,1,1,4.47,14.89Z"/></g></g></svg>