<?xml version="1.0" encoding="utf-8"?>
<!-- Generator: Adobe Illustrator 22.0.1, SVG Export Plug-In . SVG Version: 6.00 Build 0)  -->
<svg version="1.1" id="Слой_1" xmlns="http://www.w3.org/2000/svg" xmlns:xlink="http://www.w3.org/1999/xlink" x="0px" y="0px"
	 viewBox="0 0 111.6 32" style="enable-background:new 0 0 111.6 32;" xml:space="preserve">
<style type="text/css">
	.st0{fill:#C92A3E;}
	.st1{enable-background:new    ;}
	.st2{fill:#1C3B4F;}
</style>
<g transform="translate(-1534 4700)">
	<path class="st0" d="M1555.1-4688.2l-12.2-7l4.9-2.8l12.2,7v14.1h1.7v-15h0l-13.8-8l-8.2,4.8l13.8,8v14.1l-5.6,3.2v-14.1l-13.8-8
		l0,0v0h0v15h1.6l0-12.2l10.5,6.1v14.1l0.8,0.5l0.9,0.5l0,0l7.3-4.2L1555.1-4688.2z"/>
	<g class="st1">
		<path class="st2" d="M1576.1-4688h-4.4v-2.1h11.3v2.1h-4.4v11.2h-2.5V-4688z"/>
		<path class="st2" d="M1584.4-4689c-0.3-0.3-0.4-0.6-0.4-1s0.1-0.7,0.4-1c0.3-0.3,0.7-0.4,1.1-0.4s0.8,0.1,1.1,0.4s0.4,0.6,0.4,1
			c0,0.4-0.1,0.8-0.4,1.1c-0.3,0.3-0.6,0.4-1.1,0.4C1585.1-4688.6,1584.7-4688.7,1584.4-4689z M1584.3-4686.9h2.4v10.1h-2.4V-4686.9
			z"/>
		<path class="st2" d="M1599.3-4681.1h-8c0.1,0.7,0.5,1.3,1.1,1.8c0.6,0.4,1.3,0.7,2.2,0.7c1.1,0,2-0.4,2.8-1.1l1.3,1.5
			c-0.5,0.5-1,1-1.7,1.2c-0.7,0.3-1.5,0.4-2.4,0.4c-1.1,0-2.1-0.2-2.9-0.7s-1.5-1.1-2-1.9c-0.5-0.8-0.7-1.7-0.7-2.7
			c0-1,0.2-1.9,0.7-2.7c0.4-0.8,1.1-1.4,1.9-1.9c0.8-0.4,1.7-0.7,2.7-0.7c1,0,1.9,0.2,2.7,0.7s1.4,1.1,1.8,1.8
			c0.4,0.8,0.7,1.7,0.7,2.7C1599.4-4681.6,1599.3-4681.4,1599.3-4681.1z M1592.3-4684.4c-0.5,0.5-0.8,1-1,1.8h5.8
			c-0.1-0.7-0.4-1.3-0.9-1.8s-1.2-0.7-1.9-0.7C1593.5-4685.1,1592.8-4684.9,1592.3-4684.4z"/>
		<path class="st2" d="M1602.4-4677c-0.8-0.2-1.4-0.5-1.9-0.8l0.9-1.8c0.5,0.3,1,0.5,1.6,0.7c0.6,0.2,1.3,0.3,1.9,0.3
			c1.4,0,2.1-0.4,2.1-1.1c0-0.4-0.2-0.6-0.5-0.7s-0.9-0.3-1.7-0.4c-0.8-0.1-1.5-0.3-2-0.4c-0.5-0.2-1-0.5-1.4-0.9
			c-0.4-0.4-0.6-1-0.6-1.7c0-1,0.4-1.7,1.2-2.3c0.8-0.6,1.9-0.9,3.3-0.9c0.7,0,1.4,0.1,2.1,0.2c0.7,0.2,1.3,0.4,1.7,0.6l-0.9,1.8
			c-0.9-0.5-1.8-0.8-2.9-0.8c-0.7,0-1.2,0.1-1.6,0.3c-0.4,0.2-0.5,0.5-0.5,0.8c0,0.4,0.2,0.6,0.6,0.8s1,0.3,1.8,0.4
			c0.8,0.1,1.5,0.3,2,0.4c0.5,0.2,1,0.4,1.3,0.8c0.4,0.4,0.6,1,0.6,1.7c0,1-0.4,1.7-1.2,2.3c-0.8,0.6-1.9,0.9-3.4,0.9
			C1603.9-4676.6,1603.1-4676.7,1602.4-4677z"/>
	</g>
	<g class="st1">
		<path class="st0" d="M1611.1-4677.1c-0.3-0.3-0.5-0.7-0.5-1.1c0-0.5,0.1-0.8,0.4-1.1c0.3-0.3,0.7-0.4,1.1-0.4s0.8,0.1,1.1,0.4
			c0.3,0.3,0.4,0.7,0.4,1.1c0,0.5-0.2,0.8-0.5,1.1c-0.3,0.3-0.7,0.4-1.1,0.4S1611.4-4676.8,1611.1-4677.1z"/>
	</g>
	<g class="st1">
		<path class="st2" d="M1616.3-4690.1h5.8c1.4,0,2.7,0.3,3.8,0.8c1.1,0.6,2,1.3,2.6,2.3s0.9,2.2,0.9,3.5c0,1.3-0.3,2.5-0.9,3.5
			c-0.6,1-1.5,1.8-2.6,2.3c-1.1,0.6-2.4,0.8-3.8,0.8h-5.8V-4690.1z M1622-4678.8c1,0,1.8-0.2,2.6-0.6c0.7-0.4,1.3-0.9,1.7-1.6
			c0.4-0.7,0.6-1.5,0.6-2.4c0-0.9-0.2-1.7-0.6-2.4c-0.4-0.7-1-1.2-1.7-1.6c-0.7-0.4-1.6-0.6-2.6-0.6h-3.2v9.1H1622z"/>
		<path class="st2" d="M1643.2-4682.5c0.4,0.6,0.6,1.3,0.6,2.1c0,1.2-0.4,2-1.3,2.7s-2.2,0.9-3.9,0.9h-6.6v-13.3h6.2
			c1.6,0,2.8,0.3,3.6,0.9c0.8,0.6,1.3,1.5,1.3,2.5c0,0.7-0.2,1.2-0.5,1.7c-0.3,0.5-0.7,0.9-1.3,1.2
			C1642.1-4683.4,1642.7-4683,1643.2-4682.5z M1634.5-4688.1v3.7h3.5c0.9,0,1.5-0.2,2-0.5s0.7-0.8,0.7-1.4c0-0.6-0.2-1.1-0.7-1.4
			s-1.1-0.5-2-0.5H1634.5z M1641.3-4680.6c0-1.3-1-1.9-2.9-1.9h-4v3.8h4C1640.4-4678.7,1641.3-4679.3,1641.3-4680.6z"/>
	</g>
</g>
</svg>
