<svg xmlns="http://www.w3.org/2000/svg" viewBox="-1024.853 5708.269 67.788 62.139"><defs><style>.a{fill:#93d1e5;}</style></defs><g transform="translate(-1537 -49)"><path class="a" d="M62.7,49.711l-11.016-4.8a2.4,2.4,0,0,1-.847-.847h7.344a14.251,14.251,0,0,0,5.649-.706,3.068,3.068,0,0,0,1.836-2.118,3.327,3.327,0,0,0-.424-2.825c-2.118-2.966-7.061-10.874-7.2-18.783,0-.141-.424-13.7-13.84-13.7a15.787,15.787,0,0,0-5.367.989A10,10,0,0,0,37.142,4.1C34.883,1.271,31.069,0,25.985,0s-8.9,1.271-11.157,3.954a10.578,10.578,0,0,0-2.4,7.344v6.073a4.558,4.558,0,0,0-1.13,2.966v4.519a4.285,4.285,0,0,0,1.695,3.531,23.924,23.924,0,0,0,3.954,8.191v3.672a3.028,3.028,0,0,1-1.553,2.683L5.367,48.44A9.908,9.908,0,0,0,0,57.337v4.8H67.788V57.9A9.263,9.263,0,0,0,62.7,49.711ZM49.711,59.879H2.26V57.337a7.794,7.794,0,0,1,4.1-6.92L16.382,44.91a5.281,5.281,0,0,0,2.683-4.66V35.73l-.282-.282A20.63,20.63,0,0,1,14.97,27.4l-.141-.424-.424-.282a2.058,2.058,0,0,1-.989-1.836V20.336a2.606,2.606,0,0,1,.706-1.695l.424-.282v-7.2a7.637,7.637,0,0,1,1.836-5.649c1.836-2.118,5.084-3.248,9.462-3.248s7.626,1.13,9.462,3.248A7.233,7.233,0,0,1,37,8.756v1.412h0v.282h0v.282h0v7.626l.424.282a2.339,2.339,0,0,1,.706,1.695v4.519a2.3,2.3,0,0,1-1.553,2.118l-.565.141-.141.565a21.57,21.57,0,0,1-3.248,6.5c-.282.424-.706.847-.989,1.271l-.282.282v4.66a1.791,1.791,0,0,0,.141.847v.141c0,.282.141.424.141.706v.141c.141.282.141.424.282.706v.141a2.954,2.954,0,0,0,.565.847l.282.282h0a7.761,7.761,0,0,0,1.271.989l10.733,5.367a8.005,8.005,0,0,1,4.378,7.061v2.26Zm15.817,0H51.971V57.62a10.178,10.178,0,0,0-5.649-9.18l-7.767-3.813a1.649,1.649,0,0,0,0-1.412,1.823,1.823,0,0,0-1.836-1.271H34.176c0-.141-.141-.141-.141-.282s-.141-.282-.141-.424q0-.424,0-.847V36.577a7.834,7.834,0,0,0,.847-1.13,28.459,28.459,0,0,0,3.389-6.5,4.524,4.524,0,0,0,2.683-4.1V20.336a4.558,4.558,0,0,0-1.13-2.966V11.3a7.753,7.753,0,0,0-.141-2.4,13.194,13.194,0,0,1,4.8-.847c11.157.141,11.58,11.016,11.58,11.58.141,8.615,5.367,16.806,7.626,20.054a1.16,1.16,0,0,1,.141.989.852.852,0,0,1-.565.706,10.731,10.731,0,0,1-4.66.565H50.7a2.414,2.414,0,0,0-1.836.989,1.991,1.991,0,0,0-.141,1.977A4.062,4.062,0,0,0,50.7,47.028l11.016,4.8a6.733,6.733,0,0,1,3.813,6.214Zm0,0" transform="translate(512.147 5757.269)"/></g></svg>