<?xml version="1.0" encoding="UTF-8"?>
<svg width="272px" height="48px" viewBox="0 0 272 48" version="1.1" xmlns="http://www.w3.org/2000/svg" xmlns:xlink="http://www.w3.org/1999/xlink">
    <!-- Generator: Sketch 52.5 (67469) - http://www.bohemiancoding.com/sketch -->
    <title>table_mob_head</title>
    <desc>Created with Sketch.</desc>
    <g id="Page-1" stroke="none" stroke-width="1" fill="none" fill-rule="evenodd">
        <g id="table_mob_head">
            <g id="Group" transform="translate(99.000000, 0.000000)" fill="#FFFFFF">
                <path d="M0.2,0.6 L3.9,0.6 C4.8,0.6 5.6,0.8 6.3,1.1 C7,1.4 7.5,1.9 7.9,2.6 C8.3,3.2 8.5,4 8.5,4.8 C8.5,5.6 8.3,6.4 7.9,7 C7.5,7.6 7,8.1 6.3,8.5 C5.6,8.8 4.8,9 3.9,9 L0.2,9 L0.2,0.6 Z M3.8,7.7 C4.4,7.7 5,7.6 5.4,7.3 C5.8,7 6.2,6.7 6.5,6.3 C6.8,5.9 6.9,5.4 6.9,4.8 C6.9,4.2 6.8,3.7 6.5,3.3 C6.2,2.9 5.9,2.5 5.4,2.3 C4.9,2.1 4.4,1.9 3.8,1.9 L1.8,1.9 L1.8,7.7 L3.8,7.7 Z" id="Shape" fill-rule="nonzero"></path>
                <path d="M15.4,7.1 L11.2,7.1 L10.4,9 L8.8,9 L12.6,0.6 L14.1,0.6 L17.9,9 L16.3,9 L15.4,7.1 Z M14.9,5.8 L13.3,2.1 L11.7,5.8 L14.9,5.8 Z" id="Shape" fill-rule="nonzero"></path>
                <polygon id="Path" points="20.3 1.9 17.5 1.9 17.5 0.6 24.6 0.6 24.6 1.9 21.8 1.9 21.8 9 20.2 9 20.2 1.9"></polygon>
                <path d="M30.8,7.1 L26.6,7.1 L25.8,9 L24.2,9 L28,0.6 L29.5,0.6 L33.3,9 L31.7,9 L30.8,7.1 Z M30.3,5.8 L28.7,2.1 L27.1,5.8 L30.3,5.8 Z" id="Shape" fill-rule="nonzero"></path>
                <path d="M41.4,5.4 C41.7,5.8 41.8,6.2 41.8,6.7 C41.8,7.4 41.5,8 41,8.4 C40.4,8.8 39.6,9 38.6,9 L34.4,9 L34.4,0.6 L38.3,0.6 C39.3,0.6 40.1,0.8 40.6,1.2 C41.1,1.6 41.4,2.1 41.4,2.8 C41.4,3.2 41.3,3.6 41.1,3.9 C40.9,4.2 40.6,4.5 40.3,4.6 C40.8,4.8 41.1,5 41.4,5.4 Z M35.9,1.8 L35.9,4.1 L38.1,4.1 C38.6,4.1 39.1,4 39.4,3.8 C39.7,3.6 39.8,3.3 39.8,2.9 C39.8,2.5 39.7,2.2 39.4,2 C39.1,1.8 38.7,1.7 38.1,1.7 L35.9,1.7 L35.9,1.8 Z M40.2,6.6 C40.2,5.8 39.6,5.4 38.4,5.4 L35.9,5.4 L35.9,7.8 L38.4,7.8 C39.6,7.8 40.2,7.4 40.2,6.6 Z" id="Shape" fill-rule="nonzero"></path>
                <path d="M48.9,7.1 L44.7,7.1 L43.9,9 L42.3,9 L46.1,0.6 L47.6,0.6 L51.4,9 L49.8,9 L48.9,7.1 Z M48.4,5.8 L46.8,2.1 L45.2,5.8 L48.4,5.8 Z" id="Shape" fill-rule="nonzero"></path>
                <path d="M53.2,8.8 C52.6,8.6 52.1,8.4 51.8,8.1 L52.3,6.9 C52.6,7.2 53.1,7.4 53.6,7.6 C54.1,7.8 54.6,7.9 55.1,7.9 C55.7,7.9 56.2,7.8 56.5,7.6 C56.8,7.4 57,7.1 57,6.8 C57,6.6 56.9,6.4 56.7,6.2 C56.5,6 56.3,5.9 56,5.8 C55.7,5.7 55.4,5.6 54.9,5.5 C54.3,5.3 53.7,5.2 53.3,5 C52.9,4.8 52.6,4.6 52.3,4.3 C52,4 51.9,3.5 51.9,3 C51.9,2.5 52,2.1 52.3,1.7 C52.6,1.3 52.9,1 53.4,0.8 C53.9,0.6 54.5,0.5 55.3,0.5 C55.8,0.5 56.3,0.6 56.8,0.7 C57.3,0.8 57.7,1 58.1,1.3 L57.6,2.5 C57.2,2.3 56.8,2.1 56.4,2 C56,1.9 55.6,1.8 55.2,1.8 C54.6,1.8 54.1,1.9 53.8,2.1 C53.5,2.3 53.3,2.6 53.3,2.9 C53.3,3.1 53.4,3.3 53.6,3.5 C53.8,3.7 54,3.8 54.3,3.9 C54.6,4 54.9,4.1 55.4,4.2 C56,4.3 56.5,4.5 56.9,4.7 C57.3,4.9 57.6,5.1 57.9,5.4 C58.2,5.7 58.3,6.2 58.3,6.7 C58.3,7.2 58.2,7.6 57.9,8 C57.6,8.4 57.3,8.7 56.8,8.9 C56.3,9.1 55.7,9.2 54.9,9.2 C54.4,9.1 53.8,9 53.2,8.8 Z" id="Path"></path>
                <polygon id="Path" points="66.3 7.7 66.3 9 60 9 60 0.6 66.1 0.6 66.1 1.9 61.5 1.9 61.5 4.1 65.6 4.1 65.6 5.4 61.5 5.4 61.5 7.7 66.3 7.7"></polygon>
            </g>
            <g id="Group" transform="translate(0.000000, 1.000000)" fill="#FFFFFF">
                <polygon id="Path" points="2 1.4 2 4 6.1 4 6.1 5.3 2 5.3 2 8.5 0.4 8.5 0.4 0.1 6.5 0.1 6.5 1.4 2 1.4"></polygon>
                <polygon id="Path" points="8.1 0.1 9.7 0.1 9.7 8.5 8.1 8.5"></polygon>
                <polygon id="Path" points="12 0.1 13.6 0.1 13.6 7.2 18 7.2 18 8.5 12 8.5"></polygon>
                <polygon id="Path" points="25.4 7.2 25.4 8.5 19.1 8.5 19.1 0.1 25.2 0.1 25.2 1.4 20.6 1.4 20.6 3.6 24.7 3.6 24.7 4.9 20.6 4.9 20.6 7.2 25.4 7.2"></polygon>
                <path d="M31.2,8.3 C30.6,8.1 30.1,7.9 29.8,7.6 L30.3,6.4 C30.6,6.7 31.1,6.9 31.6,7.1 C32.1,7.3 32.6,7.4 33.1,7.4 C33.7,7.4 34.2,7.3 34.5,7.1 C34.8,6.9 35,6.6 35,6.3 C35,6.1 34.9,5.9 34.7,5.7 C34.5,5.5 34.3,5.4 34,5.3 C33.7,5.2 33.4,5.1 32.9,5 C32.3,4.8 31.7,4.7 31.3,4.5 C30.9,4.3 30.6,4.1 30.3,3.8 C30,3.5 29.9,3 29.9,2.5 C29.9,2 30,1.6 30.3,1.2 C30.6,0.8 30.9,0.5 31.4,0.3 C31.9,0.1 32.5,0 33.3,0 C33.8,0 34.3,0.1 34.8,0.2 C35.3,0.3 35.7,0.5 36.1,0.8 L35.6,2 C35.2,1.8 34.8,1.6 34.4,1.5 C34,1.4 33.6,1.3 33.2,1.3 C32.6,1.3 32.1,1.4 31.8,1.6 C31.5,1.8 31.3,2.1 31.3,2.4 C31.3,2.6 31.4,2.8 31.6,3 C31.8,3.2 32,3.3 32.3,3.4 C32.6,3.5 32.9,3.6 33.4,3.7 C34,3.8 34.5,4 34.9,4.2 C35.3,4.4 35.6,4.6 35.9,4.9 C36.2,5.2 36.3,5.7 36.3,6.2 C36.3,6.7 36.2,7.1 35.9,7.5 C35.6,7.9 35.3,8.2 34.8,8.4 C34.3,8.6 33.7,8.7 32.9,8.7 C32.5,8.6 31.8,8.5 31.2,8.3 Z" id="Path"></path>
                <polygon id="Path" points="41.5 5.5 41.5 8.5 39.9 8.5 39.9 5.6 36.6 0.1 38.3 0.1 40.8 4.2 43.3 0.1 44.8 0.1"></polygon>
                <path d="M46.3,8.3 C45.7,8.1 45.2,7.9 44.9,7.6 L45.4,6.4 C45.7,6.7 46.2,6.9 46.7,7.1 C47.2,7.3 47.7,7.4 48.2,7.4 C48.8,7.4 49.3,7.3 49.6,7.1 C49.9,6.9 50.1,6.6 50.1,6.3 C50.1,6.1 50,5.9 49.8,5.7 C49.6,5.5 49.4,5.4 49.1,5.3 C48.8,5.2 48.5,5.1 48,5 C47.4,4.8 46.8,4.7 46.4,4.5 C46,4.3 45.7,4.1 45.4,3.8 C45.1,3.5 45,3 45,2.5 C45,2 45.1,1.6 45.4,1.2 C45.7,0.8 46,0.5 46.5,0.3 C47,0.1 47.6,0 48.4,0 C48.9,0 49.4,0.1 49.9,0.2 C50.4,0.3 50.8,0.5 51.2,0.8 L50.7,2 C50.3,1.8 49.9,1.6 49.5,1.5 C49.1,1.4 48.7,1.3 48.3,1.3 C47.7,1.3 47.2,1.4 46.9,1.6 C46.6,1.8 46.4,2.1 46.4,2.4 C46.4,2.6 46.5,2.8 46.7,3 C46.9,3.2 47.1,3.3 47.4,3.4 C47.7,3.5 48,3.6 48.5,3.7 C49.1,3.8 49.6,4 50,4.2 C50.4,4.4 50.7,4.6 51,4.9 C51.3,5.2 51.4,5.7 51.4,6.2 C51.4,6.7 51.3,7.1 51,7.5 C50.7,7.9 50.4,8.2 49.9,8.4 C49.4,8.6 48.8,8.7 48,8.7 C47.6,8.6 46.9,8.5 46.3,8.3 Z" id="Path"></path>
                <polygon id="Path" points="54.7 1.4 52 1.4 52 0.1 59.1 0.1 59.1 1.4 56.3 1.4 56.3 8.5 54.7 8.5"></polygon>
                <polygon id="Path" points="66.6 7.2 66.6 8.5 60.3 8.5 60.3 0.1 66.4 0.1 66.4 1.4 61.8 1.4 61.8 3.6 65.9 3.6 65.9 4.9 61.8 4.9 61.8 7.2 66.6 7.2"></polygon>
                <polygon id="Path" points="76 8.5 76 2.9 73.2 7.5 72.5 7.5 69.7 3 69.7 8.5 68.2 8.5 68.2 0.1 69.5 0.1 72.8 5.7 76.1 0.1 77.4 0.1 77.4 8.5"></polygon>
            </g>
            <g id="Group" transform="translate(22.000000, 18.000000)" fill="#72A5B5">
                <path d="M0.4,8.7 C0.1,7.7 0,6.7 0,5.6 C0,4.5 0.1,3.5 0.4,2.5 C0.7,1.5 1,0.7 1.5,2.27373675e-13 L2.9,2.27373675e-13 C2.4,0.9 2.1,1.8 1.8,2.7 C1.5,3.6 1.5,4.6 1.5,5.6 C1.5,6.6 1.6,7.6 1.8,8.5 C2,9.4 2.4,10.3 2.9,11.2 L1.5,11.2 C1,10.5 0.7,9.7 0.4,8.7 Z" id="Path"></path>
                <polygon id="Path" points="4.3 0.5 5.9 0.5 5.9 8.9 4.3 8.9"></polygon>
                <path d="M13.5,0.9 C14,1.1 14.5,1.5 14.7,1.9 C14.9,2.3 15.1,2.9 15.1,3.5 C15.1,4.1 15,4.6 14.7,5.1 C14.4,5.6 14,5.9 13.5,6.1 C13,6.3 12.3,6.5 11.6,6.5 L9.7,6.5 L9.7,8.9 L8.1,8.9 L8.1,0.5 L11.6,0.5 C12.3,0.5 13,0.6 13.5,0.9 Z M13.1,4.8 C13.5,4.5 13.6,4.1 13.6,3.6 C13.6,3.1 13.4,2.7 13.1,2.4 C12.7,2.1 12.2,2 11.6,2 L9.8,2 L9.8,5.3 L11.6,5.3 C12.2,5.2 12.7,5 13.1,4.8 Z" id="Shape" fill-rule="nonzero"></path>
                <polygon id="Path" points="18.3 1.8 18.3 4.4 22.4 4.4 22.4 5.7 18.3 5.7 18.3 8.9 16.7 8.9 16.7 0.5 22.8 0.5 22.8 1.8 18.3 1.8"></polygon>
                <path d="M25.1,8.8 C24.5,8.6 24,8.4 23.7,8.1 L24.2,6.9 C24.5,7.2 25,7.4 25.5,7.6 C26,7.8 26.5,7.9 27,7.9 C27.6,7.9 28.1,7.8 28.4,7.6 C28.7,7.4 28.9,7.1 28.9,6.8 C28.9,6.6 28.8,6.4 28.6,6.2 C28.4,6 28.2,5.9 27.9,5.8 C27.6,5.7 27.3,5.6 26.8,5.5 C26.2,5.3 25.6,5.2 25.2,5 C24.8,4.8 24.5,4.6 24.2,4.3 C23.9,4 23.8,3.5 23.8,3 C23.8,2.5 23.9,2.1 24.2,1.7 C24.5,1.3 24.8,1 25.3,0.8 C25.8,0.6 26.4,0.5 27.2,0.5 C27.7,0.5 28.2,0.6 28.7,0.7 C29.2,0.8 29.6,1 30,1.3 L29.5,2.5 C29.1,2.3 28.7,2.1 28.3,2 C27.9,1.9 27.5,1.8 27.1,1.8 C26.5,1.8 26,1.9 25.7,2.1 C25.4,2.3 25.2,2.6 25.2,2.9 C25.2,3.1 25.3,3.3 25.5,3.5 C25.7,3.7 25.9,3.8 26.2,3.9 C26.5,4 26.8,4.1 27.3,4.2 C27.9,4.3 28.4,4.5 28.8,4.7 C29.2,4.9 29.5,5.1 29.8,5.4 C30.1,5.7 30.2,6.2 30.2,6.7 C30.2,7.2 30.1,7.6 29.8,8 C29.5,8.4 29.2,8.7 28.7,8.9 C28.2,9.1 27.6,9.2 26.8,9.2 C26.3,9.1 25.7,9 25.1,8.8 Z" id="Path"></path>
                <path d="M31,11.3 C31.5,10.4 31.8,9.5 32.1,8.6 C32.3,7.7 32.4,6.7 32.4,5.7 C32.4,4.7 32.3,3.7 32.1,2.8 C31.9,1.9 31.5,1 31,0.1 L32.4,0.1 C32.9,0.8 33.2,1.7 33.5,2.6 C33.8,3.5 33.9,4.6 33.9,5.7 C33.9,6.8 33.8,7.8 33.5,8.8 C33.2,9.8 32.9,10.6 32.4,11.3 L31,11.3 Z" id="Path"></path>
            </g>
            <g id="Group" transform="translate(185.000000, 0.000000)" fill="#FFFFFF">
                <path d="M7,5.6 C7.3,6 7.4,6.4 7.4,6.9 C7.4,7.6 7.1,8.2 6.6,8.6 C6,9 5.2,9.2 4.2,9.2 L0,9.2 L0,0.8 L3.9,0.8 C4.9,0.8 5.7,1 6.2,1.4 C6.7,1.8 7,2.3 7,3 C7,3.4 6.9,3.8 6.7,4.1 C6.5,4.4 6.2,4.7 5.9,4.8 C6.3,5 6.7,5.3 7,5.6 Z M1.5,2.1 L1.5,4.4 L3.7,4.4 C4.2,4.4 4.7,4.3 5,4.1 C5.3,3.9 5.4,3.6 5.4,3.2 C5.4,2.8 5.3,2.5 5,2.3 C4.7,2.1 4.3,2 3.7,2 L1.5,2 L1.5,2.1 Z M5.8,6.8 C5.8,6 5.2,5.6 4,5.6 L1.5,5.6 L1.5,8 L4,8 C5.2,8 5.8,7.6 5.8,6.8 Z" id="Shape" fill-rule="nonzero"></path>
                <polygon id="Path" points="9 0.8 10.6 0.8 10.6 7.9 15 7.9 15 9.2 9 9.2"></polygon>
                <path d="M17.7,8.8 C17,8.4 16.5,7.9 16.1,7.3 C15.7,6.6 15.5,5.9 15.5,5.1 C15.5,4.3 15.7,3.5 16.1,2.9 C16.5,2.2 17,1.7 17.7,1.4 C18.4,1 19.2,0.8 20,0.8 C20.9,0.8 21.6,1 22.3,1.4 C23,1.8 23.5,2.3 23.9,2.9 C24.3,3.6 24.5,4.3 24.5,5.1 C24.5,5.9 24.3,6.7 23.9,7.3 C23.5,8 23,8.5 22.3,8.8 C21.6,9.2 20.8,9.4 20,9.4 C19.1,9.4 18.4,9.2 17.7,8.8 Z M21.5,7.6 C21.9,7.3 22.3,7 22.6,6.5 C22.9,6 23,5.5 23,5 C23,4.4 22.9,3.9 22.6,3.5 C22.3,3 22,2.7 21.5,2.4 C21,2.1 20.5,2 20,2 C19.4,2 18.9,2.1 18.5,2.4 C18.1,2.7 17.7,3 17.4,3.5 C17.1,4 17,4.5 17,5 C17,5.6 17.1,6.1 17.4,6.5 C17.7,6.9 18,7.3 18.5,7.6 C18.9,7.9 19.5,8 20,8 C20.6,8 21.1,7.9 21.5,7.6 Z" id="Shape" fill-rule="nonzero"></path>
                <path d="M27.8,8.8 C27.1,8.4 26.6,7.9 26.2,7.3 C25.8,6.6 25.6,5.9 25.6,5.1 C25.6,4.3 25.8,3.5 26.2,2.9 C26.6,2.3 27.1,1.7 27.8,1.4 C28.5,1 29.3,0.8 30.1,0.8 C30.8,0.8 31.4,0.9 32,1.2 C32.6,1.5 33,1.8 33.4,2.2 L32.4,3.1 C31.8,2.4 31,2.1 30.2,2.1 C29.6,2.1 29.1,2.2 28.7,2.5 C28.2,2.8 27.9,3.1 27.6,3.6 C27.3,4.1 27.2,4.6 27.2,5.1 C27.2,5.7 27.3,6.2 27.6,6.6 C27.9,7 28.2,7.4 28.7,7.6 C29.2,7.9 29.7,8 30.2,8 C31.1,8 31.8,7.7 32.4,7 L33.4,8 C33,8.5 32.5,8.8 32,9 C31.5,9.2 30.8,9.4 30.1,9.4 C29.2,9.4 28.5,9.2 27.8,8.8 Z" id="Path"></path>
                <polygon id="Path" points="37.8 5.7 36.5 7.1 36.5 9.2 34.9 9.2 34.9 0.8 36.5 0.8 36.5 5.1 40.7 0.8 42.5 0.8 39 4.6 42.7 9.2 40.9 9.2"></polygon>
                <path d="M44.9,8.8 C44.2,8.4 43.7,7.9 43.3,7.3 C42.9,6.6 42.7,5.9 42.7,5.1 C42.7,4.3 42.9,3.5 43.3,2.9 C43.7,2.3 44.2,1.7 44.9,1.4 C45.6,1 46.4,0.8 47.2,0.8 C47.9,0.8 48.5,0.9 49.1,1.2 C49.7,1.5 50.1,1.8 50.5,2.2 L49.5,3.1 C48.9,2.4 48.1,2.1 47.3,2.1 C46.7,2.1 46.2,2.2 45.8,2.5 C45.3,2.8 45,3.1 44.7,3.6 C44.4,4.1 44.3,4.6 44.3,5.1 C44.3,5.7 44.4,6.2 44.7,6.6 C45,7 45.3,7.4 45.8,7.6 C46.3,7.9 46.8,8 47.3,8 C48.2,8 48.9,7.7 49.5,7 L50.5,8 C50.1,8.5 49.6,8.8 49.1,9 C48.6,9.2 47.9,9.4 47.2,9.4 C46.4,9.4 45.6,9.2 44.9,8.8 Z" id="Path"></path>
                <polygon id="Path" points="59.5 0.8 59.5 9.2 58 9.2 58 5.6 53.7 5.6 53.7 9.2 52.1 9.2 52.1 0.8 53.7 0.8 53.7 4.3 58 4.3 58 0.8"></polygon>
                <path d="M67.2,7.3 L63,7.3 L62.2,9.2 L60.6,9.2 L64.4,0.8 L65.9,0.8 L69.7,9.2 L68.1,9.2 L67.2,7.3 Z M66.7,6.1 L65.1,2.4 L63.5,6.1 L66.7,6.1 Z" id="Shape" fill-rule="nonzero"></path>
                <polygon id="Path" points="70.8 0.8 72.4 0.8 72.4 9.2 70.8 9.2"></polygon>
                <polygon id="Path" points="82.1 0.8 82.1 9.2 80.8 9.2 76.2 3.5 76.2 9.2 74.7 9.2 74.7 0.8 76 0.8 80.6 6.5 80.6 0.8"></polygon>
            </g>
            <g id="Group" transform="translate(180.000000, 17.000000)" fill="#72A5B5">
                <path d="M0.4,9.5 C0.1,8.5 0,7.5 0,6.4 C0,5.3 0.1,4.3 0.4,3.3 C0.7,2.3 1,1.5 1.5,0.8 L2.9,0.8 C2.4,1.7 2.1,2.6 1.8,3.5 C1.6,4.4 1.5,5.4 1.5,6.4 C1.5,7.4 1.6,8.4 1.8,9.3 C2,10.2 2.4,11.1 2.9,12 L1.5,12 C1,11.3 0.7,10.4 0.4,9.5 Z" id="Path"></path>
                <path d="M11.4,6.1 C11.7,6.5 11.8,6.9 11.8,7.4 C11.8,8.1 11.5,8.7 11,9.1 C10.4,9.5 9.6,9.7 8.6,9.7 L4.4,9.7 L4.4,1.3 L8.3,1.3 C9.3,1.3 10.1,1.5 10.6,1.9 C11.1,2.3 11.4,2.8 11.4,3.5 C11.4,3.9 11.3,4.3 11.1,4.6 C10.9,4.9 10.6,5.2 10.3,5.3 C10.8,5.5 11.1,5.7 11.4,6.1 Z M5.9,2.5 L5.9,4.8 L8.1,4.8 C8.6,4.8 9.1,4.7 9.4,4.5 C9.7,4.3 9.8,4 9.8,3.6 C9.8,3.2 9.7,2.9 9.4,2.7 C9.1,2.5 8.7,2.4 8.1,2.4 L5.9,2.4 L5.9,2.5 Z M10.2,7.2 C10.2,6.4 9.6,6 8.4,6 L5.9,6 L5.9,8.4 L8.4,8.4 C9.6,8.5 10.2,8.1 10.2,7.2 Z" id="Shape" fill-rule="nonzero"></path>
                <polygon id="Path" points="13.5 1.3 15.1 1.3 15.1 9.7 13.5 9.7"></polygon>
                <path d="M23,5.4 L24.5,5.4 L24.5,8.7 C24.1,9 23.6,9.3 23,9.5 C22.4,9.7 21.8,9.8 21.2,9.8 C20.3,9.8 19.6,9.6 18.9,9.2 C18.2,8.8 17.7,8.3 17.3,7.7 C16.9,7 16.7,6.3 16.7,5.5 C16.7,4.7 16.9,3.9 17.3,3.3 C17.7,2.6 18.2,2.1 18.9,1.8 C19.6,1.4 20.4,1.2 21.2,1.2 C21.9,1.2 22.5,1.3 23.1,1.5 C23.7,1.7 24.2,2.1 24.6,2.5 L23.6,3.5 C23,2.9 22.2,2.5 21.3,2.5 C20.7,2.5 20.2,2.6 19.7,2.9 C19.2,3.2 18.9,3.5 18.6,3.9 C18.3,4.3 18.2,4.9 18.2,5.4 C18.2,6 18.3,6.5 18.6,6.9 C18.9,7.3 19.2,7.7 19.7,8 C20.2,8.3 20.7,8.4 21.3,8.4 C22,8.4 22.5,8.3 23,8 L23,5.4 Z" id="Path"></path>
                <path d="M28.2,9.2 C27.5,8.8 27,8.3 26.6,7.7 C26.2,7 26,6.3 26,5.5 C26,4.7 26.2,3.9 26.6,3.3 C27,2.6 27.5,2.1 28.2,1.8 C28.9,1.4 29.7,1.2 30.5,1.2 C31.2,1.2 31.8,1.3 32.4,1.6 C33,1.8 33.4,2.2 33.8,2.6 L32.8,3.5 C32.2,2.8 31.4,2.5 30.6,2.5 C30,2.5 29.5,2.6 29.1,2.9 C28.7,3.2 28.3,3.5 28,4 C27.7,4.5 27.6,5 27.6,5.5 C27.6,6.1 27.7,6.6 28,7 C28.3,7.4 28.6,7.8 29.1,8 C29.6,8.2 30.1,8.4 30.6,8.4 C31.5,8.4 32.2,8.1 32.8,7.4 L33.8,8.4 C33.4,8.9 32.9,9.2 32.4,9.4 C31.8,9.6 31.2,9.8 30.5,9.8 C29.6,9.8 28.8,9.6 28.2,9.2 Z" id="Path"></path>
                <polygon id="Path" points="42.8 1.3 42.8 9.7 41.2 9.7 41.2 6.1 36.9 6.1 36.9 9.7 35.3 9.7 35.3 1.3 36.9 1.3 36.9 4.8 41.2 4.8 41.2 1.3"></polygon>
                <path d="M50.5,7.7 L46.3,7.7 L45.5,9.6 L43.9,9.6 L47.7,1.2 L49.2,1.2 L53,9.6 L51.4,9.6 L50.5,7.7 Z M49.9,6.5 L48.3,2.8 L46.7,6.5 L49.9,6.5 Z" id="Shape" fill-rule="nonzero"></path>
                <polygon id="Path" points="54 1.3 55.6 1.3 55.6 9.7 54 9.7"></polygon>
                <polygon id="Path" points="65.3 1.3 65.3 9.7 64 9.7 59.4 4 59.4 9.7 57.9 9.7 57.9 1.3 59.2 1.3 63.8 7 63.8 1.3"></polygon>
                <path d="M70.9,1.3 L74.6,1.3 C75.5,1.3 76.3,1.5 77,1.8 C77.7,2.1 78.2,2.6 78.6,3.3 C79,3.9 79.2,4.7 79.2,5.5 C79.2,6.3 79,7.1 78.6,7.7 C78.2,8.3 77.7,8.8 77,9.2 C76.3,9.5 75.5,9.7 74.6,9.7 L70.9,9.7 L70.9,1.3 Z M74.5,8.4 C75.1,8.4 75.7,8.3 76.1,8 C76.5,7.7 76.9,7.4 77.2,7 C77.5,6.6 77.6,6.1 77.6,5.5 C77.6,4.9 77.5,4.4 77.2,4 C76.9,3.6 76.6,3.2 76.1,3 C75.6,2.8 75.1,2.6 74.5,2.6 L72.5,2.6 L72.5,8.4 L74.5,8.4 Z" id="Shape" fill-rule="nonzero"></path>
                <path d="M87.8,6.1 C88.1,6.5 88.2,6.9 88.2,7.4 C88.2,8.1 87.9,8.7 87.4,9.1 C86.8,9.5 86,9.7 85,9.7 L80.8,9.7 L80.8,1.3 L84.7,1.3 C85.7,1.3 86.5,1.5 87,1.9 C87.5,2.3 87.8,2.8 87.8,3.5 C87.8,3.9 87.7,4.3 87.5,4.6 C87.3,4.9 87,5.2 86.7,5.3 C87.2,5.5 87.6,5.7 87.8,6.1 Z M82.3,2.5 L82.3,4.8 L84.5,4.8 C85,4.8 85.5,4.7 85.8,4.5 C86.1,4.3 86.2,4 86.2,3.6 C86.2,3.2 86.1,2.9 85.8,2.7 C85.5,2.5 85.1,2.4 84.5,2.4 L82.3,2.4 L82.3,2.5 Z M86.7,7.2 C86.7,6.4 86.1,6 84.9,6 L82.4,6 L82.4,8.4 L84.9,8.4 C86.1,8.5 86.7,8.1 86.7,7.2 Z" id="Shape" fill-rule="nonzero"></path>
                <path d="M89,12 C89.5,11.1 89.8,10.2 90.1,9.3 C90.3,8.4 90.4,7.4 90.4,6.4 C90.4,5.4 90.3,4.4 90.1,3.5 C89.9,2.6 89.5,1.7 89,0.8 L90.4,0.8 C90.9,1.5 91.2,2.4 91.5,3.3 C91.8,4.2 91.9,5.3 91.9,6.4 C91.9,7.5 91.8,8.5 91.5,9.5 C91.2,10.5 90.9,11.3 90.4,12 L89,12 Z" id="Path"></path>
            </g>
            <path d="M6.5,47.5 L265.5,47.5" id="Line_26" stroke="#FFFFFF" opacity="0.205"></path>
            <text id="OasisDB" font-family="Avenir-Medium, Avenir" font-size="12" font-weight="400" fill="#72A5B5">
                <tspan x="109" y="28">OasisDB</tspan>
            </text>
        </g>
    </g>
</svg>