<?xml version="1.0" encoding="utf-8"?>
<!-- Generator: Adobe Illustrator 22.0.1, SVG Export Plug-In . SVG Version: 6.00 Build 0)  -->
<svg version="1.1" id="Слой_1" xmlns="http://www.w3.org/2000/svg" xmlns:xlink="http://www.w3.org/1999/xlink" x="0px" y="0px"
	 viewBox="0 0 274 51" style="enable-background:new 0 0 274 51;" xml:space="preserve">
<style type="text/css">
	.st0{enable-background:new    ;}
	.st1{fill:#FFFFFF;}
	.st2{fill:#72A5B5;}
	.st3{opacity:0.205;fill:none;stroke:#FFFFFF;enable-background:new    ;}
</style>
<g id="Group_751" transform="translate(-195 1227)">
	<g class="st0">
		<path class="st1" d="M295.2-1223.4h3.7c0.9,0,1.7,0.2,2.4,0.5s1.2,0.8,1.6,1.5c0.4,0.6,0.6,1.4,0.6,2.2s-0.2,1.6-0.6,2.2
			c-0.4,0.6-0.9,1.1-1.6,1.5c-0.7,0.3-1.5,0.5-2.4,0.5h-3.7V-1223.4z M298.8-1216.3c0.6,0,1.2-0.1,1.6-0.4s0.8-0.6,1.1-1
			c0.3-0.4,0.4-0.9,0.4-1.5s-0.1-1.1-0.4-1.5c-0.3-0.4-0.6-0.8-1.1-1c-0.5-0.2-1-0.4-1.6-0.4h-2v5.8H298.8z"/>
		<path class="st1" d="M310.4-1216.9h-4.2l-0.8,1.9h-1.6l3.8-8.4h1.5l3.8,8.4h-1.6L310.4-1216.9z M309.9-1218.2l-1.6-3.7l-1.6,3.7
			H309.9z"/>
		<path class="st1" d="M315.3-1222.1h-2.8v-1.3h7.1v1.3h-2.8v7.1h-1.6V-1222.1z"/>
		<path class="st1" d="M325.8-1216.9h-4.2l-0.8,1.9h-1.6l3.8-8.4h1.5l3.8,8.4h-1.6L325.8-1216.9z M325.3-1218.2l-1.6-3.7l-1.6,3.7
			H325.3z"/>
		<path class="st1" d="M336.4-1218.6c0.3,0.4,0.4,0.8,0.4,1.3c0,0.7-0.3,1.3-0.8,1.7c-0.6,0.4-1.4,0.6-2.4,0.6h-4.2v-8.4h3.9
			c1,0,1.8,0.2,2.3,0.6c0.5,0.4,0.8,0.9,0.8,1.6c0,0.4-0.1,0.8-0.3,1.1c-0.2,0.3-0.5,0.6-0.8,0.7
			C335.8-1219.2,336.1-1219,336.4-1218.6z M330.9-1222.2v2.3h2.2c0.5,0,1-0.1,1.3-0.3c0.3-0.2,0.4-0.5,0.4-0.9
			c0-0.4-0.1-0.7-0.4-0.9s-0.7-0.3-1.3-0.3H330.9z M335.2-1217.4c0-0.8-0.6-1.2-1.8-1.2h-2.5v2.4h2.5
			C334.6-1216.2,335.2-1216.6,335.2-1217.4z"/>
		<path class="st1" d="M343.9-1216.9h-4.2l-0.8,1.9h-1.6l3.8-8.4h1.5l3.8,8.4h-1.6L343.9-1216.9z M343.4-1218.2l-1.6-3.7l-1.6,3.7
			H343.4z"/>
		<path class="st1" d="M348.2-1215.2c-0.6-0.2-1.1-0.4-1.4-0.7l0.5-1.2c0.3,0.3,0.8,0.5,1.3,0.7s1,0.3,1.5,0.3
			c0.6,0,1.1-0.1,1.4-0.3c0.3-0.2,0.5-0.5,0.5-0.8c0-0.2-0.1-0.4-0.3-0.6c-0.2-0.2-0.4-0.3-0.7-0.4c-0.3-0.1-0.6-0.2-1.1-0.3
			c-0.6-0.2-1.2-0.3-1.6-0.5c-0.4-0.2-0.7-0.4-1-0.7s-0.4-0.8-0.4-1.3c0-0.5,0.1-0.9,0.4-1.3c0.3-0.4,0.6-0.7,1.1-0.9
			c0.5-0.2,1.1-0.3,1.9-0.3c0.5,0,1,0.1,1.5,0.2c0.5,0.1,0.9,0.3,1.3,0.6l-0.5,1.2c-0.4-0.2-0.8-0.4-1.2-0.5
			c-0.4-0.1-0.8-0.2-1.2-0.2c-0.6,0-1.1,0.1-1.4,0.3s-0.5,0.5-0.5,0.8c0,0.2,0.1,0.4,0.3,0.6c0.2,0.2,0.4,0.3,0.7,0.4
			c0.3,0.1,0.6,0.2,1.1,0.3c0.6,0.1,1.1,0.3,1.5,0.5c0.4,0.2,0.7,0.4,1,0.7c0.3,0.3,0.4,0.8,0.4,1.3c0,0.5-0.1,0.9-0.4,1.3
			s-0.6,0.7-1.1,0.9s-1.1,0.3-1.9,0.3C349.4-1214.9,348.8-1215,348.2-1215.2z"/>
		<path class="st1" d="M361.3-1216.3v1.3H355v-8.4h6.1v1.3h-4.6v2.2h4.1v1.3h-4.1v2.3H361.3z"/>
	</g>
	<g class="st0">
		<path class="st2" d="M306.4-1203.1h-2.8v-1.3h7.1v1.3H308v7.1h-1.6V-1203.1z"/>
		<path class="st2" d="M311.9-1204.4h1.6v8.4h-1.6V-1204.4z"/>
		<path class="st2" d="M322.1-1197.4v1.3h-6.3v-8.4h6.1v1.3h-4.6v2.2h4.1v1.3h-4.1v2.3H322.1z"/>
		<path class="st2" d="M324.5-1196.2c-0.6-0.2-1.1-0.4-1.4-0.7l0.5-1.2c0.3,0.3,0.8,0.5,1.3,0.7s1,0.3,1.5,0.3
			c0.6,0,1.1-0.1,1.4-0.3c0.3-0.2,0.5-0.5,0.5-0.8c0-0.2-0.1-0.4-0.3-0.6c-0.2-0.2-0.4-0.3-0.7-0.4c-0.3-0.1-0.6-0.2-1.1-0.3
			c-0.6-0.2-1.2-0.3-1.6-0.5c-0.4-0.2-0.7-0.4-1-0.7s-0.4-0.8-0.4-1.3c0-0.5,0.1-0.9,0.4-1.3c0.3-0.4,0.6-0.7,1.1-0.9
			c0.5-0.2,1.1-0.3,1.9-0.3c0.5,0,1,0.1,1.5,0.2c0.5,0.1,0.9,0.3,1.3,0.6l-0.5,1.2c-0.4-0.2-0.8-0.4-1.2-0.5
			c-0.4-0.1-0.8-0.2-1.2-0.2c-0.6,0-1.1,0.1-1.4,0.3s-0.5,0.5-0.5,0.8c0,0.2,0.1,0.4,0.3,0.6c0.2,0.2,0.4,0.3,0.7,0.4
			c0.3,0.1,0.6,0.2,1.1,0.3c0.6,0.1,1.1,0.3,1.5,0.5c0.4,0.2,0.7,0.4,1,0.7c0.3,0.3,0.4,0.8,0.4,1.3c0,0.5-0.1,0.9-0.4,1.3
			s-0.6,0.7-1.1,0.9s-1.1,0.3-1.9,0.3C325.8-1195.9,325.1-1196,324.5-1196.2z"/>
		<path class="st2" d="M331.2-1196.2c-0.2-0.2-0.3-0.4-0.3-0.7c0-0.3,0.1-0.5,0.3-0.7c0.2-0.2,0.4-0.3,0.7-0.3
			c0.3,0,0.5,0.1,0.7,0.3c0.2,0.2,0.3,0.4,0.3,0.7c0,0.3-0.1,0.5-0.3,0.7c-0.2,0.2-0.4,0.3-0.7,0.3
			C331.6-1196,331.4-1196.1,331.2-1196.2z"/>
		<path class="st2" d="M334.5-1204.4h3.7c0.9,0,1.7,0.2,2.4,0.5c0.7,0.3,1.2,0.8,1.6,1.5c0.4,0.6,0.6,1.4,0.6,2.2s-0.2,1.6-0.6,2.2
			s-0.9,1.1-1.6,1.5c-0.7,0.3-1.5,0.5-2.4,0.5h-3.7V-1204.4z M338.1-1197.4c0.6,0,1.2-0.1,1.6-0.4s0.8-0.6,1.1-1
			c0.3-0.4,0.4-0.9,0.4-1.5s-0.1-1.1-0.4-1.5c-0.3-0.4-0.6-0.8-1.1-1c-0.5-0.2-1-0.4-1.6-0.4h-2v5.8H338.1z"/>
		<path class="st2" d="M351.5-1199.7c0.3,0.4,0.4,0.8,0.4,1.3c0,0.7-0.3,1.3-0.8,1.7c-0.6,0.4-1.4,0.6-2.4,0.6h-4.2v-8.4h3.9
			c1,0,1.8,0.2,2.3,0.6c0.5,0.4,0.8,0.9,0.8,1.6c0,0.4-0.1,0.8-0.3,1.1c-0.2,0.3-0.5,0.6-0.8,0.7
			C350.8-1200.3,351.2-1200,351.5-1199.7z M346-1203.2v2.3h2.2c0.5,0,1-0.1,1.3-0.3c0.3-0.2,0.4-0.5,0.4-0.9c0-0.4-0.1-0.7-0.4-0.9
			s-0.7-0.3-1.3-0.3H346z M350.3-1198.5c0-0.8-0.6-1.2-1.8-1.2H346v2.4h2.5C349.7-1197.3,350.3-1197.7,350.3-1198.5z"/>
	</g>
	<g class="st0">
		<path class="st1" d="M198-1221.6v2.6h4.1v1.3H198v3.2h-1.6v-8.4h6.1v1.3H198z"/>
		<path class="st1" d="M204.1-1222.9h1.6v8.4h-1.6V-1222.9z"/>
		<path class="st1" d="M208-1222.9h1.6v7.1h4.4v1.3h-6V-1222.9z"/>
		<path class="st1" d="M221.4-1215.8v1.3h-6.3v-8.4h6.1v1.3h-4.6v2.2h4.1v1.3h-4.1v2.3H221.4z"/>
		<path class="st1" d="M227.2-1214.7c-0.6-0.2-1.1-0.4-1.4-0.7l0.5-1.2c0.3,0.3,0.8,0.5,1.3,0.7s1,0.3,1.5,0.3
			c0.6,0,1.1-0.1,1.4-0.3c0.3-0.2,0.5-0.5,0.5-0.8c0-0.2-0.1-0.4-0.3-0.6c-0.2-0.2-0.4-0.3-0.7-0.4c-0.3-0.1-0.6-0.2-1.1-0.3
			c-0.6-0.2-1.2-0.3-1.6-0.5c-0.4-0.2-0.7-0.4-1-0.7s-0.4-0.8-0.4-1.3c0-0.5,0.1-0.9,0.4-1.3c0.3-0.4,0.6-0.7,1.1-0.9
			c0.5-0.2,1.1-0.3,1.9-0.3c0.5,0,1,0.1,1.5,0.2c0.5,0.1,0.9,0.3,1.3,0.6l-0.5,1.2c-0.4-0.2-0.8-0.4-1.2-0.5
			c-0.4-0.1-0.8-0.2-1.2-0.2c-0.6,0-1.1,0.1-1.4,0.3c-0.3,0.2-0.5,0.5-0.5,0.8c0,0.2,0.1,0.4,0.3,0.6c0.2,0.2,0.4,0.3,0.7,0.4
			s0.6,0.2,1.1,0.3c0.6,0.1,1.1,0.3,1.5,0.5c0.4,0.2,0.7,0.4,1,0.7c0.3,0.3,0.4,0.8,0.4,1.3c0,0.5-0.1,0.9-0.4,1.3s-0.6,0.7-1.1,0.9
			c-0.5,0.2-1.1,0.3-1.9,0.3C228.5-1214.4,227.8-1214.5,227.2-1214.7z"/>
		<path class="st1" d="M237.5-1217.5v3h-1.6v-2.9l-3.3-5.5h1.7l2.5,4.1l2.5-4.1h1.5L237.5-1217.5z"/>
		<path class="st1" d="M242.3-1214.7c-0.6-0.2-1.1-0.4-1.4-0.7l0.5-1.2c0.3,0.3,0.8,0.5,1.3,0.7s1,0.3,1.5,0.3
			c0.6,0,1.1-0.1,1.4-0.3c0.3-0.2,0.5-0.5,0.5-0.8c0-0.2-0.1-0.4-0.3-0.6c-0.2-0.2-0.4-0.3-0.7-0.4c-0.3-0.1-0.6-0.2-1.1-0.3
			c-0.6-0.2-1.2-0.3-1.6-0.5c-0.4-0.2-0.7-0.4-1-0.7s-0.4-0.8-0.4-1.3c0-0.5,0.1-0.9,0.4-1.3c0.3-0.4,0.6-0.7,1.1-0.9
			c0.5-0.2,1.1-0.3,1.9-0.3c0.5,0,1,0.1,1.5,0.2c0.5,0.1,0.9,0.3,1.3,0.6l-0.5,1.2c-0.4-0.2-0.8-0.4-1.2-0.5
			c-0.4-0.1-0.8-0.2-1.2-0.2c-0.6,0-1.1,0.1-1.4,0.3c-0.3,0.2-0.5,0.5-0.5,0.8c0,0.2,0.1,0.4,0.3,0.6c0.2,0.2,0.4,0.3,0.7,0.4
			s0.6,0.2,1.1,0.3c0.6,0.1,1.1,0.3,1.5,0.5c0.4,0.2,0.7,0.4,1,0.7c0.3,0.3,0.4,0.8,0.4,1.3c0,0.5-0.1,0.9-0.4,1.3s-0.6,0.7-1.1,0.9
			c-0.5,0.2-1.1,0.3-1.9,0.3C243.6-1214.4,242.9-1214.5,242.3-1214.7z"/>
		<path class="st1" d="M250.7-1221.6H248v-1.3h7.1v1.3h-2.8v7.1h-1.6V-1221.6z"/>
		<path class="st1" d="M262.6-1215.8v1.3h-6.3v-8.4h6.1v1.3h-4.6v2.2h4.1v1.3h-4.1v2.3H262.6z"/>
		<path class="st1" d="M272-1214.5l0-5.6l-2.8,4.6h-0.7l-2.8-4.5v5.5h-1.5v-8.4h1.3l3.3,5.6l3.3-5.6h1.3l0,8.4H272z"/>
	</g>
	<g class="st0">
		<path class="st2" d="M218.4-1197.3c-0.3-1-0.4-2-0.4-3.1c0-1.1,0.1-2.1,0.4-3.1c0.3-1,0.6-1.8,1.1-2.5h1.4
			c-0.5,0.9-0.8,1.8-1.1,2.7s-0.3,1.9-0.3,2.9c0,1,0.1,2,0.3,2.9s0.6,1.8,1.1,2.7h-1.4C219-1195.5,218.7-1196.3,218.4-1197.3z"/>
		<path class="st2" d="M222.3-1205.5h1.6v8.4h-1.6V-1205.5z"/>
		<path class="st2" d="M231.5-1205.1c0.5,0.2,1,0.6,1.2,1s0.4,1,0.4,1.6c0,0.6-0.1,1.1-0.4,1.6c-0.3,0.5-0.7,0.8-1.2,1
			s-1.2,0.4-1.9,0.4h-1.9v2.4h-1.6v-8.4h3.5C230.3-1205.5,231-1205.4,231.5-1205.1z M231.1-1201.2c0.4-0.3,0.5-0.7,0.5-1.2
			s-0.2-0.9-0.5-1.2c-0.4-0.3-0.9-0.4-1.5-0.4h-1.8v3.3h1.8C230.2-1200.8,230.7-1201,231.1-1201.2z"/>
		<path class="st2" d="M236.3-1204.2v2.6h4.1v1.3h-4.1v3.2h-1.6v-8.4h6.1v1.3H236.3z"/>
		<path class="st2" d="M243.1-1197.2c-0.6-0.2-1.1-0.4-1.4-0.7l0.5-1.2c0.3,0.3,0.8,0.5,1.3,0.7s1,0.3,1.5,0.3
			c0.6,0,1.1-0.1,1.4-0.3c0.3-0.2,0.5-0.5,0.5-0.8c0-0.2-0.1-0.4-0.3-0.6s-0.4-0.3-0.7-0.4c-0.3-0.1-0.6-0.2-1.1-0.3
			c-0.6-0.2-1.2-0.3-1.6-0.5c-0.4-0.2-0.7-0.4-1-0.7s-0.4-0.8-0.4-1.3c0-0.5,0.1-0.9,0.4-1.3c0.3-0.4,0.6-0.7,1.1-0.9
			c0.5-0.2,1.1-0.3,1.9-0.3c0.5,0,1,0.1,1.5,0.2c0.5,0.1,0.9,0.3,1.3,0.6l-0.5,1.2c-0.4-0.2-0.8-0.4-1.2-0.5
			c-0.4-0.1-0.8-0.2-1.2-0.2c-0.6,0-1.1,0.1-1.4,0.3c-0.3,0.2-0.5,0.5-0.5,0.8c0,0.2,0.1,0.4,0.3,0.6c0.2,0.2,0.4,0.3,0.7,0.4
			s0.6,0.2,1.1,0.3c0.6,0.1,1.1,0.3,1.5,0.5c0.4,0.2,0.7,0.4,1,0.7c0.3,0.3,0.4,0.8,0.4,1.3c0,0.5-0.1,0.9-0.4,1.3
			c-0.3,0.4-0.6,0.7-1.1,0.9c-0.5,0.2-1.1,0.3-1.9,0.3C244.3-1196.9,243.7-1197,243.1-1197.2z"/>
		<path class="st2" d="M249-1194.7c0.5-0.9,0.8-1.8,1.1-2.7c0.2-0.9,0.3-1.9,0.3-2.9c0-1-0.1-2-0.3-2.9c-0.2-0.9-0.6-1.8-1.1-2.7
			h1.4c0.5,0.7,0.8,1.6,1.1,2.5s0.4,2,0.4,3.1c0,1.1-0.1,2.1-0.4,3.1c-0.3,1-0.6,1.8-1.1,2.5H249z"/>
	</g>
	<g class="st0">
		<path class="st1" d="M388-1218.4c0.3,0.4,0.4,0.8,0.4,1.3c0,0.7-0.3,1.3-0.8,1.7c-0.6,0.4-1.4,0.6-2.4,0.6h-4.2v-8.4h3.9
			c1,0,1.8,0.2,2.3,0.6c0.5,0.4,0.8,0.9,0.8,1.6c0,0.4-0.1,0.8-0.3,1.1c-0.2,0.3-0.5,0.6-0.8,0.7
			C387.3-1219,387.7-1218.7,388-1218.4z M382.5-1221.9v2.3h2.2c0.5,0,1-0.1,1.3-0.3c0.3-0.2,0.4-0.5,0.4-0.9c0-0.4-0.1-0.7-0.4-0.9
			s-0.7-0.3-1.3-0.3H382.5z M386.8-1217.2c0-0.8-0.6-1.2-1.8-1.2h-2.5v2.4h2.5C386.2-1216,386.8-1216.4,386.8-1217.2z"/>
		<path class="st1" d="M390-1223.2h1.6v7.1h4.4v1.3h-6V-1223.2z"/>
		<path class="st1" d="M398.7-1215.2c-0.7-0.4-1.2-0.9-1.6-1.5c-0.4-0.7-0.6-1.4-0.6-2.2c0-0.8,0.2-1.6,0.6-2.2
			c0.4-0.7,0.9-1.2,1.6-1.5c0.7-0.4,1.5-0.6,2.3-0.6c0.9,0,1.6,0.2,2.3,0.6c0.7,0.4,1.2,0.9,1.6,1.5c0.4,0.7,0.6,1.4,0.6,2.2
			c0,0.8-0.2,1.6-0.6,2.2c-0.4,0.7-0.9,1.2-1.6,1.5c-0.7,0.4-1.5,0.6-2.3,0.6C400.1-1214.6,399.4-1214.8,398.7-1215.2z
			 M402.5-1216.4c0.4-0.3,0.8-0.6,1.1-1.1c0.3-0.5,0.4-1,0.4-1.5c0-0.6-0.1-1.1-0.4-1.5c-0.3-0.5-0.6-0.8-1.1-1.1s-1-0.4-1.5-0.4
			c-0.6,0-1.1,0.1-1.5,0.4c-0.4,0.3-0.8,0.6-1.1,1.1s-0.4,1-0.4,1.5c0,0.6,0.1,1.1,0.4,1.5s0.6,0.8,1.1,1.1c0.4,0.3,1,0.4,1.5,0.4
			C401.6-1216,402.1-1216.1,402.5-1216.4z"/>
		<path class="st1" d="M408.8-1215.2c-0.7-0.4-1.2-0.9-1.6-1.5c-0.4-0.7-0.6-1.4-0.6-2.2c0-0.8,0.2-1.6,0.6-2.2s0.9-1.2,1.6-1.5
			c0.7-0.4,1.5-0.6,2.3-0.6c0.7,0,1.3,0.1,1.9,0.4s1,0.6,1.4,1l-1,0.9c-0.6-0.7-1.4-1-2.2-1c-0.6,0-1.1,0.1-1.5,0.4
			c-0.5,0.3-0.8,0.6-1.1,1.1s-0.4,1-0.4,1.5c0,0.6,0.1,1.1,0.4,1.5s0.6,0.8,1.1,1c0.5,0.3,1,0.4,1.5,0.4c0.9,0,1.6-0.3,2.2-1l1,1
			c-0.4,0.5-0.9,0.8-1.4,1s-1.2,0.4-1.9,0.4C410.2-1214.6,409.5-1214.8,408.8-1215.2z"/>
		<path class="st1" d="M418.8-1218.3l-1.3,1.4v2.1h-1.6v-8.4h1.6v4.3l4.2-4.3h1.8l-3.5,3.8l3.7,4.6h-1.8L418.8-1218.3z"/>
		<path class="st1" d="M425.9-1215.2c-0.7-0.4-1.2-0.9-1.6-1.5c-0.4-0.7-0.6-1.4-0.6-2.2c0-0.8,0.2-1.6,0.6-2.2s0.9-1.2,1.6-1.5
			c0.7-0.4,1.5-0.6,2.3-0.6c0.7,0,1.3,0.1,1.9,0.4s1,0.6,1.4,1l-1,0.9c-0.6-0.7-1.4-1-2.2-1c-0.6,0-1.1,0.1-1.5,0.4
			c-0.5,0.3-0.8,0.6-1.1,1.1s-0.4,1-0.4,1.5c0,0.6,0.1,1.1,0.4,1.5s0.6,0.8,1.1,1c0.5,0.3,1,0.4,1.5,0.4c0.9,0,1.6-0.3,2.2-1l1,1
			c-0.4,0.5-0.9,0.8-1.4,1s-1.2,0.4-1.9,0.4C427.4-1214.6,426.6-1214.8,425.9-1215.2z"/>
		<path class="st1" d="M440.5-1223.2v8.4H439v-3.6h-4.3v3.6h-1.6v-8.4h1.6v3.5h4.3v-3.5H440.5z"/>
		<path class="st1" d="M448.2-1216.7H444l-0.8,1.9h-1.6l3.8-8.4h1.5l3.8,8.4h-1.6L448.2-1216.7z M447.7-1217.9l-1.6-3.7l-1.6,3.7
			H447.7z"/>
		<path class="st1" d="M451.8-1223.2h1.6v8.4h-1.6V-1223.2z"/>
		<path class="st1" d="M463.1-1223.2v8.4h-1.3l-4.6-5.7v5.7h-1.5v-8.4h1.3l4.6,5.7v-5.7H463.1z"/>
	</g>
	<g class="st0">
		<path class="st2" d="M376.4-1197.5c-0.3-1-0.4-2-0.4-3.1c0-1.1,0.1-2.1,0.4-3.1c0.3-1,0.6-1.8,1.1-2.5h1.4
			c-0.5,0.9-0.8,1.8-1.1,2.7c-0.2,0.9-0.3,1.9-0.3,2.9c0,1,0.1,2,0.3,2.9c0.2,0.9,0.6,1.8,1.1,2.7h-1.4
			C377-1195.7,376.7-1196.6,376.4-1197.5z"/>
		<path class="st2" d="M387.4-1200.9c0.3,0.4,0.4,0.8,0.4,1.3c0,0.7-0.3,1.3-0.8,1.7c-0.6,0.4-1.4,0.6-2.4,0.6h-4.2v-8.4h3.9
			c1,0,1.8,0.2,2.3,0.6c0.5,0.4,0.8,0.9,0.8,1.6c0,0.4-0.1,0.8-0.3,1.1c-0.2,0.3-0.5,0.6-0.8,0.7
			C386.8-1201.5,387.1-1201.3,387.4-1200.9z M381.9-1204.5v2.3h2.2c0.5,0,1-0.1,1.3-0.3c0.3-0.2,0.4-0.5,0.4-0.9
			c0-0.4-0.1-0.7-0.4-0.9s-0.7-0.3-1.3-0.3H381.9z M386.2-1199.8c0-0.8-0.6-1.2-1.8-1.2h-2.5v2.4h2.5
			C385.6-1198.5,386.2-1198.9,386.2-1199.8z"/>
		<path class="st2" d="M389.5-1205.7h1.6v8.4h-1.6V-1205.7z"/>
		<path class="st2" d="M399-1201.6h1.5v3.3c-0.4,0.3-0.9,0.6-1.5,0.8c-0.6,0.2-1.2,0.3-1.8,0.3c-0.9,0-1.6-0.2-2.3-0.6
			c-0.7-0.4-1.2-0.9-1.6-1.5c-0.4-0.7-0.6-1.4-0.6-2.2c0-0.8,0.2-1.6,0.6-2.2c0.4-0.7,0.9-1.2,1.6-1.5c0.7-0.4,1.5-0.6,2.3-0.6
			c0.7,0,1.3,0.1,1.9,0.3c0.6,0.2,1.1,0.6,1.5,1l-1,1c-0.6-0.6-1.4-1-2.3-1c-0.6,0-1.1,0.1-1.6,0.4s-0.8,0.6-1.1,1
			c-0.3,0.4-0.4,1-0.4,1.5c0,0.6,0.1,1.1,0.4,1.5c0.3,0.4,0.6,0.8,1.1,1.1s1,0.4,1.6,0.4c0.7,0,1.2-0.1,1.7-0.4V-1201.6z"/>
		<path class="st2" d="M404.2-1197.8c-0.7-0.4-1.2-0.9-1.6-1.5c-0.4-0.7-0.6-1.4-0.6-2.2c0-0.8,0.2-1.6,0.6-2.2
			c0.4-0.7,0.9-1.2,1.6-1.5c0.7-0.4,1.5-0.6,2.3-0.6c0.7,0,1.3,0.1,1.9,0.4c0.6,0.2,1,0.6,1.4,1l-1,0.9c-0.6-0.7-1.4-1-2.2-1
			c-0.6,0-1.1,0.1-1.5,0.4s-0.8,0.6-1.1,1.1s-0.4,1-0.4,1.5c0,0.6,0.1,1.1,0.4,1.5c0.3,0.4,0.6,0.8,1.1,1s1,0.4,1.5,0.4
			c0.9,0,1.6-0.3,2.2-1l1,1c-0.4,0.5-0.9,0.8-1.4,1c-0.6,0.2-1.2,0.4-1.9,0.4C405.6-1197.2,404.8-1197.4,404.2-1197.8z"/>
		<path class="st2" d="M418.8-1205.7v8.4h-1.6v-3.6h-4.3v3.6h-1.6v-8.4h1.6v3.5h4.3v-3.5H418.8z"/>
		<path class="st2" d="M426.5-1199.3h-4.2l-0.8,1.9h-1.6l3.8-8.4h1.5l3.8,8.4h-1.6L426.5-1199.3z M425.9-1200.5l-1.6-3.7l-1.6,3.7
			H425.9z"/>
		<path class="st2" d="M430-1205.7h1.6v8.4H430V-1205.7z"/>
		<path class="st2" d="M441.3-1205.7v8.4H440l-4.6-5.7v5.7h-1.5v-8.4h1.3l4.6,5.7v-5.7H441.3z"/>
		<path class="st2" d="M446.9-1205.7h3.7c0.9,0,1.7,0.2,2.4,0.5c0.7,0.3,1.2,0.8,1.6,1.5c0.4,0.6,0.6,1.4,0.6,2.2
			c0,0.8-0.2,1.6-0.6,2.2c-0.4,0.6-0.9,1.1-1.6,1.5c-0.7,0.3-1.5,0.5-2.4,0.5h-3.7V-1205.7z M450.5-1198.6c0.6,0,1.2-0.1,1.6-0.4
			s0.8-0.6,1.1-1c0.3-0.4,0.4-0.9,0.4-1.5c0-0.6-0.1-1.1-0.4-1.5c-0.3-0.4-0.6-0.8-1.1-1c-0.5-0.2-1-0.4-1.6-0.4h-2v5.8H450.5z"/>
		<path class="st2" d="M463.8-1200.9c0.3,0.4,0.4,0.8,0.4,1.3c0,0.7-0.3,1.3-0.8,1.7c-0.6,0.4-1.4,0.6-2.4,0.6h-4.2v-8.4h3.9
			c1,0,1.8,0.2,2.3,0.6c0.5,0.4,0.8,0.9,0.8,1.6c0,0.4-0.1,0.8-0.3,1.1c-0.2,0.3-0.5,0.6-0.8,0.7
			C463.2-1201.5,463.6-1201.3,463.8-1200.9z M458.3-1204.5v2.3h2.2c0.5,0,1-0.1,1.3-0.3c0.3-0.2,0.4-0.5,0.4-0.9
			c0-0.4-0.1-0.7-0.4-0.9s-0.7-0.3-1.3-0.3H458.3z M462.7-1199.8c0-0.8-0.6-1.2-1.8-1.2h-2.5v2.4h2.5
			C462.1-1198.5,462.7-1198.9,462.7-1199.8z"/>
		<path class="st2" d="M465-1195c0.5-0.9,0.8-1.8,1.1-2.7c0.2-0.9,0.3-1.9,0.3-2.9c0-1-0.1-2-0.3-2.9c-0.2-0.9-0.6-1.8-1.1-2.7h1.4
			c0.5,0.7,0.8,1.6,1.1,2.5s0.4,2,0.4,3.1c0,1.1-0.1,2.1-0.4,3.1c-0.3,1-0.6,1.8-1.1,2.5H465z"/>
	</g>
	<line id="Line_26" class="st3" x1="202.5" y1="-1176.5" x2="461.5" y2="-1176.5"/>
</g>
</svg>
