<?xml version="1.0" encoding="utf-8"?>
<!-- Generator: Adobe Illustrator 22.0.1, SVG Export Plug-In . SVG Version: 6.00 Build 0)  -->
<svg version="1.1" id="Слой_1" xmlns="http://www.w3.org/2000/svg" xmlns:xlink="http://www.w3.org/1999/xlink" x="0px" y="0px"
	 viewBox="0 0 259 702.1" style="enable-background:new 0 0 259 702.1;" xml:space="preserve">
<style type="text/css">
	.st0{fill:#72A5B5;}
	.st1{fill:none;stroke:#72A5B5;}
	.st2{fill:none;}
	.st3{fill:#ADD1DD;}
	.st4{fill:none;stroke:#ADD1DD;}
	.st5{enable-background:new    ;}
	.st6{fill:#FFFFFF;}
	.st7{opacity:0.205;fill:none;stroke:#FFFFFF;enable-background:new    ;}
</style>
<g id="Group_752" transform="translate(-195 1227)">
	<g id="Group_742">
		<g id="Ellipse_388" transform="translate(34 4057.185)">
			<circle class="st0" cx="168.7" cy="-5246.7" r="4.2"/>
			<circle class="st1" cx="168.7" cy="-5246.7" r="3.7"/>
		</g>
		<g id="Ellipse_389" transform="translate(50.844 4057.185)">
			<circle class="st0" cx="168.7" cy="-5246.7" r="4.2"/>
			<circle class="st1" cx="168.7" cy="-5246.7" r="3.7"/>
		</g>
		<g id="Ellipse_390" transform="translate(67.688 4057.185)">
			<circle class="st2" cx="168.7" cy="-5246.7" r="4.2"/>
			<circle class="st1" cx="168.7" cy="-5246.7" r="3.7"/>
		</g>
		<g id="Path_908" transform="translate(84.532 4057.185)">
			<path class="st2" d="M168.7-5250.9c2.3,0,4.2,1.9,4.2,4.2s-1.9,4.2-4.2,4.2s-4.2-1.9-4.2-4.2c0,0,0,0,0,0
				C164.5-5249.1,166.4-5250.9,168.7-5250.9z"/>
			<path class="st0" d="M168.7-5243.5c1.8,0,3.2-1.4,3.2-3.2s-1.4-3.2-3.2-3.2c-1.8,0-3.2,1.4-3.2,3.2S166.9-5243.5,168.7-5243.5
				 M168.7-5242.5c-2.3,0-4.2-1.9-4.2-4.2s1.9-4.2,4.2-4.2s4.2,1.9,4.2,4.2S171-5242.5,168.7-5242.5z"/>
		</g>
		<g id="Ellipse_415" transform="translate(220 4057.185)">
			<circle class="st0" cx="168.7" cy="-5246.7" r="4.2"/>
			<circle class="st1" cx="168.7" cy="-5246.7" r="3.7"/>
		</g>
		<g id="Ellipse_416" transform="translate(236.807 4057.185)">
			<circle class="st0" cx="168.7" cy="-5246.7" r="4.2"/>
			<circle class="st1" cx="168.7" cy="-5246.7" r="3.7"/>
		</g>
		<g id="Ellipse_417" transform="translate(253.613 4057.185)">
			<circle class="st0" cx="168.7" cy="-5246.7" r="4.2"/>
			<circle class="st1" cx="168.7" cy="-5246.7" r="3.7"/>
		</g>
		<g id="Ellipse_418" transform="translate(270.42 4057.185)">
			<circle class="st2" cx="168.7" cy="-5246.7" r="4.2"/>
			<circle class="st1" cx="168.7" cy="-5246.7" r="3.7"/>
		</g>
		<g id="Ellipse_442" transform="translate(131 4057.198)">
			<circle class="st3" cx="168.7" cy="-5246.7" r="4.2"/>
			<circle class="st4" cx="168.7" cy="-5246.7" r="3.7"/>
		</g>
		<g id="Ellipse_443" transform="translate(147.843 4057.198)">
			<circle class="st3" cx="168.7" cy="-5246.7" r="4.2"/>
			<circle class="st4" cx="168.7" cy="-5246.7" r="3.7"/>
		</g>
		<g id="Ellipse_444" transform="translate(164.687 4057.198)">
			<circle class="st3" cx="168.7" cy="-5246.7" r="4.2"/>
			<circle class="st4" cx="168.7" cy="-5246.7" r="3.7"/>
		</g>
		<g id="Ellipse_445" transform="translate(181.53 4057.198)">
			<circle class="st3" cx="168.7" cy="-5246.7" r="4.2"/>
			<circle class="st4" cx="168.7" cy="-5246.7" r="3.7"/>
		</g>
		<g class="st5">
			<path class="st6" d="M271.1-1222.8h4c1,0,2,0.2,2.7,0.6c0.8,0.4,1.4,1,1.8,1.7c0.4,0.7,0.7,1.6,0.7,2.5c0,1-0.2,1.8-0.7,2.5
				c-0.4,0.7-1.1,1.3-1.8,1.7c-0.8,0.4-1.7,0.6-2.7,0.6h-4V-1222.8z M275-1213.9c0.9,0,1.6-0.2,2.3-0.5s1.1-0.8,1.5-1.4
				c0.4-0.6,0.5-1.3,0.5-2.1c0-0.8-0.2-1.5-0.5-2.1c-0.4-0.6-0.9-1.1-1.5-1.4s-1.4-0.5-2.3-0.5h-2.9v8H275z"/>
			<path class="st6" d="M283.4-1222.8h1v9.8h-1V-1222.8z"/>
			<path class="st6" d="M288.9-1213.3c-0.7-0.2-1.2-0.5-1.5-0.9l0.4-0.8c0.4,0.4,0.8,0.6,1.4,0.9c0.6,0.2,1.2,0.3,1.8,0.3
				c0.9,0,1.5-0.2,2-0.5c0.4-0.3,0.7-0.7,0.7-1.3c0-0.4-0.1-0.7-0.4-0.9c-0.2-0.2-0.5-0.4-0.9-0.5c-0.3-0.1-0.8-0.3-1.4-0.4
				c-0.7-0.2-1.3-0.4-1.8-0.5c-0.4-0.2-0.8-0.4-1.1-0.8c-0.3-0.4-0.5-0.8-0.5-1.4c0-0.5,0.1-0.9,0.4-1.4c0.3-0.4,0.7-0.7,1.2-1
				c0.5-0.2,1.2-0.4,2-0.4c0.6,0,1.1,0.1,1.6,0.2c0.5,0.2,1,0.4,1.4,0.6l-0.4,0.8c-0.4-0.3-0.8-0.5-1.3-0.6
				c-0.5-0.1-0.9-0.2-1.4-0.2c-0.9,0-1.5,0.2-1.9,0.5s-0.7,0.8-0.7,1.3c0,0.4,0.1,0.7,0.4,0.9c0.2,0.2,0.5,0.4,0.9,0.5
				s0.8,0.3,1.4,0.4c0.7,0.2,1.3,0.4,1.7,0.5s0.8,0.4,1.1,0.8c0.3,0.3,0.5,0.8,0.5,1.4c0,0.5-0.1,0.9-0.4,1.4
				c-0.3,0.4-0.7,0.7-1.2,1c-0.6,0.2-1.2,0.4-2,0.4C290.3-1212.9,289.6-1213,288.9-1213.3z"/>
			<path class="st6" d="M299.4-1221.9h-3.4v-0.9h7.9v0.9h-3.4v8.9h-1V-1221.9z"/>
			<path class="st6" d="M312.9-1213l-2.2-3.2c-0.3,0-0.5,0-0.8,0h-2.6v3.1h-1v-9.8h3.7c1.3,0,2.2,0.3,2.9,0.9
				c0.7,0.6,1.1,1.4,1.1,2.5c0,0.8-0.2,1.4-0.6,1.9s-0.9,0.9-1.7,1.1l2.4,3.4H312.9z M312.1-1217.6c0.5-0.4,0.8-1,0.8-1.8
				c0-0.8-0.3-1.4-0.8-1.8s-1.3-0.6-2.2-0.6h-2.6v4.9h2.6C310.8-1217,311.5-1217.2,312.1-1217.6z"/>
			<path class="st6" d="M317-1222.8h1v9.8h-1V-1222.8z"/>
			<path class="st6" d="M329.6-1217.2c0.3,0.4,0.5,0.9,0.5,1.6c0,0.8-0.3,1.5-0.9,1.9c-0.6,0.5-1.5,0.7-2.8,0.7h-4.5v-9.8h4.2
				c1.1,0,1.9,0.2,2.5,0.7c0.6,0.4,0.9,1.1,0.9,1.9c0,0.5-0.1,1-0.4,1.4c-0.3,0.4-0.6,0.7-1.1,0.8
				C328.8-1217.9,329.3-1217.6,329.6-1217.2z M323-1221.9v3.6h3.1c0.8,0,1.4-0.2,1.8-0.5c0.4-0.3,0.6-0.7,0.6-1.3s-0.2-1-0.6-1.3
				c-0.4-0.3-1-0.5-1.8-0.5H323z M328.4-1214.3c0.4-0.3,0.7-0.8,0.7-1.4c0-1.2-0.9-1.8-2.7-1.8H323v3.7h3.5
				C327.3-1213.9,328-1214,328.4-1214.3z"/>
			<path class="st6" d="M334.2-1214c-0.7-0.7-1.1-1.8-1.1-3.2v-5.6h1v5.6c0,1.1,0.3,2,0.8,2.5c0.5,0.6,1.3,0.8,2.2,0.8
				c1,0,1.7-0.3,2.2-0.8c0.5-0.6,0.8-1.4,0.8-2.5v-5.6h1v5.6c0,1.4-0.4,2.4-1.1,3.2c-0.7,0.7-1.7,1.1-3,1.1S334.9-1213.3,334.2-1214
				z"/>
			<path class="st6" d="M346.7-1221.9h-3.4v-0.9h7.9v0.9h-3.4v8.9h-1V-1221.9z"/>
			<path class="st6" d="M353.5-1222.8h1v9.8h-1V-1222.8z"/>
			<path class="st6" d="M360.1-1213.6c-0.8-0.4-1.4-1-1.8-1.8c-0.4-0.8-0.7-1.6-0.7-2.5c0-0.9,0.2-1.8,0.7-2.5s1.1-1.4,1.8-1.8
				c0.8-0.4,1.7-0.7,2.6-0.7s1.8,0.2,2.6,0.6c0.8,0.4,1.4,1,1.8,1.8c0.4,0.8,0.7,1.6,0.7,2.6c0,0.9-0.2,1.8-0.7,2.6
				c-0.4,0.8-1.1,1.4-1.8,1.8c-0.8,0.4-1.7,0.6-2.6,0.6S360.9-1213.1,360.1-1213.6z M364.8-1214.4c0.6-0.3,1.1-0.8,1.5-1.5
				c0.4-0.6,0.5-1.3,0.5-2.1c0-0.8-0.2-1.5-0.5-2.1c-0.4-0.6-0.8-1.1-1.5-1.5c-0.6-0.4-1.3-0.5-2.1-0.5c-0.8,0-1.5,0.2-2.1,0.5
				c-0.6,0.3-1.1,0.8-1.5,1.5c-0.4,0.6-0.5,1.3-0.5,2.1c0,0.8,0.2,1.5,0.5,2.1c0.4,0.6,0.9,1.1,1.5,1.5c0.6,0.4,1.3,0.5,2.1,0.5
				C363.5-1213.8,364.2-1214,364.8-1214.4z"/>
			<path class="st6" d="M379.1-1222.8v9.8h-0.9l-6.3-8v8h-1v-9.8h0.9l6.3,8v-8H379.1z"/>
		</g>
	</g>
	<line id="Line_27" class="st7" x1="195" y1="-1169.4" x2="454" y2="-1169.4"/>
	<line id="Line_28" class="st7" x1="195" y1="-1096.4" x2="454" y2="-1096.4"/>
	<line id="Line_29" class="st7" x1="195" y1="-1004.4" x2="454" y2="-1004.4"/>
	<line id="Line_30" class="st7" x1="195" y1="-933.4" x2="454" y2="-933.4"/>
	<line id="Line_31" class="st7" x1="195" y1="-855.4" x2="454" y2="-855.4"/>
	<line id="Line_32" class="st7" x1="195" y1="-757.4" x2="454" y2="-757.4"/>
	<line id="Line_33" class="st7" x1="195" y1="-678.4" x2="454" y2="-678.4"/>
	<line id="Line_34" class="st7" x1="195" y1="-525.4" x2="454" y2="-525.4"/>
	<g id="Group_743">
		<g id="Ellipse_387" transform="translate(180.53 4129.307)">
			<circle class="st3" cx="168.7" cy="-5246.7" r="4.2"/>
			<circle class="st4" cx="168.7" cy="-5246.7" r="3.7"/>
		</g>
		<g id="Ellipse_391" transform="translate(34 4129.295)">
			<circle class="st0" cx="168.7" cy="-5246.7" r="4.2"/>
			<circle class="st1" cx="168.7" cy="-5246.7" r="3.7"/>
		</g>
		<g id="Ellipse_392" transform="translate(50.844 4129.295)">
			<circle class="st0" cx="168.7" cy="-5246.7" r="4.2"/>
			<circle class="st1" cx="168.7" cy="-5246.7" r="3.7"/>
		</g>
		<g id="Ellipse_393" transform="translate(67.688 4129.295)">
			<circle class="st0" cx="168.7" cy="-5246.7" r="4.2"/>
			<circle class="st1" cx="168.7" cy="-5246.7" r="3.7"/>
		</g>
		<g id="Ellipse_394" transform="translate(84.532 4129.295)">
			<circle class="st0" cx="168.7" cy="-5246.7" r="4.2"/>
			<circle class="st1" cx="168.7" cy="-5246.7" r="3.7"/>
		</g>
		<g id="Ellipse_419" transform="translate(220 4129.201)">
			<circle class="st0" cx="168.7" cy="-5246.7" r="4.2"/>
			<circle class="st1" cx="168.7" cy="-5246.7" r="3.7"/>
		</g>
		<g id="Ellipse_420" transform="translate(236.807 4129.201)">
			<circle class="st0" cx="168.7" cy="-5246.7" r="4.2"/>
			<circle class="st1" cx="168.7" cy="-5246.7" r="3.7"/>
		</g>
		<g id="Ellipse_421" transform="translate(253.613 4129.201)">
			<circle class="st0" cx="168.7" cy="-5246.7" r="4.2"/>
			<circle class="st1" cx="168.7" cy="-5246.7" r="3.7"/>
		</g>
		<g id="Path_909" transform="translate(270.42 4129.201)">
			<path class="st2" d="M168.7-5250.9c2.3,0,4.2,1.9,4.2,4.2c0,2.3-1.9,4.2-4.2,4.2s-4.2-1.9-4.2-4.2
				C164.5-5249.1,166.4-5250.9,168.7-5250.9C168.7-5250.9,168.7-5250.9,168.7-5250.9z"/>
			<path class="st0" d="M168.7-5243.5c1.8,0,3.2-1.4,3.2-3.2c0-1.8-1.4-3.2-3.2-3.2s-3.2,1.4-3.2,3.2
				C165.5-5245,166.9-5243.5,168.7-5243.5 M168.7-5242.5c-2.3,0-4.2-1.9-4.2-4.2s1.9-4.2,4.2-4.2s4.2,1.9,4.2,4.2
				S171-5242.5,168.7-5242.5z"/>
		</g>
		<g id="Ellipse_446" transform="translate(131 4129.307)">
			<circle class="st3" cx="168.7" cy="-5246.7" r="4.2"/>
			<circle class="st4" cx="168.7" cy="-5246.7" r="3.7"/>
		</g>
		<g id="Ellipse_447" transform="translate(147.843 4129.307)">
			<circle class="st3" cx="168.7" cy="-5246.7" r="4.2"/>
			<circle class="st4" cx="168.7" cy="-5246.7" r="3.7"/>
		</g>
		<g id="Ellipse_448" transform="translate(164.687 4129.307)">
			<circle class="st3" cx="168.7" cy="-5246.7" r="4.2"/>
			<circle class="st4" cx="168.7" cy="-5246.7" r="3.7"/>
		</g>
		<g class="st5">
			<path class="st6" d="M289.7-1149.8c0.7,0.6,1.1,1.4,1.1,2.5c0,1-0.4,1.9-1.1,2.5c-0.7,0.6-1.7,0.9-2.9,0.9h-2.6v3.1h-1v-9.8h3.7
				C288-1150.6,289-1150.4,289.7-1149.8z M289-1145.5c0.5-0.4,0.8-1,0.8-1.8c0-0.8-0.3-1.4-0.8-1.8s-1.3-0.6-2.2-0.6h-2.6v4.9h2.6
				C287.7-1144.9,288.4-1145.1,289-1145.5z"/>
			<path class="st6" d="M294.8-1141.9c-0.7-0.7-1.1-1.8-1.1-3.2v-5.6h1v5.6c0,1.1,0.3,2,0.8,2.5c0.5,0.6,1.3,0.8,2.2,0.8
				c1,0,1.7-0.3,2.2-0.8c0.5-0.6,0.8-1.4,0.8-2.5v-5.6h1v5.6c0,1.4-0.4,2.4-1.1,3.2c-0.7,0.7-1.7,1.1-3,1.1
				C296.5-1140.8,295.5-1141.1,294.8-1141.9z"/>
			<path class="st6" d="M313.2-1145.1c0.3,0.4,0.5,0.9,0.5,1.6c0,0.8-0.3,1.5-0.9,1.9c-0.6,0.5-1.5,0.7-2.8,0.7h-4.5v-9.8h4.2
				c1.1,0,1.9,0.2,2.5,0.7c0.6,0.4,0.9,1.1,0.9,1.9c0,0.5-0.1,1-0.4,1.4c-0.3,0.4-0.6,0.7-1.1,0.8
				C312.4-1145.8,312.9-1145.5,313.2-1145.1z M306.6-1149.8v3.6h3.1c0.8,0,1.4-0.2,1.8-0.5c0.4-0.3,0.6-0.7,0.6-1.3s-0.2-1-0.6-1.3
				c-0.4-0.3-1-0.5-1.8-0.5H306.6z M312-1142.2c0.4-0.3,0.7-0.8,0.7-1.4c0-1.2-0.9-1.8-2.7-1.8h-3.5v3.7h3.5
				C310.9-1141.7,311.6-1141.9,312-1142.2z"/>
			<path class="st6" d="M316.8-1150.6h1v8.9h5.5v0.9h-6.5V-1150.6z"/>
			<path class="st6" d="M325.8-1150.6h1v9.8h-1V-1150.6z"/>
			<path class="st6" d="M330.7-1150.6h1v9.8h-1V-1150.6z"/>
			<path class="st6" d="M337.3-1141.4c-0.8-0.4-1.4-1-1.8-1.8s-0.7-1.6-0.7-2.6c0-0.9,0.2-1.8,0.7-2.6s1.1-1.4,1.8-1.8
				c0.8-0.4,1.7-0.6,2.6-0.6c0.7,0,1.4,0.1,2,0.4c0.6,0.2,1.1,0.6,1.6,1.1l-0.7,0.7c-0.8-0.8-1.7-1.2-2.9-1.2
				c-0.8,0-1.5,0.2-2.1,0.5s-1.1,0.8-1.5,1.5c-0.4,0.6-0.5,1.3-0.5,2.1c0,0.8,0.2,1.5,0.5,2.1s0.9,1.1,1.5,1.5s1.3,0.5,2.1,0.5
				c1.2,0,2.1-0.4,2.9-1.2l0.7,0.7c-0.4,0.5-1,0.8-1.6,1.1s-1.3,0.4-2,0.4C338.9-1140.8,338-1141,337.3-1141.4z"/>
			<path class="st6" d="M346.4-1150.6h1v9.8h-1V-1150.6z"/>
			<path class="st6" d="M353.2-1149.8h-3.4v-0.9h7.9v0.9h-3.4v8.9h-1V-1149.8z"/>
			<path class="st6" d="M363.3-1144.2v3.4h-1v-3.4l-3.9-6.4h1.1l3.4,5.5l3.4-5.5h1L363.3-1144.2z"/>
		</g>
	</g>
	<g id="Group_744">
		<g id="Ellipse_449" transform="translate(131 4221.415)">
			<circle class="st3" cx="168.7" cy="-5246.7" r="4.2"/>
			<circle class="st4" cx="168.7" cy="-5246.7" r="3.7"/>
		</g>
		<g id="Ellipse_450" transform="translate(147.843 4221.415)">
			<circle class="st3" cx="168.7" cy="-5246.7" r="4.2"/>
			<circle class="st4" cx="168.7" cy="-5246.7" r="3.7"/>
		</g>
		<g id="Ellipse_451" transform="translate(164.687 4221.415)">
			<circle class="st3" cx="168.7" cy="-5246.7" r="4.2"/>
			<circle class="st4" cx="168.7" cy="-5246.7" r="3.7"/>
		</g>
		<g id="Ellipse_452" transform="translate(181.53 4221.415)">
			<circle class="st3" cx="168.7" cy="-5246.7" r="4.2"/>
			<circle class="st4" cx="168.7" cy="-5246.7" r="3.7"/>
		</g>
		<g id="Ellipse_453" transform="translate(34 4221.405)">
			<circle class="st0" cx="168.7" cy="-5246.7" r="4.2"/>
			<circle class="st1" cx="168.7" cy="-5246.7" r="3.7"/>
		</g>
		<g id="Ellipse_454" transform="translate(50.844 4221.405)">
			<circle class="st0" cx="168.7" cy="-5246.7" r="4.2"/>
			<circle class="st1" cx="168.7" cy="-5246.7" r="3.7"/>
		</g>
		<g id="Ellipse_455" transform="translate(67.688 4221.405)">
			<circle class="st0" cx="168.7" cy="-5246.7" r="4.2"/>
			<circle class="st1" cx="168.7" cy="-5246.7" r="3.7"/>
		</g>
		<g id="Ellipse_456" transform="translate(84.532 4221.405)">
			<circle class="st0" cx="168.7" cy="-5246.7" r="4.2"/>
			<circle class="st1" cx="168.7" cy="-5246.7" r="3.7"/>
		</g>
		<g id="Ellipse_457" transform="translate(220 4221.218)">
			<circle class="st0" cx="168.7" cy="-5246.7" r="4.2"/>
			<circle class="st1" cx="168.7" cy="-5246.7" r="3.7"/>
		</g>
		<g id="Ellipse_458" transform="translate(236.807 4221.218)">
			<circle class="st2" cx="168.7" cy="-5246.7" r="4.2"/>
			<circle class="st1" cx="168.7" cy="-5246.7" r="3.7"/>
		</g>
		<g id="Ellipse_459" transform="translate(253.613 4221.218)">
			<circle class="st2" cx="168.7" cy="-5246.7" r="4.2"/>
			<circle class="st1" cx="168.7" cy="-5246.7" r="3.7"/>
		</g>
		<g id="Ellipse_460" transform="translate(270.42 4221.218)">
			<circle class="st2" cx="168.7" cy="-5246.7" r="4.2"/>
			<circle class="st1" cx="168.7" cy="-5246.7" r="3.7"/>
		</g>
		<g class="st5">
			<path class="st6" d="M205.8-1067.7l-2.2-3.2c-0.3,0-0.5,0-0.8,0h-2.6v3.1h-1v-9.8h3.7c1.3,0,2.2,0.3,2.9,0.9
				c0.7,0.6,1.1,1.4,1.1,2.5c0,0.8-0.2,1.4-0.6,1.9s-0.9,0.9-1.7,1.1l2.4,3.4H205.8z M205-1072.3c0.5-0.4,0.8-1,0.8-1.8
				c0-0.8-0.3-1.4-0.8-1.8s-1.3-0.6-2.2-0.6h-2.6v4.9h2.6C203.7-1071.7,204.5-1071.9,205-1072.3z"/>
			<path class="st6" d="M216.9-1068.6v0.9h-6.9v-9.8h6.7v0.9H211v3.5h5.1v0.9H211v3.6H216.9z"/>
			<path class="st6" d="M220.6-1068c-0.7-0.2-1.2-0.5-1.5-0.9l0.4-0.8c0.4,0.4,0.8,0.6,1.4,0.9c0.6,0.2,1.2,0.3,1.8,0.3
				c0.9,0,1.5-0.2,2-0.5c0.4-0.3,0.7-0.7,0.7-1.3c0-0.4-0.1-0.7-0.4-0.9c-0.2-0.2-0.5-0.4-0.9-0.5c-0.3-0.1-0.8-0.3-1.4-0.4
				c-0.7-0.2-1.3-0.4-1.8-0.5c-0.4-0.2-0.8-0.4-1.1-0.8c-0.3-0.4-0.5-0.8-0.5-1.4c0-0.5,0.1-0.9,0.4-1.4c0.3-0.4,0.7-0.7,1.2-1
				c0.5-0.2,1.2-0.4,2-0.4c0.6,0,1.1,0.1,1.6,0.2c0.5,0.2,1,0.4,1.4,0.6l-0.4,0.8c-0.4-0.3-0.8-0.5-1.3-0.6
				c-0.5-0.1-0.9-0.2-1.4-0.2c-0.9,0-1.5,0.2-1.9,0.5s-0.7,0.8-0.7,1.3c0,0.4,0.1,0.7,0.4,0.9c0.2,0.2,0.5,0.4,0.9,0.5
				s0.8,0.3,1.4,0.4c0.7,0.2,1.3,0.4,1.7,0.5s0.8,0.4,1.1,0.8c0.3,0.3,0.5,0.8,0.5,1.4c0,0.5-0.1,0.9-0.4,1.4
				c-0.3,0.4-0.7,0.7-1.2,1c-0.6,0.2-1.2,0.4-2,0.4C222-1067.6,221.3-1067.7,220.6-1068z"/>
			<path class="st6" d="M229.3-1077.5h1v9.8h-1V-1077.5z"/>
			<path class="st6" d="M234.8-1068c-0.7-0.2-1.2-0.5-1.5-0.9l0.4-0.8c0.4,0.4,0.8,0.6,1.4,0.9c0.6,0.2,1.2,0.3,1.8,0.3
				c0.9,0,1.5-0.2,2-0.5c0.4-0.3,0.7-0.7,0.7-1.3c0-0.4-0.1-0.7-0.4-0.9c-0.2-0.2-0.5-0.4-0.9-0.5c-0.3-0.1-0.8-0.3-1.4-0.4
				c-0.7-0.2-1.3-0.4-1.8-0.5c-0.4-0.2-0.8-0.4-1.1-0.8c-0.3-0.4-0.5-0.8-0.5-1.4c0-0.5,0.1-0.9,0.4-1.4c0.3-0.4,0.7-0.7,1.2-1
				c0.5-0.2,1.2-0.4,2-0.4c0.6,0,1.1,0.1,1.6,0.2c0.5,0.2,1,0.4,1.4,0.6l-0.4,0.8c-0.4-0.3-0.8-0.5-1.3-0.6
				c-0.5-0.1-0.9-0.2-1.4-0.2c-0.9,0-1.5,0.2-1.9,0.5s-0.7,0.8-0.7,1.3c0,0.4,0.1,0.7,0.4,0.9c0.2,0.2,0.5,0.4,0.9,0.5
				s0.8,0.3,1.4,0.4c0.7,0.2,1.3,0.4,1.7,0.5s0.8,0.4,1.1,0.8c0.3,0.3,0.5,0.8,0.5,1.4c0,0.5-0.1,0.9-0.4,1.4
				c-0.3,0.4-0.7,0.7-1.2,1c-0.6,0.2-1.2,0.4-2,0.4C236.2-1067.6,235.5-1067.7,234.8-1068z"/>
			<path class="st6" d="M245.3-1076.6h-3.4v-0.9h7.9v0.9h-3.4v8.9h-1V-1076.6z"/>
			<path class="st6" d="M257.8-1070.3h-5.5l-1.2,2.6h-1.1l4.5-9.8h1l4.5,9.8H259L257.8-1070.3z M257.4-1071.2l-2.4-5.3l-2.4,5.3
				H257.4z"/>
			<path class="st6" d="M270.6-1077.5v9.8h-0.9l-6.3-8v8h-1v-9.8h0.9l6.3,8v-8H270.6z"/>
			<path class="st6" d="M276.1-1068.3c-0.8-0.4-1.4-1-1.8-1.8s-0.7-1.6-0.7-2.6c0-0.9,0.2-1.8,0.7-2.6s1.1-1.4,1.8-1.8
				c0.8-0.4,1.7-0.6,2.6-0.6c0.7,0,1.4,0.1,2,0.4c0.6,0.2,1.1,0.6,1.6,1.1l-0.7,0.7c-0.8-0.8-1.7-1.2-2.9-1.2
				c-0.8,0-1.5,0.2-2.1,0.5s-1.1,0.8-1.5,1.5c-0.4,0.6-0.5,1.3-0.5,2.1c0,0.8,0.2,1.5,0.5,2.1c0.4,0.6,0.9,1.1,1.5,1.5
				s1.3,0.5,2.1,0.5c1.2,0,2.1-0.4,2.9-1.2l0.7,0.7c-0.4,0.5-1,0.8-1.6,1.1s-1.3,0.4-2,0.4C277.8-1067.6,276.9-1067.8,276.1-1068.3z
				"/>
			<path class="st6" d="M292.2-1068.6v0.9h-6.9v-9.8h6.7v0.9h-5.7v3.5h5.1v0.9h-5.1v3.6H292.2z"/>
			<path class="st6" d="M301.6-1076.6h-3.4v-0.9h7.9v0.9h-3.4v8.9h-1V-1076.6z"/>
			<path class="st6" d="M309.9-1068.3c-0.8-0.4-1.4-1-1.8-1.8c-0.4-0.8-0.7-1.6-0.7-2.5c0-0.9,0.2-1.8,0.7-2.5s1.1-1.4,1.8-1.8
				c0.8-0.4,1.7-0.7,2.6-0.7s1.8,0.2,2.6,0.6c0.8,0.4,1.4,1,1.8,1.8c0.4,0.8,0.7,1.6,0.7,2.6c0,0.9-0.2,1.8-0.7,2.6
				c-0.4,0.8-1.1,1.4-1.8,1.8c-0.8,0.4-1.7,0.6-2.6,0.6S310.7-1067.8,309.9-1068.3z M314.6-1069.1c0.6-0.3,1.1-0.8,1.5-1.5
				c0.4-0.6,0.5-1.3,0.5-2.1c0-0.8-0.2-1.5-0.5-2.1c-0.4-0.6-0.8-1.1-1.5-1.5c-0.6-0.4-1.3-0.5-2.1-0.5s-1.5,0.2-2.1,0.5
				c-0.6,0.3-1.1,0.8-1.5,1.5c-0.4,0.6-0.5,1.3-0.5,2.1c0,0.8,0.2,1.5,0.5,2.1c0.4,0.6,0.9,1.1,1.5,1.5c0.6,0.4,1.3,0.5,2.1,0.5
				S314-1068.7,314.6-1069.1z"/>
			<path class="st6" d="M327-1076.6h-3.4v-0.9h7.9v0.9H328v8.9h-1V-1076.6z"/>
			<path class="st6" d="M342-1077.5v9.8h-1v-4.5h-6.1v4.5h-1v-9.8h1v4.4h6.1v-4.4H342z"/>
			<path class="st6" d="M352.8-1068.6v0.9h-6.9v-9.8h6.7v0.9h-5.7v3.5h5.1v0.9h-5.1v3.6H352.8z"/>
			<path class="st6" d="M368-1071.9c0.3,0.4,0.5,0.9,0.5,1.6c0,0.8-0.3,1.5-0.9,1.9c-0.6,0.5-1.5,0.7-2.8,0.7h-4.5v-9.8h4.2
				c1.1,0,1.9,0.2,2.5,0.7c0.6,0.4,0.9,1.1,0.9,1.9c0,0.5-0.1,1-0.4,1.4c-0.3,0.4-0.6,0.7-1.1,0.8
				C367.1-1072.6,367.6-1072.3,368-1071.9z M361.4-1076.6v3.6h3.1c0.8,0,1.4-0.2,1.8-0.5c0.4-0.3,0.6-0.7,0.6-1.3s-0.2-1-0.6-1.3
				c-0.4-0.3-1-0.5-1.8-0.5H361.4z M366.8-1069c0.4-0.3,0.7-0.8,0.7-1.4c0-1.2-0.9-1.8-2.7-1.8h-3.5v3.7h3.5
				C365.7-1068.6,366.4-1068.7,366.8-1069z"/>
			<path class="st6" d="M374.7-1071.1v3.4h-1v-3.4l-3.9-6.4h1.1l3.4,5.5l3.4-5.5h1L374.7-1071.1z"/>
			<path class="st6" d="M388-1068.6v0.9h-8v-0.7l6.5-8.2h-6.4v-0.9h7.8v0.7l-6.5,8.2H388z"/>
			<path class="st6" d="M396.9-1070.3h-5.5l-1.2,2.6h-1.1l4.5-9.8h1l4.5,9.8h-1.1L396.9-1070.3z M396.5-1071.2l-2.4-5.3l-2.4,5.3
				H396.5z"/>
			<path class="st6" d="M409.7-1077.5v9.8h-0.9l-6.3-8v8h-1v-9.8h0.9l6.3,8v-8H409.7z"/>
			<path class="st6" d="M415.5-1076.6h-3.4v-0.9h7.9v0.9h-3.4v8.9h-1V-1076.6z"/>
			<path class="st6" d="M422.3-1077.5h1v9.8h-1V-1077.5z"/>
			<path class="st6" d="M435.5-1077.5v9.8h-0.9l-6.3-8v8h-1v-9.8h0.9l6.3,8v-8H435.5z"/>
			<path class="st6" d="M446.3-1068.6v0.9h-6.9v-9.8h6.7v0.9h-5.7v3.5h5.1v0.9h-5.1v3.6H446.3z"/>
		</g>
		<g class="st5">
			<path class="st6" d="M248.6-1054.6h1v3.7c-0.5,0.4-1,0.7-1.6,0.9c-0.6,0.2-1.3,0.3-2,0.3c-1,0-1.9-0.2-2.6-0.6
				c-0.8-0.4-1.4-1-1.8-1.8c-0.4-0.8-0.7-1.6-0.7-2.6c0-0.9,0.2-1.8,0.7-2.6c0.4-0.8,1.1-1.4,1.8-1.8c0.8-0.4,1.7-0.6,2.7-0.6
				c0.7,0,1.4,0.1,2.1,0.4c0.6,0.2,1.2,0.6,1.6,1.1l-0.6,0.7c-0.8-0.8-1.8-1.1-3-1.1c-0.8,0-1.5,0.2-2.1,0.5
				c-0.6,0.3-1.1,0.8-1.5,1.5c-0.4,0.6-0.5,1.3-0.5,2.1c0,0.8,0.2,1.5,0.5,2.1s0.9,1.1,1.5,1.5s1.3,0.5,2.1,0.5c1,0,1.9-0.3,2.6-0.8
				V-1054.6z"/>
			<path class="st6" d="M260.1-1050.6v0.9h-6.9v-9.8h6.7v0.9h-5.7v3.5h5.1v0.9h-5.1v3.6H260.1z"/>
			<path class="st6" d="M271.4-1059.5v9.8h-0.9l-6.3-8v8h-1v-9.8h0.9l6.3,8v-8H271.4z"/>
			<path class="st6" d="M282.3-1050.6v0.9h-6.9v-9.8h6.7v0.9h-5.7v3.5h5.1v0.9h-5.1v3.6H282.3z"/>
			<path class="st6" d="M292.1-1049.7l-2.2-3.2c-0.3,0-0.5,0-0.8,0h-2.6v3.1h-1v-9.8h3.7c1.3,0,2.2,0.3,2.9,0.9
				c0.7,0.6,1.1,1.4,1.1,2.5c0,0.8-0.2,1.4-0.6,1.9c-0.4,0.5-0.9,0.9-1.7,1.1l2.4,3.4H292.1z M291.3-1054.3c0.5-0.4,0.8-1,0.8-1.8
				c0-0.8-0.3-1.4-0.8-1.8c-0.5-0.4-1.3-0.6-2.2-0.6h-2.6v4.9h2.6C290-1053.7,290.8-1053.9,291.3-1054.3z"/>
			<path class="st6" d="M302.4-1052.3h-5.5l-1.2,2.6h-1.1l4.5-9.8h1l4.5,9.8h-1.1L302.4-1052.3z M302-1053.2l-2.4-5.3l-2.4,5.3H302z
				"/>
			<path class="st6" d="M307-1059.5h1v8.9h5.5v0.9H307V-1059.5z"/>
			<path class="st6" d="M316.4-1050c-0.7-0.2-1.2-0.5-1.5-0.9l0.4-0.8c0.4,0.4,0.8,0.6,1.4,0.9c0.6,0.2,1.2,0.3,1.8,0.3
				c0.9,0,1.5-0.2,2-0.5c0.4-0.3,0.7-0.7,0.7-1.3c0-0.4-0.1-0.7-0.4-0.9s-0.5-0.4-0.9-0.5c-0.3-0.1-0.8-0.3-1.4-0.4
				c-0.7-0.2-1.3-0.4-1.8-0.5s-0.8-0.4-1.1-0.8s-0.5-0.8-0.5-1.4c0-0.5,0.1-0.9,0.4-1.4s0.7-0.7,1.2-1c0.5-0.2,1.2-0.4,2-0.4
				c0.6,0,1.1,0.1,1.6,0.2c0.5,0.2,1,0.4,1.4,0.6l-0.3,0.8c-0.4-0.3-0.8-0.5-1.3-0.6c-0.5-0.1-0.9-0.2-1.4-0.2
				c-0.9,0-1.5,0.2-1.9,0.5c-0.4,0.3-0.7,0.8-0.7,1.3c0,0.4,0.1,0.7,0.4,0.9c0.2,0.2,0.5,0.4,0.9,0.5s0.8,0.3,1.4,0.4
				c0.7,0.2,1.3,0.4,1.7,0.5s0.8,0.4,1.1,0.8c0.3,0.3,0.5,0.8,0.5,1.4c0,0.5-0.1,0.9-0.4,1.4c-0.3,0.4-0.7,0.7-1.2,1
				c-0.6,0.2-1.2,0.4-2,0.4C317.8-1049.6,317.1-1049.7,316.4-1050z"/>
			<path class="st6" d="M325.4-1059.9c0.1,0.1,0.2,0.3,0.2,0.5c0,0.1,0,0.2,0,0.4c0,0.1-0.1,0.3-0.1,0.4l-0.6,1.9h-0.7l0.5-2
				c-0.2,0-0.3-0.1-0.4-0.3c-0.1-0.1-0.1-0.3-0.1-0.5c0-0.2,0.1-0.4,0.2-0.5c0.1-0.1,0.3-0.2,0.5-0.2S325.3-1060.1,325.4-1059.9z"/>
			<path class="st6" d="M339.6-1058.6c0.7,0.6,1.1,1.4,1.1,2.5c0,1-0.4,1.9-1.1,2.5c-0.7,0.6-1.7,0.9-2.9,0.9H334v3.1h-1v-9.8h3.7
				C337.9-1059.5,338.9-1059.2,339.6-1058.6z M338.9-1054.3c0.5-0.4,0.8-1,0.8-1.8c0-0.8-0.3-1.4-0.8-1.8c-0.5-0.4-1.3-0.6-2.2-0.6
				H334v4.9h2.6C337.6-1053.7,338.4-1053.9,338.9-1054.3z"/>
			<path class="st6" d="M350.3-1049.7l-2.2-3.2c-0.3,0-0.5,0-0.8,0h-2.6v3.1h-1v-9.8h3.7c1.2,0,2.2,0.3,2.9,0.9
				c0.7,0.6,1.1,1.4,1.1,2.5c0,0.8-0.2,1.4-0.6,1.9c-0.4,0.5-0.9,0.9-1.7,1.1l2.4,3.4H350.3z M349.5-1054.3c0.5-0.4,0.8-1,0.8-1.8
				c0-0.8-0.3-1.4-0.8-1.8c-0.5-0.4-1.3-0.6-2.2-0.6h-2.6v4.9h2.6C348.2-1053.7,349-1053.9,349.5-1054.3z"/>
			<path class="st6" d="M356.1-1050.3c-0.8-0.4-1.4-1-1.8-1.8c-0.4-0.8-0.7-1.6-0.7-2.5c0-0.9,0.2-1.8,0.7-2.5s1.1-1.4,1.8-1.8
				c0.8-0.4,1.7-0.7,2.6-0.7s1.8,0.2,2.6,0.6c0.8,0.4,1.4,1,1.8,1.8s0.7,1.6,0.7,2.6c0,0.9-0.2,1.8-0.7,2.6s-1.1,1.4-1.8,1.8
				c-0.8,0.4-1.7,0.6-2.6,0.6S356.9-1049.8,356.1-1050.3z M360.8-1051.1c0.6-0.3,1.1-0.8,1.5-1.5c0.4-0.6,0.5-1.3,0.5-2.1
				c0-0.8-0.2-1.5-0.5-2.1c-0.4-0.6-0.8-1.1-1.5-1.5c-0.6-0.4-1.3-0.5-2.1-0.5c-0.8,0-1.5,0.2-2.1,0.5c-0.6,0.3-1.1,0.8-1.5,1.5
				c-0.4,0.6-0.5,1.3-0.5,2.1c0,0.8,0.2,1.5,0.5,2.1c0.4,0.6,0.9,1.1,1.5,1.5c0.6,0.4,1.3,0.5,2.1,0.5
				C359.5-1050.5,360.2-1050.7,360.8-1051.1z"/>
			<path class="st6" d="M374.5-1053.9c0.3,0.4,0.5,0.9,0.5,1.6c0,0.8-0.3,1.5-0.9,1.9c-0.6,0.5-1.5,0.7-2.8,0.7h-4.5v-9.8h4.2
				c1.1,0,1.9,0.2,2.5,0.7c0.6,0.4,0.9,1.1,0.9,1.9c0,0.5-0.1,1-0.4,1.4s-0.6,0.7-1.1,0.8C373.7-1054.6,374.2-1054.3,374.5-1053.9z
				 M367.9-1058.6v3.6h3.1c0.8,0,1.4-0.2,1.8-0.5c0.4-0.3,0.6-0.7,0.6-1.3s-0.2-1-0.6-1.3c-0.4-0.3-1-0.5-1.8-0.5H367.9z
				 M373.4-1051c0.4-0.3,0.7-0.8,0.7-1.4c0-1.2-0.9-1.8-2.7-1.8h-3.5v3.7h3.5C372.3-1050.6,372.9-1050.7,373.4-1051z"/>
			<path class="st6" d="M378.1-1059.5h1v8.9h5.5v0.9h-6.5V-1059.5z"/>
			<path class="st6" d="M394-1050.6v0.9h-6.9v-9.8h6.7v0.9h-5.7v3.5h5.1v0.9h-5.1v3.6H394z"/>
			<path class="st6" d="M407.3-1059.5v9.8h-1v-7.8l-3.8,6.6H402l-3.8-6.6v7.8h-1v-9.8h0.9l4.3,7.3l4.2-7.3H407.3z"/>
		</g>
	</g>
	<g id="Group_745">
		<g id="Ellipse_395" transform="translate(34 4292.515)">
			<circle class="st0" cx="168.7" cy="-5246.7" r="4.2"/>
			<circle class="st1" cx="168.7" cy="-5246.7" r="3.7"/>
		</g>
		<g id="Ellipse_396" transform="translate(50.844 4292.515)">
			<circle class="st2" cx="168.7" cy="-5246.7" r="4.2"/>
			<circle class="st1" cx="168.7" cy="-5246.7" r="3.7"/>
		</g>
		<g id="Ellipse_397" transform="translate(67.688 4292.515)">
			<circle class="st2" cx="168.7" cy="-5246.7" r="4.2"/>
			<circle class="st1" cx="168.7" cy="-5246.7" r="3.7"/>
		</g>
		<g id="Ellipse_398" transform="translate(84.532 4292.515)">
			<circle class="st2" cx="168.7" cy="-5246.7" r="4.2"/>
			<circle class="st1" cx="168.7" cy="-5246.7" r="3.7"/>
		</g>
		<g id="Ellipse_438" transform="translate(131 4292.523)">
			<circle class="st3" cx="168.7" cy="-5246.7" r="4.2"/>
			<circle class="st4" cx="168.7" cy="-5246.7" r="3.7"/>
		</g>
		<g id="Ellipse_439" transform="translate(147.843 4292.523)">
			<circle class="st3" cx="168.7" cy="-5246.7" r="4.2"/>
			<circle class="st4" cx="168.7" cy="-5246.7" r="3.7"/>
		</g>
		<g id="Ellipse_440" transform="translate(164.687 4292.523)">
			<circle class="st3" cx="168.7" cy="-5246.7" r="4.2"/>
			<circle class="st4" cx="168.7" cy="-5246.7" r="3.7"/>
		</g>
		<g id="Ellipse_441" transform="translate(181.53 4292.523)">
			<circle class="st3" cx="168.7" cy="-5246.7" r="4.2"/>
			<circle class="st4" cx="168.7" cy="-5246.7" r="3.7"/>
		</g>
		<g id="Ellipse_461" transform="translate(220 4292.234)">
			<circle class="st0" cx="168.7" cy="-5246.7" r="4.2"/>
			<circle class="st1" cx="168.7" cy="-5246.7" r="3.7"/>
		</g>
		<g id="Ellipse_462" transform="translate(236.807 4292.234)">
			<circle class="st0" cx="168.7" cy="-5246.7" r="4.2"/>
			<circle class="st1" cx="168.7" cy="-5246.7" r="3.7"/>
		</g>
		<g id="Ellipse_463" transform="translate(253.613 4292.234)">
			<circle class="st2" cx="168.7" cy="-5246.7" r="4.2"/>
			<circle class="st1" cx="168.7" cy="-5246.7" r="3.7"/>
		</g>
		<g id="Ellipse_464" transform="translate(270.42 4292.234)">
			<circle class="st2" cx="168.7" cy="-5246.7" r="4.2"/>
			<circle class="st1" cx="168.7" cy="-5246.7" r="3.7"/>
		</g>
		<g class="st5">
			<path class="st6" d="M245.7-977.8c-0.7-0.2-1.2-0.5-1.5-0.9l0.4-0.8c0.4,0.4,0.8,0.6,1.4,0.9c0.6,0.2,1.2,0.3,1.8,0.3
				c0.9,0,1.5-0.2,2-0.5c0.4-0.3,0.7-0.7,0.7-1.3c0-0.4-0.1-0.7-0.4-0.9c-0.2-0.2-0.5-0.4-0.9-0.5c-0.3-0.1-0.8-0.3-1.4-0.4
				c-0.7-0.2-1.3-0.4-1.8-0.5c-0.4-0.2-0.8-0.4-1.1-0.8c-0.3-0.4-0.5-0.8-0.5-1.4c0-0.5,0.1-0.9,0.4-1.4c0.3-0.4,0.7-0.7,1.2-1
				c0.5-0.2,1.2-0.4,2-0.4c0.6,0,1.1,0.1,1.6,0.2c0.5,0.2,1,0.4,1.4,0.6l-0.4,0.8c-0.4-0.3-0.8-0.5-1.3-0.6
				c-0.5-0.1-0.9-0.2-1.4-0.2c-0.9,0-1.5,0.2-1.9,0.5s-0.7,0.8-0.7,1.3c0,0.4,0.1,0.7,0.4,0.9c0.2,0.2,0.5,0.4,0.9,0.5
				s0.8,0.3,1.4,0.4c0.7,0.2,1.3,0.4,1.7,0.5s0.8,0.4,1.1,0.8c0.3,0.3,0.5,0.8,0.5,1.4c0,0.5-0.1,0.9-0.4,1.4
				c-0.3,0.4-0.7,0.7-1.2,1c-0.6,0.2-1.2,0.4-2,0.4C247.1-977.5,246.4-977.6,245.7-977.8z"/>
			<path class="st6" d="M262.6-987.3v9.8h-1v-4.5h-6.1v4.5h-1v-9.8h1v4.4h6.1v-4.4H262.6z"/>
			<path class="st6" d="M272.6-980.2h-5.5l-1.2,2.6h-1.1l4.5-9.8h1l4.5,9.8h-1.1L272.6-980.2z M272.3-981l-2.4-5.3l-2.4,5.3H272.3z"
				/>
			<path class="st6" d="M283.9-977.5l-2.2-3.2c-0.3,0-0.5,0-0.8,0h-2.6v3.1h-1v-9.8h3.7c1.3,0,2.2,0.3,2.9,0.9
				c0.7,0.6,1.1,1.4,1.1,2.5c0,0.8-0.2,1.4-0.6,1.9s-0.9,0.9-1.7,1.1l2.4,3.4H283.9z M283.1-982.2c0.5-0.4,0.8-1,0.8-1.8
				c0-0.8-0.3-1.4-0.8-1.8s-1.3-0.6-2.2-0.6h-2.6v4.9h2.6C281.8-981.5,282.6-981.8,283.1-982.2z"/>
			<path class="st6" d="M288-987.3h4c1,0,2,0.2,2.7,0.6c0.8,0.4,1.4,1,1.8,1.7c0.4,0.7,0.7,1.6,0.7,2.5c0,1-0.2,1.8-0.7,2.5
				c-0.4,0.7-1.1,1.3-1.8,1.7c-0.8,0.4-1.7,0.6-2.7,0.6h-4V-987.3z M292-978.4c0.9,0,1.6-0.2,2.3-0.5s1.1-0.8,1.5-1.4
				c0.4-0.6,0.5-1.3,0.5-2.1c0-0.8-0.2-1.5-0.5-2.1c-0.4-0.6-0.9-1.1-1.5-1.4s-1.4-0.5-2.3-0.5h-2.9v8H292z"/>
			<path class="st6" d="M300.3-987.3h1v9.8h-1V-987.3z"/>
			<path class="st6" d="M313.4-987.3v9.8h-0.9l-6.3-8v8h-1v-9.8h0.9l6.3,8v-8H313.4z"/>
			<path class="st6" d="M324.2-982.5h1v3.7c-0.5,0.4-1,0.7-1.6,0.9c-0.6,0.2-1.3,0.3-2,0.3c-1,0-1.9-0.2-2.6-0.6
				c-0.8-0.4-1.4-1-1.8-1.8c-0.4-0.8-0.7-1.6-0.7-2.6c0-0.9,0.2-1.8,0.7-2.6c0.4-0.8,1.1-1.4,1.8-1.8c0.8-0.4,1.7-0.6,2.7-0.6
				c0.7,0,1.4,0.1,2.1,0.4c0.6,0.2,1.2,0.6,1.6,1.1l-0.6,0.7c-0.8-0.8-1.8-1.1-3-1.1c-0.8,0-1.5,0.2-2.1,0.5
				c-0.6,0.3-1.1,0.8-1.5,1.5c-0.4,0.6-0.5,1.3-0.5,2.1c0,0.8,0.2,1.5,0.5,2.1c0.4,0.6,0.9,1.1,1.5,1.5s1.3,0.5,2.1,0.5
				c1,0,1.9-0.3,2.6-0.8V-982.5z"/>
			<path class="st6" d="M333.8-977.8c-0.7-0.2-1.2-0.5-1.5-0.9l0.4-0.8c0.4,0.4,0.8,0.6,1.4,0.9c0.6,0.2,1.2,0.3,1.8,0.3
				c0.9,0,1.5-0.2,2-0.5c0.4-0.3,0.7-0.7,0.7-1.3c0-0.4-0.1-0.7-0.4-0.9s-0.5-0.4-0.9-0.5s-0.8-0.3-1.4-0.4
				c-0.7-0.2-1.3-0.4-1.8-0.5c-0.4-0.2-0.8-0.4-1.1-0.8c-0.3-0.4-0.5-0.8-0.5-1.4c0-0.5,0.1-0.9,0.4-1.4s0.7-0.7,1.2-1
				c0.5-0.2,1.2-0.4,2-0.4c0.6,0,1.1,0.1,1.6,0.2c0.5,0.2,1,0.4,1.4,0.6l-0.3,0.8c-0.4-0.3-0.8-0.5-1.3-0.6
				c-0.5-0.1-0.9-0.2-1.4-0.2c-0.9,0-1.5,0.2-1.9,0.5s-0.7,0.8-0.7,1.3c0,0.4,0.1,0.7,0.4,0.9c0.2,0.2,0.5,0.4,0.9,0.5
				s0.8,0.3,1.4,0.4c0.7,0.2,1.3,0.4,1.7,0.5s0.8,0.4,1.1,0.8c0.3,0.3,0.5,0.8,0.5,1.4c0,0.5-0.1,0.9-0.4,1.4
				c-0.3,0.4-0.7,0.7-1.2,1c-0.6,0.2-1.2,0.4-2,0.4C335.2-977.5,334.5-977.6,333.8-977.8z"/>
			<path class="st6" d="M343.5-978.6c-0.7-0.7-1.1-1.8-1.1-3.2v-5.6h1v5.6c0,1.1,0.3,2,0.8,2.5c0.5,0.6,1.3,0.8,2.2,0.8
				c1,0,1.7-0.3,2.2-0.8c0.5-0.6,0.8-1.4,0.8-2.5v-5.6h1v5.6c0,1.4-0.4,2.4-1.1,3.2c-0.7,0.7-1.7,1.1-3,1.1S344.2-977.8,343.5-978.6
				z"/>
			<path class="st6" d="M360.9-986.5c0.7,0.6,1.1,1.4,1.1,2.5c0,1-0.4,1.9-1.1,2.5c-0.7,0.6-1.7,0.9-2.9,0.9h-2.6v3.1h-1v-9.8h3.7
				C359.2-987.3,360.2-987.1,360.9-986.5z M360.2-982.2c0.5-0.4,0.8-1,0.8-1.8c0-0.8-0.3-1.4-0.8-1.8c-0.5-0.4-1.3-0.6-2.2-0.6h-2.6
				v4.9h2.6C358.9-981.6,359.7-981.8,360.2-982.2z"/>
			<path class="st6" d="M371.5-986.5c0.7,0.6,1.1,1.4,1.1,2.5c0,1-0.4,1.9-1.1,2.5c-0.7,0.6-1.7,0.9-2.9,0.9H366v3.1h-1v-9.8h3.7
				C369.8-987.3,370.8-987.1,371.5-986.5z M370.8-982.2c0.5-0.4,0.8-1,0.8-1.8c0-0.8-0.3-1.4-0.8-1.8c-0.5-0.4-1.3-0.6-2.2-0.6H366
				v4.9h2.6C369.5-981.6,370.3-981.8,370.8-982.2z"/>
			<path class="st6" d="M377.3-978.1c-0.8-0.4-1.4-1-1.8-1.8c-0.4-0.8-0.7-1.6-0.7-2.5c0-0.9,0.2-1.8,0.7-2.5s1.1-1.4,1.8-1.8
				c0.8-0.4,1.7-0.7,2.6-0.7s1.8,0.2,2.6,0.6c0.8,0.4,1.4,1,1.8,1.8c0.4,0.8,0.7,1.6,0.7,2.6c0,0.9-0.2,1.8-0.7,2.6
				c-0.4,0.8-1.1,1.4-1.8,1.8c-0.8,0.4-1.7,0.6-2.6,0.6S378.1-977.7,377.3-978.1z M382.1-978.9c0.6-0.3,1.1-0.8,1.5-1.5
				c0.4-0.6,0.5-1.3,0.5-2.1c0-0.8-0.2-1.5-0.5-2.1c-0.4-0.6-0.8-1.1-1.5-1.5c-0.6-0.4-1.3-0.5-2.1-0.5s-1.5,0.2-2.1,0.5
				c-0.6,0.3-1.1,0.8-1.5,1.5c-0.4,0.6-0.5,1.3-0.5,2.1c0,0.8,0.2,1.5,0.5,2.1c0.4,0.6,0.9,1.1,1.5,1.5c0.6,0.4,1.3,0.5,2.1,0.5
				S381.4-978.6,382.1-978.9z"/>
			<path class="st6" d="M394.8-977.5l-2.2-3.2c-0.3,0-0.5,0-0.8,0h-2.6v3.1h-1v-9.8h3.7c1.3,0,2.2,0.3,2.9,0.9
				c0.7,0.6,1.1,1.4,1.1,2.5c0,0.8-0.2,1.4-0.6,1.9s-0.9,0.9-1.7,1.1l2.4,3.4H394.8z M394-982.2c0.5-0.4,0.8-1,0.8-1.8
				c0-0.8-0.3-1.4-0.8-1.8c-0.5-0.4-1.3-0.6-2.2-0.6h-2.6v4.9h2.6C392.7-981.5,393.5-981.8,394-982.2z"/>
			<path class="st6" d="M400.7-986.5h-3.4v-0.9h7.9v0.9h-3.4v8.9h-1V-986.5z"/>
		</g>
	</g>
	<g id="Group_746">
		<g id="Ellipse_399" transform="translate(34 4369.625)">
			<circle class="st0" cx="168.7" cy="-5246.7" r="4.2"/>
			<circle class="st1" cx="168.7" cy="-5246.7" r="3.7"/>
		</g>
		<g id="Ellipse_400" transform="translate(50.844 4369.625)">
			<circle class="st0" cx="168.7" cy="-5246.7" r="4.2"/>
			<circle class="st1" cx="168.7" cy="-5246.7" r="3.7"/>
		</g>
		<g id="Ellipse_401" transform="translate(67.688 4369.625)">
			<circle class="st0" cx="168.7" cy="-5246.7" r="4.2"/>
			<circle class="st1" cx="168.7" cy="-5246.7" r="3.7"/>
		</g>
		<g id="Ellipse_402" transform="translate(84.532 4369.625)">
			<circle class="st0" cx="168.7" cy="-5246.7" r="4.2"/>
			<circle class="st1" cx="168.7" cy="-5246.7" r="3.7"/>
		</g>
		<g id="Ellipse_434" transform="translate(131 4369.631)">
			<circle class="st3" cx="168.7" cy="-5246.7" r="4.2"/>
			<circle class="st4" cx="168.7" cy="-5246.7" r="3.7"/>
		</g>
		<g id="Ellipse_435" transform="translate(147.843 4369.631)">
			<circle class="st3" cx="168.7" cy="-5246.7" r="4.2"/>
			<circle class="st4" cx="168.7" cy="-5246.7" r="3.7"/>
		</g>
		<g id="Ellipse_436" transform="translate(164.687 4369.631)">
			<circle class="st3" cx="168.7" cy="-5246.7" r="4.2"/>
			<circle class="st4" cx="168.7" cy="-5246.7" r="3.7"/>
		</g>
		<g id="Ellipse_437" transform="translate(181.53 4369.631)">
			<circle class="st3" cx="168.7" cy="-5246.7" r="4.2"/>
			<circle class="st4" cx="168.7" cy="-5246.7" r="3.7"/>
		</g>
		<g id="Ellipse_465" transform="translate(220 4369.25)">
			<circle class="st0" cx="168.7" cy="-5246.7" r="4.2"/>
			<circle class="st1" cx="168.7" cy="-5246.7" r="3.7"/>
		</g>
		<g id="Ellipse_466" transform="translate(236.807 4369.25)">
			<circle class="st0" cx="168.7" cy="-5246.7" r="4.2"/>
			<circle class="st1" cx="168.7" cy="-5246.7" r="3.7"/>
		</g>
		<g id="Ellipse_467" transform="translate(253.613 4369.25)">
			<circle class="st0" cx="168.7" cy="-5246.7" r="4.2"/>
			<circle class="st1" cx="168.7" cy="-5246.7" r="3.7"/>
		</g>
		<g id="Ellipse_468" transform="translate(270.42 4369.25)">
			<circle class="st2" cx="168.7" cy="-5246.7" r="4.2"/>
			<circle class="st1" cx="168.7" cy="-5246.7" r="3.7"/>
		</g>
		<g class="st5">
			<path class="st6" d="M300.7-902.7c-0.7-0.2-1.2-0.5-1.5-0.9l0.4-0.8c0.4,0.4,0.8,0.6,1.4,0.9c0.6,0.2,1.2,0.3,1.8,0.3
				c0.9,0,1.5-0.2,2-0.5c0.4-0.3,0.7-0.7,0.7-1.3c0-0.4-0.1-0.7-0.4-0.9c-0.2-0.2-0.5-0.4-0.9-0.5c-0.3-0.1-0.8-0.3-1.4-0.4
				c-0.7-0.2-1.3-0.4-1.8-0.5c-0.4-0.2-0.8-0.4-1.1-0.8c-0.3-0.4-0.5-0.8-0.5-1.4c0-0.5,0.1-0.9,0.4-1.4c0.3-0.4,0.7-0.7,1.2-1
				c0.5-0.2,1.2-0.4,2-0.4c0.6,0,1.1,0.1,1.6,0.2c0.5,0.2,1,0.4,1.4,0.6l-0.4,0.8c-0.4-0.3-0.8-0.5-1.3-0.6
				c-0.5-0.1-0.9-0.2-1.4-0.2c-0.9,0-1.5,0.2-1.9,0.5s-0.7,0.8-0.7,1.3c0,0.4,0.1,0.7,0.4,0.9c0.2,0.2,0.5,0.4,0.9,0.5
				s0.8,0.3,1.4,0.4c0.7,0.2,1.3,0.4,1.7,0.5s0.8,0.4,1.1,0.8c0.3,0.3,0.5,0.8,0.5,1.4c0,0.5-0.1,0.9-0.4,1.4
				c-0.3,0.4-0.7,0.7-1.2,1c-0.6,0.2-1.2,0.4-2,0.4C302.1-902.3,301.4-902.4,300.7-902.7z"/>
			<path class="st6" d="M316-911.3c0.7,0.6,1.1,1.4,1.1,2.5c0,1-0.4,1.9-1.1,2.5c-0.7,0.6-1.7,0.9-2.9,0.9h-2.6v3.1h-1v-9.8h3.7
				C314.3-912.2,315.3-911.9,316-911.3z M315.3-907c0.5-0.4,0.8-1,0.8-1.8c0-0.8-0.3-1.4-0.8-1.8s-1.3-0.6-2.2-0.6h-2.6v4.9h2.6
				C314-906.4,314.8-906.6,315.3-907z"/>
			<path class="st6" d="M326.9-903.3v0.9H320v-9.8h6.7v0.9h-5.7v3.5h5.1v0.9h-5.1v3.6H326.9z"/>
			<path class="st6" d="M337-903.3v0.9h-6.9v-9.8h6.7v0.9h-5.7v3.5h5.1v0.9h-5.1v3.6H337z"/>
			<path class="st6" d="M340.2-912.2h4c1,0,2,0.2,2.7,0.6c0.8,0.4,1.4,1,1.8,1.7c0.4,0.7,0.7,1.6,0.7,2.5c0,1-0.2,1.8-0.7,2.5
				c-0.4,0.7-1.1,1.3-1.8,1.7c-0.8,0.4-1.7,0.6-2.7,0.6h-4V-912.2z M344.1-903.3c0.9,0,1.6-0.2,2.3-0.5s1.1-0.8,1.5-1.4
				c0.4-0.6,0.5-1.3,0.5-2.1c0-0.8-0.2-1.5-0.5-2.1c-0.4-0.6-0.9-1.1-1.5-1.4s-1.4-0.5-2.3-0.5h-2.9v8H344.1z"/>
		</g>
	</g>
	<g id="Group_747">
		<g id="Ellipse_403" transform="translate(34 4467.735)">
			<circle class="st2" cx="168.7" cy="-5246.7" r="4.2"/>
			<circle class="st1" cx="168.7" cy="-5246.7" r="3.7"/>
		</g>
		<g id="Ellipse_404" transform="translate(50.844 4467.735)">
			<circle class="st2" cx="168.7" cy="-5246.7" r="4.2"/>
			<circle class="st1" cx="168.7" cy="-5246.7" r="3.7"/>
		</g>
		<g id="Ellipse_405" transform="translate(67.688 4467.735)">
			<circle class="st2" cx="168.7" cy="-5246.7" r="4.2"/>
			<circle class="st1" cx="168.7" cy="-5246.7" r="3.7"/>
		</g>
		<g id="Ellipse_406" transform="translate(84.532 4467.735)">
			<circle class="st2" cx="168.7" cy="-5246.7" r="4.2"/>
			<circle class="st1" cx="168.7" cy="-5246.7" r="3.7"/>
		</g>
		<g id="Ellipse_430" transform="translate(131 4467.739)">
			<circle class="st3" cx="168.7" cy="-5246.7" r="4.2"/>
			<circle class="st4" cx="168.7" cy="-5246.7" r="3.7"/>
		</g>
		<g id="Ellipse_431" transform="translate(147.843 4467.739)">
			<circle class="st3" cx="168.7" cy="-5246.7" r="4.2"/>
			<circle class="st4" cx="168.7" cy="-5246.7" r="3.7"/>
		</g>
		<g id="Ellipse_432" transform="translate(164.687 4467.739)">
			<circle class="st3" cx="168.7" cy="-5246.7" r="4.2"/>
			<circle class="st4" cx="168.7" cy="-5246.7" r="3.7"/>
		</g>
		<g id="Ellipse_433" transform="translate(181.53 4467.739)">
			<circle class="st3" cx="168.7" cy="-5246.7" r="4.2"/>
			<circle class="st4" cx="168.7" cy="-5246.7" r="3.7"/>
		</g>
		<g id="Ellipse_469" transform="translate(220 4467.267)">
			<circle class="st0" cx="168.7" cy="-5246.7" r="4.2"/>
			<circle class="st1" cx="168.7" cy="-5246.7" r="3.7"/>
		</g>
		<g id="Ellipse_470" transform="translate(236.807 4467.267)">
			<circle class="st0" cx="168.7" cy="-5246.7" r="4.2"/>
			<circle class="st1" cx="168.7" cy="-5246.7" r="3.7"/>
		</g>
		<g id="Ellipse_471" transform="translate(253.613 4467.267)">
			<circle class="st0" cx="168.7" cy="-5246.7" r="4.2"/>
			<circle class="st1" cx="168.7" cy="-5246.7" r="3.7"/>
		</g>
		<g id="Ellipse_472" transform="translate(270.42 4467.267)">
			<circle class="st0" cx="168.7" cy="-5246.7" r="4.2"/>
			<circle class="st1" cx="168.7" cy="-5246.7" r="3.7"/>
		</g>
		<g class="st5">
			<path class="st6" d="M260.4-826.9H255l-1.2,2.6h-1.1l4.5-9.8h1l4.5,9.8h-1.1L260.4-826.9z M260.1-827.7l-2.4-5.3l-2.4,5.3H260.1z
				"/>
			<path class="st6" d="M272.7-828.5c0.3,0.4,0.5,0.9,0.5,1.6c0,0.8-0.3,1.5-0.9,1.9c-0.6,0.5-1.5,0.7-2.8,0.7H265v-9.8h4.2
				c1.1,0,1.9,0.2,2.5,0.7c0.6,0.4,0.9,1.1,0.9,1.9c0,0.5-0.1,1-0.4,1.4c-0.3,0.4-0.6,0.7-1.1,0.8
				C271.9-829.2,272.4-828.9,272.7-828.5z M266.1-833.2v3.6h3.1c0.8,0,1.4-0.2,1.8-0.5c0.4-0.3,0.6-0.7,0.6-1.3s-0.2-1-0.6-1.3
				c-0.4-0.3-1-0.5-1.8-0.5H266.1z M271.5-825.6c0.4-0.3,0.7-0.8,0.7-1.4c0-1.2-0.9-1.8-2.7-1.8h-3.5v3.7h3.5
				C270.4-825.1,271.1-825.3,271.5-825.6z"/>
			<path class="st6" d="M276.3-834h1v9.8h-1V-834z"/>
			<path class="st6" d="M281.2-834h1v8.9h5.5v0.9h-6.5V-834z"/>
			<path class="st6" d="M290.2-834h1v9.8h-1V-834z"/>
			<path class="st6" d="M297-833.2h-3.4v-0.9h7.9v0.9H298v8.9h-1V-833.2z"/>
			<path class="st6" d="M307.1-827.6v3.4h-1v-3.4l-3.9-6.4h1.1l3.4,5.5l3.4-5.5h1L307.1-827.6z"/>
			<path class="st6" d="M319.6-833.2h-3.4v-0.9h7.9v0.9h-3.4v8.9h-1V-833.2z"/>
			<path class="st6" d="M328-824.8c-0.8-0.4-1.4-1-1.8-1.8c-0.4-0.8-0.7-1.6-0.7-2.5c0-0.9,0.2-1.8,0.7-2.5s1.1-1.4,1.8-1.8
				c0.8-0.4,1.7-0.7,2.6-0.7s1.8,0.2,2.6,0.6c0.8,0.4,1.4,1,1.8,1.8c0.4,0.8,0.7,1.6,0.7,2.6c0,0.9-0.2,1.8-0.7,2.6
				c-0.4,0.8-1.1,1.4-1.8,1.8c-0.8,0.4-1.7,0.6-2.6,0.6S328.7-824.4,328-824.8z M332.7-825.6c0.6-0.3,1.1-0.8,1.5-1.5
				c0.4-0.6,0.5-1.3,0.5-2.1c0-0.8-0.2-1.5-0.5-2.1c-0.4-0.6-0.8-1.1-1.5-1.5c-0.6-0.4-1.3-0.5-2.1-0.5c-0.8,0-1.5,0.2-2.1,0.5
				c-0.6,0.3-1.1,0.8-1.5,1.5c-0.4,0.6-0.5,1.3-0.5,2.1c0,0.8,0.2,1.5,0.5,2.1c0.4,0.6,0.9,1.1,1.5,1.5c0.6,0.4,1.3,0.5,2.1,0.5
				C331.4-825.1,332.1-825.3,332.7-825.6z"/>
			<path class="st6" d="M343.7-824.5c-0.7-0.2-1.2-0.5-1.5-0.9l0.4-0.8c0.4,0.4,0.8,0.6,1.4,0.9c0.6,0.2,1.2,0.3,1.8,0.3
				c0.9,0,1.5-0.2,2-0.5c0.4-0.3,0.7-0.7,0.7-1.3c0-0.4-0.1-0.7-0.4-0.9c-0.2-0.2-0.5-0.4-0.9-0.5c-0.3-0.1-0.8-0.3-1.4-0.4
				c-0.7-0.2-1.3-0.4-1.8-0.5c-0.4-0.2-0.8-0.4-1.1-0.8c-0.3-0.4-0.5-0.8-0.5-1.4c0-0.5,0.1-0.9,0.4-1.4c0.3-0.4,0.7-0.7,1.2-1
				c0.5-0.2,1.2-0.4,2-0.4c0.6,0,1.1,0.1,1.6,0.2c0.5,0.2,1,0.4,1.4,0.6l-0.4,0.8c-0.4-0.3-0.8-0.5-1.3-0.6
				c-0.5-0.1-0.9-0.2-1.4-0.2c-0.9,0-1.5,0.2-1.9,0.5c-0.4,0.3-0.7,0.8-0.7,1.3c0,0.4,0.1,0.7,0.4,0.9c0.2,0.2,0.5,0.4,0.9,0.5
				s0.8,0.3,1.4,0.4c0.7,0.2,1.3,0.4,1.7,0.5s0.8,0.4,1.1,0.8c0.3,0.3,0.5,0.8,0.5,1.4c0,0.5-0.1,0.9-0.4,1.4
				c-0.3,0.4-0.7,0.7-1.2,1c-0.6,0.2-1.2,0.4-2,0.4C345.1-824.2,344.4-824.3,343.7-824.5z"/>
			<path class="st6" d="M354.2-833.2h-3.4v-0.9h7.9v0.9h-3.4v8.9h-1V-833.2z"/>
			<path class="st6" d="M362.5-824.8c-0.8-0.4-1.4-1-1.8-1.8c-0.4-0.8-0.7-1.6-0.7-2.5c0-0.9,0.2-1.8,0.7-2.5s1.1-1.4,1.8-1.8
				c0.8-0.4,1.7-0.7,2.6-0.7s1.8,0.2,2.6,0.6c0.8,0.4,1.4,1,1.8,1.8s0.7,1.6,0.7,2.6c0,0.9-0.2,1.8-0.7,2.6s-1.1,1.4-1.8,1.8
				c-0.8,0.4-1.7,0.6-2.6,0.6S363.3-824.4,362.5-824.8z M367.3-825.6c0.6-0.3,1.1-0.8,1.5-1.5c0.4-0.6,0.5-1.3,0.5-2.1
				c0-0.8-0.2-1.5-0.5-2.1c-0.4-0.6-0.8-1.1-1.5-1.5c-0.6-0.4-1.3-0.5-2.1-0.5c-0.8,0-1.5,0.2-2.1,0.5c-0.6,0.3-1.1,0.8-1.5,1.5
				c-0.4,0.6-0.5,1.3-0.5,2.1c0,0.8,0.2,1.5,0.5,2.1c0.4,0.6,0.9,1.1,1.5,1.5c0.6,0.4,1.3,0.5,2.1,0.5
				C366-825.1,366.7-825.3,367.3-825.6z"/>
			<path class="st6" d="M380-824.2l-2.2-3.2c-0.3,0-0.5,0-0.8,0h-2.6v3.1h-1v-9.8h3.7c1.2,0,2.2,0.3,2.9,0.9
				c0.7,0.6,1.1,1.4,1.1,2.5c0,0.8-0.2,1.4-0.6,1.9c-0.4,0.5-0.9,0.9-1.7,1.1l2.4,3.4H380z M379.2-828.9c0.5-0.4,0.8-1,0.8-1.8
				c0-0.8-0.3-1.4-0.8-1.8c-0.5-0.4-1.3-0.6-2.2-0.6h-2.6v4.9h2.6C377.9-828.2,378.7-828.5,379.2-828.9z"/>
			<path class="st6" d="M391.1-825.1v0.9h-6.9v-9.8h6.7v0.9h-5.7v3.5h5.1v0.9h-5.1v3.6H391.1z"/>
		</g>
		<g class="st5">
			<path class="st6" d="M251.9-803.5c-0.7-0.2-1.2-0.5-1.5-0.9l0.4-0.8c0.4,0.4,0.8,0.6,1.4,0.9c0.6,0.2,1.2,0.3,1.8,0.3
				c0.9,0,1.5-0.2,2-0.5c0.4-0.3,0.7-0.7,0.7-1.3c0-0.4-0.1-0.7-0.4-0.9c-0.2-0.2-0.5-0.4-0.9-0.5c-0.3-0.1-0.8-0.3-1.4-0.4
				c-0.7-0.2-1.3-0.4-1.8-0.5c-0.4-0.2-0.8-0.4-1.1-0.8c-0.3-0.4-0.5-0.8-0.5-1.4c0-0.5,0.1-0.9,0.4-1.4c0.3-0.4,0.7-0.7,1.2-1
				c0.5-0.2,1.2-0.4,2-0.4c0.6,0,1.1,0.1,1.6,0.2c0.5,0.2,1,0.4,1.4,0.6l-0.4,0.8c-0.4-0.3-0.8-0.5-1.3-0.6
				c-0.5-0.1-0.9-0.2-1.4-0.2c-0.9,0-1.5,0.2-1.9,0.5s-0.7,0.8-0.7,1.3c0,0.4,0.1,0.7,0.4,0.9c0.2,0.2,0.5,0.4,0.9,0.5
				s0.8,0.3,1.4,0.4c0.7,0.2,1.3,0.4,1.7,0.5s0.8,0.4,1.1,0.8c0.3,0.3,0.5,0.8,0.5,1.4c0,0.5-0.1,0.9-0.4,1.4
				c-0.3,0.4-0.7,0.7-1.2,1c-0.6,0.2-1.2,0.4-2,0.4C253.2-803.2,252.5-803.3,251.9-803.5z"/>
			<path class="st6" d="M262.3-812.2h-3.4v-0.9h7.9v0.9h-3.4v8.9h-1V-812.2z"/>
			<path class="st6" d="M275.9-803.2l-2.2-3.2c-0.3,0-0.5,0-0.8,0h-2.6v3.1h-1v-9.8h3.7c1.3,0,2.2,0.3,2.9,0.9
				c0.7,0.6,1.1,1.4,1.1,2.5c0,0.8-0.2,1.4-0.6,1.9s-0.9,0.9-1.7,1.1l2.4,3.4H275.9z M275-807.9c0.5-0.4,0.8-1,0.8-1.8
				c0-0.8-0.3-1.4-0.8-1.8s-1.3-0.6-2.2-0.6h-2.6v4.9h2.6C273.8-807.2,274.5-807.5,275-807.9z"/>
			<path class="st6" d="M281-804.3c-0.7-0.7-1.1-1.8-1.1-3.2v-5.6h1v5.6c0,1.1,0.3,2,0.8,2.5c0.5,0.6,1.3,0.8,2.2,0.8
				c1,0,1.7-0.3,2.2-0.8c0.5-0.6,0.8-1.4,0.8-2.5v-5.6h1v5.6c0,1.4-0.4,2.4-1.1,3.2c-0.7,0.7-1.7,1.1-3,1.1
				C282.7-803.2,281.7-803.5,281-804.3z"/>
			<path class="st6" d="M293.4-803.8c-0.8-0.4-1.4-1-1.8-1.8s-0.7-1.6-0.7-2.6c0-0.9,0.2-1.8,0.7-2.6s1.1-1.4,1.8-1.8
				c0.8-0.4,1.7-0.6,2.6-0.6c0.7,0,1.4,0.1,2,0.4c0.6,0.2,1.1,0.6,1.6,1.1L299-811c-0.8-0.8-1.7-1.2-2.9-1.2c-0.8,0-1.5,0.2-2.1,0.5
				s-1.1,0.8-1.5,1.5c-0.4,0.6-0.5,1.3-0.5,2.1c0,0.8,0.2,1.5,0.5,2.1c0.4,0.6,0.9,1.1,1.5,1.5s1.3,0.5,2.1,0.5
				c1.2,0,2.1-0.4,2.9-1.2l0.7,0.7c-0.4,0.5-1,0.8-1.6,1.1s-1.3,0.4-2,0.4C295.1-803.2,294.2-803.4,293.4-803.8z"/>
			<path class="st6" d="M304.3-812.2h-3.4v-0.9h7.9v0.9h-3.4v8.9h-1V-812.2z"/>
			<path class="st6" d="M311.9-804.3c-0.7-0.7-1.1-1.8-1.1-3.2v-5.6h1v5.6c0,1.1,0.3,2,0.8,2.5c0.5,0.6,1.3,0.8,2.2,0.8
				c1,0,1.7-0.3,2.2-0.8c0.5-0.6,0.8-1.4,0.8-2.5v-5.6h1v5.6c0,1.4-0.4,2.4-1.1,3.2c-0.7,0.7-1.7,1.1-3,1.1
				C313.6-803.2,312.7-803.5,311.9-804.3z"/>
			<path class="st6" d="M329.4-803.2l-2.2-3.2c-0.3,0-0.5,0-0.8,0h-2.6v3.1h-1v-9.8h3.7c1.2,0,2.2,0.3,2.9,0.9
				c0.7,0.6,1.1,1.4,1.1,2.5c0,0.8-0.2,1.4-0.6,1.9c-0.4,0.5-0.9,0.9-1.7,1.1l2.4,3.4H329.4z M328.6-807.9c0.5-0.4,0.8-1,0.8-1.8
				c0-0.8-0.3-1.4-0.8-1.8c-0.5-0.4-1.3-0.6-2.2-0.6h-2.6v4.9h2.6C327.4-807.2,328.1-807.5,328.6-807.9z"/>
			<path class="st6" d="M340.5-804.1v0.9h-6.9v-9.8h6.7v0.9h-5.7v3.5h5.1v0.9h-5.1v3.6H340.5z"/>
			<path class="st6" d="M343.6-813h4c1,0,2,0.2,2.7,0.6s1.4,1,1.8,1.7c0.4,0.7,0.7,1.6,0.7,2.5c0,1-0.2,1.8-0.7,2.5
				c-0.4,0.7-1.1,1.3-1.8,1.7s-1.7,0.6-2.7,0.6h-4V-813z M347.6-804.1c0.9,0,1.6-0.2,2.3-0.5c0.6-0.3,1.1-0.8,1.5-1.4
				c0.4-0.6,0.5-1.3,0.5-2.1c0-0.8-0.2-1.5-0.5-2.1c-0.4-0.6-0.9-1.1-1.5-1.4c-0.6-0.3-1.4-0.5-2.3-0.5h-2.9v8H347.6z"/>
			<path class="st6" d="M360.3-813h4c1,0,2,0.2,2.7,0.6s1.4,1,1.8,1.7c0.4,0.7,0.7,1.6,0.7,2.5c0,1-0.2,1.8-0.7,2.5
				c-0.4,0.7-1.1,1.3-1.8,1.7s-1.7,0.6-2.7,0.6h-4V-813z M364.2-804.1c0.9,0,1.6-0.2,2.3-0.5c0.6-0.3,1.1-0.8,1.5-1.4
				c0.4-0.6,0.5-1.3,0.5-2.1c0-0.8-0.2-1.5-0.5-2.1c-0.4-0.6-0.9-1.1-1.5-1.4c-0.6-0.3-1.4-0.5-2.3-0.5h-2.9v8H364.2z"/>
			<path class="st6" d="M378.5-805.9h-5.5l-1.2,2.6h-1.1l4.5-9.8h1l4.5,9.8h-1.1L378.5-805.9z M378.2-806.7l-2.4-5.3l-2.4,5.3H378.2
				z"/>
			<path class="st6" d="M384.5-812.2h-3.4v-0.9h7.9v0.9h-3.4v8.9h-1V-812.2z"/>
			<path class="st6" d="M397-805.9h-5.5l-1.2,2.6h-1.1l4.5-9.8h1l4.5,9.8h-1.1L397-805.9z M396.7-806.7l-2.4-5.3l-2.4,5.3H396.7z"/>
		</g>
	</g>
	<g id="Group_748">
		<g id="Ellipse_407" transform="translate(34 4546.845)">
			<circle class="st2" cx="168.7" cy="-5246.7" r="4.2"/>
			<circle class="st1" cx="168.7" cy="-5246.7" r="3.7"/>
		</g>
		<g id="Ellipse_408" transform="translate(50.844 4546.845)">
			<circle class="st2" cx="168.7" cy="-5246.7" r="4.2"/>
			<circle class="st1" cx="168.7" cy="-5246.7" r="3.7"/>
		</g>
		<g id="Ellipse_409" transform="translate(67.688 4546.845)">
			<circle class="st2" cx="168.7" cy="-5246.7" r="4.2"/>
			<circle class="st1" cx="168.7" cy="-5246.7" r="3.7"/>
		</g>
		<g id="Ellipse_410" transform="translate(84.532 4546.845)">
			<circle class="st2" cx="168.7" cy="-5246.7" r="4.2"/>
			<circle class="st1" cx="168.7" cy="-5246.7" r="3.7"/>
		</g>
		<g id="Ellipse_426" transform="translate(131 4546.847)">
			<circle class="st3" cx="168.7" cy="-5246.7" r="4.2"/>
			<circle class="st4" cx="168.7" cy="-5246.7" r="3.7"/>
		</g>
		<g id="Ellipse_427" transform="translate(147.843 4546.847)">
			<circle class="st3" cx="168.7" cy="-5246.7" r="4.2"/>
			<circle class="st4" cx="168.7" cy="-5246.7" r="3.7"/>
		</g>
		<g id="Ellipse_428" transform="translate(164.687 4546.847)">
			<circle class="st3" cx="168.7" cy="-5246.7" r="4.2"/>
			<circle class="st4" cx="168.7" cy="-5246.7" r="3.7"/>
		</g>
		<g id="Ellipse_429" transform="translate(181.53 4546.847)">
			<circle class="st3" cx="168.7" cy="-5246.7" r="4.2"/>
			<circle class="st4" cx="168.7" cy="-5246.7" r="3.7"/>
		</g>
		<g id="Ellipse_473" transform="translate(220 4546.283)">
			<circle class="st2" cx="168.7" cy="-5246.7" r="4.2"/>
			<circle class="st1" cx="168.7" cy="-5246.7" r="3.7"/>
		</g>
		<g id="Ellipse_474" transform="translate(236.807 4546.283)">
			<circle class="st2" cx="168.7" cy="-5246.7" r="4.2"/>
			<circle class="st1" cx="168.7" cy="-5246.7" r="3.7"/>
		</g>
		<g id="Ellipse_475" transform="translate(253.613 4546.283)">
			<circle class="st2" cx="168.7" cy="-5246.7" r="4.2"/>
			<circle class="st1" cx="168.7" cy="-5246.7" r="3.7"/>
		</g>
		<g id="Ellipse_476" transform="translate(270.42 4546.283)">
			<circle class="st2" cx="168.7" cy="-5246.7" r="4.2"/>
			<circle class="st1" cx="168.7" cy="-5246.7" r="3.7"/>
		</g>
		<g class="st5">
			<path class="st6" d="M235.2-728.7h-5.5l-1.2,2.6h-1.1l4.5-9.8h1l4.5,9.8h-1.1L235.2-728.7z M234.9-729.6l-2.4-5.3l-2.4,5.3H234.9
				z"/>
			<path class="st6" d="M247.5-730.3c0.3,0.4,0.5,0.9,0.5,1.6c0,0.8-0.3,1.5-0.9,1.9s-1.5,0.7-2.8,0.7h-4.5v-9.8h4.2
				c1.1,0,1.9,0.2,2.5,0.7c0.6,0.4,0.9,1.1,0.9,1.9c0,0.5-0.1,1-0.4,1.4c-0.3,0.4-0.6,0.7-1.1,0.8
				C246.7-731,247.1-730.7,247.5-730.3z M240.9-735v3.6h3.1c0.8,0,1.4-0.2,1.8-0.5s0.6-0.7,0.6-1.3c0-0.6-0.2-1-0.6-1.3
				c-0.4-0.3-1-0.5-1.8-0.5H240.9z M246.3-727.4c0.4-0.3,0.7-0.8,0.7-1.4c0-1.2-0.9-1.8-2.7-1.8h-3.5v3.7h3.5
				C245.2-727,245.9-727.1,246.3-727.4z"/>
			<path class="st6" d="M251.1-735.9h1v9.8h-1V-735.9z"/>
			<path class="st6" d="M256-735.9h1v8.9h5.5v0.9H256V-735.9z"/>
			<path class="st6" d="M265-735.9h1v9.8h-1V-735.9z"/>
			<path class="st6" d="M271.8-735h-3.4v-0.9h7.9v0.9h-3.4v8.9h-1V-735z"/>
			<path class="st6" d="M281.9-729.5v3.4h-1v-3.4l-3.9-6.4h1.1l3.4,5.5l3.4-5.5h1L281.9-729.5z"/>
			<path class="st6" d="M294.4-735H291v-0.9h7.9v0.9h-3.4v8.9h-1V-735z"/>
			<path class="st6" d="M302.8-726.7c-0.8-0.4-1.4-1-1.8-1.8c-0.4-0.8-0.7-1.6-0.7-2.5s0.2-1.8,0.7-2.5s1.1-1.3,1.8-1.8
				c0.8-0.4,1.7-0.7,2.6-0.7s1.8,0.2,2.6,0.6s1.4,1,1.8,1.8c0.4,0.8,0.7,1.6,0.7,2.6s-0.2,1.8-0.7,2.6c-0.4,0.8-1.1,1.4-1.8,1.8
				s-1.7,0.6-2.6,0.6S303.5-726.2,302.8-726.7z M307.5-727.5c0.6-0.3,1.1-0.8,1.5-1.5c0.4-0.6,0.5-1.3,0.5-2.1s-0.2-1.5-0.5-2.1
				c-0.4-0.6-0.8-1.1-1.5-1.5c-0.6-0.3-1.3-0.5-2.1-0.5s-1.5,0.2-2.1,0.5s-1.1,0.8-1.5,1.5c-0.4,0.6-0.5,1.3-0.5,2.1
				s0.2,1.5,0.5,2.1c0.4,0.6,0.9,1.1,1.5,1.5s1.3,0.5,2.1,0.5S306.9-727.1,307.5-727.5z"/>
			<path class="st6" d="M317.9-735.9h4c1,0,2,0.2,2.7,0.6c0.8,0.4,1.4,1,1.8,1.7c0.4,0.7,0.7,1.6,0.7,2.5s-0.2,1.8-0.7,2.5
				c-0.4,0.7-1.1,1.3-1.8,1.7c-0.8,0.4-1.7,0.6-2.7,0.6h-4V-735.9z M321.9-727c0.9,0,1.6-0.2,2.3-0.5c0.6-0.3,1.1-0.8,1.5-1.4
				c0.4-0.6,0.5-1.3,0.5-2.1s-0.2-1.5-0.5-2.1c-0.4-0.6-0.9-1.1-1.5-1.4c-0.6-0.3-1.4-0.5-2.3-0.5H319v8H321.9z"/>
			<path class="st6" d="M337.1-727v0.9h-6.9v-9.8h6.7v0.9h-5.7v3.5h5.1v0.9h-5.1v3.6H337.1z"/>
			<path class="st6" d="M340.3-735.9h1v8.9h5.5v0.9h-6.5V-735.9z"/>
			<path class="st6" d="M356.1-727v0.9h-6.9v-9.8h6.7v0.9h-5.7v3.5h5.1v0.9h-5.1v3.6H356.1z"/>
			<path class="st6" d="M361.2-735h-3.4v-0.9h7.9v0.9h-3.4v8.9h-1V-735z"/>
			<path class="st6" d="M374.9-727v0.9H368v-9.8h6.7v0.9H369v3.5h5.1v0.9H369v3.6H374.9z"/>
			<path class="st6" d="M382.4-735.9h4c1,0,2,0.2,2.7,0.6c0.8,0.4,1.4,1,1.8,1.7c0.4,0.7,0.7,1.6,0.7,2.5s-0.2,1.8-0.7,2.5
				c-0.4,0.7-1.1,1.3-1.8,1.7c-0.8,0.4-1.7,0.6-2.7,0.6h-4V-735.9z M386.4-727c0.9,0,1.6-0.2,2.3-0.5c0.6-0.3,1.1-0.8,1.5-1.4
				c0.4-0.6,0.5-1.3,0.5-2.1s-0.2-1.5-0.5-2.1c-0.4-0.6-0.9-1.1-1.5-1.4c-0.6-0.3-1.4-0.5-2.3-0.5h-2.9v8H386.4z"/>
			<path class="st6" d="M400.7-728.7h-5.5l-1.2,2.6H393l4.5-9.8h1l4.5,9.8h-1.1L400.7-728.7z M400.3-729.6l-2.4-5.3l-2.4,5.3H400.3z
				"/>
			<path class="st6" d="M406.7-735h-3.4v-0.9h7.9v0.9h-3.4v8.9h-1V-735z"/>
			<path class="st6" d="M419.2-728.7h-5.5l-1.2,2.6h-1.1l4.5-9.8h1l4.5,9.8h-1.1L419.2-728.7z M418.8-729.6l-2.4-5.3l-2.4,5.3H418.8
				z"/>
		</g>
	</g>
	<g id="Group_749">
		<g id="Ellipse_411" transform="translate(34 4698.955)">
			<circle class="st2" cx="168.7" cy="-5246.7" r="4.2"/>
			<circle class="st1" cx="168.7" cy="-5246.7" r="3.7"/>
		</g>
		<g id="Ellipse_412" transform="translate(50.844 4698.955)">
			<circle class="st2" cx="168.7" cy="-5246.7" r="4.2"/>
			<circle class="st1" cx="168.7" cy="-5246.7" r="3.7"/>
		</g>
		<g id="Ellipse_413" transform="translate(67.688 4698.955)">
			<circle class="st2" cx="168.7" cy="-5246.7" r="4.2"/>
			<circle class="st1" cx="168.7" cy="-5246.7" r="3.7"/>
		</g>
		<g id="Ellipse_414" transform="translate(84.532 4698.955)">
			<circle class="st2" cx="168.7" cy="-5246.7" r="4.2"/>
			<circle class="st1" cx="168.7" cy="-5246.7" r="3.7"/>
		</g>
		<g id="Ellipse_422" transform="translate(131 4698.956)">
			<circle class="st3" cx="168.7" cy="-5246.7" r="4.2"/>
			<circle class="st4" cx="168.7" cy="-5246.7" r="3.7"/>
		</g>
		<g id="Ellipse_423" transform="translate(147.843 4698.956)">
			<circle class="st3" cx="168.7" cy="-5246.7" r="4.2"/>
			<circle class="st4" cx="168.7" cy="-5246.7" r="3.7"/>
		</g>
		<g id="Ellipse_424" transform="translate(164.687 4698.956)">
			<circle class="st3" cx="168.7" cy="-5246.7" r="4.2"/>
			<circle class="st4" cx="168.7" cy="-5246.7" r="3.7"/>
		</g>
		<g id="Ellipse_425" transform="translate(181.53 4698.956)">
			<circle class="st3" cx="168.7" cy="-5246.7" r="4.2"/>
			<circle class="st4" cx="168.7" cy="-5246.7" r="3.7"/>
		</g>
		<g id="Ellipse_477" transform="translate(220 4698.299)">
			<circle class="st2" cx="168.7" cy="-5246.7" r="4.2"/>
			<circle class="st1" cx="168.7" cy="-5246.7" r="3.7"/>
		</g>
		<g id="Ellipse_478" transform="translate(236.807 4698.299)">
			<circle class="st2" cx="168.7" cy="-5246.7" r="4.2"/>
			<circle class="st1" cx="168.7" cy="-5246.7" r="3.7"/>
		</g>
		<g id="Ellipse_479" transform="translate(253.613 4698.299)">
			<circle class="st2" cx="168.7" cy="-5246.7" r="4.2"/>
			<circle class="st1" cx="168.7" cy="-5246.7" r="3.7"/>
		</g>
		<g id="Ellipse_480" transform="translate(270.42 4698.299)">
			<circle class="st2" cx="168.7" cy="-5246.7" r="4.2"/>
			<circle class="st1" cx="168.7" cy="-5246.7" r="3.7"/>
		</g>
		<g class="st5">
			<path class="st6" d="M248.7-646.6l-2.2-3.2c-0.3,0-0.5,0-0.8,0h-2.6v3.1h-1v-9.8h3.7c1.3,0,2.2,0.3,2.9,0.9
				c0.7,0.6,1.1,1.4,1.1,2.5c0,0.8-0.2,1.4-0.6,1.9s-0.9,0.9-1.7,1.1l2.4,3.4H248.7z M247.9-651.2c0.5-0.4,0.8-1,0.8-1.8
				c0-0.8-0.3-1.4-0.8-1.8c-0.5-0.4-1.3-0.6-2.2-0.6h-2.6v4.9h2.6C246.6-650.6,247.4-650.8,247.9-651.2z"/>
			<path class="st6" d="M259.8-647.5v0.9h-6.9v-9.8h6.7v0.9h-5.7v3.5h5.1v0.9h-5.1v3.6H259.8z"/>
			<path class="st6" d="M272.7-645.8c-0.3,0.4-0.7,0.6-1.1,0.8c-0.4,0.2-0.8,0.3-1.3,0.3c-0.6,0-1.1-0.1-1.6-0.4s-1.1-0.8-1.7-1.4
				c-0.9,0-1.8-0.3-2.5-0.7s-1.3-1-1.8-1.8c-0.4-0.7-0.6-1.6-0.6-2.5c0-0.9,0.2-1.8,0.7-2.5s1.1-1.4,1.8-1.8
				c0.8-0.4,1.7-0.7,2.6-0.7s1.8,0.2,2.6,0.6c0.8,0.4,1.4,1,1.8,1.8c0.4,0.8,0.7,1.6,0.7,2.6c0,0.8-0.2,1.6-0.5,2.3
				s-0.8,1.3-1.4,1.7s-1.3,0.8-2.1,0.9c0.7,0.8,1.4,1.1,2.1,1.1c0.7,0,1.3-0.3,1.9-0.9L272.7-645.8z M263.5-649.4
				c0.4,0.6,0.9,1.1,1.5,1.5c0.6,0.4,1.3,0.5,2.1,0.5s1.5-0.2,2.1-0.5c0.6-0.4,1.1-0.8,1.5-1.5c0.4-0.6,0.5-1.3,0.5-2.1
				c0-0.8-0.2-1.5-0.5-2.1c-0.4-0.6-0.8-1.1-1.5-1.5c-0.6-0.4-1.3-0.5-2.1-0.5s-1.5,0.2-2.1,0.5c-0.6,0.4-1.1,0.8-1.5,1.5
				c-0.4,0.6-0.5,1.3-0.5,2.1C263-650.7,263.2-650,263.5-649.4z"/>
			<path class="st6" d="M276.3-647.6c-0.7-0.7-1.1-1.8-1.1-3.2v-5.6h1v5.6c0,1.1,0.3,2,0.8,2.5s1.3,0.8,2.2,0.8c1,0,1.7-0.3,2.2-0.8
				c0.5-0.6,0.8-1.4,0.8-2.5v-5.6h1v5.6c0,1.4-0.4,2.4-1.1,3.2s-1.7,1.1-3,1.1C278-646.5,277-646.9,276.3-647.6z"/>
			<path class="st6" d="M294-647.5v0.9h-6.9v-9.8h6.7v0.9h-5.7v3.5h5.1v0.9h-5.1v3.6H294z"/>
			<path class="st6" d="M297.8-646.9c-0.7-0.2-1.2-0.5-1.5-0.9l0.4-0.8c0.4,0.4,0.8,0.6,1.4,0.9c0.6,0.2,1.2,0.3,1.8,0.3
				c0.9,0,1.5-0.2,2-0.5c0.4-0.3,0.7-0.7,0.7-1.3c0-0.4-0.1-0.7-0.4-0.9c-0.2-0.2-0.5-0.4-0.9-0.5c-0.3-0.1-0.8-0.3-1.4-0.4
				c-0.7-0.2-1.3-0.4-1.8-0.5c-0.4-0.2-0.8-0.4-1.1-0.8c-0.3-0.4-0.5-0.8-0.5-1.4c0-0.5,0.1-0.9,0.4-1.4c0.3-0.4,0.7-0.7,1.2-1
				c0.5-0.2,1.2-0.4,2-0.4c0.6,0,1.1,0.1,1.6,0.2s1,0.4,1.4,0.6l-0.4,0.8c-0.4-0.3-0.8-0.5-1.3-0.6s-0.9-0.2-1.4-0.2
				c-0.9,0-1.5,0.2-1.9,0.5c-0.4,0.3-0.7,0.8-0.7,1.3c0,0.4,0.1,0.7,0.4,0.9c0.2,0.2,0.5,0.4,0.9,0.5c0.4,0.1,0.8,0.3,1.4,0.4
				c0.7,0.2,1.3,0.4,1.7,0.5c0.4,0.2,0.8,0.4,1.1,0.8c0.3,0.3,0.5,0.8,0.5,1.4c0,0.5-0.1,0.9-0.4,1.4c-0.3,0.4-0.7,0.7-1.2,1
				c-0.6,0.2-1.2,0.4-2,0.4C299.1-646.5,298.4-646.6,297.8-646.9z"/>
			<path class="st6" d="M308.2-655.5h-3.4v-0.9h7.9v0.9h-3.4v8.9h-1V-655.5z"/>
			<path class="st6" d="M319.4-656.4h1v8.9h5.5v0.9h-6.5V-656.4z"/>
			<path class="st6" d="M334.5-649.2h-5.5l-1.2,2.6h-1.1l4.5-9.8h1l4.5,9.8h-1.1L334.5-649.2z M334.2-650.1l-2.4-5.3l-2.4,5.3H334.2
				z"/>
			<path class="st6" d="M347.3-656.4v9.8h-0.9l-6.3-8v8h-1v-9.8h0.9l6.3,8v-8H347.3z"/>
			<path class="st6" d="M358.1-651.5h1v3.7c-0.5,0.4-1,0.7-1.6,0.9c-0.6,0.2-1.3,0.3-2,0.3c-1,0-1.9-0.2-2.6-0.6
				c-0.8-0.4-1.4-1-1.8-1.8c-0.4-0.8-0.7-1.6-0.7-2.6c0-0.9,0.2-1.8,0.7-2.6c0.4-0.8,1.1-1.4,1.8-1.8c0.8-0.4,1.7-0.6,2.7-0.6
				c0.7,0,1.4,0.1,2.1,0.4c0.6,0.2,1.2,0.6,1.6,1.1l-0.6,0.7c-0.8-0.8-1.8-1.1-3-1.1c-0.8,0-1.5,0.2-2.1,0.5
				c-0.6,0.3-1.1,0.8-1.5,1.5s-0.5,1.3-0.5,2.1c0,0.8,0.2,1.5,0.5,2.1c0.4,0.6,0.9,1.1,1.5,1.5c0.6,0.4,1.3,0.5,2.1,0.5
				c1,0,1.9-0.3,2.6-0.8V-651.5z"/>
			<path class="st6" d="M363.7-647.6c-0.7-0.7-1.1-1.8-1.1-3.2v-5.6h1v5.6c0,1.1,0.3,2,0.8,2.5c0.5,0.6,1.3,0.8,2.2,0.8
				c1,0,1.7-0.3,2.2-0.8s0.8-1.4,0.8-2.5v-5.6h1v5.6c0,1.4-0.4,2.4-1.1,3.2c-0.7,0.7-1.7,1.1-3,1.1S364.4-646.9,363.7-647.6z"/>
			<path class="st6" d="M380.5-649.2H375l-1.2,2.6h-1.1l4.5-9.8h1l4.5,9.8h-1.1L380.5-649.2z M380.1-650.1l-2.4-5.3l-2.4,5.3H380.1z
				"/>
			<path class="st6" d="M391.8-651.5h1v3.7c-0.5,0.4-1,0.7-1.6,0.9c-0.6,0.2-1.3,0.3-2,0.3c-1,0-1.9-0.2-2.6-0.6
				c-0.8-0.4-1.4-1-1.8-1.8c-0.4-0.8-0.7-1.6-0.7-2.6c0-0.9,0.2-1.8,0.7-2.6c0.4-0.8,1.1-1.4,1.8-1.8c0.8-0.4,1.7-0.6,2.7-0.6
				c0.7,0,1.4,0.1,2.1,0.4c0.6,0.2,1.2,0.6,1.6,1.1l-0.6,0.7c-0.8-0.8-1.8-1.1-3-1.1c-0.8,0-1.5,0.2-2.1,0.5
				c-0.6,0.3-1.1,0.8-1.5,1.5c-0.4,0.6-0.5,1.3-0.5,2.1c0,0.8,0.2,1.5,0.5,2.1c0.4,0.6,0.9,1.1,1.5,1.5c0.6,0.4,1.3,0.5,2.1,0.5
				c1,0,1.9-0.3,2.6-0.8V-651.5z"/>
			<path class="st6" d="M403.4-647.5v0.9h-6.9v-9.8h6.7v0.9h-5.7v3.5h5.1v0.9h-5.1v3.6H403.4z"/>
		</g>
		<g class="st5">
			<path class="st6" d="M217.4-632.4l-3.3,9.8H213l-2.9-8.4l-2.9,8.4h-1.1l-3.3-9.8h1.1l2.8,8.4l2.9-8.4h1l2.9,8.5l2.9-8.5H217.4z"
				/>
			<path class="st6" d="M220-632.4h1v9.8h-1V-632.4z"/>
			<path class="st6" d="M226.8-631.5h-3.4v-0.9h7.9v0.9h-3.4v8.9h-1V-631.5z"/>
			<path class="st6" d="M241.8-632.4v9.8h-1v-4.5h-6.1v4.5h-1v-9.8h1v4.4h6.1v-4.4H241.8z"/>
			<path class="st6" d="M256.2-625.2h-5.5l-1.2,2.6h-1.1l4.5-9.8h1l4.5,9.8h-1.1L256.2-625.2z M255.8-626.1l-2.4-5.3l-2.4,5.3H255.8
				z"/>
			<path class="st6" d="M269-632.4v9.8h-0.9l-6.3-8v8h-1v-9.8h0.9l6.3,8v-8H269z"/>
			<path class="st6" d="M283.4-625.2h-5.5l-1.2,2.6h-1.1l4.5-9.8h1l4.5,9.8h-1.1L283.4-625.2z M283-626.1l-2.4-5.3l-2.4,5.3H283z"/>
			<path class="st6" d="M295.7-626.8c0.3,0.4,0.5,0.9,0.5,1.6c0,0.8-0.3,1.5-0.9,1.9c-0.6,0.5-1.5,0.7-2.8,0.7H288v-9.8h4.2
				c1.1,0,1.9,0.2,2.5,0.7c0.6,0.4,0.9,1.1,0.9,1.9c0,0.5-0.1,1-0.4,1.4c-0.3,0.4-0.6,0.7-1.1,0.8
				C294.8-627.5,295.3-627.2,295.7-626.8z M289-631.5v3.6h3.1c0.8,0,1.4-0.2,1.8-0.5c0.4-0.3,0.6-0.7,0.6-1.3c0-0.6-0.2-1-0.6-1.3
				c-0.4-0.3-1-0.5-1.8-0.5H289z M294.5-623.9c0.4-0.3,0.7-0.8,0.7-1.4c0-1.2-0.9-1.8-2.7-1.8H289v3.7h3.5
				C293.4-623.5,294-623.6,294.5-623.9z"/>
			<path class="st6" d="M299.3-632.4h1v9.8h-1V-632.4z"/>
			<path class="st6" d="M304.2-632.4h1v8.9h5.5v0.9h-6.5V-632.4z"/>
			<path class="st6" d="M313.1-632.4h1v9.8h-1V-632.4z"/>
			<path class="st6" d="M320-631.5h-3.4v-0.9h7.9v0.9H321v8.9h-1V-631.5z"/>
			<path class="st6" d="M330.1-626v3.4h-1v-3.4l-3.9-6.4h1.1l3.4,5.5l3.4-5.5h1L330.1-626z"/>
			<path class="st6" d="M342.6-631.5h-3.4v-0.9h7.9v0.9h-3.4v8.9h-1V-631.5z"/>
			<path class="st6" d="M350.9-623.2c-0.8-0.4-1.4-1-1.8-1.8s-0.7-1.6-0.7-2.5c0-0.9,0.2-1.8,0.7-2.5s1.1-1.4,1.8-1.8
				c0.8-0.4,1.7-0.7,2.6-0.7s1.8,0.2,2.6,0.6c0.8,0.4,1.4,1,1.8,1.8c0.4,0.8,0.7,1.6,0.7,2.6c0,0.9-0.2,1.8-0.7,2.6
				c-0.4,0.8-1.1,1.4-1.8,1.8c-0.8,0.4-1.7,0.6-2.6,0.6S351.7-622.7,350.9-623.2z M355.7-624c0.6-0.3,1.1-0.8,1.5-1.5
				c0.4-0.6,0.5-1.3,0.5-2.1c0-0.8-0.2-1.5-0.5-2.1c-0.4-0.6-0.8-1.1-1.5-1.5c-0.6-0.4-1.3-0.5-2.1-0.5c-0.8,0-1.5,0.2-2.1,0.5
				c-0.6,0.3-1.1,0.8-1.5,1.5c-0.4,0.6-0.5,1.3-0.5,2.1c0,0.8,0.2,1.5,0.5,2.1c0.4,0.6,0.9,1.1,1.5,1.5c0.6,0.4,1.3,0.5,2.1,0.5
				C354.3-623.4,355-623.6,355.7-624z"/>
			<path class="st6" d="M367.7-623.2c-0.8-0.4-1.4-1-1.8-1.8c-0.4-0.8-0.7-1.6-0.7-2.6c0-0.9,0.2-1.8,0.7-2.6
				c0.4-0.8,1.1-1.4,1.8-1.8c0.8-0.4,1.7-0.6,2.6-0.6c0.7,0,1.4,0.1,2,0.4s1.1,0.6,1.6,1.1l-0.7,0.7c-0.8-0.8-1.7-1.2-2.9-1.2
				c-0.8,0-1.5,0.2-2.1,0.5c-0.6,0.4-1.1,0.8-1.5,1.5c-0.4,0.6-0.5,1.3-0.5,2.1c0,0.8,0.2,1.5,0.5,2.1c0.4,0.6,0.9,1.1,1.5,1.5
				c0.6,0.4,1.3,0.5,2.1,0.5c1.2,0,2.1-0.4,2.9-1.2l0.7,0.7c-0.4,0.5-1,0.8-1.6,1.1c-0.6,0.2-1.3,0.4-2,0.4
				C369.4-622.5,368.5-622.7,367.7-623.2z"/>
			<path class="st6" d="M378.3-623.2c-0.8-0.4-1.4-1-1.8-1.8s-0.7-1.6-0.7-2.5c0-0.9,0.2-1.8,0.7-2.5s1.1-1.4,1.8-1.8
				s1.7-0.7,2.6-0.7s1.8,0.2,2.6,0.6c0.8,0.4,1.4,1,1.8,1.8c0.4,0.8,0.7,1.6,0.7,2.6c0,0.9-0.2,1.8-0.7,2.6
				c-0.4,0.8-1.1,1.4-1.8,1.8c-0.8,0.4-1.7,0.6-2.6,0.6S379.1-622.7,378.3-623.2z M383-624c0.6-0.3,1.1-0.8,1.5-1.5s0.5-1.3,0.5-2.1
				c0-0.8-0.2-1.5-0.5-2.1s-0.8-1.1-1.5-1.5c-0.6-0.4-1.3-0.5-2.1-0.5c-0.8,0-1.5,0.2-2.1,0.5c-0.6,0.3-1.1,0.8-1.5,1.5
				s-0.5,1.3-0.5,2.1c0,0.8,0.2,1.5,0.5,2.1s0.9,1.1,1.5,1.5c0.6,0.4,1.3,0.5,2.1,0.5C381.7-623.4,382.4-623.6,383-624z"/>
			<path class="st6" d="M397.3-632.4v9.8h-0.9l-6.3-8v8h-1v-9.8h0.9l6.3,8v-8H397.3z"/>
			<path class="st6" d="M401.2-632.4h4c1,0,2,0.2,2.7,0.6c0.8,0.4,1.4,1,1.8,1.7c0.4,0.7,0.7,1.6,0.7,2.5c0,1-0.2,1.8-0.7,2.5
				c-0.4,0.7-1.1,1.3-1.8,1.7c-0.8,0.4-1.7,0.6-2.7,0.6h-4V-632.4z M405.1-623.5c0.9,0,1.6-0.2,2.3-0.5c0.6-0.3,1.1-0.8,1.5-1.4
				s0.5-1.3,0.5-2.1c0-0.8-0.2-1.5-0.5-2.1s-0.9-1.1-1.5-1.4c-0.6-0.3-1.4-0.5-2.3-0.5h-2.9v8H405.1z"/>
			<path class="st6" d="M414.4-623.6c-0.7-0.7-1.1-1.8-1.1-3.2v-5.6h1v5.6c0,1.1,0.3,2,0.8,2.5c0.5,0.6,1.3,0.8,2.2,0.8
				c1,0,1.7-0.3,2.2-0.8c0.5-0.6,0.8-1.4,0.8-2.5v-5.6h1v5.6c0,1.4-0.4,2.4-1.1,3.2c-0.7,0.7-1.7,1.1-3,1.1
				C416.1-622.5,415.1-622.9,414.4-623.6z"/>
			<path class="st6" d="M426.9-623.2c-0.8-0.4-1.4-1-1.8-1.8c-0.4-0.8-0.7-1.6-0.7-2.6c0-0.9,0.2-1.8,0.7-2.6
				c0.4-0.8,1.1-1.4,1.8-1.8c0.8-0.4,1.7-0.6,2.6-0.6c0.7,0,1.4,0.1,2,0.4c0.6,0.2,1.1,0.6,1.6,1.1l-0.7,0.7
				c-0.8-0.8-1.7-1.2-2.9-1.2c-0.8,0-1.5,0.2-2.1,0.5c-0.6,0.4-1.1,0.8-1.5,1.5c-0.4,0.6-0.5,1.3-0.5,2.1c0,0.8,0.2,1.5,0.5,2.1
				c0.4,0.6,0.9,1.1,1.5,1.5c0.6,0.4,1.3,0.5,2.1,0.5c1.2,0,2.1-0.4,2.9-1.2l0.7,0.7c-0.4,0.5-1,0.8-1.6,1.1c-0.6,0.2-1.3,0.4-2,0.4
				C428.5-622.5,427.6-622.7,426.9-623.2z"/>
			<path class="st6" d="M437.8-631.5h-3.4v-0.9h7.9v0.9h-3.4v8.9h-1V-631.5z"/>
		</g>
		<g class="st5">
			<path class="st6" d="M216.1-598.9c-0.7-0.2-1.2-0.5-1.5-0.9l0.4-0.8c0.4,0.4,0.8,0.6,1.4,0.9c0.6,0.2,1.2,0.3,1.8,0.3
				c0.9,0,1.5-0.2,2-0.5c0.4-0.3,0.7-0.7,0.7-1.3c0-0.4-0.1-0.7-0.4-0.9c-0.2-0.2-0.5-0.4-0.9-0.5c-0.3-0.1-0.8-0.3-1.4-0.4
				c-0.7-0.2-1.3-0.4-1.8-0.5c-0.4-0.2-0.8-0.4-1.1-0.8c-0.3-0.4-0.5-0.8-0.5-1.4c0-0.5,0.1-0.9,0.4-1.4s0.7-0.7,1.2-1
				s1.2-0.4,2-0.4c0.6,0,1.1,0.1,1.6,0.2c0.5,0.2,1,0.4,1.4,0.6l-0.3,0.8c-0.4-0.3-0.8-0.5-1.3-0.6s-0.9-0.2-1.4-0.2
				c-0.9,0-1.5,0.2-1.9,0.5c-0.4,0.3-0.7,0.8-0.7,1.3c0,0.4,0.1,0.7,0.4,0.9c0.2,0.2,0.5,0.4,0.9,0.5c0.4,0.1,0.8,0.3,1.4,0.4
				c0.7,0.2,1.3,0.4,1.7,0.5c0.4,0.2,0.8,0.4,1.1,0.8c0.3,0.3,0.5,0.8,0.5,1.4c0,0.5-0.1,0.9-0.4,1.4c-0.3,0.4-0.7,0.7-1.2,1
				c-0.6,0.2-1.2,0.4-2,0.4C217.5-598.5,216.8-598.6,216.1-598.9z"/>
			<path class="st6" d="M231.7-599.5v0.9h-6.9v-9.8h6.7v0.9h-5.7v3.5h5.1v0.9h-5.1v3.6H231.7z"/>
			<path class="st6" d="M241-601.2h-5.5l-1.2,2.6h-1.1l4.5-9.8h1l4.5,9.8h-1.1L241-601.2z M240.6-602.1l-2.4-5.3l-2.4,5.3H240.6z"/>
			<path class="st6" d="M252.3-598.6l-2.2-3.2c-0.3,0-0.5,0-0.8,0h-2.6v3.1h-1v-9.8h3.7c1.3,0,2.2,0.3,2.9,0.9
				c0.7,0.6,1.1,1.4,1.1,2.5c0,0.8-0.2,1.4-0.6,1.9c-0.4,0.5-0.9,0.9-1.7,1.1l2.4,3.4H252.3z M251.5-603.2c0.5-0.4,0.8-1,0.8-1.8
				c0-0.8-0.3-1.4-0.8-1.8c-0.5-0.4-1.3-0.6-2.2-0.6h-2.6v4.9h2.6C250.2-602.6,250.9-602.8,251.5-603.2z"/>
			<path class="st6" d="M258-599.2c-0.8-0.4-1.4-1-1.8-1.8c-0.4-0.8-0.7-1.6-0.7-2.6c0-0.9,0.2-1.8,0.7-2.6c0.4-0.8,1.1-1.4,1.8-1.8
				c0.8-0.4,1.7-0.6,2.6-0.6c0.7,0,1.4,0.1,2,0.4c0.6,0.2,1.1,0.6,1.6,1.1l-0.7,0.7c-0.8-0.8-1.7-1.2-2.9-1.2
				c-0.8,0-1.5,0.2-2.1,0.5c-0.6,0.4-1.1,0.8-1.5,1.5c-0.4,0.6-0.5,1.3-0.5,2.1c0,0.8,0.2,1.5,0.5,2.1c0.4,0.6,0.9,1.1,1.5,1.5
				c0.6,0.4,1.3,0.5,2.1,0.5c1.2,0,2.1-0.4,2.9-1.2l0.7,0.7c-0.4,0.5-1,0.8-1.6,1.1c-0.6,0.2-1.3,0.4-2,0.4
				C259.7-598.5,258.8-598.7,258-599.2z"/>
			<path class="st6" d="M275.4-608.4v9.8h-1v-4.5h-6.1v4.5h-1v-9.8h1v4.4h6.1v-4.4H275.4z"/>
			<path class="st6" d="M284.6-599.6c-0.7-0.7-1.1-1.8-1.1-3.2v-5.6h1v5.6c0,1.1,0.3,2,0.8,2.5c0.5,0.6,1.3,0.8,2.2,0.8
				c1,0,1.7-0.3,2.2-0.8s0.8-1.4,0.8-2.5v-5.6h1v5.6c0,1.4-0.4,2.4-1.1,3.2c-0.7,0.7-1.7,1.1-3,1.1S285.3-598.9,284.6-599.6z"/>
			<path class="st6" d="M296-598.9c-0.7-0.2-1.2-0.5-1.5-0.9l0.4-0.8c0.4,0.4,0.8,0.6,1.4,0.9c0.6,0.2,1.2,0.3,1.8,0.3
				c0.9,0,1.5-0.2,2-0.5c0.4-0.3,0.7-0.7,0.7-1.3c0-0.4-0.1-0.7-0.4-0.9c-0.2-0.2-0.5-0.4-0.9-0.5c-0.3-0.1-0.8-0.3-1.4-0.4
				c-0.7-0.2-1.3-0.4-1.8-0.5c-0.4-0.2-0.8-0.4-1.1-0.8c-0.3-0.4-0.5-0.8-0.5-1.4c0-0.5,0.1-0.9,0.4-1.4c0.3-0.4,0.7-0.7,1.2-1
				c0.5-0.2,1.2-0.4,2-0.4c0.6,0,1.1,0.1,1.6,0.2c0.5,0.2,1,0.4,1.4,0.6l-0.4,0.8c-0.4-0.3-0.8-0.5-1.3-0.6s-0.9-0.2-1.4-0.2
				c-0.9,0-1.5,0.2-1.9,0.5c-0.4,0.3-0.7,0.8-0.7,1.3c0,0.4,0.1,0.7,0.4,0.9c0.2,0.2,0.5,0.4,0.9,0.5c0.4,0.1,0.8,0.3,1.4,0.4
				c0.7,0.2,1.3,0.4,1.7,0.5c0.4,0.2,0.8,0.4,1.1,0.8c0.3,0.3,0.5,0.8,0.5,1.4c0,0.5-0.1,0.9-0.4,1.4s-0.7,0.7-1.2,1
				c-0.6,0.2-1.2,0.4-2,0.4C297.4-598.5,296.7-598.6,296-598.9z"/>
			<path class="st6" d="M304.7-608.4h1v9.8h-1V-608.4z"/>
			<path class="st6" d="M317.8-608.4v9.8H317l-6.3-8v8h-1v-9.8h0.9l6.3,8v-8H317.8z"/>
			<path class="st6" d="M328.6-603.5h1v3.7c-0.5,0.4-1,0.7-1.6,0.9c-0.6,0.2-1.3,0.3-2,0.3c-1,0-1.9-0.2-2.6-0.6
				c-0.8-0.4-1.4-1-1.8-1.8c-0.4-0.8-0.7-1.6-0.7-2.6c0-0.9,0.2-1.8,0.7-2.6c0.4-0.8,1.1-1.4,1.8-1.8c0.8-0.4,1.7-0.6,2.7-0.6
				c0.7,0,1.4,0.1,2.1,0.4c0.6,0.2,1.2,0.6,1.6,1.1l-0.6,0.7c-0.8-0.8-1.8-1.1-3-1.1c-0.8,0-1.5,0.2-2.1,0.5
				c-0.6,0.3-1.1,0.8-1.5,1.5c-0.4,0.6-0.5,1.3-0.5,2.1c0,0.8,0.2,1.5,0.5,2.1c0.4,0.6,0.9,1.1,1.5,1.5c0.6,0.4,1.3,0.5,2.1,0.5
				c1,0,1.9-0.3,2.6-0.8V-603.5z"/>
			<path class="st6" d="M347.8-608.4v9.8h-1v-7.8l-3.8,6.6h-0.5l-3.9-6.6v7.8h-1v-9.8h0.9l4.3,7.3l4.2-7.3H347.8z"/>
			<path class="st6" d="M353.3-599.2c-0.8-0.4-1.4-1-1.8-1.8s-0.7-1.6-0.7-2.5c0-0.9,0.2-1.8,0.7-2.5s1.1-1.4,1.8-1.8
				c0.8-0.4,1.7-0.7,2.6-0.7s1.8,0.2,2.6,0.6c0.8,0.4,1.4,1,1.8,1.8c0.4,0.8,0.7,1.6,0.7,2.6c0,0.9-0.2,1.8-0.7,2.6
				c-0.4,0.8-1.1,1.4-1.8,1.8c-0.8,0.4-1.7,0.6-2.6,0.6S354.1-598.7,353.3-599.2z M358.1-600c0.6-0.3,1.1-0.8,1.5-1.5
				c0.4-0.6,0.5-1.3,0.5-2.1c0-0.8-0.2-1.5-0.5-2.1c-0.4-0.6-0.8-1.1-1.5-1.5c-0.6-0.4-1.3-0.5-2.1-0.5c-0.8,0-1.5,0.2-2.1,0.5
				c-0.6,0.3-1.1,0.8-1.5,1.5c-0.4,0.6-0.5,1.3-0.5,2.1c0,0.8,0.2,1.5,0.5,2.1c0.4,0.6,0.9,1.1,1.5,1.5c0.6,0.4,1.3,0.5,2.1,0.5
				C356.8-599.4,357.5-599.6,358.1-600z"/>
			<path class="st6" d="M370.8-598.6l-2.2-3.2c-0.3,0-0.5,0-0.8,0h-2.6v3.1h-1v-9.8h3.7c1.2,0,2.2,0.3,2.9,0.9
				c0.7,0.6,1.1,1.4,1.1,2.5c0,0.8-0.2,1.4-0.6,1.9c-0.4,0.5-0.9,0.9-1.7,1.1l2.4,3.4H370.8z M370-603.2c0.5-0.4,0.8-1,0.8-1.8
				c0-0.8-0.3-1.4-0.8-1.8c-0.5-0.4-1.3-0.6-2.2-0.6h-2.6v4.9h2.6C368.8-602.6,369.5-602.8,370-603.2z"/>
			<path class="st6" d="M381.9-599.5v0.9H375v-9.8h6.7v0.9H376v3.5h5.1v0.9H376v3.6H381.9z"/>
			<path class="st6" d="M391.3-607.5h-3.4v-0.9h7.9v0.9h-3.4v8.9h-1V-607.5z"/>
			<path class="st6" d="M406.3-608.4v9.8h-1v-4.5h-6.1v4.5h-1v-9.8h1v4.4h6.1v-4.4H406.3z"/>
			<path class="st6" d="M416.4-601.2h-5.5l-1.2,2.6h-1.1l4.5-9.8h1l4.5,9.8h-1.1L416.4-601.2z M416-602.1l-2.4-5.3l-2.4,5.3H416z"/>
			<path class="st6" d="M429.1-608.4v9.8h-0.9l-6.3-8v8h-1v-9.8h0.9l6.3,8v-8H429.1z"/>
		</g>
		<g class="st5">
			<path class="st6" d="M257.7-583.5h-3.4v-0.9h7.9v0.9h-3.4v8.9h-1V-583.5z"/>
			<path class="st6" d="M272.7-584.4v9.8h-1v-4.5h-6.1v4.5h-1v-9.8h1v4.4h6.1v-4.4H272.7z"/>
			<path class="st6" d="M283.6-575.5v0.9h-6.9v-9.8h6.7v0.9h-5.7v3.5h5.1v0.9h-5.1v3.6H283.6z"/>
			<path class="st6" d="M297.7-583.5c0.7,0.6,1.1,1.4,1.1,2.5s-0.4,1.9-1.1,2.5c-0.7,0.6-1.7,0.9-2.9,0.9h-2.6v3.1h-1v-9.8h3.7
				C296-584.4,297-584.1,297.7-583.5z M296.9-579.2c0.5-0.4,0.8-1,0.8-1.8c0-0.8-0.3-1.4-0.8-1.8c-0.5-0.4-1.3-0.6-2.2-0.6h-2.6v4.9
				h2.6C295.7-578.6,296.4-578.8,296.9-579.2z"/>
			<path class="st6" d="M308.4-574.6l-2.2-3.2c-0.3,0-0.5,0-0.8,0h-2.6v3.1h-1v-9.8h3.7c1.3,0,2.2,0.3,2.9,0.9
				c0.7,0.6,1.1,1.4,1.1,2.5c0,0.8-0.2,1.4-0.6,1.9s-0.9,0.9-1.7,1.1l2.4,3.4H308.4z M307.6-579.2c0.5-0.4,0.8-1,0.8-1.8
				c0-0.8-0.3-1.4-0.8-1.8c-0.5-0.4-1.3-0.6-2.2-0.6h-2.6v4.9h2.6C306.3-578.6,307-578.8,307.6-579.2z"/>
			<path class="st6" d="M312.5-584.4h1v9.8h-1V-584.4z"/>
			<path class="st6" d="M327.6-584.4v9.8h-1v-7.8l-3.8,6.6h-0.5l-3.9-6.6v7.8h-1v-9.8h0.9l4.3,7.3l4.2-7.3H327.6z"/>
			<path class="st6" d="M337.7-577.2h-5.5l-1.2,2.6h-1.1l4.5-9.8h1l4.5,9.8h-1.1L337.7-577.2z M337.3-578.1l-2.4-5.3l-2.4,5.3H337.3
				z"/>
			<path class="st6" d="M348.9-574.6l-2.2-3.2c-0.3,0-0.5,0-0.8,0h-2.6v3.1h-1v-9.8h3.7c1.2,0,2.2,0.3,2.9,0.9
				c0.7,0.6,1.1,1.4,1.1,2.5c0,0.8-0.2,1.4-0.6,1.9c-0.4,0.5-0.9,0.9-1.7,1.1l2.4,3.4H348.9z M348.1-579.2c0.5-0.4,0.8-1,0.8-1.8
				c0-0.8-0.3-1.4-0.8-1.8c-0.5-0.4-1.3-0.6-2.2-0.6h-2.6v4.9h2.6C346.9-578.6,347.6-578.8,348.1-579.2z"/>
			<path class="st6" d="M356.3-578v3.4h-1v-3.4l-3.9-6.4h1.1l3.4,5.5l3.4-5.5h1L356.3-578z"/>
			<path class="st6" d="M369.9-579.2l-2,2v2.6h-1v-9.8h1v5.9l5.8-5.9h1.2l-4.2,4.4l4.5,5.4h-1.2L369.9-579.2z"/>
			<path class="st6" d="M384.5-575.5v0.9h-6.9v-9.8h6.7v0.9h-5.7v3.5h5.1v0.9h-5.1v3.6H384.5z"/>
			<path class="st6" d="M390.8-578v3.4h-1v-3.4l-3.9-6.4h1.1l3.4,5.5l3.4-5.5h1L390.8-578z"/>
		</g>
	</g>
</g>
</svg>
