<svg xmlns="http://www.w3.org/2000/svg" viewBox="-748.734 2428 440.349 256.061"><defs><style>.a{fill:#e5e5e5;}.b{fill:#2c3e4f;}.c{fill:#fff;}.d{fill:#b2e7f2;opacity:0.618;}.e{fill:#ad2e40;}</style></defs><g transform="translate(-1533 -6)"><g transform="translate(784.254 2434)"><path class="a" d="M428.691,222.179V7.084A6.989,6.989,0,0,0,421.861,0H81.331A6.99,6.99,0,0,0,74.5,7.084v215.1Z" transform="translate(-36.798)"/><path class="b" d="M52.769,233.738a48.069,48.069,0,1,1,48.069-48.069A48.112,48.112,0,0,1,52.769,233.738Zm0-95.935a47.866,47.866,0,1,0,47.866,47.866A47.9,47.9,0,0,0,52.769,137.8Z" transform="translate(-2.316 -67.976)"/><path class="b" d="M155.8,157.226A2.226,2.226,0,1,0,158.026,155,2.246,2.246,0,0,0,155.8,157.226Z" transform="translate(-76.961 -76.572)"/><path class="b" d="M121.4,219.126a2.226,2.226,0,1,0,2.226-2.226A2.183,2.183,0,0,0,121.4,219.126Z" transform="translate(-59.967 -107.151)"/><path class="b" d="M113.8,192.526a2.226,2.226,0,1,0,2.226-2.226A2.246,2.246,0,0,0,113.8,192.526Z" transform="translate(-56.213 -94.011)"/><path class="b" d="M97.6,198.419a1.619,1.619,0,1,0,1.619-1.619A1.6,1.6,0,0,0,97.6,198.419Z" transform="translate(-48.21 -97.222)"/><path class="b" d="M66.9,242.619A1.619,1.619,0,1,0,68.519,241,1.63,1.63,0,0,0,66.9,242.619Z" transform="translate(-33.044 -119.057)"/><path class="b" d="M95.3,264.426a2.226,2.226,0,1,0,2.226-2.226A2.183,2.183,0,0,0,95.3,264.426Z" transform="translate(-47.074 -129.53)"/><circle class="b" cx="1.619" cy="1.619" r="1.619" transform="translate(25.356 110.204)"/><path class="b" d="M170.3,288.926a2.226,2.226,0,1,0,2.226-2.226A2.183,2.183,0,0,0,170.3,288.926Z" transform="translate(-84.124 -141.633)"/><path class="b" d="M80,324.319a1.619,1.619,0,1,0,1.619-1.619A1.664,1.664,0,0,0,80,324.319Z" transform="translate(-39.515 -159.418)"/><circle class="b" cx="1.619" cy="1.619" r="1.619" transform="translate(23.635 156.654)"/><path class="b" d="M22,171.426a2.226,2.226,0,1,0,2.226-2.226A2.213,2.213,0,0,0,22,171.426Z" transform="translate(-10.862 -83.587)"/><circle class="b" cx="1.619" cy="1.619" r="1.619" transform="translate(7.697 91.533)"/><path class="b" d="M189.9,230.426a2.226,2.226,0,1,0,2.226-2.226A2.213,2.213,0,0,0,189.9,230.426Z" transform="translate(-93.807 -112.734)"/><circle class="b" cx="2.226" cy="2.226" r="2.226" transform="translate(49.593 163.434)"/><path class="b" d="M114,138.658a.658.658,0,1,0,.658-.658A.67.67,0,0,0,114,138.658Z" transform="translate(-56.312 -68.174)"/><circle class="b" cx="2.226" cy="2.226" r="2.226" transform="translate(79.901 151.392)"/><path class="b" d="M33.6,301.458a.658.658,0,1,0,.658-.658A.67.67,0,0,0,33.6,301.458Z" transform="translate(-16.593 -148.599)"/><circle class="b" cx="0.658" cy="0.658" r="0.658" transform="translate(2.384 109.395)"/><path class="b" d="M30.2,166.158a.658.658,0,1,0,.658-.658A.67.67,0,0,0,30.2,166.158Z" transform="translate(-14.913 -81.759)"/><path class="b" d="M61.4,144.558a.658.658,0,1,0,.658-.658A.707.707,0,0,0,61.4,144.558Z" transform="translate(-30.327 -71.088)"/><path class="b" d="M129.9,142.165a1.265,1.265,0,1,0,1.265-1.265A1.253,1.253,0,0,0,129.9,142.165Z" transform="translate(-64.166 -69.606)"/><path class="b" d="M184.6,192.758a.658.658,0,1,0,.658-.658A.707.707,0,0,0,184.6,192.758Z" transform="translate(-91.189 -94.9)"/><path class="b" d="M167,297.758a.658.658,0,1,0,.658-.658A.638.638,0,0,0,167,297.758Z" transform="translate(-82.494 -146.771)"/><path class="b" d="M138.1,317.958a.658.658,0,1,0,.658-.658A.638.638,0,0,0,138.1,317.958Z" transform="translate(-68.217 -156.75)"/><path class="b" d="M67.1,321.758a.658.658,0,1,0,.658-.658A.67.67,0,0,0,67.1,321.758Z" transform="translate(-33.142 -158.627)"/><path class="b" d="M14.8,278.565a1.265,1.265,0,1,0,1.265-1.265A1.285,1.285,0,0,0,14.8,278.565Z" transform="translate(-7.306 -136.99)"/><path class="b" d="M4.1,249.465A1.265,1.265,0,1,0,5.365,248.2,1.253,1.253,0,0,0,4.1,249.465Z" transform="translate(-2.02 -122.614)"/><path class="b" d="M5.2,208.165A1.265,1.265,0,1,0,6.465,206.9,1.253,1.253,0,0,0,5.2,208.165Z" transform="translate(-2.563 -102.211)"/><path class="b" d="M46,151.165a1.265,1.265,0,1,0,1.265-1.265A1.285,1.285,0,0,0,46,151.165Z" transform="translate(-22.719 -74.052)"/><circle class="b" cx="1.619" cy="1.619" r="1.619" transform="translate(51.515 68.055)"/><path class="b" d="M171.1,172.465a1.265,1.265,0,1,0,1.265-1.265A1.253,1.253,0,0,0,171.1,172.465Z" transform="translate(-84.52 -84.575)"/><path class="b" d="M187.9,204.865a1.265,1.265,0,1,0,1.265-1.265A1.253,1.253,0,0,0,187.9,204.865Z" transform="translate(-92.819 -100.581)"/><path class="b" d="M190.2,249.665a1.265,1.265,0,1,0,1.265-1.265A1.253,1.253,0,0,0,190.2,249.665Z" transform="translate(-93.955 -122.713)"/><path class="b" d="M181.7,274.665a1.265,1.265,0,1,0,1.265-1.265A1.253,1.253,0,0,0,181.7,274.665Z" transform="translate(-89.756 -135.063)"/><path class="b" d="M145.1,313.761a.961.961,0,1,0,.961-.961A1,1,0,0,0,145.1,313.761Z" transform="translate(-71.675 -154.527)"/><path class="b" d="M112.6,324.762a1.265,1.265,0,1,0,1.265-1.265A1.223,1.223,0,0,0,112.6,324.762Z" transform="translate(-55.62 -159.81)"/><path class="b" d="M103.1,188.808,18.3,184.1l.051-.2,84.753,4.706Z" transform="translate(-9.035 -90.849)"/><path class="b" d="M18.351,178.965l-.051-.2L96.88,173.5v.2Z" transform="translate(-9.035 -85.711)"/><rect class="b" width="0.202" height="79.794" transform="translate(8.787 141.701) rotate(-85.902)"/><path class="b" d="M90.016,233.613,4.2,203.354l.3-.1L89.813,173.4l.1.2L4.908,203.354,90.066,233.41Z" transform="translate(-2.069 -85.662)"/><path class="b" d="M6.6,241.761l-.1-.2c.658-.455,85.461-8.3,95.126-9.158v.2C100.715,232.7,7.866,241.305,6.6,241.761Z" transform="translate(-3.205 -114.808)"/><path class="b" d="M49.952,260.141l-.152-.2L120.891,206l.1.152Z" transform="translate(-24.596 -101.766)"/><path class="b" d="M98.14,234.574,48.3,152.452l.2-.152,49.84,82.122Z" transform="translate(-23.855 -75.238)"/><path class="b" d="M108.69,190.1,25,173.653V173.4l83.69,16.445Z" transform="translate(-12.345 -85.662)"/><path class="b" d="M76.1,178.519a1.619,1.619,0,1,0,1.619-1.619A1.6,1.6,0,0,0,76.1,178.519Z" transform="translate(-37.589 -87.391)"/><circle class="b" cx="1.619" cy="1.619" r="1.619" transform="translate(28.139 125.89)"/><path class="b" d="M61.8,203.461a.961.961,0,1,0,.961-.961A.93.93,0,0,0,61.8,203.461Z" transform="translate(-30.524 -100.037)"/><circle class="b" cx="1.619" cy="1.619" r="1.619" transform="translate(69.276 97.807)"/><path class="b" d="M168.1,240.065a1.265,1.265,0,1,0,1.265-1.265A1.253,1.253,0,0,0,168.1,240.065Z" transform="translate(-83.038 -117.97)"/><path class="b" d="M83.1,221.365a1.265,1.265,0,1,0,1.265-1.265A1.253,1.253,0,0,0,83.1,221.365Z" transform="translate(-41.047 -108.732)"/><path class="b" d="M87.4,302.861a.961.961,0,1,0,.961-.961A.961.961,0,0,0,87.4,302.861Z" transform="translate(-43.171 -149.142)"/><circle class="b" cx="2.226" cy="2.226" r="2.226" transform="translate(0.158 115.466)"/><path class="b" d="M110.567,202.962,24.6,173.665,25,172.4l85.613,30.359Z" transform="translate(-12.147 -85.168)"/><path class="b" d="M34.9,297.073l70.889-6.173.1,1.366-70.99,5.06Z" transform="translate(-17.235 -143.708)"/><path class="b" d="M125.508,227.162,103.7,137.7l1.366-.3,20.644,89.712Z" transform="translate(-51.223 -67.877)"/><path class="b" d="M6.5,204.952,83.967,158.3l.658,1.164L6.6,205.154Z" transform="translate(-3.205 -78.202)"/><path class="b" d="M34.7,231.716l63-73.216,1.063.911L34.9,231.868Z" transform="translate(-17.136 -78.301)"/><path class="b" d="M110.618,232.6,25,262.962l-.4-1.316L110.567,232.4Z" transform="translate(-12.147 -114.808)"/><path class="b" d="M86.632,302.749,24.8,291.516l.253-1.316,61.629,12.3Z" transform="translate(-12.246 -143.362)"/><path class="b" d="M79.195,143.4,25.054,159.24l-.354-1.265L79.144,143.2Z" transform="translate(-12.196 -70.743)"/><path class="b" d="M96.433,238,17.6,184.063,18.359,183l78.175,54.8Z" transform="translate(-8.689 -90.404)"/><path class="b" d="M84.147,268.034,4.1,232.614l.557-1.214L84.2,267.831Z" transform="translate(-2.02 -114.314)"/><path class="b" d="M5.951,218.5l94.62,15.736-.253,1.366L5.9,218.753Z" transform="translate(-2.909 -107.942)"/><path class="b" d="M105.052,137.5l45.691,47.664-.961.911L104.9,137.652Z" transform="translate(-51.816 -67.927)"/><circle class="b" cx="2.226" cy="2.226" r="2.226" transform="translate(10.581 145.219)"/><path class="b" d="M718.469,233.738a48.069,48.069,0,1,1,48.069-48.069A48.112,48.112,0,0,1,718.469,233.738Zm0-95.935a47.866,47.866,0,1,0,47.867,47.866A47.9,47.9,0,0,0,718.469,137.8Z" transform="translate(-331.18 -67.976)"/><path class="b" d="M821.5,157.226A2.226,2.226,0,1,0,823.726,155,2.246,2.246,0,0,0,821.5,157.226Z" transform="translate(-405.825 -76.572)"/><path class="b" d="M787,219.126a2.226,2.226,0,1,0,2.226-2.226A2.213,2.213,0,0,0,787,219.126Z" transform="translate(-388.782 -107.151)"/><path class="b" d="M779.5,192.526a2.226,2.226,0,1,0,2.226-2.226A2.246,2.246,0,0,0,779.5,192.526Z" transform="translate(-385.077 -94.011)"/><path class="b" d="M763.2,198.419a1.619,1.619,0,1,0,1.619-1.619A1.63,1.63,0,0,0,763.2,198.419Z" transform="translate(-377.024 -97.222)"/><path class="b" d="M732.5,242.619A1.619,1.619,0,1,0,734.119,241,1.665,1.665,0,0,0,732.5,242.619Z" transform="translate(-361.858 -119.057)"/><path class="b" d="M760.9,264.426a2.226,2.226,0,1,0,2.226-2.226A2.214,2.214,0,0,0,760.9,264.426Z" transform="translate(-375.888 -129.53)"/><circle class="b" cx="1.619" cy="1.619" r="1.619" transform="translate(362.192 110.204)"/><path class="b" d="M836,288.926a2.226,2.226,0,1,0,2.227-2.226A2.183,2.183,0,0,0,836,288.926Z" transform="translate(-412.988 -141.633)"/><path class="b" d="M745.7,324.319a1.619,1.619,0,1,0,1.619-1.619A1.664,1.664,0,0,0,745.7,324.319Z" transform="translate(-368.379 -159.418)"/><circle class="b" cx="1.619" cy="1.619" r="1.619" transform="translate(360.471 156.654)"/><path class="b" d="M687.7,171.426a2.226,2.226,0,1,0,2.226-2.226A2.183,2.183,0,0,0,687.7,171.426Z" transform="translate(-339.726 -83.587)"/><circle class="b" cx="1.619" cy="1.619" r="1.619" transform="translate(344.482 91.533)"/><path class="b" d="M855.6,230.426a2.226,2.226,0,1,0,2.226-2.226A2.214,2.214,0,0,0,855.6,230.426Z" transform="translate(-422.671 -112.734)"/><circle class="b" cx="2.226" cy="2.226" r="2.226" transform="translate(386.429 163.434)"/><path class="b" d="M779.7,138.658a.658.658,0,1,0,.658-.658A.707.707,0,0,0,779.7,138.658Z" transform="translate(-385.176 -68.174)"/><circle class="b" cx="2.226" cy="2.226" r="2.226" transform="translate(416.737 151.392)"/><path class="b" d="M699.3,301.458a.658.658,0,1,0,.658-.658A.67.67,0,0,0,699.3,301.458Z" transform="translate(-345.457 -148.599)"/><circle class="b" cx="0.658" cy="0.658" r="0.658" transform="translate(339.22 109.395)"/><path class="b" d="M695.8,166.158a.658.658,0,1,0,.658-.658A.707.707,0,0,0,695.8,166.158Z" transform="translate(-343.728 -81.759)"/><path class="b" d="M727.1,144.558a.658.658,0,1,0,.658-.658A.707.707,0,0,0,727.1,144.558Z" transform="translate(-359.19 -71.088)"/><path class="b" d="M795.5,142.165a1.265,1.265,0,1,0,1.265-1.265A1.253,1.253,0,0,0,795.5,142.165Z" transform="translate(-392.981 -69.606)"/><path class="b" d="M850.3,192.758a.658.658,0,1,0,.658-.658A.707.707,0,0,0,850.3,192.758Z" transform="translate(-420.053 -94.9)"/><path class="b" d="M832.7,297.758a.658.658,0,1,0,.658-.658A.638.638,0,0,0,832.7,297.758Z" transform="translate(-411.358 -146.771)"/><path class="b" d="M803.7,317.958a.658.658,0,1,0,.658-.658A.67.67,0,0,0,803.7,317.958Z" transform="translate(-397.032 -156.75)"/><path class="b" d="M732.8,321.758a.658.658,0,1,0,.658-.658A.67.67,0,0,0,732.8,321.758Z" transform="translate(-362.006 -158.627)"/><path class="b" d="M680.5,278.565a1.265,1.265,0,1,0,1.265-1.265A1.253,1.253,0,0,0,680.5,278.565Z" transform="translate(-336.17 -136.99)"/><path class="b" d="M669.8,249.465a1.265,1.265,0,1,0,1.265-1.265A1.253,1.253,0,0,0,669.8,249.465Z" transform="translate(-330.884 -122.614)"/><path class="b" d="M670.9,208.165a1.265,1.265,0,1,0,1.265-1.265A1.253,1.253,0,0,0,670.9,208.165Z" transform="translate(-331.427 -102.211)"/><path class="b" d="M711.7,151.165a1.265,1.265,0,1,0,1.265-1.265A1.285,1.285,0,0,0,711.7,151.165Z" transform="translate(-351.583 -74.052)"/><circle class="b" cx="1.619" cy="1.619" r="1.619" transform="translate(388.351 68.055)"/><path class="b" d="M836.7,172.465a1.265,1.265,0,1,0,1.265-1.265A1.285,1.285,0,0,0,836.7,172.465Z" transform="translate(-413.334 -84.575)"/><path class="b" d="M853.6,204.865a1.265,1.265,0,1,0,1.265-1.265A1.253,1.253,0,0,0,853.6,204.865Z" transform="translate(-421.683 -100.581)"/><path class="b" d="M855.9,249.665a1.265,1.265,0,1,0,1.265-1.265A1.253,1.253,0,0,0,855.9,249.665Z" transform="translate(-422.819 -122.713)"/><path class="b" d="M847.4,274.665a1.265,1.265,0,1,0,1.265-1.265A1.253,1.253,0,0,0,847.4,274.665Z" transform="translate(-418.62 -135.063)"/><path class="b" d="M810.8,313.761a.961.961,0,1,0,.961-.961A1,1,0,0,0,810.8,313.761Z" transform="translate(-400.539 -154.527)"/><path class="b" d="M778.3,324.765a1.265,1.265,0,1,0,1.265-1.265A1.253,1.253,0,0,0,778.3,324.765Z" transform="translate(-384.484 -159.813)"/><path class="b" d="M768.8,188.808,684,184.1l.051-.2,84.753,4.706Z" transform="translate(-337.899 -90.849)"/><path class="b" d="M684.051,178.965l-.051-.2,78.529-5.262.051.2Z" transform="translate(-337.899 -85.711)"/><rect class="b" width="0.202" height="79.794" transform="translate(345.615 141.706) rotate(-85.902)"/><path class="b" d="M755.665,233.613,669.9,203.354l.3-.1,85.31-29.853.051.2-84.955,29.752,85.158,30.056Z" transform="translate(-330.933 -85.662)"/><path class="b" d="M672.3,241.761l-.1-.2c.658-.455,85.461-8.3,95.126-9.158v.2C766.415,232.7,673.566,241.305,672.3,241.761Z" transform="translate(-332.069 -114.808)"/><path class="b" d="M715.652,260.141l-.152-.2L786.541,206l.152.152Z" transform="translate(-353.46 -101.766)"/><path class="b" d="M763.84,234.574,714,152.452l.2-.152,49.84,82.122Z" transform="translate(-352.719 -75.238)"/><path class="b" d="M774.29,190.1,690.6,173.653l.051-.253,83.69,16.445Z" transform="translate(-341.159 -85.662)"/><path class="b" d="M741.8,178.519a1.619,1.619,0,1,0,1.619-1.619A1.6,1.6,0,0,0,741.8,178.519Z" transform="translate(-366.452 -87.391)"/><circle class="b" cx="1.619" cy="1.619" r="1.619" transform="translate(364.975 125.89)"/><path class="b" d="M727.5,203.461a.961.961,0,1,0,.961-.961A.93.93,0,0,0,727.5,203.461Z" transform="translate(-359.388 -100.037)"/><circle class="b" cx="1.619" cy="1.619" r="1.619" transform="translate(406.112 97.807)"/><path class="b" d="M833.7,240.065a1.265,1.265,0,1,0,1.265-1.265A1.253,1.253,0,0,0,833.7,240.065Z" transform="translate(-411.852 -117.97)"/><path class="b" d="M748.8,221.365a1.265,1.265,0,1,0,1.265-1.265A1.253,1.253,0,0,0,748.8,221.365Z" transform="translate(-369.911 -108.732)"/><path class="b" d="M753.1,302.861a.961.961,0,1,0,.961-.961A.961.961,0,0,0,753.1,302.861Z" transform="translate(-372.035 -149.142)"/><circle class="b" cx="2.226" cy="2.226" r="2.226" transform="translate(336.943 115.466)"/><path class="b" d="M776.167,202.962l-85.967-29.3.455-1.265,85.613,30.359Z" transform="translate(-340.961 -85.168)"/><path class="b" d="M700.5,297.073l70.939-6.173.1,1.366-70.99,5.06Z" transform="translate(-346.05 -143.708)"/><path class="b" d="M791.208,227.162,769.4,137.7l1.316-.3,20.695,89.712Z" transform="translate(-380.087 -67.877)"/><path class="b" d="M672.2,204.952,749.616,158.3l.708,1.164L672.3,205.154Z" transform="translate(-332.069 -78.202)"/><path class="b" d="M700.4,231.716l63-73.216,1.012.911-63.856,72.457Z" transform="translate(-346 -78.301)"/><path class="b" d="M776.269,232.6l-85.613,30.359-.455-1.316L776.167,232.4Z" transform="translate(-340.961 -114.808)"/><path class="b" d="M752.282,302.749,690.4,291.516l.253-1.316,61.629,12.3Z" transform="translate(-341.06 -143.362)"/><path class="b" d="M744.845,143.4,690.654,159.24l-.354-1.265L744.795,143.2Z" transform="translate(-341.011 -70.743)"/><path class="b" d="M762.133,238,683.3,184.063l.759-1.063,78.175,54.8Z" transform="translate(-337.553 -90.404)"/><path class="b" d="M749.8,268.034l-80-35.419.557-1.214L749.9,267.831Z" transform="translate(-330.884 -114.314)"/><path class="b" d="M671.651,218.5l94.62,15.736-.253,1.366L671.6,218.753Z" transform="translate(-331.773 -107.942)"/><path class="b" d="M770.752,137.5l45.691,47.664-1.012.911L770.6,137.652Z" transform="translate(-380.68 -67.927)"/><circle class="b" cx="2.226" cy="2.226" r="2.226" transform="translate(347.366 145.219)"/><path class="a" d="M7.393,470.422c-6.73-1.518-9.209-3.34-5.971-5.414,22.365-14.674,122.9-14.269,171.682-14.218,61.376,0,125.232-.354,180.486,3.188,23.124,1.518,75.544,2.884,84.5,7.843,23.579,13.055-143.65,16.647-170.67,16.849C222.337,478.922,45.7,479.124,7.393,470.422Z" transform="translate(0 -222.69)"/><path class="a" d="M409.941,452.306H20.229A19.359,19.359,0,0,1,.9,432.977v-1.164A1.123,1.123,0,0,1,2.013,430.7H428.207a1.123,1.123,0,0,1,1.113,1.113v1.113A19.413,19.413,0,0,1,409.941,452.306Z" transform="translate(-0.439 -212.771)"/><path class="c" d="M421.741,452.306H32.029A19.359,19.359,0,0,1,12.7,432.977v-1.164a1.123,1.123,0,0,1,1.113-1.113H440.007a1.123,1.123,0,0,1,1.113,1.113v1.113A19.413,19.413,0,0,1,421.741,452.306Z" transform="translate(-6.268 -212.771)"/><g transform="translate(4.688 216.952)"><path class="b" d="M420.7,450.492H33.565a26.306,26.306,0,0,1-7.438-.658,19.075,19.075,0,0,1-13.307-15.129c-.1-.607.152-3.744-.253-4.1a6.16,6.16,0,0,1-1.063-.051c.1-.051.253,0,.354,0,5.009-.152,10.069,0,15.129,0h405.8c1.063,0,3.643-.506,4.6,0,1.417.759.051,5.869-.354,7.134a17.511,17.511,0,0,1-16.343,12.8c-1.113,0-3.39,1.72-1.265,1.67a22.3,22.3,0,0,0,16.9-7.742,19.673,19.673,0,0,0,4.352-9.209c.3-1.771,1.214-5.617-1.113-6.274a13.39,13.39,0,0,0-3.491-.1h-418c-1.67,0-3.34-.051-5.009,0-1.316.051-2.985.3-3.593,1.619-.4.86-.152,2.429-.1,3.34a18.818,18.818,0,0,0,1.164,5.313,20.109,20.109,0,0,0,5.515,7.995c6.426,5.617,14.168,5.009,21.96,5.009H419.38C420.544,452.162,422.821,450.492,420.7,450.492Z" transform="translate(-9.254 -428.769)"/></g><path class="b" d="M336.28,430.223c1.417,6.578,7.59,6.122,12.751,6.122h73.216c5.768,0,13.358.759,14.927-6.628.1-.4-.455-.557-.759-.557H337.9c-.911,0-2.581,1.366-.961,1.366h98.516c-.253-.2-.506-.354-.759-.557-.708,3.39-3.238,4.908-6.426,4.908H352.876c-5.212,0-12.8,1.417-14.269-5.414C338.557,428.705,336.077,429.313,336.28,430.223Z" transform="translate(-166.11 -211.991)"/><path class="d" d="M0,0H321.2V187.367H0Z" transform="translate(58.498 15.888)"/><path class="c" d="M433.361,8.2H92.831A6.867,6.867,0,0,0,86,15.031v206.8H440.192V14.98A6.824,6.824,0,0,0,433.361,8.2ZM422.178,207.306h-321.2V19.939h321.2V207.306Z" transform="translate(-42.479 -4.051)"/><path class="b" d="M440.111,14.013c-.2-5.11-4.3-7.539-8.956-7.539H98.72c-6.021,0-14.876-.911-15.23,7.792-.253,6.274,0,12.6,0,18.873V221.012c0,.607.607.759,1.113.759H424.374c4.6,0,9.209.253,13.813,0h.253a2.05,2.05,0,0,0,.557,0h.152c.051,0,.1,0,.1-.051.455-.152.86-.455.86-.86V19.123C440.111,17.352,440.161,15.682,440.111,14.013ZM429.535,220.1H90.22a39.536,39.536,0,0,0-4.25-.051V20.135c0-1.973-.051-4,0-5.971a5.77,5.77,0,0,1,5.566-5.971H424.172c5.161,0,13.156-1.366,13.51,6.224.3,6.73,0,13.56,0,20.29V220.1Z" transform="translate(-41.184 -3.184)"/><g transform="translate(58.121 16.54)"><path class="b" d="M438,32.846H156.318c-13,0-26.058-.354-39.012,0h-.557c-.4,0-1.67.253-1.67.86V213.383c0,2.226-.506,5.212,0,7.387v.3c0,.4.354.557.759.557H397.523c13,0,26.058.354,39.012,0h.557c.4,0,1.67-.253,1.67-.86V41.094c0-2.226.506-5.212,0-7.387v-.3c0-1.012-2.429-.506-2.429.3V218.291a8.481,8.481,0,0,0,0,2.53c.051.1,0,.253,0,.3.557-.3,1.113-.557,1.67-.86H121.557a19.889,19.889,0,0,0-4.25,0,2.051,2.051,0,0,1-.557,0c.253.2.506.354.759.557V36.236a8.48,8.48,0,0,0,0-2.53c-.051-.1,0-.253,0-.3-.557.3-1.113.557-1.67.86H397.523c13,0,26.008.3,39.012,0h.557C438,34.263,439.672,32.846,438,32.846Z" transform="translate(-114.856 -32.689)"/></g><g transform="translate(155.293 51.206)"><path class="e" d="M377.211,233.922a64.311,64.311,0,1,1,64.311-64.311A64.373,64.373,0,0,1,377.211,233.922Zm0-128.319a64.007,64.007,0,1,0,64.007,64.007A64.049,64.049,0,0,0,377.211,105.6Z" transform="translate(-309.864 -103.225)"/><path class="e" d="M515,131.585a2.985,2.985,0,1,0,2.985-2.985A3.024,3.024,0,0,0,515,131.585Z" transform="translate(-409.704 -114.736)"/><path class="e" d="M468.9,214.385a2.985,2.985,0,1,0,2.985-2.985A2.991,2.991,0,0,0,468.9,214.385Z" transform="translate(-386.93 -155.64)"/><path class="e" d="M458.8,178.885a2.985,2.985,0,1,0,2.985-2.985A2.991,2.991,0,0,0,458.8,178.885Z" transform="translate(-381.94 -138.103)"/><path class="e" d="M437.1,186.723a2.125,2.125,0,1,0,2.125-2.125A2.075,2.075,0,0,0,437.1,186.723Z" transform="translate(-371.22 -142.399)"/><path class="e" d="M396,245.825a2.125,2.125,0,1,0,2.125-2.125A2.138,2.138,0,0,0,396,245.825Z" transform="translate(-350.917 -171.597)"/><path class="e" d="M434,274.885a2.985,2.985,0,1,0,2.985-2.985A2.991,2.991,0,0,0,434,274.885Z" transform="translate(-369.689 -185.528)"/><circle class="e" cx="2.125" cy="2.125" r="2.125" transform="translate(33.8 56.367)"/><path class="e" d="M534.3,307.685a2.985,2.985,0,1,0,2.985-2.985A3.024,3.024,0,0,0,534.3,307.685Z" transform="translate(-419.238 -201.731)"/><path class="e" d="M413.6,355.125A2.125,2.125,0,1,0,415.725,353,2.138,2.138,0,0,0,413.6,355.125Z" transform="translate(-359.611 -225.592)"/><circle class="e" cx="2.125" cy="2.125" r="2.125" transform="translate(31.523 118.553)"/><path class="e" d="M336,150.585a2.985,2.985,0,1,0,2.985-2.985A2.959,2.959,0,0,0,336,150.585Z" transform="translate(-321.276 -124.122)"/><circle class="e" cx="2.125" cy="2.125" r="2.125" transform="translate(10.12 31.422)"/><path class="e" d="M560.6,229.485a2.985,2.985,0,1,0,2.985-2.985A2.959,2.959,0,0,0,560.6,229.485Z" transform="translate(-432.231 -163.1)"/><circle class="e" cx="2.985" cy="2.985" r="2.985" transform="translate(66.133 127.56)"/><path class="e" d="M459.1,106.86a.86.86,0,1,0,.86-.86A.853.853,0,0,0,459.1,106.86Z" transform="translate(-382.089 -103.571)"/><circle class="e" cx="2.985" cy="2.985" r="2.985" transform="translate(106.713 111.469)"/><path class="e" d="M351.6,324.46a.86.86,0,1,0,.86-.86A.853.853,0,0,0,351.6,324.46Z" transform="translate(-328.982 -211.068)"/><circle class="e" cx="0.86" cy="0.86" r="0.86" transform="translate(3.036 55.304)"/><path class="e" d="M346.9,143.56a.86.86,0,1,0,.86-.86A.887.887,0,0,0,346.9,143.56Z" transform="translate(-326.66 -121.701)"/><path class="e" d="M388.7,114.76a.86.86,0,1,0,.86-.86A.853.853,0,0,0,388.7,114.76Z" transform="translate(-347.31 -107.474)"/><path class="e" d="M480.3,111.42a1.72,1.72,0,1,0,1.72-1.72A1.706,1.706,0,0,0,480.3,111.42Z" transform="translate(-392.562 -105.399)"/><path class="e" d="M553.5,179.16a.86.86,0,1,0,.86-.86A.887.887,0,0,0,553.5,179.16Z" transform="translate(-428.724 -139.288)"/><path class="e" d="M529.9,319.56a.86.86,0,1,0,.86-.86A.887.887,0,0,0,529.9,319.56Z" transform="translate(-417.065 -208.648)"/><path class="e" d="M491.3,346.56a.86.86,0,1,0,.86-.86A.853.853,0,0,0,491.3,346.56Z" transform="translate(-397.996 -221.986)"/><path class="e" d="M396.4,351.66a.86.86,0,1,0,.86-.86A.824.824,0,0,0,396.4,351.66Z" transform="translate(-351.114 -224.505)"/><path class="e" d="M326.4,293.92a1.72,1.72,0,1,0,1.72-1.72A1.706,1.706,0,0,0,326.4,293.92Z" transform="translate(-316.533 -195.556)"/><path class="e" d="M312,254.92a1.72,1.72,0,1,0,1.72-1.72A1.706,1.706,0,0,0,312,254.92Z" transform="translate(-309.419 -176.29)"/><path class="e" d="M313.6,199.72a1.72,1.72,0,1,0,1.72-1.72A1.706,1.706,0,0,0,313.6,199.72Z" transform="translate(-310.21 -149.02)"/><path class="e" d="M368.1,123.52a1.72,1.72,0,1,0,1.72-1.72A1.706,1.706,0,0,0,368.1,123.52Z" transform="translate(-337.134 -111.377)"/><circle class="e" cx="2.125" cy="2.125" r="2.125" transform="translate(68.814)"/><path class="e" d="M535.4,151.92a1.72,1.72,0,1,0,1.72-1.72A1.706,1.706,0,0,0,535.4,151.92Z" transform="translate(-419.782 -125.407)"/><path class="e" d="M557.9,195.32a1.72,1.72,0,1,0,1.72-1.72A1.739,1.739,0,0,0,557.9,195.32Z" transform="translate(-430.897 -146.847)"/><path class="e" d="M561,255.22a1.72,1.72,0,1,0,1.72-1.72A1.739,1.739,0,0,0,561,255.22Z" transform="translate(-432.428 -176.438)"/><path class="e" d="M549.6,288.62a1.72,1.72,0,1,0,1.72-1.72A1.706,1.706,0,0,0,549.6,288.62Z" transform="translate(-426.797 -192.938)"/><path class="e" d="M500.7,341.062a1.265,1.265,0,1,0,1.265-1.265A1.222,1.222,0,0,0,500.7,341.062Z" transform="translate(-402.64 -219.068)"/><path class="e" d="M457.2,355.62a1.72,1.72,0,1,0,1.72-1.72A1.706,1.706,0,0,0,457.2,355.62Z" transform="translate(-381.15 -226.037)"/><path class="e" d="M444.492,173.828,331.1,167.5l.051-.3,113.341,6.325Z" transform="translate(-318.855 -133.805)"/><path class="e" d="M331.151,160.637l-.051-.3L436.143,153.3l.051.3Z" transform="translate(-318.855 -126.938)"/><rect class="e" width="0.304" height="106.713" transform="translate(11.575 98.512) rotate(-85.902)"/><path class="e" d="M427.007,233.8,312.3,193.324l.4-.152L426.754,153.3l.1.253L313.211,193.324l113.9,40.175Z" transform="translate(-309.568 -126.938)"/><path class="e" d="M315.452,244.648l-.152-.253c.86-.607,114.3-11.081,127.256-12.3l.051.3C441.291,232.5,317.122,243.991,315.452,244.648Z" transform="translate(-311.05 -165.866)"/><path class="e" d="M373.4,269.207l-.2-.253L468.275,196.8l.152.253Z" transform="translate(-339.653 -148.428)"/><path class="e" d="M437.939,235.051,371.3,125.252l.253-.152,66.639,109.8Z" transform="translate(-338.714 -113.007)"/><path class="e" d="M451.925,175.514,340,153.5l.051-.3,111.924,22.01Z" transform="translate(-323.252 -126.889)"/><path class="e" d="M408.4,160.025a2.125,2.125,0,1,0,2.125-2.125A2.106,2.106,0,0,0,408.4,160.025Z" transform="translate(-357.042 -129.21)"/><circle class="e" cx="2.125" cy="2.125" r="2.125" transform="translate(37.544 77.416)"/><path class="e" d="M389.2,193.365a1.265,1.265,0,1,0,1.265-1.265A1.253,1.253,0,0,0,389.2,193.365Z" transform="translate(-347.557 -146.106)"/><circle class="e" cx="2.125" cy="2.125" r="2.125" transform="translate(92.545 39.872)"/><path class="e" d="M531.4,242.42a1.72,1.72,0,1,0,1.72-1.72A1.706,1.706,0,0,0,531.4,242.42Z" transform="translate(-417.806 -170.115)"/><path class="e" d="M417.7,217.42a1.72,1.72,0,1,0,1.72-1.72A1.739,1.739,0,0,0,417.7,217.42Z" transform="translate(-361.637 -157.764)"/><path class="e" d="M423.5,326.362a1.265,1.265,0,1,0,1.265-1.265A1.253,1.253,0,0,0,423.5,326.362Z" transform="translate(-364.502 -211.806)"/><circle class="e" cx="2.985" cy="2.985" r="2.985" transform="translate(0 63.4)"/><path class="e" d="M454.411,192.734,339.4,153.52l.607-1.72,114.505,40.631Z" transform="translate(-322.955 -126.197)"/><path class="e" d="M353.2,318.6l94.822-8.3.152,1.822-94.923,6.78Z" transform="translate(-329.773 -204.498)"/><path class="e" d="M474.445,225.071,445.3,105.455l1.771-.455,27.678,120.02Z" transform="translate(-375.271 -103.077)"/><path class="e" d="M315.3,195.388,418.876,133l.911,1.569L315.452,195.692Z" transform="translate(-311.05 -116.91)"/><path class="e" d="M353,231.209,437.3,133.3l1.366,1.214-85.411,96.9Z" transform="translate(-329.674 -117.058)"/><path class="e" d="M454.512,232.4l-114.505,40.58-.607-1.72L454.411,232.1Z" transform="translate(-322.955 -165.866)"/><path class="e" d="M422.429,326.148,339.7,311.171l.354-1.771,82.425,16.5Z" transform="translate(-323.104 -204.053)"/><path class="e" d="M412.513,113.1l-72.457,21.15-.455-1.67L412.462,112.8Z" transform="translate(-323.054 -106.931)"/><path class="e" d="M435.6,239.62l-105.4-72.1.961-1.417,104.588,73.267Z" transform="translate(-318.41 -133.261)"/><path class="e" d="M419.116,279.78,312.1,232.419l.708-1.619,106.409,48.727Z" transform="translate(-309.469 -165.224)"/><path class="e" d="M314.551,213.6l126.548,21-.3,1.822L314.5,213.9Z" transform="translate(-310.655 -156.727)"/><path class="e" d="M447.1,105.2l61.123,63.754-1.316,1.214L446.9,105.453Z" transform="translate(-376.062 -103.176)"/><circle class="e" cx="2.985" cy="2.985" r="2.985" transform="translate(13.965 103.171)"/></g></g></g></svg>