<svg xmlns="http://www.w3.org/2000/svg" viewBox="-1330.151 1935.865 474.413 247.398"><defs><style>.a{fill:#ad2e40;}.b{fill:#e5e5e5;}.c{fill:#c8e8ef;}.d{fill:#2c3e4f;}.d,.f,.i{stroke:#2c3e4f;stroke-linecap:round;stroke-linejoin:round;stroke-miterlimit:10;stroke-width:0.25px;}.e{fill:#fff;}.f{fill:#212c2f;}.g{fill:#d2d9e0;opacity:0.44;}.h{opacity:0.42;}.i{fill:#707070;}</style></defs><g transform="translate(-5965.194 1885.911)"><path class="a" d="M4698.7,191l-1.7-.6c.4-1.2.9-2.3,1.3-3.4l1.7.7C4699.6,188.7,4699.1,189.8,4698.7,191Zm347.6-7.1-1.5-3.3,1.6-.8,1.5,3.3Zm-343.5-3-1.6-.8c.5-1.1,1-2.2,1.6-3.3l1.6.8c-.5,1.2-1.1,2.3-1.6,3.3Zm338.7-6.8c-.5-1-1.2-2.1-1.8-3.2l1.6-.9c.6,1.1,1.2,2.1,1.8,3.2Zm-333.7-2.8-1.6-.9c.6-1,1.2-2.1,1.8-3.2l1.6.9c-.6,1.1-1.2,2.1-1.8,3.2Zm328.2-6.7c-.7-1-1.3-2-2-3l1.5-1c.7,1,1.3,2.1,2,3ZM4713.5,162l-1.5-1,2.1-3,1.5,1C4714.8,160,4714.1,161.1,4713.5,162Zm316.3-6.3c-.7-1-1.5-1.9-2.2-2.9l1.5-1.2c.7,1,1.5,1.9,2.2,2.9Zm-309.9-2.4-1.5-1.2c.7-1,1.5-1.9,2.3-2.9l1.4,1.2c-.7,1-1.5,1.9-2.2,2.9Zm303.1-6-2.4-2.7,1.3-1.2,2.4,2.7ZM4726.9,145l-1.3-1.2c.9-.9,1.6-1.8,2.5-2.7l1.3,1.3a20.643,20.643,0,0,0-2.5,2.6Zm288.7-5.6-2.6-2.6,1.3-1.3c.9.9,1.8,1.7,2.6,2.6Zm-281.1-2.2-1.3-1.3c.9-.9,1.8-1.7,2.7-2.5l1.2,1.3a30.618,30.618,0,0,0-2.6,2.5Zm273.1-5.3-2.7-2.4,1.2-1.4c.9.8,1.9,1.6,2.8,2.4Zm-265.1-2-1.2-1.4a32.516,32.516,0,0,1,2.9-2.3l1.2,1.4c-1,.8-1.9,1.6-2.9,2.3Zm256.7-4.9-2.9-2.2,1.1-1.5,2.9,2.2ZM4751,123.1l-1.1-1.5a32.109,32.109,0,0,1,3-2.1l1,1.5A21.564,21.564,0,0,1,4751,123.1Zm239.4-4.4c-1-.7-2-1.3-3-2l1-1.5c1,.7,2.1,1.3,3,2ZM4760,116.9l-1-1.5c1-.7,2.1-1.3,3.1-1.9l1,1.5c-1,.7-2.1,1.3-3.1,1.9Zm221.1-4c-1-.6-2.1-1.2-3.2-1.8l.9-1.6c1.1.6,2.1,1.2,3.2,1.8Zm-211.8-1.6-.9-1.6c1-.6,2.1-1.2,3.2-1.8l.9,1.6C4771.4,110.1,4770.4,110.7,4769.3,111.3Zm202.4-3.7c-1.1-.5-2.1-1.1-3.2-1.6l.8-1.6,3.3,1.6Zm-192.8-1.4-.8-1.6c1.1-.5,2.2-1.1,3.3-1.6l.8,1.6c-1.1.5-2.2,1-3.3,1.6Zm182.9-3.3-3.3-1.5.7-1.7c1.2.5,2.2,1,3.3,1.5Zm-173-1.3-.7-1.7a34.581,34.581,0,0,1,3.4-1.4l.7,1.7C4791.1,100.6,4789.9,101.1,4788.8,101.6Zm163-2.9c-1.2-.4-2.2-.9-3.4-1.3l.6-1.7c1.2.4,2.3.9,3.4,1.3Zm-152.9-1.1-.6-1.7c1.2-.4,2.3-.9,3.5-1.2l.6,1.7A35.976,35.976,0,0,0,4798.9,97.6ZM4941.5,95l-3.5-1,.5-1.8,3.5,1.1Zm-132.3-.9-.5-1.8c1.2-.4,2.3-.7,3.5-1l.5,1.8C4811.5,93.4,4810.4,93.8,4809.2,94.1Z"/><path class="b" d="M4956.5,288.8c2.6.7,3.6,1.4,2.4,2.3-8.6,6.3-47.7,6.2-66.7,6.2-23.8.1-48.7.2-70.2-1.2-9-.6-29.4-1.2-32.9-3.3-9.2-5.5,55.7-7.2,66.3-7.4C4872.9,285.3,4941.5,285.1,4956.5,288.8Z"/><path class="b" d="M5101.2,280.4c1.5.7,2.1,1.4,1.5,2.2-4.6,6-26.9,5.5-37.7,5.4-13.6-.2-27.7-.2-40-1.8-5.2-.7-16.8-1.4-18.8-3.5-5.5-5.5,31.4-6.5,37.4-6.5C5053.4,276.3,5092.5,276.8,5101.2,280.4Z"/><path class="c" d="M5092.5,227.3a9.6,9.6,0,0,0,.6-3.3,9.944,9.944,0,0,0-9.9-10,10.323,10.323,0,0,0-3,.4c-1.9-4.7-4.2-9.1-7.9-12.8-7.4-7.2-18.8-10.4-28.6-6.4a30.27,30.27,0,0,0-11.4,8.3,41.177,41.177,0,0,0-4.3,6c-.3.5-3.1,6.6-3,6.6a19.7,19.7,0,0,0-3.4-.4c-12-.1-21.8,10.2-21.9,23s9.5,23.3,21.5,23.5a21.033,21.033,0,0,0,15.1-6.4,30.052,30.052,0,0,0,37.3.4,20.931,20.931,0,0,0,15,6.7,2.768,2.768,0,0,0,.9-.1,4.868,4.868,0,0,0,1.2.1,17.838,17.838,0,0,0,1.8-35.6Z"/><path class="d" d="M5093.2,227.2a10.337,10.337,0,0,0-2.6-10.8,10.87,10.87,0,0,0-10.5-2.4c.2.1.5.1.8.2-2.2-5.5-5.1-10.6-9.7-14.5a28.447,28.447,0,0,0-14.1-6.4c-11.4-1.8-21.9,4.4-28.2,13.8a54.447,54.447,0,0,0-2.9,5.3l-1.2,2.7c-.1.3-.5.8-.4,1.2.4-.2.7-.4,1.1-.6-12.3-2.2-23.7,6.7-26,18.7-2.2,11.9,4.7,24.8,16.8,27.7a22.235,22.235,0,0,0,20.5-6.1l-1.1.2a30.493,30.493,0,0,0,19.4,6.7,31.939,31.939,0,0,0,19-6.6,4.1,4.1,0,0,0-1.1.1,22.023,22.023,0,0,0,14.8,6.8c4.9.1,9.5-.5,13.6-3.3a18.118,18.118,0,0,0-8.7-33c-.6-.1-1.5.8-.5.9a17.814,17.814,0,0,1,15.7,18.4c-.5,9.2-8.3,16.8-17.6,16.4a25.739,25.739,0,0,1-8.3-1.3,22.327,22.327,0,0,1-7.7-5.2.91.91,0,0,0-1.1.1,29.4,29.4,0,0,1-18.5,6.1,30.423,30.423,0,0,1-17.8-6.6,1.09,1.09,0,0,0-1.1.2,20.252,20.252,0,0,1-18.1,5.7,21.221,21.221,0,0,1-12.9-8.6,24.28,24.28,0,0,1,2.1-30.4,19.984,19.984,0,0,1,17.8-5.9c.4.1,1.2-.1,1.1-.6a2.993,2.993,0,0,0,.4-1c.3-.7.7-1.5,1-2.2.5-1.1,1-2.2,1.5-3.2a33.07,33.07,0,0,1,11.4-12.1c9.2-5.6,20.7-4.1,29,2.2,5,3.8,8,9.2,10.4,14.9.1.3.5.3.8.2,7.6-2.1,13.9,5.4,11.4,12.6C5091.6,227.9,5093,227.7,5093.2,227.2Z"/><path class="e" d="M5054.2,208.5h0l.1-4.4a1.11,1.11,0,0,1,1.1-1.1.909.909,0,0,1,.7.3l8.9,8a1.007,1.007,0,0,1,.1,1.5h0l-8.9,8.9a1.088,1.088,0,0,1-1.5,0,1.134,1.134,0,0,1-.3-.8v-4.1h0a13.95,13.95,0,1,0,13.9,14h0a13.746,13.746,0,0,0-5.2-10.8.972.972,0,0,1-.1-1.4l.1-.1,4.7-4.4a.75.75,0,0,1,1.2,0h0a21.932,21.932,0,0,1,7.5,17.4,22.311,22.311,0,1,1-22.3-23Z"/><path class="d" d="M5053.9,208.8h0c.3,0,1-.1,1-.5v-3.8c0-1.3.5-.9,1.2-.2,2.3,2,4.6,4.1,6.9,6.1.7.6,2,1.4,1.3,2.5a15.294,15.294,0,0,1-1.8,1.8l-6.4,6.4a4.617,4.617,0,0,1-.7.7c-.5.1-.5-1-.5-1.3v-2.1c0-.3.2-1.3-.1-1.5-.2-.3-1.7,0-2,0a16.54,16.54,0,0,0-3.2.7,13.624,13.624,0,0,0-5.2,3,14.146,14.146,0,0,0,1.8,22.7A15.173,15.173,0,0,0,5067,238c.2-.4.5-.8.7-1.2a14.244,14.244,0,0,0-1.3-13.7,15.47,15.47,0,0,0-2.4-2.7c-.5-.5-.9-.7-.4-1.5.1-.1.3-.2.4-.4,1.2-1,2.2-2.1,3.4-3.2.1-.1.7-.9.9-.9a9.95,9.95,0,0,0,1,1.1c.5.5,1,1,1.5,1.6a25.47,25.47,0,0,1,4,7,22.374,22.374,0,0,1-.2,15.1,21.558,21.558,0,0,1-23.9,13.6,22.148,22.148,0,0,1-4-42.3,16.228,16.228,0,0,1,7.2-1.7c.4,0,1.5-.7.5-.7a23.573,23.573,0,0,0-21.8,14.8,22.749,22.749,0,0,0,7.5,26,23.73,23.73,0,0,0,26.4.9,22.692,22.692,0,0,0,9.5-26,23.917,23.917,0,0,0-3.9-7.2c-1.1-1.3-2.7-3.8-4.7-2.9a16.676,16.676,0,0,0-2.8,2.5c-.8.7-2.2,1.6-2.7,2.6s.4,1.5,1,2.1a12.159,12.159,0,0,1,2.7,3.6,13.644,13.644,0,0,1,1.5,8.4,12.993,12.993,0,0,1-24.1,5.2,13.864,13.864,0,0,1-.4-14.3,13.5,13.5,0,0,1,5.7-5.4,12.941,12.941,0,0,1,3.8-1.2c.3-.1,1.4-.1,1.4-.2.1.1,0,.9,0,1,0,1-.5,3.4.7,4a2.489,2.489,0,0,0,2.7-.7c2.2-2.1,4.3-4.3,6.4-6.4.8-.7,1.5-1.5,2.2-2.2.7-.9.2-1.6-.5-2.2l-7.1-6.4c-.6-.5-1.3-1.4-2.1-1.5a1.909,1.909,0,0,0-2.2,1.5v4.4a9.283,9.283,0,0,1,1-.5h-.1C5054.1,208.2,5053,208.8,5053.9,208.8Z"/><path class="b" d="M4795.5,181.7v93.9a10.819,10.819,0,0,0,10.9,10.7h131.7a10.819,10.819,0,0,0,10.9-10.7V181.7a10.819,10.819,0,0,0-10.9-10.7H4806.4A10.818,10.818,0,0,0,4795.5,181.7Z"/><g transform="translate(382.682 2090.63)"><path class="e" d="M4412.9-1905.8v93.9a10.819,10.819,0,0,0,10.9,10.7h131.7a10.819,10.819,0,0,0,10.9-10.7v-93.9a10.819,10.819,0,0,0-10.9-10.7H4423.8A10.756,10.756,0,0,0,4412.9-1905.8Z"/><path class="d" d="M4412.2-1905.6v90.8a18.313,18.313,0,0,0,.6,6.6c1.7,4.7,6.2,7.2,11,7.2h123.5c4.9,0,10.7.7,15-2.2,3.5-2.4,4.7-6.1,4.7-10.1v-92.2a11.071,11.071,0,0,0-9.1-11.1,35.414,35.414,0,0,0-4.6-.2H4424.2c-6.3.1-11.9,4.7-12,11.2,0,.2,1.4.1,1.4-.4a10.2,10.2,0,0,1,10.3-10.2h129.2a14.833,14.833,0,0,1,6.9,1.2c4,2.1,5.7,6.1,5.7,10.5v91.7c0,4.9-2.4,9.7-7.5,10.9a18.719,18.719,0,0,1-4.7.2H4424.7a10.714,10.714,0,0,1-10.9-10.5v-94C4413.5-1906.2,4412.2-1906,4412.2-1905.6Z"/></g><rect class="b" width="120.4" height="3.5" transform="translate(4811.3 278.8)"/><path class="d" d="M4930.9,181.3v99.5a3.3,3.3,0,0,0,0,1.4v.2a4.369,4.369,0,0,0,.7-.6H4813a4.3,4.3,0,0,0-1.6,0h-.2a4.232,4.232,0,0,0,.7.5V182.8a3.3,3.3,0,0,0,0-1.4v-.2a4.368,4.368,0,0,0-.7.6h115.5c1.5,0,3.2.1,4.7,0h.2c.8,0,1-1.1.1-1.1H4816.2c-1.5,0-3.2-.1-4.7,0h-.2a.661.661,0,0,0-.7.6v96.8a26.669,26.669,0,0,0,0,4v.2c0,.4.3.5.7.5h115.5c1.5,0,3.2.1,4.7,0h.2a.661.661,0,0,0,.7-.6V185.4a26.669,26.669,0,0,0,0-4v-.2C4932.3,180.5,4930.9,180.6,4930.9,181.3Z"/><g transform="translate(389.254 2146.438)"><path class="b" d="M4414.9-1915a1.269,1.269,0,0,1-.4.9c-.5.1-.9-.6-.9-1,0-.3.2-.9.4-.9.5-.1.9.7.9,1.1,0,.5,1.4.2,1.4-.4-.1-2.3-4.1-1.8-4.1.3,0,2.4,4.1,1.9,4.1-.2C4416.3-1915.8,4414.9-1915.5,4414.9-1915Z"/><g transform="translate(0 0.897)"><path class="f" d="M4414.9-1915a1.42,1.42,0,0,1-.2.6c-.1.2-.1.2-.3.2a1.206,1.206,0,0,1-.8-1.2c0-.3.2-.9.4-.8a1.257,1.257,0,0,1,.9,1.2c0,.3,1.4.1,1.4-.4-.1-2.3-4.1-1.7-4.1.4,0,2.3,4.1,1.7,4.1-.4C4416.3-1915.6,4414.9-1915.4,4414.9-1915Z"/></g></g><g transform="translate(523.937 2141.973)"><g transform="translate(0.061)"><path class="b" d="M4419.2-1912.8c0,1.4.1,2.9,0,4.3a2.773,2.773,0,0,1-2.4,3,2.954,2.954,0,0,1-3.2-2.8v-.2c-.1-1.4,0-2.8,0-4.2a2.937,2.937,0,0,1,2.4-3.1,3.033,3.033,0,0,1,3.2,2.9v.1c.1.7,1.4.5,1.4-.1a4.038,4.038,0,0,0-4.2-3.9,5.026,5.026,0,0,0-1.2.2c-2.5.8-3,2.9-3,5.2,0,2.1-.4,4.4,1.3,6a4.433,4.433,0,0,0,6.2-.7,2.089,2.089,0,0,0,.4-.6c.9-1.7.4-4.3.4-6.1C4420.6-1913.6,4419.2-1913.4,4419.2-1912.8Z"/></g><g transform="translate(0 0.856)"><path class="d" d="M4419.3-1912.8c0,1.4.1,2.9,0,4.3-.1,1.5-.8,2.9-2.4,3a2.954,2.954,0,0,1-3.2-2.8v-.2c-.1-1.4,0-2.8,0-4.2a2.937,2.937,0,0,1,2.4-3.1,2.954,2.954,0,0,1,3.2,2.8v.2c.1.7,1.5.5,1.4-.1a4.116,4.116,0,0,0-4.2-4,5.026,5.026,0,0,0-1.2.2c-2.5.8-3,3-3,5.3,0,2.1-.4,4.4,1.3,6a4.3,4.3,0,0,0,6.1-.6c.2-.2.3-.5.5-.7.9-1.8.4-4.3.4-6.1C4420.7-1913.6,4419.3-1913.4,4419.3-1912.8Z"/></g></g><path class="g" d="M4872.3,201.6h.1v-6.4a1.58,1.58,0,0,1,1.6-1.6,1.16,1.16,0,0,1,1,.4l13,11.6a1.488,1.488,0,0,1,.1,2.2.1.1,0,0,1-.1.1l-13,13a1.57,1.57,0,0,1-2.2,0,1.607,1.607,0,0,1-.5-1.1v-5.9h0a20.408,20.408,0,1,0,12.8,4.6,1.416,1.416,0,0,1-.3-1.9c0-.1.1-.1.1-.2l6.9-6.5a1.391,1.391,0,0,1,1.9,0,32.5,32.5,0,1,1-45.9,2.4,32.87,32.87,0,0,1,24.5-10.7Z"/><g transform="translate(545.869 2136.344)"><g transform="translate(0.066 12.674)"><g transform="translate(0 5.876)"><path class="a" d="M4412.4-1916.3h29.2c.3,0,1.5-.5.9-.5h-29.2c-.3,0-1.6.5-.9.5Z"/></g><g transform="translate(25.225)"><path class="a" d="M4412.2-1916.2l2.8,2.8,1.9,1.9c.2.2,1,.7,1,1-.1-.3.1-.2-.2-.1l-.6.6-1.9,1.9-2.9,2.9c-.4.4,1,.3,1.3,0l5.7-5.7c.1-.1.1-.2,0-.2l-5.8-5.8c-.2,0-1.6.4-1.3.7Z"/></g></g><g transform="translate(1.93 5.662)"><path class="a" d="M4442.3-1916.8h-29.2c-.4,0-1.5.7-.5.7h29.2C4442.3-1916.1,4443.3-1916.8,4442.3-1916.8Z"/></g><path class="a" d="M4418.1-1916.6l-5.8,5.8c-.1.1-.1.2,0,.2l5.7,5.7c.3.3,1.6-.2,1.3-.5l-2.8-2.8-1.9-1.9a4.617,4.617,0,0,0-.7-.7c-.3-.2-.1-.4-.2,0,.1-.3.7-.7,1-1l1.9-1.9,2.9-2.9c.2-.3-1.1-.3-1.4,0Z"/></g><g transform="translate(449.163 2047.307)"><g transform="translate(12.698)"><g transform="translate(5.876 1.945)"><path class="a" d="M4412.7-1886.5v-29.2c0-.3-.5-1.5-.5-.9v29.2c0,.3.5,1.6.5.9Z"/></g><path class="a" d="M4412.8-1909.6l2.8-2.8,1.9-1.9c.2-.2.7-1,1-1-.3.1-.2-.1-.1.2l.6.6,1.9,1.9,2.9,2.9c.4.4.3-1,0-1.3l-5.7-5.7c-.1-.1-.2-.1-.2,0l-5.8,5.8c0,.3.4,1.6.7,1.3Z"/></g><g transform="translate(0 0.046)"><g transform="translate(5.625)"><path class="a" d="M4412.2-1916.4v29.2c0,.4.7,1.5.7.5v-29.2c0-.4-.7-1.5-.7-.5Z"/></g><g transform="translate(0 25.245)"><path class="a" d="M4412.5-1915.4l5.8,5.8c.1.1.2.1.2,0l5.7-5.7c.3-.3-.2-1.6-.5-1.3l-2.8,2.8-1.9,1.9a4.621,4.621,0,0,0-.7.7c-.2.3-.4.1,0,.2-.3-.1-.7-.7-1-1l-1.9-1.9-2.9-2.9c-.5-.3-.3,1.1,0,1.4Z"/></g></g></g><path class="b" d="M4643.3,280.4c-1.5.7-2.1,1.4-1.5,2.2,4.6,6,26.9,5.5,37.7,5.4,13.6-.2,27.7-.2,40-1.8,5.2-.7,16.8-1.4,18.8-3.5,5.5-5.5-31.4-6.5-37.4-6.5C4691.1,276.3,4652,276.8,4643.3,280.4Z"/><path class="c" d="M4652,227.3a9.6,9.6,0,0,1-.6-3.3,9.944,9.944,0,0,1,9.9-10,10.323,10.323,0,0,1,3,.4c1.9-4.7,4.2-9.1,7.9-12.8,7.4-7.2,18.8-10.4,28.6-6.4a30.27,30.27,0,0,1,11.4,8.3,41.177,41.177,0,0,1,4.3,6c.3.5,3.1,6.6,3,6.6a19.7,19.7,0,0,1,3.4-.4c12-.1,21.8,10.2,21.9,23s-9.5,23.3-21.5,23.5a21.033,21.033,0,0,1-15.1-6.4,30.052,30.052,0,0,1-37.3.4,20.931,20.931,0,0,1-15,6.7,2.768,2.768,0,0,1-.9-.1,4.868,4.868,0,0,1-1.2.1,17.838,17.838,0,0,1-1.8-35.6Z"/><path class="d" d="M4651.3,227.2a10.337,10.337,0,0,1,2.6-10.8,10.87,10.87,0,0,1,10.5-2.4c-.2.1-.5.1-.8.2,2.2-5.5,5.1-10.6,9.7-14.5a28.447,28.447,0,0,1,14.1-6.4c11.4-1.8,21.9,4.4,28.2,13.8a54.447,54.447,0,0,1,2.9,5.3l1.2,2.7c.1.3.5.8.4,1.2-.4-.2-.7-.4-1.1-.6,12.3-2.2,23.7,6.7,26,18.7,2.2,11.9-4.7,24.8-16.8,27.7a22.235,22.235,0,0,1-20.5-6.1l1.1.2a30.493,30.493,0,0,1-19.4,6.7,31.939,31.939,0,0,1-19-6.6,4.1,4.1,0,0,1,1.1.1,22.023,22.023,0,0,1-14.8,6.8c-4.9.1-9.5-.5-13.6-3.3a18.118,18.118,0,0,1,8.7-33c.6-.1,1.5.8.5.9a17.814,17.814,0,0,0-15.7,18.4c.5,9.2,8.3,16.8,17.6,16.4a26.175,26.175,0,0,0,8.3-1.3,22.327,22.327,0,0,0,7.7-5.2.91.91,0,0,1,1.1.1,29.4,29.4,0,0,0,18.5,6.1,30.423,30.423,0,0,0,17.8-6.6,1.09,1.09,0,0,1,1.1.2,20.252,20.252,0,0,0,18.1,5.7,21.221,21.221,0,0,0,12.9-8.6,24.28,24.28,0,0,0-2.1-30.4,19.984,19.984,0,0,0-17.8-5.9c-.4.1-1.2-.1-1.1-.6a2.993,2.993,0,0,1-.4-1c-.3-.7-.7-1.5-1-2.2-.5-1.1-1-2.2-1.5-3.2a33.07,33.07,0,0,0-11.4-12.1c-9.2-5.6-20.7-4.1-29,2.2-5,3.8-8,9.2-10.4,14.9-.1.3-.5.3-.8.2-7.6-2.1-13.9,5.4-11.4,12.6C4652.9,227.9,4651.5,227.7,4651.3,227.2Z"/><path class="e" d="M4690.3,208.5h0l.1-4.4a1.11,1.11,0,0,1,1.1-1.1.909.909,0,0,1,.7.3l8.9,8a1.007,1.007,0,0,1,.1,1.5h0l-8.9,8.9a1.088,1.088,0,0,1-1.5,0,1.134,1.134,0,0,1-.3-.8v-4.1h0a13.95,13.95,0,1,0,13.9,14h0a13.746,13.746,0,0,0-5.2-10.8.972.972,0,0,1-.1-1.4l.1-.1,4.7-4.4a.75.75,0,0,1,1.2,0h0a21.932,21.932,0,0,1,7.5,17.4,22.311,22.311,0,1,1-22.3-23Z"/><path class="d" d="M4690,208.8h0c.3,0,1-.1,1-.5v-3.8c0-1.3.5-.9,1.2-.2,2.3,2,4.6,4.1,6.9,6.1.7.6,2,1.4,1.3,2.5a15.294,15.294,0,0,1-1.8,1.8l-6.4,6.4a4.617,4.617,0,0,1-.7.7c-.5.1-.5-1-.5-1.3v-2.1c0-.3.2-1.3-.1-1.5-.2-.3-1.7,0-2,0a16.54,16.54,0,0,0-3.2.7,13.624,13.624,0,0,0-5.2,3,14.146,14.146,0,0,0,1.8,22.7,15.173,15.173,0,0,0,20.8-5.3c.2-.4.5-.8.7-1.2a14.244,14.244,0,0,0-1.3-13.7,15.47,15.47,0,0,0-2.4-2.7c-.5-.5-.9-.7-.4-1.5.1-.1.3-.2.4-.4,1.2-1,2.2-2.1,3.4-3.2.1-.1.7-.9.9-.9a9.95,9.95,0,0,0,1,1.1c.5.5,1,1,1.5,1.6a27.02,27.02,0,0,1,4,7,22.374,22.374,0,0,1-.2,15.1,21.558,21.558,0,0,1-23.9,13.6,22.148,22.148,0,0,1-4-42.3,15.607,15.607,0,0,1,7.2-1.7c.4,0,1.5-.7.5-.7a23.573,23.573,0,0,0-21.8,14.8,22.749,22.749,0,0,0,7.5,26,23.73,23.73,0,0,0,26.4.9,22.692,22.692,0,0,0,9.5-26,23.917,23.917,0,0,0-3.9-7.2c-1.1-1.3-2.7-3.8-4.7-2.9a16.676,16.676,0,0,0-2.8,2.5c-.8.7-2.2,1.6-2.7,2.6s.4,1.5,1,2.1a12.159,12.159,0,0,1,2.7,3.6,13.644,13.644,0,0,1,1.5,8.4,12.993,12.993,0,0,1-24.1,5.2,13.864,13.864,0,0,1-.4-14.3,13.5,13.5,0,0,1,5.7-5.4,12.941,12.941,0,0,1,3.8-1.2c.3-.1,1.4-.1,1.4-.2.1.1,0,.9,0,1,0,1-.5,3.4.7,4a2.489,2.489,0,0,0,2.7-.7c2.2-2.1,4.3-4.3,6.4-6.4.8-.7,1.5-1.5,2.2-2.2.7-.9.2-1.6-.5-2.2l-7.1-6.4c-.6-.5-1.3-1.4-2.1-1.5a1.909,1.909,0,0,0-2.2,1.5v4.4a9.283,9.283,0,0,1,1-.5h-.1C4690.1,208.2,4689,208.8,4690,208.8Z"/><path class="c" d="M4835.4,84.4a9.6,9.6,0,0,1-.6-3.3,9.944,9.944,0,0,1,9.9-10,10.323,10.323,0,0,1,3,.4c1.9-4.7,4.2-9.1,7.9-12.8,7.4-7.4,18.8-10.5,28.6-6.5a30.27,30.27,0,0,1,11.4,8.3,41.178,41.178,0,0,1,4.3,6c.3.5,3.1,6.6,3,6.6a19.7,19.7,0,0,1,3.4-.4c12-.1,21.8,10.2,21.9,23s-9.5,23.3-21.5,23.5a21.033,21.033,0,0,1-15.1-6.4,30.052,30.052,0,0,1-37.3.4,20.931,20.931,0,0,1-15,6.7,2.768,2.768,0,0,1-.9-.1,4.868,4.868,0,0,1-1.2.1,17.786,17.786,0,0,1-1.8-35.5Z"/><path class="d" d="M4834.7,84.3a10.337,10.337,0,0,1,2.6-10.8,10.87,10.87,0,0,1,10.5-2.4c-.2.1-.5.1-.8.2,2.2-5.5,5.1-10.6,9.7-14.5a28.447,28.447,0,0,1,14.1-6.4c11.4-1.8,21.9,4.4,28.2,13.8a54.447,54.447,0,0,1,2.9,5.3l1.2,2.7c.1.3.5.8.4,1.2-.4-.2-.7-.4-1.1-.6,12.3-2.2,23.7,6.7,26,18.7,2.2,11.9-4.7,24.8-16.8,27.7a22.235,22.235,0,0,1-20.5-6.1l1.1.2a30.493,30.493,0,0,1-19.4,6.7,31.939,31.939,0,0,1-19-6.6,4.1,4.1,0,0,1,1.1.1,22.023,22.023,0,0,1-14.8,6.8c-4.9.1-9.5-.5-13.6-3.3a18.118,18.118,0,0,1,8.7-33c.6-.1,1.5.8.5.9a17.814,17.814,0,0,0-15.7,18.4c.5,9.2,8.3,16.8,17.6,16.4a25.739,25.739,0,0,0,8.3-1.3,22.327,22.327,0,0,0,7.7-5.2.91.91,0,0,1,1.1.1,29.4,29.4,0,0,0,18.5,6.1,30.423,30.423,0,0,0,17.8-6.6,1.09,1.09,0,0,1,1.1.2,20.252,20.252,0,0,0,18.1,5.7,21.221,21.221,0,0,0,12.9-8.6,24.28,24.28,0,0,0-2.1-30.4,19.984,19.984,0,0,0-17.8-5.9c-.4.1-1.2-.1-1.1-.6a2.993,2.993,0,0,1-.4-1c-.3-.7-.7-1.5-1-2.2-.5-1.1-1-2.2-1.5-3.2a33.07,33.07,0,0,0-11.4-12.1c-9.2-5.6-20.7-4.1-29,2.2-5,3.8-8,9.2-10.4,14.9-.1.3-.5.3-.8.2-7.6-2.1-13.9,5.4-11.4,12.6C4836.3,85,4834.9,84.8,4834.7,84.3Z"/><path class="e" d="M4873.7,65.7h0l.1-4.4a1.11,1.11,0,0,1,1.1-1.1.909.909,0,0,1,.7.3l8.9,8a1.007,1.007,0,0,1,.1,1.5h0l-8.9,8.9a1.087,1.087,0,0,1-1.5,0,1.134,1.134,0,0,1-.3-.8V74h0a13.95,13.95,0,1,0,13.9,14h0a13.746,13.746,0,0,0-5.2-10.8.972.972,0,0,1-.1-1.4l.1-.1,4.7-4.4a.75.75,0,0,1,1.2,0h0a21.932,21.932,0,0,1,7.5,17.4,22.311,22.311,0,1,1-22.3-23Z"/><path class="d" d="M4873.4,66h0c.3,0,1-.1,1-.5V61.7c0-1.3.5-.9,1.2-.2,2.3,2,4.6,4.1,6.9,6.1.7.6,2,1.4,1.3,2.5a15.294,15.294,0,0,1-1.8,1.8l-6.4,6.4a4.617,4.617,0,0,1-.7.7c-.5.1-.5-1-.5-1.3V75.6c0-.3.2-1.3-.1-1.5-.2-.3-1.7,0-2,0a16.54,16.54,0,0,0-3.2.7,13.623,13.623,0,0,0-5.2,3,14.146,14.146,0,0,0,1.8,22.7,15.173,15.173,0,0,0,20.8-5.3c.2-.4.5-.8.7-1.2a14.244,14.244,0,0,0-1.3-13.7,15.47,15.47,0,0,0-2.4-2.7c-.5-.5-.9-.7-.4-1.5.1-.1.3-.2.4-.4,1.2-1,2.2-2.1,3.4-3.2.1-.1.7-.9.9-.9a9.948,9.948,0,0,0,1,1.1c.5.5,1,1,1.5,1.6a27.02,27.02,0,0,1,4,7,22.374,22.374,0,0,1-.2,15.1,21.558,21.558,0,0,1-23.9,13.6,22.148,22.148,0,0,1-4-42.3,14.46,14.46,0,0,1,7.2-1.7c.4,0,1.5-.7.5-.7a23.573,23.573,0,0,0-21.8,14.8,22.749,22.749,0,0,0,7.5,26,23.73,23.73,0,0,0,26.4.9,22.692,22.692,0,0,0,9.5-26,23.917,23.917,0,0,0-3.9-7.2c-1.1-1.3-2.7-3.8-4.7-2.9a16.675,16.675,0,0,0-2.8,2.5c-.8.7-2.2,1.6-2.7,2.6s.4,1.5,1,2.1a12.159,12.159,0,0,1,2.7,3.6,13.644,13.644,0,0,1,1.5,8.4,12.993,12.993,0,0,1-24.1,5.2,13.864,13.864,0,0,1-.4-14.3,13.5,13.5,0,0,1,5.7-5.4,12.941,12.941,0,0,1,3.8-1.2c.3-.1,1.4-.1,1.4-.2.1.1,0,.9,0,1,0,1-.5,3.4.7,4a2.489,2.489,0,0,0,2.7-.7c2.2-2.1,4.3-4.3,6.4-6.4.8-.7,1.5-1.5,2.2-2.2.7-.9.2-1.6-.5-2.2l-7.1-6.4c-.6-.5-1.3-1.4-2.1-1.5a1.909,1.909,0,0,0-2.2,1.5v4.4a9.283,9.283,0,0,1,1-.5h-.1C4873.5,65.3,4872.5,66,4873.4,66Z"/><g transform="translate(341.73 2136.344)"><g transform="translate(0 12.674)"><g transform="translate(1.945 5.876)"><path class="a" d="M4442.5-1916.3h-29.2c-.3,0-1.5-.5-.9-.5h29.2c.3,0,1.6.5.9.5Z"/></g><path class="a" d="M4419.3-1916.2l-2.8,2.8-1.9,1.9c-.2.2-1,.7-1,1,.1-.3-.1-.2.2-.1l.6.6,1.9,1.9,2.9,2.9c.4.4-1,.3-1.3,0l-5.7-5.7c-.1-.1-.1-.2,0-.2l5.8-5.8c.4,0,1.7.4,1.3.7Z"/></g><g transform="translate(0.046)"><g transform="translate(0 5.662)"><path class="a" d="M4412.6-1916.8h29.2c.4,0,1.5.7.5.7h-29.2c-.4,0-1.5-.7-.5-.7Z"/></g><g transform="translate(25.186)"><path class="a" d="M4413.6-1916.6l5.8,5.8c.1.1.1.2,0,.2l-5.7,5.7c-.3.3-1.6-.2-1.3-.5l2.8-2.8,1.9-1.9a4.617,4.617,0,0,1,.7-.7c.3-.2.1-.4.2,0-.1-.3-.7-.7-1-1l-1.9-1.9-2.9-2.9c-.3-.3,1.1-.3,1.4,0Z"/></g></g></g><g class="h" transform="translate(400 2097)"><path class="c" d="M4531.7-1815.3h-119v-101h119Z"/><path class="i" d="M4531.2-1815.8v-100h-118v100h118m1,1h-120v-102h120Z"/></g><path class="e" d="M4874,203.7h0v-6.5a1.11,1.11,0,0,1,1.1-1.1,1.422,1.422,0,0,1,.6.2l12.2,9.7a1.1,1.1,0,0,1,.2,1.5l-.1.1-12.8,12.5a1.05,1.05,0,0,1-1.8-.7V214c-16.8.2-23.3,12-20.4,26.9,1.3,6.8,7.8,12.2,12.5,14,14.2,5.5,30-6.3,30-19.8,0-5.8-2.1-12.2-5.9-16.1a2.535,2.535,0,0,1,0-3.6l.1-.1,3.3-3.1a2.632,2.632,0,0,1,3.6.1c8.5,8.3,10.6,21.6,5.3,35.4a29.727,29.727,0,0,1-17,16.7c-22.7,8.8-43.2-7.7-43.2-29.2a31.411,31.411,0,0,1,31.3-31.6A4.137,4.137,0,0,0,4874,203.7Z"/><path class="d" d="M4871.8,201.9h.1c.2,0,1.2-.1,1.2-.5v-5.7c0-.9.1-2.3,1.3-1.5a6.469,6.469,0,0,1,.9.8c3.3,3,6.6,6,10,8.9.9.7,3,2.1,2.6,3.4-.3,1-1.8,2.1-2.6,2.8l-9.5,9.5a6.783,6.783,0,0,1-1.2,1.2c-.9.5-1.4-.6-1.5-1.4a29.99,29.99,0,0,1,0-3v-1.7a2.052,2.052,0,0,0,0-1.1c-.3-.5-2.2-.1-2.7-.1a21.621,21.621,0,0,0-4.4,1,21.054,21.054,0,0,0-7.9,4.6,20.545,20.545,0,0,0-1.5,29,23.168,23.168,0,0,0,5.8,4.5c11.7,6.1,27.1-.4,30.5-13.3a20.949,20.949,0,0,0-5.5-19.9c-1-1-2.7-1.9-1.3-3.3.6-.6,1.2-1.2,1.8-1.7.9-.9,1.8-1.7,2.7-2.6a17.96,17.96,0,0,1,2-1.9c.4-.2.3-.4.9,0a14.483,14.483,0,0,1,2.2,2.1,30.51,30.51,0,0,1,3.8,4.9,32.491,32.491,0,0,1,1.6,32.2,31.709,31.709,0,0,1-36.2,16.4,32.517,32.517,0,0,1-3-61.9,31.324,31.324,0,0,1,10.5-1.8c.4,0,1.5-.6.6-.6-13.8.1-26.7,8.6-31.6,21.6a32.992,32.992,0,0,0,11.1,37.6,33.892,33.892,0,0,0,38.5,1,32.715,32.715,0,0,0,7.5-48.6c-1.6-1.9-4-5.4-6.6-3.2-1.5,1.2-2.9,2.7-4.3,4-.9.9-3.5,2.5-3.1,4,.2.7,1,1.1,1.5,1.6a23.958,23.958,0,0,1,2.2,2.3,18.62,18.62,0,0,1,3.1,5.5,19.7,19.7,0,1,1-29.1-10.1,18.61,18.61,0,0,1,5.4-2.4c.8-.2,4.4-1,4.6-.6a4.048,4.048,0,0,1,0,1.1v2a24.3,24.3,0,0,0,0,2.7c.2,2.2,2.9,1.9,4.1.8,3-2.9,5.9-5.9,8.9-8.9,1.3-1.3,2.6-2.5,3.8-3.8a1.908,1.908,0,0,0,.2-2.7,1,1,0,0,0-.5-.4l-10-8.9a13.718,13.718,0,0,0-2.9-2.5,2.629,2.629,0,0,0-2.7.4,2.354,2.354,0,0,0-.8,2.1v5.8c.4-.2.7-.3,1.2-.5h-.1C4872.4,201.2,4871.1,201.9,4871.8,201.9Z"/></g></svg>