<svg xmlns="http://www.w3.org/2000/svg" viewBox="-1308 2960.248 348.322 289.137"><defs><style>.a{fill:#bde0e8;}.b{fill:#f8f8f8;}.c{fill:#fdfdfd;}.d{fill:#fcfcfc;}.e{fill:#e5e5e5;}.f{fill:#2c3e4f;}.g{fill:#96293e;}.h{fill:#ad2e40;}.i{fill:#c92a3e;}</style></defs><g transform="translate(-1537 38)"><g transform="translate(-65 -392.752)"><g transform="translate(294 3315)"><path class="a" d="M165,228.721c-29.424-.467-54.761-10.625-75.31-31.292-20.9-20.9-30.942-46.471-31.292-76.011.817-28.84,10.859-53.827,31.409-74.26,20.9-20.9,46.471-31.292,76.011-31.058,28.957.234,53.943,10.742,74.376,31.292,20.667,20.667,31.058,46,30.941,75.194s-10.508,54.294-31.175,74.96C219.179,218.1,193.842,228.137,165,228.721Z" transform="translate(9.592 2.654)"/><path class="b" d="M192.43,153.733c-.35-1.4-1.751-2.569-2.686-3.853a19.631,19.631,0,0,1-1.751-3.5,36.822,36.822,0,0,0-3.5-5.838c-1.168-1.518-2.569-2.919-2.569-4.9a1.04,1.04,0,0,1,.584-.934,1.66,1.66,0,0,1,.7.234c1.635.934,2.1,3.036,3.386,4.437.7.817,1.635,1.4,2.335,2.218,1.051,1.168,1.284,2.452,1.868,3.736.467,1.051,1.284,1.518,2.218,2.335,1.051.934,1.518,2.218,2.685,3.153a13.993,13.993,0,0,1,1.284,1.4,4.443,4.443,0,0,1,.584,1.751,13.366,13.366,0,0,0,1.751,4.2c.35.7.934.817,1.751.7a3.113,3.113,0,0,0,1.635-.817,11.646,11.646,0,0,1,2.218-1.4,30.6,30.6,0,0,0,7.823-6.072c2.1-2.1,4.554-3.853,6.188-6.305a22.223,22.223,0,0,0,3.5-8.407,2.524,2.524,0,0,0,.117-1.284c-.234-.934-1.284-1.4-2.335-1.635a5.547,5.547,0,0,1-2.8-.7,2.218,2.218,0,0,1-.817-2.452c4.2.7,8.173-.7,11.676-3.153,2.1-1.4,2.569.934,4.554,1.4.584.117,1.284,1.168,1.985,1.518a9.05,9.05,0,0,0,3.5.817,2.106,2.106,0,0,1,1.4.35,3.549,3.549,0,0,1,.584.817,65.78,65.78,0,0,0,4.437,7.94c1.168,1.751,1.751,4.67,3.736,5.721,1.284.7,1.985-.234,2.218-1.284.117-.35.467-.817.817-.7a.626.626,0,0,1,.35.467c.234.7,0,1.635.467,2.218a1.057,1.057,0,0,0,1.168.35c.817-.234,1.051-1.168,1.051-1.868,0-2.569-2.335-5.371-3.036-7.94a23.344,23.344,0,0,1-.467-8.524,46.89,46.89,0,0,1,5.021-16.23.251.251,0,0,1,.234-.234.429.429,0,0,1,.35.117,8.429,8.429,0,0,1,3.036,2.685,21.491,21.491,0,0,1,1.051,2.919c.117.234.234.467.35.467.234,0,.35-.234.467-.467s1.051-2.919,1.051-2.919c1.4,2.685,1.868,5.955,2.685,8.874.7,2.8,2.335,5.137,2.685,8.173a1.816,1.816,0,0,0-2.569,1.635,4.139,4.139,0,0,0,.35,1.284c.117.467.117,1.051.234,1.518.234,1.4.817,2.569,1.168,3.97,1.868,6.539-1.4,13.311-3.736,19.382A110.679,110.679,0,0,1,237.5,198.336c-2.686,2.569-5.488,4.9-8.407,7.239a100.245,100.245,0,0,1-11.559,7.823,97.051,97.051,0,0,1-10.975,5.6q-4.028,1.751-8.056,3.153a100.593,100.593,0,0,1-11.209,3.153c-2.8.584-5.488,1.051-8.29,1.518l-6.305.7c-1.518.117-2.919.117-4.437.234-1.635.117-3.153.117-4.67.117a62.146,62.146,0,0,1-8.056-.467c-2.1-.234-4.2-.467-6.188-.7q-3.853-.525-7.706-1.4a100.6,100.6,0,0,1-11.209-3.153,87.941,87.941,0,0,1-10.392-4.2,106.471,106.471,0,0,1-14.245-8.056,93.772,93.772,0,0,1-9.341-7.122,96.025,96.025,0,0,1-7.122-6.655,107.889,107.889,0,0,1-10.625-12.377,41.544,41.544,0,0,1-3.97-7.006c-.817-1.868-2.335-5.021-1.751-7.006a16.307,16.307,0,0,1,1.051-1.985c1.985-4.2-2.218-9.808-4.2-13.311-2.569-4.437-5.254-8.874-6.305-14.011-.467-2.452-1.051-4.9-1.284-7.356a22.674,22.674,0,0,0-.234-2.8c-.584-1.751-.817-3.5-1.284-5.254a9.151,9.151,0,0,0-.584-1.635,12.866,12.866,0,0,1-.234-2.1c0-2.335-.117-4.67,0-7.122a17.186,17.186,0,0,0,0-2.452,38.016,38.016,0,0,1,.7-7.239,84.684,84.684,0,0,1,1.985-9.107c.35-1.168.584-2.452,1.051-3.62.234-.7.584-1.284.817-2.1a53.1,53.1,0,0,1,3.269-9.107c.817-2.1,1.868-4.2,2.919-6.305a84.512,84.512,0,0,1,4.787-8.29c.467-.817,1.051-1.635,1.518-2.335a.567.567,0,0,1,.7-.35,2.936,2.936,0,0,0,2.685-1.168,8.554,8.554,0,0,1,2.685-1.868c.467-.117.817-.584,1.168-.817a10.275,10.275,0,0,1,.584,1.751.114.114,0,0,0,.117.117c.117.117,1.4-1.751,1.635-1.868a1.227,1.227,0,0,1,1.4,0c.467.35.584,1.4,1.284,1.4a16.707,16.707,0,0,0-1.751,1.284c-.117.117-.234.234-.234.35a.251.251,0,0,0,.234.234l1.4.7a3.311,3.311,0,0,0,1.518.467A1.616,1.616,0,0,0,91.9,62.543a1.972,1.972,0,0,1-1.168-.35c.7-.934.7-2.452,1.518-3.269,1.518-1.518,3.386-1.4,1.985-4.087-.117-.35,1.168-.117,1.284,0,1.051.817-.234,2.8-.584,3.736A4.039,4.039,0,0,0,96.1,57.289a4.17,4.17,0,0,0,2.218,2.452,40.168,40.168,0,0,0-4.554,2.8c-.934,1.168-.7,2.8-.35,4.32a.892.892,0,0,0,.234.584c.467.467,1.168-.234,1.4-.7a33.226,33.226,0,0,1,2.685-4.32c1.985-2.569,4.32-4.9,6.422-7.473,2.335-2.8,4.9-5.254,7.473-7.823a19.093,19.093,0,0,0-2.569-.234c1.051-1.4,2.569-2.218,3.97-3.386a6.679,6.679,0,0,0,2.919-4.2c0-.467-6.422,2.335-6.889,2.569a55.486,55.486,0,0,1-8.524,2.685c5.721-2.8,9.107-9.224,14.945-11.793a6.724,6.724,0,0,1,3.386-.584,3.276,3.276,0,0,1,2.685,1.868,2.856,2.856,0,0,0-2.452,2.569,13.12,13.12,0,0,1,8.173-1.284,2.876,2.876,0,0,0-2.218,1.051c-.7.7-1.284,1.635-2.335,1.751a1.547,1.547,0,0,1-1.518-1.051,25.28,25.28,0,0,0-6.655,7.823c.35-.584.934.234,1.168.234a2.093,2.093,0,0,0,1.518-.584c1.168-.7,2.452-1.518,3.62-2.335a18.4,18.4,0,0,1-1.4,1.751c1.518.234,3.036-.7,4.32-1.635l6.655-4.554a39.82,39.82,0,0,0,5.6-4.32c.467-.467.934-1.284.467-1.751a1.659,1.659,0,0,0-.7-.234,8.8,8.8,0,0,0-4.554.817c-1.051.467-2.218,1.168-3.153.584A12.47,12.47,0,0,1,138.6,31.135l-1.051,1.751a1.025,1.025,0,0,0-.117.817.892.892,0,0,0,.584.234c1.635.117,3.386.35,5.021.467,1.051.117,2.919.35,3.036,1.751-1.868-.7-4.2-1.284-5.838-.117-1.051.7-1.518,1.868-2.335,2.8-1.985,2.569-5.488,3.5-8.407,4.9-.817.467-1.751,1.284-1.4,2.1-1.751-.467-3.62.35-5.137,1.284a24.159,24.159,0,0,0-5.838,5.021c-1.4,1.635-2.685,3.853-2.1,5.955A30.421,30.421,0,0,1,131.6,54.37a20.691,20.691,0,0,0,5.371.117,15.534,15.534,0,0,0,4.67-2.218,64.959,64.959,0,0,0,6.305-4.9,32.512,32.512,0,0,1,3.736-3.036c1.518-.934,3.269-.584,2.686-2.8a7.628,7.628,0,0,1,0-1.635c.117-1.868-2.919-3.853-4.554-3.736a2.36,2.36,0,0,0,1.868-1.985A2.955,2.955,0,0,0,150.4,31.6a5.846,5.846,0,0,0-2.8-1.051c-1.051-.117-3.153-.117-3.269-1.518v-.7c-.234-.584-1.168-.467-1.635,0s-1.051,1.051-1.635.934-.934-.7-1.4-.934c-.934-.7-2.218-.234-3.269.234s-2.335.817-3.269.234a21.608,21.608,0,0,0,5.488-.934,12.677,12.677,0,0,0,3.736-1.985c1.751-1.168,4.32-.7,6.305-1.751.117-.117.35-.234.35-.35s-.117-.234-.234-.35c-1.868-1.051-2.569,0-4.32.234a5.7,5.7,0,0,1-2.452-.35c-.35-.234,1.985-1.4,1.985-1.4a29.6,29.6,0,0,1,3.386-.467c1.635-.234,3.153-.934,4.787-1.284a35.915,35.915,0,0,1,6.188-.467,67.725,67.725,0,0,0,10.859-.584.892.892,0,0,0,.584-.234c.234-.117.234-.467.35-.584a1.816,1.816,0,0,1,.934-.7,6.249,6.249,0,0,1,4.087-.467.916.916,0,0,0-.467,1.4,3.7,3.7,0,0,0,1.4.934c2.452.817,4.9,1.868,7.356,2.919,1.635.584,4.554,1.168,5.137,3.153.35,1.284,4.437,2.8,1.868,4.32a1.588,1.588,0,0,1-1.751,0,11.629,11.629,0,0,1-1.168-1.284c-.35-.234-.7-.467-1.051-.234a.909.909,0,0,0-.35.817,2.08,2.08,0,0,0,1.168,1.868c1.284.7,2.8.117,4.2,0,1.518-.234,3.62.584,3.97,2.218,0,0-1.985.7-2.218.7-.467.234-.817.7-.234,1.168l.7.35a1.314,1.314,0,0,1,0,2.1,2.355,2.355,0,0,1-1.985,0,5.847,5.847,0,0,0-3.736,0,32.89,32.89,0,0,1-8.173,1.168,2,2,0,0,0,1.868,1.518,5.028,5.028,0,0,0,2.569-.467,6.519,6.519,0,0,1,2.569-.35c.35.117.817.467.584.817-.117.117-.234.117-.467.234-.35.234-.117.817.117,1.168a11.661,11.661,0,0,1,2.218,6.655.413.413,0,0,1-.467.467,5.5,5.5,0,0,0-1.985.467,1.961,1.961,0,0,0-.467,2.218c.35,1.284,1.051,4.32,2.8,4.437-1.284-.117-2.685.234-3.97.117-3.036-.117-3.97-2.218-3.853-4.9,0-.7.934-4.9-.7-4.087a5.215,5.215,0,0,0-1.868,2.8,10.6,10.6,0,0,0,.35,4.67,3.251,3.251,0,0,0,1.635,2.218c1.284.584,2.919-.234,4.2.467a.854.854,0,0,1,.35,1.284c-.35.35-1.051.35-1.4.467a12.745,12.745,0,0,0-1.985,1.518c-1.168,1.051-2.452.7-3.853.7a.7.7,0,0,0-.467.117c-.584.467.934,3.036.934,3.036a1.318,1.318,0,0,1-.934-.117c-4.67-2.335-9.808-7.122-15.412-4.32-1.4.7-2.686,1.284-4.087,1.985-.817.467-2.8,1.518-1.985,2.685a12.758,12.758,0,0,1-4.2,4.437c-1.635,1.051-3.5,1.868-4.554,3.62a7.6,7.6,0,0,0-.934,3.269,3.3,3.3,0,0,0,.234,2.1,1.756,1.756,0,0,0,1.635,1.168,3.441,3.441,0,0,0,1.518-.584,1.625,1.625,0,0,1,1.635-.117c.467.234.584,1.168.117,1.284a3.5,3.5,0,0,0-3.853,2.8c-.234,1.168.117,2.685-.934,3.153-.584.35-1.4,0-1.985.117-2.1.234-2.919,3.386-5.021,3.386,1.051,0-.7-6.889-.934-7.589a3.254,3.254,0,0,1-.117-2.1c.234-.467.584-.7.817-1.168.234-.35.234-1.051-.234-1.168-.234-.117-.7-.117-.584-.35a.114.114,0,0,1,.117-.117l1.051-1.051c.35-.35.584-.817.234-1.051-.234-.234-.467-.117-.7,0s-.467.35-.7.467c-.584.234-1.284,0-1.751.35-.117.117-.234.234-.467.117a.429.429,0,0,1-.117-.35c-.117-.234-.584-.117-.817,0a6.663,6.663,0,0,0-1.635,1.518c-.117.234-.35.467-.117.7.117.234.467.117.584.35a1.351,1.351,0,0,0-.817.584c.35,0,.467.467.467.7-.117.35-.35.467-.7.584s-.584.117-.934.234a11.8,11.8,0,0,0-2.686.817c-.467.234-.934.35-1.168.817s-.117.934-.234,1.284c-.234.467-.817.7-1.168,1.168a1.241,1.241,0,0,0,.117,1.635,1.92,1.92,0,0,0,1.168.234,11.5,11.5,0,0,0,1.985-.234,2.948,2.948,0,0,0,2.218-1.284c.234-.35.234-.817.467-1.284s.584-.817,1.051-.7a.446.446,0,0,0,.35.584.96.96,0,0,0,.7-.467c.234.35.117,1.051-.35,1.168-.35.117-.934,0-1.168.35s0,.817-.35,1.168c-.234.35-.7.35-1.051.467a.763.763,0,0,0-.234.934c.117.234.35.35.35.584,0,.35-.35.467-.584.7-.7.35-1.4.584-1.985.934-.117.117-.234.117-.234.234-.117.467,1.751.35,1.985.35.934,0,1.751.117,2.685.117a10.908,10.908,0,0,1,3.97.7,4.313,4.313,0,0,1-1.635.817,1.911,1.911,0,0,1-1.4-.234,1.608,1.608,0,0,0-2.1.234.355.355,0,0,0,0,.467c-.817-.117-1.868-.467-2.569.234a1.242,1.242,0,0,0-.234,1.4c.234.467.7.7.934,1.168a.408.408,0,0,0,.117.234c.117.117.234.35.35.467a4.039,4.039,0,0,1,.467,3.269c-.117.934-.584,2.452-1.635,2.8a1.649,1.649,0,0,1-1.051-.117,22.435,22.435,0,0,1-4.554-1.985c-.934-.467-2.919-.584-3.5.584a1.92,1.92,0,0,0-.234,1.168,7.711,7.711,0,0,1-1.051,3.269,9.962,9.962,0,0,0-1.518,2.919c-.117.934,0,1.868-.584,2.569-.117.117-.35.35-.234.584,0,.117.117.117.234.234a3.923,3.923,0,0,0,1.635.584,2.349,2.349,0,0,1,1.284,1.051,2.388,2.388,0,0,1,0,1.284c-.7,1.985-2.686,2.919-4.32,3.97-2.1,1.284-2.8,3.386-4.67,5.021-1.518,1.284-3.386,1.868-5.137,2.8-5.371,2.8-8.173,9.574-8.874,15.3-.234,1.868-.934,2.8-1.518,4.437-1.751,5.137,3.386,12.026,6.188,16a19.961,19.961,0,0,0,5.021,5.371c2.452,1.635,5.137,1.284,7.823,2.218a17.794,17.794,0,0,0,7.823.817,16.439,16.439,0,0,1,3.386-.117,3.992,3.992,0,0,1,3.036,1.635c.7.934.934,2.218,2.1,2.8a8.176,8.176,0,0,0,4.437.817c-1.168,0,.817,1.284.817,1.284.934.584,1.284.35,1.4,1.518a7.675,7.675,0,0,1-1.635,3.736c-.117.234-.35.467-.467.7-.234.7.35,1.4.934,1.868a31.979,31.979,0,0,1,8.056,12.96,3.031,3.031,0,0,1,.234,1.985,4.408,4.408,0,0,1-1.168,1.4c-3.036,3.153-.817,6.539,1.168,9.458a48.113,48.113,0,0,0,7.94,9.574c3.386,3.269,6.422,3.853,10.975,3.153,3.5-.584,7.122-1.168,10.275-2.8a24.559,24.559,0,0,0,4.787-3.62c1.4-1.284,3.386-2.335,4.67-3.736a2.437,2.437,0,0,0,.584-2.452c-.467-1.168-.234-1.635.934-2.335,2.569-1.518,7.356-3.036,8.757-5.955a6.341,6.341,0,0,0,.117-5.254c-.467-1.518-1.284-2.919-1.4-4.437a8.766,8.766,0,0,1,1.284-5.371c2.452-4.32,6.655-7.006,9.808-10.625a41,41,0,0,0,7.356-12.493c.7-1.985,1.4-3.97.584-6.072a.626.626,0,0,0-.35-.467c-.234-.117-.467.117-.7.234a16.266,16.266,0,0,1-4.32,2.569l-3.853,1.751a3.319,3.319,0,0,1-1.4.467c-1.518.234-2.218-1.4-2.919-2.335a32.2,32.2,0,0,0-3.853-4.2,3.023,3.023,0,0,0-1.284-.817c-.467-.117-1.168.117-1.284.584C192.547,154.551,192.43,154.084,192.43,153.733Z" transform="translate(9.836 2.799)"/><path class="c" d="M150.581,103.711c0,.234-.234.35-.117.7a.776.776,0,0,0,.467.584.7.7,0,0,0,.467.117c.35.234.35.7.584,1.051.35.7,1.4.7,1.868,1.284.117.117.234.35.467.35.117,0,.234-.234.234-.35a5.288,5.288,0,0,1,.35-1.868.968.968,0,0,1,.934-.35,1.839,1.839,0,0,1,.817.817,3.433,3.433,0,0,0,1.4,1.168c.117,0,.234.117.35.117.35,0,.467-.35.467-.7a3.622,3.622,0,0,0-1.051-2.569c-.584-.584-1.284-1.051-1.868-1.635-.467-.35-.934-1.168-1.4-1.518a.893.893,0,0,0,1.051-.234,9.124,9.124,0,0,1,2.335-1.284c0,.35-.35.467-.467.7a.562.562,0,0,0,.467.817c.584,0,.934-.467.817.467,0,.35-.117.7-.117,1.051a2.5,2.5,0,0,0,1.051,1.751.885.885,0,0,0-.467.234c-.117.117-.234.35,0,.467.117.117.35,0,.584,0,.35,0,.584.467.7.817s.934,2.218,1.518,2.1a.251.251,0,0,0,.234-.234l.35-.7a.642.642,0,0,1,.584-.35c.817.234,1.635,1.284,2.569.35.234-.234.35-.584.7-.817a1.289,1.289,0,0,1,.934,0,2.094,2.094,0,0,1,.817.584,2.385,2.385,0,0,0,2.335.117c.934-.35,1.985-1.635,2.919-.467.7.934.35,2.685.117,3.736a18.179,18.179,0,0,1-1.168,4.32,2.1,2.1,0,0,1-.7,1.051c-.584.35-1.518,0-2.1,0a7.082,7.082,0,0,0-3.5.35,4.644,4.644,0,0,1-2.685.7,14.7,14.7,0,0,1-3.153-.467c-1.518-.467-3.036-.817-4.437-1.4s-2.569-1.518-4.2-1.168a2.911,2.911,0,0,0-2.218,2.1c-.117.467,0,.817-.117,1.284-.234.934-1.051.934-1.868.584-.934-.467-1.985-.934-2.919-1.4a2.542,2.542,0,0,1-.934-.584c-.467-.467-.7-1.168-1.168-1.635a4.443,4.443,0,0,0-1.985-.934,17.644,17.644,0,0,1-3.386-1.518c-.467-.234-1.168-.7-1.168-1.284,0-.7.817-.817,1.168-1.284.467-.584,0-1.284-.117-1.868a1.116,1.116,0,0,1,0-1.051c.117-.35.584-.7.584-1.168,0-.35-.467-.584-.817-.7a21.973,21.973,0,0,0-6.188-.817c-3.386-.234-6.889-.934-10.158.117a4.9,4.9,0,0,1-1.868.467,3.6,3.6,0,0,1-1.518-.35c-.467-.117-.934-.35-1.4-.467-.584-.234-1.168-.584-1.051-1.168.117-.467.584-.584.934-.7a20.844,20.844,0,0,1,2.685.234,4.291,4.291,0,0,0,3.853-1.985,15.759,15.759,0,0,1,1.751-3.036,6.659,6.659,0,0,1,2.569-1.284,3.187,3.187,0,0,0,2.1-1.751c.117-.467.117-.934.467-1.168a1.586,1.586,0,0,1,1.868-.234,5.749,5.749,0,0,0,1.985.7c1.4,0,2.452-1.518,3.736-1.168A1.551,1.551,0,0,1,137.5,93.2a.875.875,0,0,0-.117.584c0,.234.117.35.35.467,2.218,1.985,4.67,3.736,6.305,6.072a1.735,1.735,0,0,1,.35,1.635c-.7,1.168-2.686.7-3.853.584-.584-.117-1.635-.234-1.518.7.117.817,3.62,3.62,4.2,2.569.117-.234.117-.584.234-.817.117-.584.7-.934,1.168-1.168a4.482,4.482,0,0,0,1.751-1.518,2.1,2.1,0,0,0,0-1.868.607.607,0,0,1-.234-.467c0-.467.467-.234.7-.117a5.848,5.848,0,0,1,.934.817c.7.7,1.051-.934.7-1.518a6.774,6.774,0,0,0-1.4-1.168,6.691,6.691,0,0,1-1.284-1.284,2.547,2.547,0,0,0-.467-.584c-.234-.117-.467-.117-.7-.234a2.371,2.371,0,0,1-1.4-1.4,13.939,13.939,0,0,0-.934-1.868c-.234-.467-.584-.817-.817-1.284-.117-.35-.117-1.635.467-1.635a.642.642,0,0,1,.584.35c.117.234.117.467.234.584.234.817.817,1.168,1.4,1.751a13.44,13.44,0,0,0,1.635,1.985,14.958,14.958,0,0,0,2.335,1.284c1.518.817,1.284,1.985,1.4,3.5a8.161,8.161,0,0,0,1.051,2.8,4.531,4.531,0,0,1,.7,1.284C150.581,103.594,150.581,103.594,150.581,103.711Z" transform="translate(18.993 14.991)"/><path class="c" d="M168.962,96.88c-1.051-.234-2.218,0-3.153-.7-.117-.117-.35,0-.584,0s-.35-.117-.584-.234c-.467-.35-1.051-.117-1.635-.117A8.474,8.474,0,0,0,159.738,97a5.748,5.748,0,0,1-3.386.7,2.044,2.044,0,0,1-1.635-2.8.408.408,0,0,1,.117-.234c.584-.234.584-.817.584-1.284A1.875,1.875,0,0,1,156,92.093a3.764,3.764,0,0,0,.934-1.635,3.07,3.07,0,0,1,1.051-1.635c.117-.117.35-.234.467-.117a1.268,1.268,0,0,0,1.051.467c.234,0,.35.234.234.467-.117.584.117.934.817,1.168a.74.74,0,0,1,.584.7c0,.35.234.35.467.467a2.459,2.459,0,0,0,1.518-.584,3.637,3.637,0,0,1,2.1-.817,2.253,2.253,0,0,1,1.168.35c1.751.817,3.5,1.751,5.137,2.685s1.168,1.868-.117,2.685C170.714,96.88,169.78,96.647,168.962,96.88Z" transform="translate(25.715 14.816)"/><path class="c" d="M234.55,86.418a3.319,3.319,0,0,1,.467,1.4,12.335,12.335,0,0,0,.7,2.218c.117.117.117.467.467.35a.466.466,0,0,0,.234-.467,13.431,13.431,0,0,0-.934-4.787,11.061,11.061,0,0,1-.817-3.386,41.331,41.331,0,0,0-.934-5.254,29.241,29.241,0,0,0-.817-3.036c0-.117-.234-.234,0-.35.117-.117.35,0,.467.117a5.693,5.693,0,0,1,.35.817,131.026,131.026,0,0,1,4.2,13.077,89.049,89.049,0,0,1,1.985,9.691c.35,2.335.584,4.67.817,7.122.234,2.335.234,4.787.35,7.122.117,2.1-.117,4.32-.117,6.422a8.742,8.742,0,0,1-.234,2.452l-.35-1.751a6.377,6.377,0,0,0-.7-2.1,1.57,1.57,0,0,0-.7-.817,2.442,2.442,0,0,1-1.051-1.985,4.6,4.6,0,0,0-.584-1.635,1.957,1.957,0,0,1-.35-1.4,7.558,7.558,0,0,1-.117-2.8.892.892,0,0,1,.234-.584c.117-.117.234-.35.467-.234.234,0,.234.234.234.467a.552.552,0,0,0,.584.584c.35,0,.467.234.584.584a.428.428,0,0,0,.467.467c.35,0,.35-.35.35-.584a36.586,36.586,0,0,0-.234-6.188,27.42,27.42,0,0,0-.584-4.32,6.646,6.646,0,0,0-2.569-4.2,5.049,5.049,0,0,1-1.518-3.036c-.233-1.168-.35-2.218-.584-3.386C234.433,86.651,234.433,86.418,234.55,86.418Z" transform="translate(38.824 12.201)"/><path class="c" d="M181.065,97.033c0-.467,0-1.051.7-1.168.234,0,.234-.234.234-.467s-.117-.35-.35-.467a16.035,16.035,0,0,1-4.32-3.036,2.094,2.094,0,0,1-.584-.817c-.35-.934-.584-1.868-.934-2.8-.234-.467.117-.817.35-1.051a.706.706,0,0,1,.934,0,2.06,2.06,0,0,1,1.051.934,2.965,2.965,0,0,0,1.168.934,4.571,4.571,0,0,1,1.168.934,3.606,3.606,0,0,0,1.635.817c.467,0,.584.35.584.7a1.735,1.735,0,0,0,.7,1.518c.117.117.234.234.234.35.234,1.284,1.051,2.335,1.4,3.5a2.423,2.423,0,0,0,.7,1.168,2.934,2.934,0,0,1,.7,1.635c.117.584-.467,1.051-1.284,1.168a2.655,2.655,0,0,1-2.1-.35c-.234-.234-.584-.234-.817-.35-.817-.117-1.051-.35-1.051-1.051A12.689,12.689,0,0,1,181.065,97.033Z" transform="translate(29.258 14.547)"/><path class="c" d="M206.167,35.959c-.117,0-.35-.117-.467-.117a1.242,1.242,0,0,0-1.4-.234.772.772,0,0,1-.7-.117c-.234-.117-.35-.234-.117-.467s.117-.467-.117-.584a7.847,7.847,0,0,0-1.4-.7,12.708,12.708,0,0,0-2.8-.817c-.234,0-.35-.117-.584-.117-.117,0-.35-.117-.35.117-.117.234.117.35.234.35a1.5,1.5,0,0,1,.7,1.518c0,.35.117.7.584.467h.467a.373.373,0,0,1,.35.35c.117.234,0,.35-.117.467s-.35,0-.467,0a4.572,4.572,0,0,1-1.168-.934,59.965,59.965,0,0,0-6.422-4.087,39.443,39.443,0,0,1-4.2-3.153,6.662,6.662,0,0,1-1.635-1.518c-.35-.584-1.051-.817-1.751-1.284.584.117,1.051.35,1.518.467,1.518.467,3.036.817,4.554,1.168a9.269,9.269,0,0,1,3.036,1.518,86.327,86.327,0,0,1,8.874,5.488,12.09,12.09,0,0,1,3.386,2.218Z" transform="translate(30.777 4.163)"/><path class="c" d="M151.059,69.134c-.234.117-.234.234-.35.234-1.168.117-1.518.934-1.868,1.868a26.281,26.281,0,0,0-1.051,4.087,2.324,2.324,0,0,1-.934,1.4c-.584.467-1.051.584-1.635.117s-1.4-.117-1.985.234a3.618,3.618,0,0,1-1.985.584.747.747,0,0,1-.817-.584c-.117-.35-.35-.35-.584-.467a.373.373,0,0,1-.35-.35c0-.234.234-.234.35-.234.584-.117,1.051-.234,1.4.35.234.35.584.234.817.117.35-.234,0-.467-.117-.7-.117-.117-.467-.234-.35-.584s.467-.35.7-.35a2.282,2.282,0,0,0,2.218-2.685,1.432,1.432,0,0,1,.934-1.635,2.983,2.983,0,0,0,1.751-1.4.607.607,0,0,1,.467-.234A17.693,17.693,0,0,1,151.059,69.134Z" transform="translate(23.185 11.504)"/><path class="c" d="M183.4,111.317a.607.607,0,0,0,.467.234c.35-.117.117-.817.467-1.051.467.7.934,1.4,1.4,1.985A3.675,3.675,0,0,0,187.721,114c1.518.35,3.386,1.168,5.021.817a4.365,4.365,0,0,0,2.335-1.4c.117-.117.117-.234.234-.234.584-.35,0,.7-.117.7a26.4,26.4,0,0,0-1.868,3.036c-.467.817-.817,1.985-1.751.934a1.748,1.748,0,0,1-1.4,1.635,1,1,0,0,1-.817,0c-.234-.117-.467-.35-.117-.584.234-.117.234-.35.117-.584-.234-.934-.35-1.985-1.518-2.1h-.35c-.467.234,0,.934-.234,1.284-.117.117-.35.234-.467.117a.607.607,0,0,1-.234-.467.408.408,0,0,1,.117-.234.429.429,0,0,0-.117-.35c-.584-.934-1.168-1.868-2.1-2.1-.117,0-.234-.117-.35-.117l-.234-.234c-.234-.35-1.051-.934-1.168-1.4C182.817,112.018,183.517,111.784,183.4,111.317Z" transform="translate(30.425 18.477)"/><path class="d" d="M159.6,17.2c1.985.234,3.97.467,5.955.817,3.269.584,6.422,1.284,9.574,2.1,2.919.817,5.838,1.751,8.64,2.685.117,0,.117.117.234.117s.35.117.234.234c-.117.234-.234.117-.35,0-.234-.117-.35-.234-.584-.234a7.623,7.623,0,0,0-2.335-.584,17.239,17.239,0,0,1-3.153-1.168,36.966,36.966,0,0,0-5.137-1.4c-1.635-.35-3.269-.7-4.9-1.168-.234,0-.35-.117-.467.117-.234.467-.584.35-.934.35a9.836,9.836,0,0,1-4.087-.817,4.58,4.58,0,0,0-2.1-.467C159.95,17.9,159.6,17.784,159.6,17.2Z" transform="translate(26.554 2.839)"/><path class="c" d="M146.1,68.165a1.307,1.307,0,0,1-1.284-1.868,5.28,5.28,0,0,1,2.335-2.685c.234-.117.35-.117.35.117a8.655,8.655,0,0,1,.117,2.452v.467C147.5,67.7,147.033,68.165,146.1,68.165Z" transform="translate(24.059 10.605)"/><path class="c" d="M165.3,158.6c.7,0,.934.35.7.934a1.9,1.9,0,0,1-1.4,1.4.642.642,0,0,0-.584.35c-.234.584-.7.467-1.168.35s-.35-.584-.35-1.051c.117-.584.234-1.051.934-1.284.467-.117.817-.584,1.284-.7Z" transform="translate(27.038 26.539)"/><path class="c" d="M150.41,61.14c0,.467-.35.7-.584.934a6.8,6.8,0,0,1-1.751,1.284c-.117.117-.234.117-.467.117-.117-.117,0-.234,0-.35a2.492,2.492,0,0,1,1.868-2.218.772.772,0,0,1,.7.117C150.293,60.907,150.41,61.024,150.41,61.14Z" transform="translate(24.535 10.157)"/><path class="d" d="M93.317,38.274c.234.35,0,.7-.234,1.051a16.908,16.908,0,0,1-2.1,1.985c-.117.117-.35.35-.467.117-.234-.234,0-.35.117-.584a8.175,8.175,0,0,1,1.635-1.868c.234-.35.584-.7.817-1.051a.513.513,0,0,1,.584-.117c.234.117.35.234.234.467C93.667,38.624,93.433,38.157,93.317,38.274Z" transform="translate(14.958 6.285)"/><path class="c" d="M163.753,89.407c-.467,0-.934,0-1.051-.467s.35-.7.817-.817a1.27,1.27,0,0,1,.584-.117.59.59,0,0,1,.817.467c.117.467,0,.7-.467.817A1.481,1.481,0,0,1,163.753,89.407Z" transform="translate(27.071 14.7)"/><path class="d" d="M184.274,25.156a2.165,2.165,0,0,1-.817-.234c-.934-.234-1.868-.7-2.919-1.051-.117,0-.35-.117-.234-.35s.234-.117.35-.117a24.215,24.215,0,0,1,3.853,1.168c.117,0,.35.117.35.234C184.741,25.039,184.625,25.039,184.274,25.156Z" transform="translate(30.019 3.874)"/><path class="d" d="M150.12,71.824a1.052,1.052,0,0,1-.117.584c-.234.467-.467.467-.817.117l-.467-.467c-.117-.234-.234-.584,0-.817a.426.426,0,0,1,.584-.234,1.053,1.053,0,0,1,.7.7A.114.114,0,0,1,150.12,71.824Z" transform="translate(24.708 11.85)"/><path class="d" d="M130.707,29.97c-.234-.7.467-1.284,1.284-1.168.234,0,.35.117.584.234.35.117.35.35.117.7a1.455,1.455,0,0,1-1.284.467c0-.234.35-.234.467-.584C131.29,29.386,131.29,29.386,130.707,29.97Z" transform="translate(21.704 4.781)"/><path class="d" d="M123.555,26.05c-.117.234-.234.584-.584.584a2.306,2.306,0,0,0-1.284.7c-.117.117-.234.35-.467.117-.234-.117-.117-.35,0-.467A7.228,7.228,0,0,1,123.2,25.7.31.31,0,0,1,123.555,26.05Z" transform="translate(20.098 4.264)"/><path class="d" d="M166.132,174.5a3.873,3.873,0,0,1,0-2.569.251.251,0,0,1,.234-.234c.117,0,.117.117.117.234A5.083,5.083,0,0,1,166.132,174.5Z" transform="translate(27.611 28.734)"/><path class="e" d="M190.969,171.727v.584a.654.654,0,0,1-.584.7c-.7,0-.584.467-.584.817a.858.858,0,0,1-.467.934c-.117,0-.117.117-.117.234a46.451,46.451,0,0,1-3.97,6.539,16.707,16.707,0,0,1-1.284,1.751,6.139,6.139,0,0,1-4.32,2.1c-1.985.35-1.4,0-1.635-1.4a2.94,2.94,0,0,1,1.168-2.919,2.319,2.319,0,0,0,.817-2.1,3.979,3.979,0,0,1,.35-2.569,2.053,2.053,0,0,1,1.4-1.168,9.124,9.124,0,0,0,3.386-1.635,24.846,24.846,0,0,0,3.036-3.036,9.334,9.334,0,0,1,1.518-1.518c.467-.467.817-.35,1.051.234A17.419,17.419,0,0,1,190.969,171.727Z" transform="translate(29.629 28.24)"/><path class="e" d="M123.686,58.143h-1.051a1.987,1.987,0,0,1-.817-.117,9.7,9.7,0,0,1-1.518-1.635c.117-.35,1.518-.35.817-1.168-.117-.117-.467-.234-.35-.467,0-.234.35-.234.584-.117.234,0,.467,0,.467-.234V54.29c-.234-1.051,1.635-1.985,1.985-.7.117.7.117.7.817.817a8.375,8.375,0,0,1,2.452.584c.934.584.584,1.518,0,2.218C126.255,58.26,124.854,58.143,123.686,58.143Z" transform="translate(19.967 8.834)"/><path class="e" d="M145.6,44a3.232,3.232,0,0,1,.117-1.051c.817-1.4,3.62-1.168,4.787-.584.817.35.234,1.168-.584,1.168-.467,0-.7.117-.467.7.234.35.7.817.7,1.284,0,.584-.7,1.051-1.051.467-.234-.234-.117-.7-.234-.934a.114.114,0,0,0-.117-.117c-.117-.117-.234,0-.35.117-.117.234-1.284,2.335-1.751,1.985-.117-.117-.117-.234-.234-.35A10.25,10.25,0,0,1,145.6,44Z" transform="translate(24.207 6.98)"/><path class="e" d="M134.413,26.525c-.35.234-2.569.934-2.8.234-.584-1.868,2.569-2.218,3.736-2.335a9.274,9.274,0,0,1,2.569-.117c1.4.234.234,1.284-.7,1.4-.467.117-1.051-.117-1.518,0a15.319,15.319,0,0,1-1.751.35Z" transform="translate(21.851 4.022)"/><path class="e" d="M158.87,40.8c-.117.234.234.467.35.467a1.276,1.276,0,0,1-1.518-.584,1.186,1.186,0,0,1-.584,1.168,2.914,2.914,0,0,1-1.985.117.251.251,0,0,1-.234-.234v-.117a1.41,1.41,0,0,1,.817-.817.585.585,0,0,1,.7.584c0,.117,0,.35.234.35.35,0,.467-.584.467-.817v-.7c0-.117-.117-.584.117-.7h.234c.584.117,1.284.584,1.751,0,.117,0,.117-.117.234-.117s.35.35.234.467c0,.117-.234.117-.234.234-.117.117,0,.35-.117.467-.234.117-.35.117-.467.234Z" transform="translate(25.766 6.56)"/><path class="e" d="M134.651,28.317h-.234c-.35,0-.817,0-.817-.35s.467-.234.817-.35A11.328,11.328,0,0,1,136.4,27.5c.117,0,.35,0,.35.117,0,.234-.117.234-.234.234A8.55,8.55,0,0,1,134.651,28.317Z" transform="translate(22.196 4.566)"/><path class="e" d="M163.417,53.5q.525,0,.7.7a.673.673,0,0,1-.7.7,1,1,0,0,1-.817-.7A1,1,0,0,1,163.417,53.5Z" transform="translate(27.057 8.923)"/><path class="e" d="M131.851,95.737c0-.7.117-1.4.817-1.635.584-.234,0,2.335,0,2.569,0,1.051.35,2.335-.35,3.269-.234.234-1.051.7-1.4.35a.429.429,0,0,1-.117-.35c0-.934.117-1.751.117-2.685a.429.429,0,0,1,.117-.35.7.7,0,0,1,.467-.117C132.084,96.554,131.851,95.97,131.851,95.737Z" transform="translate(21.727 15.726)"/><path class="e" d="M161.307,107.309a.858.858,0,0,1-.7-.234.52.52,0,0,1,.234-.7c.234-.234.467-.7,1.051-.467a.883.883,0,0,0,.467-.117c.35-.117.584-.35.934-.467.117-.117.35-.234.467-.117.117.234,0,.35-.117.467-.35.234-.234.7-.467.934a2.305,2.305,0,0,1-1.635.7Z" transform="translate(26.715 17.582)"/><path class="e" d="M150.02,106.105a11.987,11.987,0,0,1,2.8.584c.117,0,.35.117.35.234,0,.234-.234.234-.35.234a11.988,11.988,0,0,1-2.919-.117c-.234,0-.817-.117-.7-.467C149.2,105.872,149.669,106.105,150.02,106.105Z" transform="translate(24.809 17.734)"/><path class="e" d="M125.5,96.9a.833.833,0,0,1-.817.934c-.467,0-.584-.35-.584-.7a1,1,0,0,1,.934-.934C125.384,96.2,125.5,96.434,125.5,96.9Z" transform="translate(20.604 16.08)"/><path class="e" d="M144.6,72.981a1.725,1.725,0,0,1,.817-1.868.219.219,0,0,1,.35,0c.117.117,0,.234,0,.35A3.793,3.793,0,0,1,144.6,72.981Z" transform="translate(24.036 11.861)"/><path class="a" d="M204.274,23.23c36.312,14.945,62,49.506,65.5,88.621a106.779,106.779,0,0,1-44.369,96.211c-31.175,22.068-73.092,24.987-107.186,7.94a106.121,106.121,0,0,1-8.407-185.182,108.781,108.781,0,0,1,13.194-6.889c1.4-.584.117-.934-.7-.584C85.295,39.459,59.724,75.3,57.623,115.7a107.287,107.287,0,0,0,49.156,95.744c31.876,20.316,73.209,22.068,106.836,4.9a107.924,107.924,0,0,0,58.38-88.037C274.68,88.032,253.78,48.683,218.635,28.6a106.562,106.562,0,0,0-12.727-6.188c-.467-.35-2.335.467-1.635.817Z" transform="translate(9.436 3.699)"/><g transform="translate(0 0)"><g transform="translate(55.597)"><path class="f" d="M262.175,186.343a310.807,310.807,0,0,1,18.8,27.088c3.736,6.188,7.473,12.61,9.574,19.616.817,2.8,2.1,7.94-.817,10.041-2.1,1.518-5.371.467-7.589-.117a62.958,62.958,0,0,1-12.844-5.6c-5.721-3.153-11.326-6.655-16.7-10.275a485.476,485.476,0,0,1-43.435-33.744,987.343,987.343,0,0,1-99.6-98.079c-12.844-14.6-25.337-29.657-36.663-45.3C65.317,39.576,57.611,28.6,52.59,16.691c-1.518-3.5-5.838-14.712,1.168-15.412C58.895.811,64.733,3.847,69.17,6.065c8.524,4.2,16.463,9.574,24.286,14.945,4.67,3.269,9.224,6.655,13.778,10.158.584.467,2.452-.35,1.985-.817C100.228,23.463,91,16.807,81.43,10.852,74.891,7,68.236,3.146,61,1.045c-3.5-1.051-8.173-1.868-11.209.7C47.8,3.5,47.569,6.3,47.919,8.751a41.233,41.233,0,0,0,4.2,12.26,149.632,149.632,0,0,0,9.341,16.23C71.505,52.769,83.181,67.481,95.091,81.609A972.348,972.348,0,0,0,197.606,185.993a549.717,549.717,0,0,0,47.4,38.064c10.275,7.239,21.134,14.945,33.043,19.149,4.787,1.751,14.245,3.853,15.412-3.62.817-5.254-2.1-10.975-4.2-15.529-4.087-8.524-9.341-16.463-14.712-24.169-3.386-4.9-6.889-9.574-10.508-14.362-.35-.584-2.335.234-1.868.817Z" transform="translate(-47.784 -0.037)"/></g><g transform="translate(49.091 1.693)"><path class="f" d="M229.949,31.159a329.577,329.577,0,0,1,27.088-18.8c6.072-3.736,12.61-7.589,19.616-9.341,2.919-.817,7.239-1.284,8.874,1.985,1.284,2.569.467,5.721-.234,8.29-3.036,10.742-9.808,20.55-15.879,29.657-10.275,15.062-21.834,29.307-33.627,43.2A982,982,0,0,1,137.358,186.1c-14.6,12.844-29.54,25.337-45.186,36.663-10.508,7.589-21.484,15.412-33.51,20.316-4.554,1.868-13.894,5.021-14.362-2.8-.35-5.371,2.569-11.092,4.9-15.646,4.087-8.29,9.224-16,14.478-23.586,3.386-4.9,6.889-9.574,10.508-14.245.467-.584-1.635-.234-1.868.117a331.268,331.268,0,0,0-19.5,27.906c-3.853,6.305-7.706,12.96-9.691,20.083-.934,3.153-1.868,7.94,1.051,10.275,2.1,1.635,5.254,1.4,7.706.934a46.353,46.353,0,0,0,12.377-4.554,157.439,157.439,0,0,0,16.58-9.691c15.3-9.925,29.657-21.367,43.668-33.16A957.483,957.483,0,0,0,229.248,95.845a573.688,573.688,0,0,0,37.48-46.587c7.473-10.392,15.3-21.484,19.616-33.627,1.868-5.137,3.736-13.778-4.2-14.128-5.254-.234-10.625,2.218-15.3,4.437a172.416,172.416,0,0,0-24.286,14.712Q235.2,25.73,228.2,31.159c-.7.467,1.284.233,1.751,0Z" transform="translate(-42.212 -1.487)"/></g><g transform="translate(0 109.128)"><path class="f" d="M286.385,95.018a323.635,323.635,0,0,1,33.16,5.955c6.889,1.635,14.128,3.62,20.433,7.006,2.685,1.4,7.006,4.087,6.188,7.706-.584,2.569-3.269,4.2-5.254,5.488a64.8,64.8,0,0,1-13.194,5.254c-6.305,1.868-12.727,3.269-19.149,4.554-17.981,3.5-36.312,5.371-54.644,6.889a998.506,998.506,0,0,1-142.331,1.168c-19.616-1.168-39.231-2.919-58.614-5.955-13.077-1.985-26.5-4.32-38.881-9.107-3.853-1.518-14.945-5.838-11.209-11.793,2.685-4.32,9.107-6.305,13.661-7.823a186.546,186.546,0,0,1,26.5-6.422q8.932-1.576,17.864-2.8c1.168-.117,1.635-1.635.234-1.4a329.359,329.359,0,0,0-33.744,6.072c-7.122,1.751-14.6,3.736-20.9,7.473-2.8,1.635-6.772,4.437-6.305,8.173.35,2.685,2.685,4.67,4.787,5.955a49.618,49.618,0,0,0,12.493,5.488,156.97,156.97,0,0,0,19.382,4.9c18.448,3.736,37.247,5.721,55.928,7.356A1010.733,1010.733,0,0,0,240.849,140.2a577.108,577.108,0,0,0,60.132-6.539c12.61-2.1,25.8-4.437,37.6-9.691,4.67-2.1,13.427-7.122,8.407-13.194-3.269-3.97-9.107-6.072-13.895-7.706-8.991-3.153-18.331-5.021-27.672-6.772-5.955-1.051-12.026-1.985-18.1-2.8-1.168,0-2.335,1.284-.934,1.518Z" transform="translate(-0.168 -93.5)"/></g></g><g transform="translate(32.38 107.376)"><circle class="g" cx="5.838" cy="5.838" r="5.838"/><ellipse class="h" cx="5.254" cy="5.371" rx="5.254" ry="5.371" transform="translate(0.934 0.934)"/></g><g transform="translate(191.863 121.747)"><circle class="g" cx="7.356" cy="7.356" r="7.356" transform="translate(0 10.097) rotate(-43.339)"/><path class="i" d="M6.655,0a6.714,6.714,0,0,1,6.655,6.772,6.714,6.714,0,0,1-6.655,6.772A6.714,6.714,0,0,1,0,6.772,6.714,6.714,0,0,1,6.655,0Z" transform="matrix(0.101, -0.995, 0.995, 0.101, 2.336, 16.679)"/></g><g transform="translate(270.042 40.309)"><circle class="g" cx="4.203" cy="4.203" r="4.203" transform="matrix(0.462, -0.887, 0.887, 0.462, 0, 7.456)"/><ellipse class="h" cx="3.853" cy="3.736" rx="3.853" ry="3.736" transform="translate(1.12 2.825) rotate(-7.874)"/></g><circle class="g" cx="6.305" cy="6.305" r="6.305" transform="translate(92.862 13.15)"/><path class="i" d="M5.6,0a5.664,5.664,0,0,1,5.6,5.721,5.664,5.664,0,0,1-5.6,5.721A5.664,5.664,0,0,1,0,5.721,5.664,5.664,0,0,1,5.6,0Z" transform="translate(93.913 14.318)"/><g transform="translate(250.388 220.31)"><circle class="g" cx="4.087" cy="4.087" r="4.087" transform="translate(1.502 1.375)"/><ellipse class="h" cx="3.736" cy="3.853" rx="3.736" ry="3.853" transform="translate(0 3.899) rotate(-31.455)"/></g><g transform="translate(108.508 87.177)"><circle class="g" cx="9.341" cy="9.341" r="9.341"/><circle class="i" cx="8.757" cy="8.757" r="8.757" transform="translate(0.934 1.284)"/></g><g transform="translate(89.921 215.6)"><circle class="g" cx="5.955" cy="5.955" r="5.955" transform="translate(0 11.437) rotate(-73.794)"/><circle class="i" cx="5.604" cy="5.604" r="5.604" transform="translate(2.124 1.414)"/></g><g transform="translate(290.551 137.384)"><circle class="g" cx="9.107" cy="9.107" r="9.107" transform="translate(0 3.062) rotate(-9.677)"/><circle class="i" cx="8.524" cy="8.524" r="8.524" transform="translate(1.388 2.218)"/></g></g><path class="e" d="M750.3,376.324c2.244.7,3.142,1.462,2.154,2.353-6.822,6.3-39.675,5.786-55.653,5.659-20.017-.191-40.932-.191-59.064-1.908-7.63-.7-24.775-1.462-27.827-3.624-8.168-5.723,46.408-6.8,55.2-6.8C679.831,372.064,737.459,372.509,750.3,376.324Z" transform="translate(-212.326 3219.737)"/></g></g></svg>